<svg width="288" height="61" viewBox="0 0 288 61" fill="none" xmlns="http://www.w3.org/2000/svg">
<rect width="253.689" height="61" rx="30" fill="#1C1C1C"/>
<path d="M57.1164 43.9091V25.9091H59.605V28.0312H59.8181C59.9658 27.7585 60.1789 27.4432 60.4573 27.0852C60.7357 26.7273 61.1221 26.4148 61.6164 26.1477C62.1107 25.875 62.7641 25.7386 63.5766 25.7386C64.6334 25.7386 65.5766 26.0057 66.4062 26.5398C67.2357 27.0739 67.8863 27.8437 68.3579 28.8494C68.8351 29.8551 69.0738 31.0653 69.0738 32.4801C69.0738 33.8949 68.838 35.108 68.3664 36.1193C67.8948 37.125 67.2471 37.9006 66.4232 38.446C65.5993 38.9858 64.659 39.2557 63.6022 39.2557C62.8067 39.2557 62.1562 39.1222 61.6505 38.8551C61.1505 38.5881 60.7584 38.2756 60.4743 37.9176C60.1903 37.5597 59.9715 37.2415 59.8181 36.9631H59.6647V43.9091H57.1164ZM59.6135 32.4545C59.6135 33.375 59.7471 34.1818 60.0141 34.875C60.2812 35.5682 60.6675 36.1108 61.1732 36.5028C61.6789 36.8892 62.2982 37.0824 63.0312 37.0824C63.7925 37.0824 64.4289 36.8807 64.9403 36.4773C65.4516 36.0682 65.838 35.5142 66.0993 34.8153C66.3664 34.1165 66.4999 33.3295 66.4999 32.4545C66.4999 31.5909 66.3692 30.8153 66.1079 30.1278C65.8522 29.4403 65.4658 28.8977 64.9488 28.5C64.4374 28.1023 63.7982 27.9034 63.0312 27.9034C62.2925 27.9034 61.6675 28.0937 61.1562 28.4744C60.6505 28.8551 60.267 29.3864 60.0056 30.0682C59.7442 30.75 59.6135 31.5455 59.6135 32.4545ZM74.4772 31.2273V39H71.9289V21.5455H74.4431V28.0398H74.605C74.9118 27.3352 75.3806 26.7756 76.0113 26.3608C76.642 25.946 77.4658 25.7386 78.4829 25.7386C79.3806 25.7386 80.1647 25.9233 80.8351 26.2926C81.5113 26.6619 82.034 27.2131 82.4033 27.946C82.7783 28.6733 82.9658 29.5824 82.9658 30.6733V39H80.4175V30.9801C80.4175 30.0199 80.1704 29.2756 79.676 28.7472C79.1817 28.2131 78.4942 27.946 77.6135 27.946C77.0113 27.946 76.4715 28.0739 75.9942 28.3295C75.5226 28.5852 75.1505 28.9602 74.8778 29.4545C74.6107 29.9432 74.4772 30.5341 74.4772 31.2273ZM91.8806 39.2642C90.6533 39.2642 89.5823 38.983 88.6675 38.4205C87.7528 37.858 87.0425 37.071 86.5368 36.0597C86.0312 35.0483 85.7783 33.8665 85.7783 32.5142C85.7783 31.1562 86.0312 29.9687 86.5368 28.9517C87.0425 27.9347 87.7528 27.1449 88.6675 26.5824C89.5823 26.0199 90.6533 25.7386 91.8806 25.7386C93.1079 25.7386 94.1789 26.0199 95.0937 26.5824C96.0084 27.1449 96.7187 27.9347 97.2243 28.9517C97.73 29.9687 97.9829 31.1562 97.9829 32.5142C97.9829 33.8665 97.73 35.0483 97.2243 36.0597C96.7187 37.071 96.0084 37.858 95.0937 38.4205C94.1789 38.983 93.1079 39.2642 91.8806 39.2642ZM91.8891 37.125C92.6846 37.125 93.3437 36.9148 93.8664 36.4943C94.3891 36.0739 94.7755 35.5142 95.0255 34.8153C95.2812 34.1165 95.409 33.3466 95.409 32.5057C95.409 31.6705 95.2812 30.9034 95.0255 30.2045C94.7755 29.5 94.3891 28.9347 93.8664 28.5085C93.3437 28.0824 92.6846 27.8693 91.8891 27.8693C91.088 27.8693 90.4232 28.0824 89.8948 28.5085C89.3721 28.9347 88.9829 29.5 88.7272 30.2045C88.4772 30.9034 88.3522 31.6705 88.3522 32.5057C88.3522 33.3466 88.4772 34.1165 88.7272 34.8153C88.9829 35.5142 89.3721 36.0739 89.8948 36.4943C90.4232 36.9148 91.088 37.125 91.8891 37.125ZM103.376 31.2273V39H100.827V25.9091H103.273V28.0398H103.435C103.736 27.3466 104.208 26.7898 104.85 26.3693C105.498 25.9489 106.313 25.7386 107.296 25.7386C108.188 25.7386 108.969 25.9261 109.64 26.3011C110.31 26.6705 110.83 27.2216 111.199 27.9545C111.569 28.6875 111.753 29.5937 111.753 30.6733V39H109.205V30.9801C109.205 30.0312 108.958 29.2898 108.464 28.7557C107.969 28.2159 107.29 27.946 106.427 27.946C105.836 27.946 105.31 28.0739 104.85 28.3295C104.396 28.5852 104.035 28.9602 103.768 29.4545C103.506 29.9432 103.376 30.5341 103.376 31.2273ZM120.813 39.2642C119.523 39.2642 118.413 38.9886 117.481 38.4375C116.555 37.8807 115.839 37.0994 115.333 36.0938C114.833 35.0824 114.583 33.8977 114.583 32.5398C114.583 31.1989 114.833 30.017 115.333 28.9943C115.839 27.9716 116.543 27.1733 117.447 26.5994C118.356 26.0256 119.418 25.7386 120.634 25.7386C121.373 25.7386 122.089 25.8608 122.782 26.1051C123.475 26.3494 124.097 26.733 124.648 27.2557C125.199 27.7784 125.634 28.4574 125.952 29.2926C126.271 30.1222 126.43 31.1307 126.43 32.3182V33.2216H116.023V31.3125H123.932C123.932 30.642 123.796 30.0483 123.523 29.5312C123.251 29.0085 122.867 28.5966 122.373 28.2955C121.884 27.9943 121.31 27.8438 120.651 27.8438C119.935 27.8438 119.31 28.0199 118.776 28.3722C118.248 28.7187 117.839 29.1733 117.549 29.7358C117.265 30.2926 117.123 30.8977 117.123 31.5511V33.0426C117.123 33.9176 117.276 34.6619 117.583 35.2756C117.896 35.8892 118.33 36.358 118.887 36.6818C119.444 37 120.094 37.1591 120.839 37.1591C121.322 37.1591 121.762 37.0909 122.16 36.9545C122.557 36.8125 122.901 36.6023 123.191 36.3239C123.481 36.0455 123.702 35.7017 123.856 35.2926L126.268 35.7273C126.074 36.4375 125.728 37.0597 125.228 37.5938C124.734 38.1222 124.111 38.5341 123.361 38.8295C122.617 39.1193 121.768 39.2642 120.813 39.2642ZM138.157 31.2273V39H135.609V25.9091H138.055V28.0398H138.217C138.518 27.3466 138.989 26.7898 139.631 26.3693C140.279 25.9489 141.094 25.7386 142.077 25.7386C142.969 25.7386 143.751 25.9261 144.421 26.3011C145.092 26.6705 145.611 27.2216 145.981 27.9545C146.35 28.6875 146.535 29.5937 146.535 30.6733V39H143.986V30.9801C143.986 30.0312 143.739 29.2898 143.245 28.7557C142.751 28.2159 142.072 27.946 141.208 27.946C140.617 27.946 140.092 28.0739 139.631 28.3295C139.177 28.5852 138.816 28.9602 138.549 29.4545C138.288 29.9432 138.157 30.5341 138.157 31.2273ZM158.245 33.571V25.9091H160.802V39H158.296V36.733H158.16C157.859 37.4318 157.376 38.0142 156.711 38.4801C156.052 38.9403 155.231 39.1705 154.248 39.1705C153.407 39.1705 152.663 38.9858 152.015 38.6165C151.373 38.2415 150.867 37.6875 150.498 36.9545C150.134 36.2216 149.952 35.3153 149.952 34.2358V25.9091H152.501V33.929C152.501 34.821 152.748 35.5312 153.242 36.0597C153.736 36.5881 154.378 36.8523 155.168 36.8523C155.646 36.8523 156.12 36.733 156.592 36.4943C157.069 36.2557 157.464 35.8949 157.776 35.4119C158.094 34.929 158.251 34.3153 158.245 33.571ZM164.226 39V25.9091H166.672V28.0398H166.834C167.106 27.3182 167.552 26.7557 168.172 26.3523C168.791 25.9432 169.533 25.7386 170.396 25.7386C171.271 25.7386 172.004 25.9432 172.595 26.3523C173.192 26.7614 173.632 27.3239 173.916 28.0398H174.052C174.365 27.3409 174.862 26.7841 175.544 26.3693C176.226 25.9489 177.038 25.7386 177.981 25.7386C179.169 25.7386 180.138 26.1108 180.888 26.8551C181.643 27.5994 182.021 28.7216 182.021 30.2216V39H179.473V30.4602C179.473 29.5739 179.231 28.9318 178.748 28.5341C178.266 28.1364 177.689 27.9375 177.018 27.9375C176.189 27.9375 175.544 28.1932 175.084 28.7045C174.623 29.2102 174.393 29.8608 174.393 30.6562V39H171.854V30.2983C171.854 29.5881 171.632 29.017 171.189 28.5852C170.746 28.1534 170.169 27.9375 169.459 27.9375C168.976 27.9375 168.53 28.0653 168.121 28.321C167.717 28.571 167.391 28.9205 167.141 29.3693C166.896 29.8182 166.774 30.3381 166.774 30.929V39H164.226ZM185.641 39V21.5455H188.19V28.0312H188.343C188.491 27.7585 188.704 27.4432 188.982 27.0852C189.261 26.7273 189.647 26.4148 190.141 26.1477C190.636 25.875 191.289 25.7386 192.101 25.7386C193.158 25.7386 194.101 26.0057 194.931 26.5398C195.761 27.0739 196.411 27.8437 196.883 28.8494C197.36 29.8551 197.599 31.0653 197.599 32.4801C197.599 33.8949 197.363 35.108 196.891 36.1193C196.42 37.125 195.772 37.9006 194.948 38.446C194.124 38.9858 193.184 39.2557 192.127 39.2557C191.332 39.2557 190.681 39.1222 190.175 38.8551C189.675 38.5881 189.283 38.2756 188.999 37.9176C188.715 37.5597 188.496 37.2415 188.343 36.9631H188.13V39H185.641ZM188.138 32.4545C188.138 33.375 188.272 34.1818 188.539 34.875C188.806 35.5682 189.192 36.1108 189.698 36.5028C190.204 36.8892 190.823 37.0824 191.556 37.0824C192.317 37.0824 192.954 36.8807 193.465 36.4773C193.976 36.0682 194.363 35.5142 194.624 34.8153C194.891 34.1165 195.025 33.3295 195.025 32.4545C195.025 31.5909 194.894 30.8153 194.633 30.1278C194.377 29.4403 193.991 28.8977 193.474 28.5C192.962 28.1023 192.323 27.9034 191.556 27.9034C190.817 27.9034 190.192 28.0937 189.681 28.4744C189.175 28.8551 188.792 29.3864 188.53 30.0682C188.269 30.75 188.138 31.5455 188.138 32.4545ZM206.102 39.2642C204.812 39.2642 203.702 38.9886 202.77 38.4375C201.844 37.8807 201.128 37.0994 200.622 36.0938C200.122 35.0824 199.872 33.8977 199.872 32.5398C199.872 31.1989 200.122 30.017 200.622 28.9943C201.128 27.9716 201.832 27.1733 202.736 26.5994C203.645 26.0256 204.707 25.7386 205.923 25.7386C206.662 25.7386 207.378 25.8608 208.071 26.1051C208.764 26.3494 209.386 26.733 209.937 27.2557C210.489 27.7784 210.923 28.4574 211.241 29.2926C211.56 30.1222 211.719 31.1307 211.719 32.3182V33.2216H201.312V31.3125H209.222C209.222 30.642 209.085 30.0483 208.812 29.5312C208.54 29.0085 208.156 28.5966 207.662 28.2955C207.173 27.9943 206.599 27.8438 205.94 27.8438C205.224 27.8438 204.599 28.0199 204.065 28.3722C203.537 28.7187 203.128 29.1733 202.838 29.7358C202.554 30.2926 202.412 30.8977 202.412 31.5511V33.0426C202.412 33.9176 202.565 34.6619 202.872 35.2756C203.185 35.8892 203.619 36.358 204.176 36.6818C204.733 37 205.383 37.1591 206.128 37.1591C206.611 37.1591 207.051 37.0909 207.449 36.9545C207.847 36.8125 208.19 36.6023 208.48 36.3239C208.77 36.0455 208.991 35.7017 209.145 35.2926L211.557 35.7273C211.364 36.4375 211.017 37.0597 210.517 37.5938C210.023 38.1222 209.4 38.5341 208.65 38.8295C207.906 39.1193 207.057 39.2642 206.102 39.2642ZM214.546 39V25.9091H217.009V27.9886H217.146C217.384 27.2841 217.805 26.7301 218.407 26.3267C219.015 25.9176 219.702 25.7131 220.469 25.7131C220.628 25.7131 220.816 25.7187 221.032 25.7301C221.253 25.7415 221.427 25.7557 221.552 25.7727V28.2102C221.449 28.1818 221.268 28.1506 221.006 28.1165C220.745 28.0767 220.484 28.0568 220.222 28.0568C219.62 28.0568 219.083 28.1847 218.611 28.4403C218.146 28.6903 217.776 29.0398 217.503 29.4886C217.231 29.9318 217.094 30.4375 217.094 31.0057V39H214.546Z" fill="#5BBCFF"/>
</svg>
