<svg width="59" height="52" viewBox="0 0 59 52" fill="none" xmlns="http://www.w3.org/2000/svg">
<rect x="0.5" y="0.5" width="58" height="51" stroke="black"/>
<rect x="0.5" y="0.5" width="58" height="51" stroke="black" stroke-opacity="0.2"/>
<rect x="0.5" y="0.5" width="58" height="51" stroke="black" stroke-opacity="0.2"/>
<path d="M52.2567 23.751C53.4219 25.0944 53.4219 26.9079 52.2567 28.249C48.5864 32.4719 39.7806 41.1667 29.4999 41.1667C19.2191 41.1667 10.4134 32.4719 6.74309 28.249C6.17616 27.6058 5.86841 26.8145 5.86841 26C5.86841 25.1856 6.17616 24.3943 6.74309 23.751C10.4134 19.5282 19.2191 10.8334 29.4999 10.8334C39.7806 10.8334 48.5864 19.5282 52.2567 23.751Z" stroke="black" stroke-width="2" stroke-linecap="round" stroke-linejoin="round"/>
<path d="M29.5 32.5C33.5731 32.5 36.875 29.5899 36.875 26C36.875 22.4101 33.5731 19.5 29.5 19.5C25.4269 19.5 22.125 22.4101 22.125 26C22.125 29.5899 25.4269 32.5 29.5 32.5Z" stroke="black" stroke-width="2" stroke-linecap="round" stroke-linejoin="round"/>
</svg>
