<svg width="59" height="47" viewBox="0 0 59 47" fill="none" xmlns="http://www.w3.org/2000/svg">
<path d="M22.9683 36.7814L18.2188 35.767L20.1535 30.0115C17.2576 29.1605 14.5661 27.9206 12.1959 26.3455L6.90311 30.5637L3.42703 27.7946L8.71982 23.5764C5.73067 20.7246 3.72225 17.3034 2.89111 13.6476L7.72911 12.9446C8.65701 17.0058 11.3445 20.6788 15.3232 23.3235C19.3019 25.9682 24.3195 27.4167 29.5013 27.4167C34.6832 27.4167 39.7008 25.9682 43.6795 23.3235C47.6582 20.6788 50.3457 17.0058 51.2736 12.9446L56.1116 13.6457C55.28 17.3023 53.2707 20.7242 50.2804 23.5764L55.5757 27.7946L52.0996 30.5637L46.8043 26.3455C44.4341 27.9206 41.7426 29.1605 38.8467 30.0115L40.7839 35.769L36.0344 36.7814L34.0972 31.0239C31.0547 31.4394 27.9456 31.4394 24.903 31.0239L22.9683 36.7814Z" fill="black"/>
</svg>
