<svg width="120" height="17" viewBox="0 0 120 17" fill="none" xmlns="http://www.w3.org/2000/svg">
<mask id="path-1-outside-1_86_11035" maskUnits="userSpaceOnUse" x="-1" y="-1" width="122" height="19" fill="black">
<rect fill="white" x="-1" y="-1" width="122" height="19"/>
<path d="M12.6719 8.72727C12.6719 10.2282 12.4115 11.5398 11.8906 12.6619C11.3698 13.7794 10.6454 14.6482 9.71733 15.2685C8.79403 15.8887 7.72869 16.1989 6.52131 16.1989C5.30919 16.1989 4.23911 15.8887 3.31108 15.2685C2.38778 14.6435 1.66572 13.7723 1.14489 12.6548C0.624053 11.5327 0.363636 10.2235 0.363636 8.72727C0.363636 7.22633 0.624053 5.91714 1.14489 4.79972C1.67045 3.68229 2.39489 2.81345 3.31818 2.19318C4.24148 1.56818 5.30919 1.25568 6.52131 1.25568C7.72869 1.25568 8.79403 1.56581 9.71733 2.18608C10.6454 2.80634 11.3698 3.67756 11.8906 4.79972C12.4115 5.91714 12.6719 7.22633 12.6719 8.72727ZM11.8054 8.72727C11.8054 7.37784 11.5781 6.20833 11.1236 5.21875C10.6738 4.22917 10.0511 3.46449 9.25568 2.92472C8.46023 2.38021 7.54877 2.10795 6.52131 2.10795C5.49384 2.10795 4.58239 2.37784 3.78693 2.91761C2.99148 3.45265 2.36648 4.21733 1.91193 5.21165C1.46212 6.20123 1.23722 7.37311 1.23722 8.72727C1.23722 10.0672 1.45975 11.2344 1.90483 12.2287C2.35464 13.2183 2.97727 13.9853 3.77273 14.5298C4.56818 15.0743 5.48438 15.3466 6.52131 15.3466C7.54877 15.3466 8.46023 15.0767 9.25568 14.5369C10.0511 13.9924 10.6738 13.2254 11.1236 12.2358C11.5781 11.2462 11.8054 10.0767 11.8054 8.72727ZM22.8246 12.1293V5.09091H23.6911V16H22.8246V14.2315H22.7536C22.4979 14.795 22.0836 15.2543 21.5107 15.6094C20.9425 15.9645 20.2701 16.142 19.4936 16.142C18.7786 16.142 18.1465 15.9858 17.5973 15.6733C17.0481 15.3608 16.6172 14.9181 16.3047 14.3452C15.9922 13.7675 15.8359 13.081 15.8359 12.2855V5.09091H16.7024V12.25C16.7024 13.1591 16.977 13.8954 17.5263 14.4588C18.0803 15.0175 18.7952 15.2969 19.6712 15.2969C20.2393 15.2969 20.7625 15.169 21.2408 14.9134C21.719 14.6577 22.1025 14.2931 22.3913 13.8196C22.6802 13.3414 22.8246 12.7779 22.8246 12.1293ZM31.1378 5.09091V5.86506H26.3722V5.09091H31.1378ZM27.9844 2.47727H28.8438V13.4219C28.8438 13.867 28.929 14.2315 29.0994 14.5156C29.2746 14.795 29.5019 15.0033 29.7812 15.1406C30.0653 15.2732 30.3684 15.3395 30.6903 15.3395C30.8466 15.3395 30.9815 15.3277 31.0952 15.304C31.2135 15.2803 31.3248 15.2495 31.429 15.2116L31.642 16C31.5095 16.0473 31.3627 16.0876 31.2017 16.1207C31.0407 16.1586 30.8513 16.1776 30.6335 16.1776C30.179 16.1776 29.7481 16.0758 29.3409 15.8722C28.9384 15.6686 28.6117 15.3726 28.3608 14.9844C28.1098 14.5961 27.9844 14.1274 27.9844 13.5781V2.47727ZM38.4709 5.09091V5.86506H33.6342V5.09091H38.4709ZM35.2251 16V3.39347C35.2251 2.84422 35.3506 2.37547 35.6016 1.98722C35.8525 1.59896 36.1816 1.30303 36.5888 1.09943C37.0007 0.895833 37.4434 0.794034 37.9169 0.794034C38.1679 0.794034 38.3809 0.81534 38.5561 0.857954C38.736 0.895833 38.8923 0.940814 39.0249 0.992898L38.7692 1.75994C38.6603 1.72206 38.5419 1.68892 38.4141 1.66051C38.291 1.6321 38.1442 1.6179 37.9737 1.6179C37.4245 1.6179 36.9723 1.78598 36.6172 2.12216C36.2621 2.45833 36.0845 2.92708 36.0845 3.52841L36.0774 16H35.2251ZM41.2106 16V5.09091H42.07V16H41.2106ZM41.6438 3.15909C41.4544 3.15909 41.2887 3.0928 41.1467 2.96023C41.0094 2.82765 40.9407 2.66667 40.9407 2.47727C40.9407 2.28788 41.0094 2.12689 41.1467 1.99432C41.284 1.86174 41.4497 1.79545 41.6438 1.79545C41.8332 1.79545 41.9966 1.86174 42.1339 1.99432C42.2759 2.12689 42.3469 2.28788 42.3469 2.47727C42.3469 2.66667 42.2783 2.82765 42.141 2.96023C42.0037 3.0928 41.8379 3.15909 41.6438 3.15909ZM49.5558 5.09091V5.86506H44.7901V5.09091H49.5558ZM46.4023 2.47727H47.2617V13.4219C47.2617 13.867 47.3469 14.2315 47.5174 14.5156C47.6926 14.795 47.9199 15.0033 48.1992 15.1406C48.4833 15.2732 48.7863 15.3395 49.1083 15.3395C49.2646 15.3395 49.3995 15.3277 49.5131 15.304C49.6315 15.2803 49.7428 15.2495 49.8469 15.2116L50.06 16C49.9274 16.0473 49.7807 16.0876 49.6197 16.1207C49.4587 16.1586 49.2693 16.1776 49.0515 16.1776C48.5969 16.1776 48.1661 16.0758 47.7589 15.8722C47.3564 15.6686 47.0297 15.3726 46.7788 14.9844C46.5278 14.5961 46.4023 14.1274 46.4023 13.5781V2.47727ZM70.2695 8.72727C70.2695 10.2282 70.0091 11.5398 69.4883 12.6619C68.9674 13.7794 68.243 14.6482 67.315 15.2685C66.3917 15.8887 65.3263 16.1989 64.119 16.1989C62.9068 16.1989 61.8368 15.8887 60.9087 15.2685C59.9854 14.6435 59.2634 13.7723 58.7425 12.6548C58.2217 11.5327 57.9613 10.2235 57.9613 8.72727C57.9613 7.22633 58.2217 5.91714 58.7425 4.79972C59.2681 3.68229 59.9925 2.81345 60.9158 2.19318C61.8391 1.56818 62.9068 1.25568 64.119 1.25568C65.3263 1.25568 66.3917 1.56581 67.315 2.18608C68.243 2.80634 68.9674 3.67756 69.4883 4.79972C70.0091 5.91714 70.2695 7.22633 70.2695 8.72727ZM69.4031 8.72727C69.4031 7.37784 69.1758 6.20833 68.7212 5.21875C68.2714 4.22917 67.6488 3.46449 66.8533 2.92472C66.0579 2.38021 65.1464 2.10795 64.119 2.10795C63.0915 2.10795 62.18 2.37784 61.3846 2.91761C60.5891 3.45265 59.9641 4.21733 59.5096 5.21165C59.0598 6.20123 58.8349 7.37311 58.8349 8.72727C58.8349 10.0672 59.0574 11.2344 59.5025 12.2287C59.9523 13.2183 60.5749 13.9853 61.3704 14.5298C62.1658 15.0743 63.082 15.3466 64.119 15.3466C65.1464 15.3466 66.0579 15.0767 66.8533 14.5369C67.6488 13.9924 68.2714 13.2254 68.7212 12.2358C69.1758 11.2462 69.4031 10.0767 69.4031 8.72727ZM77.5529 5.09091V5.86506H72.7163V5.09091H77.5529ZM74.3072 16V3.39347C74.3072 2.84422 74.4326 2.37547 74.6836 1.98722C74.9345 1.59896 75.2636 1.30303 75.6708 1.09943C76.0827 0.895833 76.5254 0.794034 76.9989 0.794034C77.2499 0.794034 77.4629 0.81534 77.6381 0.857954C77.8181 0.895833 77.9743 0.940814 78.1069 0.992898L77.8512 1.75994C77.7423 1.72206 77.6239 1.68892 77.4961 1.66051C77.373 1.6321 77.2262 1.6179 77.0558 1.6179C76.5065 1.6179 76.0543 1.78598 75.6992 2.12216C75.3441 2.45833 75.1665 2.92708 75.1665 3.52841L75.1594 16H74.3072ZM80.2926 16V5.09091H81.152V16H80.2926ZM80.7259 3.15909C80.5365 3.15909 80.3707 3.0928 80.2287 2.96023C80.0914 2.82765 80.0227 2.66667 80.0227 2.47727C80.0227 2.28788 80.0914 2.12689 80.2287 1.99432C80.366 1.86174 80.5317 1.79545 80.7259 1.79545C80.9152 1.79545 81.0786 1.86174 81.2159 1.99432C81.358 2.12689 81.429 2.28788 81.429 2.47727C81.429 2.66667 81.3603 2.82765 81.223 2.96023C81.0857 3.0928 80.92 3.15909 80.7259 3.15909ZM88.8722 16.2273C87.9441 16.2273 87.1274 15.9834 86.4219 15.4957C85.7164 15.0033 85.1648 14.331 84.767 13.4787C84.3741 12.6264 84.1776 11.6605 84.1776 10.581C84.1776 9.50142 84.3764 8.53551 84.7741 7.68324C85.1719 6.83097 85.7235 6.15862 86.429 5.66619C87.1345 5.17377 87.9465 4.92756 88.8651 4.92756C89.5563 4.92756 90.1861 5.0696 90.7543 5.35369C91.3272 5.63778 91.8007 6.03314 92.1747 6.53977C92.5535 7.0464 92.795 7.63352 92.8991 8.30114H92.0185C91.8764 7.5625 91.5213 6.9517 90.9531 6.46875C90.3897 5.98106 89.696 5.73722 88.8722 5.73722C88.1335 5.73722 87.4754 5.94555 86.8977 6.36222C86.3201 6.77415 85.8655 7.3447 85.5341 8.07386C85.2027 8.7983 85.0369 9.62926 85.0369 10.5668C85.0369 11.4901 85.1979 12.3187 85.5199 13.0526C85.8419 13.7817 86.2917 14.3594 86.8693 14.7855C87.447 15.2116 88.1146 15.4247 88.8722 15.4247C89.4072 15.4247 89.8949 15.3182 90.3352 15.1051C90.7803 14.892 91.152 14.589 91.4503 14.196C91.7486 13.803 91.9451 13.3438 92.0398 12.8182H92.9205C92.8163 13.4905 92.5795 14.0824 92.2102 14.5938C91.8409 15.1051 91.3698 15.5052 90.7969 15.794C90.224 16.0829 89.5824 16.2273 88.8722 16.2273ZM95.9176 16V5.09091H96.777V16H95.9176ZM96.3509 3.15909C96.1615 3.15909 95.9957 3.0928 95.8537 2.96023C95.7164 2.82765 95.6477 2.66667 95.6477 2.47727C95.6477 2.28788 95.7164 2.12689 95.8537 1.99432C95.991 1.86174 96.1567 1.79545 96.3509 1.79545C96.5402 1.79545 96.7036 1.86174 96.8409 1.99432C96.983 2.12689 97.054 2.28788 97.054 2.47727C97.054 2.66667 96.9853 2.82765 96.848 2.96023C96.7107 3.0928 96.545 3.15909 96.3509 3.15909ZM101.273 8.92614V16H100.406V5.09091H101.251V6.81676H101.337C101.592 6.25331 102.002 5.80114 102.565 5.46023C103.129 5.11932 103.799 4.94886 104.575 4.94886C105.309 4.94886 105.953 5.10511 106.507 5.41761C107.066 5.73011 107.501 6.17519 107.814 6.75284C108.131 7.32576 108.29 8.00994 108.29 8.8054V16H107.423V8.84091C107.423 7.91288 107.146 7.16714 106.592 6.60369C106.043 6.03551 105.316 5.75142 104.412 5.75142C103.806 5.75142 103.266 5.884 102.793 6.14915C102.319 6.4143 101.947 6.78598 101.678 7.2642C101.408 7.73769 101.273 8.29167 101.273 8.92614ZM114.781 16.2344C114.152 16.2344 113.574 16.1089 113.048 15.858C112.527 15.607 112.108 15.2401 111.791 14.7571C111.479 14.2741 111.322 13.687 111.322 12.9957C111.322 12.5412 111.403 12.1411 111.564 11.7955C111.725 11.4498 111.973 11.1515 112.31 10.9006C112.646 10.6496 113.077 10.4437 113.602 10.2827C114.128 10.117 114.755 9.98911 115.484 9.89915C116.038 9.83286 116.533 9.76894 116.969 9.70739C117.404 9.6411 117.745 9.5393 117.991 9.40199C118.242 9.26468 118.368 9.05634 118.368 8.77699V8.32244C118.368 7.52699 118.117 6.89489 117.615 6.42614C117.113 5.95739 116.422 5.72301 115.541 5.72301C114.76 5.72301 114.102 5.89583 113.567 6.24148C113.036 6.58239 112.665 7.02273 112.452 7.5625L111.635 7.2571C111.843 6.73627 112.144 6.30303 112.537 5.95739C112.935 5.61174 113.389 5.35369 113.901 5.18324C114.417 5.01278 114.956 4.92756 115.52 4.92756C116.008 4.92756 116.472 4.99621 116.912 5.13352C117.357 5.27083 117.752 5.47917 118.098 5.75852C118.448 6.03788 118.725 6.39536 118.929 6.83097C119.133 7.26184 119.234 7.77794 119.234 8.37926V16H118.368V14.0327H118.304C118.115 14.4399 117.854 14.8116 117.523 15.1477C117.196 15.4792 116.801 15.7443 116.337 15.9432C115.877 16.1373 115.359 16.2344 114.781 16.2344ZM114.866 15.4318C115.548 15.4318 116.152 15.2661 116.678 14.9347C117.208 14.5985 117.622 14.1392 117.92 13.5568C118.219 12.9744 118.368 12.3139 118.368 11.5753V9.97017C118.259 10.0649 118.1 10.1501 117.892 10.2259C117.688 10.2969 117.456 10.3608 117.196 10.4176C116.94 10.4697 116.67 10.517 116.386 10.5597C116.107 10.5975 115.835 10.633 115.57 10.6662C114.774 10.7609 114.125 10.9077 113.624 11.1065C113.126 11.3007 112.762 11.5563 112.53 11.8736C112.303 12.1908 112.189 12.5743 112.189 13.0241C112.189 13.7675 112.445 14.3546 112.956 14.7855C113.467 15.2164 114.104 15.4318 114.866 15.4318Z"/>
</mask>
<path d="M12.6719 8.72727C12.6719 10.2282 12.4115 11.5398 11.8906 12.6619C11.3698 13.7794 10.6454 14.6482 9.71733 15.2685C8.79403 15.8887 7.72869 16.1989 6.52131 16.1989C5.30919 16.1989 4.23911 15.8887 3.31108 15.2685C2.38778 14.6435 1.66572 13.7723 1.14489 12.6548C0.624053 11.5327 0.363636 10.2235 0.363636 8.72727C0.363636 7.22633 0.624053 5.91714 1.14489 4.79972C1.67045 3.68229 2.39489 2.81345 3.31818 2.19318C4.24148 1.56818 5.30919 1.25568 6.52131 1.25568C7.72869 1.25568 8.79403 1.56581 9.71733 2.18608C10.6454 2.80634 11.3698 3.67756 11.8906 4.79972C12.4115 5.91714 12.6719 7.22633 12.6719 8.72727ZM11.8054 8.72727C11.8054 7.37784 11.5781 6.20833 11.1236 5.21875C10.6738 4.22917 10.0511 3.46449 9.25568 2.92472C8.46023 2.38021 7.54877 2.10795 6.52131 2.10795C5.49384 2.10795 4.58239 2.37784 3.78693 2.91761C2.99148 3.45265 2.36648 4.21733 1.91193 5.21165C1.46212 6.20123 1.23722 7.37311 1.23722 8.72727C1.23722 10.0672 1.45975 11.2344 1.90483 12.2287C2.35464 13.2183 2.97727 13.9853 3.77273 14.5298C4.56818 15.0743 5.48438 15.3466 6.52131 15.3466C7.54877 15.3466 8.46023 15.0767 9.25568 14.5369C10.0511 13.9924 10.6738 13.2254 11.1236 12.2358C11.5781 11.2462 11.8054 10.0767 11.8054 8.72727ZM22.8246 12.1293V5.09091H23.6911V16H22.8246V14.2315H22.7536C22.4979 14.795 22.0836 15.2543 21.5107 15.6094C20.9425 15.9645 20.2701 16.142 19.4936 16.142C18.7786 16.142 18.1465 15.9858 17.5973 15.6733C17.0481 15.3608 16.6172 14.9181 16.3047 14.3452C15.9922 13.7675 15.8359 13.081 15.8359 12.2855V5.09091H16.7024V12.25C16.7024 13.1591 16.977 13.8954 17.5263 14.4588C18.0803 15.0175 18.7952 15.2969 19.6712 15.2969C20.2393 15.2969 20.7625 15.169 21.2408 14.9134C21.719 14.6577 22.1025 14.2931 22.3913 13.8196C22.6802 13.3414 22.8246 12.7779 22.8246 12.1293ZM31.1378 5.09091V5.86506H26.3722V5.09091H31.1378ZM27.9844 2.47727H28.8438V13.4219C28.8438 13.867 28.929 14.2315 29.0994 14.5156C29.2746 14.795 29.5019 15.0033 29.7812 15.1406C30.0653 15.2732 30.3684 15.3395 30.6903 15.3395C30.8466 15.3395 30.9815 15.3277 31.0952 15.304C31.2135 15.2803 31.3248 15.2495 31.429 15.2116L31.642 16C31.5095 16.0473 31.3627 16.0876 31.2017 16.1207C31.0407 16.1586 30.8513 16.1776 30.6335 16.1776C30.179 16.1776 29.7481 16.0758 29.3409 15.8722C28.9384 15.6686 28.6117 15.3726 28.3608 14.9844C28.1098 14.5961 27.9844 14.1274 27.9844 13.5781V2.47727ZM38.4709 5.09091V5.86506H33.6342V5.09091H38.4709ZM35.2251 16V3.39347C35.2251 2.84422 35.3506 2.37547 35.6016 1.98722C35.8525 1.59896 36.1816 1.30303 36.5888 1.09943C37.0007 0.895833 37.4434 0.794034 37.9169 0.794034C38.1679 0.794034 38.3809 0.81534 38.5561 0.857954C38.736 0.895833 38.8923 0.940814 39.0249 0.992898L38.7692 1.75994C38.6603 1.72206 38.5419 1.68892 38.4141 1.66051C38.291 1.6321 38.1442 1.6179 37.9737 1.6179C37.4245 1.6179 36.9723 1.78598 36.6172 2.12216C36.2621 2.45833 36.0845 2.92708 36.0845 3.52841L36.0774 16H35.2251ZM41.2106 16V5.09091H42.07V16H41.2106ZM41.6438 3.15909C41.4544 3.15909 41.2887 3.0928 41.1467 2.96023C41.0094 2.82765 40.9407 2.66667 40.9407 2.47727C40.9407 2.28788 41.0094 2.12689 41.1467 1.99432C41.284 1.86174 41.4497 1.79545 41.6438 1.79545C41.8332 1.79545 41.9966 1.86174 42.1339 1.99432C42.2759 2.12689 42.3469 2.28788 42.3469 2.47727C42.3469 2.66667 42.2783 2.82765 42.141 2.96023C42.0037 3.0928 41.8379 3.15909 41.6438 3.15909ZM49.5558 5.09091V5.86506H44.7901V5.09091H49.5558ZM46.4023 2.47727H47.2617V13.4219C47.2617 13.867 47.3469 14.2315 47.5174 14.5156C47.6926 14.795 47.9199 15.0033 48.1992 15.1406C48.4833 15.2732 48.7863 15.3395 49.1083 15.3395C49.2646 15.3395 49.3995 15.3277 49.5131 15.304C49.6315 15.2803 49.7428 15.2495 49.8469 15.2116L50.06 16C49.9274 16.0473 49.7807 16.0876 49.6197 16.1207C49.4587 16.1586 49.2693 16.1776 49.0515 16.1776C48.5969 16.1776 48.1661 16.0758 47.7589 15.8722C47.3564 15.6686 47.0297 15.3726 46.7788 14.9844C46.5278 14.5961 46.4023 14.1274 46.4023 13.5781V2.47727ZM70.2695 8.72727C70.2695 10.2282 70.0091 11.5398 69.4883 12.6619C68.9674 13.7794 68.243 14.6482 67.315 15.2685C66.3917 15.8887 65.3263 16.1989 64.119 16.1989C62.9068 16.1989 61.8368 15.8887 60.9087 15.2685C59.9854 14.6435 59.2634 13.7723 58.7425 12.6548C58.2217 11.5327 57.9613 10.2235 57.9613 8.72727C57.9613 7.22633 58.2217 5.91714 58.7425 4.79972C59.2681 3.68229 59.9925 2.81345 60.9158 2.19318C61.8391 1.56818 62.9068 1.25568 64.119 1.25568C65.3263 1.25568 66.3917 1.56581 67.315 2.18608C68.243 2.80634 68.9674 3.67756 69.4883 4.79972C70.0091 5.91714 70.2695 7.22633 70.2695 8.72727ZM69.4031 8.72727C69.4031 7.37784 69.1758 6.20833 68.7212 5.21875C68.2714 4.22917 67.6488 3.46449 66.8533 2.92472C66.0579 2.38021 65.1464 2.10795 64.119 2.10795C63.0915 2.10795 62.18 2.37784 61.3846 2.91761C60.5891 3.45265 59.9641 4.21733 59.5096 5.21165C59.0598 6.20123 58.8349 7.37311 58.8349 8.72727C58.8349 10.0672 59.0574 11.2344 59.5025 12.2287C59.9523 13.2183 60.5749 13.9853 61.3704 14.5298C62.1658 15.0743 63.082 15.3466 64.119 15.3466C65.1464 15.3466 66.0579 15.0767 66.8533 14.5369C67.6488 13.9924 68.2714 13.2254 68.7212 12.2358C69.1758 11.2462 69.4031 10.0767 69.4031 8.72727ZM77.5529 5.09091V5.86506H72.7163V5.09091H77.5529ZM74.3072 16V3.39347C74.3072 2.84422 74.4326 2.37547 74.6836 1.98722C74.9345 1.59896 75.2636 1.30303 75.6708 1.09943C76.0827 0.895833 76.5254 0.794034 76.9989 0.794034C77.2499 0.794034 77.4629 0.81534 77.6381 0.857954C77.8181 0.895833 77.9743 0.940814 78.1069 0.992898L77.8512 1.75994C77.7423 1.72206 77.6239 1.68892 77.4961 1.66051C77.373 1.6321 77.2262 1.6179 77.0558 1.6179C76.5065 1.6179 76.0543 1.78598 75.6992 2.12216C75.3441 2.45833 75.1665 2.92708 75.1665 3.52841L75.1594 16H74.3072ZM80.2926 16V5.09091H81.152V16H80.2926ZM80.7259 3.15909C80.5365 3.15909 80.3707 3.0928 80.2287 2.96023C80.0914 2.82765 80.0227 2.66667 80.0227 2.47727C80.0227 2.28788 80.0914 2.12689 80.2287 1.99432C80.366 1.86174 80.5317 1.79545 80.7259 1.79545C80.9152 1.79545 81.0786 1.86174 81.2159 1.99432C81.358 2.12689 81.429 2.28788 81.429 2.47727C81.429 2.66667 81.3603 2.82765 81.223 2.96023C81.0857 3.0928 80.92 3.15909 80.7259 3.15909ZM88.8722 16.2273C87.9441 16.2273 87.1274 15.9834 86.4219 15.4957C85.7164 15.0033 85.1648 14.331 84.767 13.4787C84.3741 12.6264 84.1776 11.6605 84.1776 10.581C84.1776 9.50142 84.3764 8.53551 84.7741 7.68324C85.1719 6.83097 85.7235 6.15862 86.429 5.66619C87.1345 5.17377 87.9465 4.92756 88.8651 4.92756C89.5563 4.92756 90.1861 5.0696 90.7543 5.35369C91.3272 5.63778 91.8007 6.03314 92.1747 6.53977C92.5535 7.0464 92.795 7.63352 92.8991 8.30114H92.0185C91.8764 7.5625 91.5213 6.9517 90.9531 6.46875C90.3897 5.98106 89.696 5.73722 88.8722 5.73722C88.1335 5.73722 87.4754 5.94555 86.8977 6.36222C86.3201 6.77415 85.8655 7.3447 85.5341 8.07386C85.2027 8.7983 85.0369 9.62926 85.0369 10.5668C85.0369 11.4901 85.1979 12.3187 85.5199 13.0526C85.8419 13.7817 86.2917 14.3594 86.8693 14.7855C87.447 15.2116 88.1146 15.4247 88.8722 15.4247C89.4072 15.4247 89.8949 15.3182 90.3352 15.1051C90.7803 14.892 91.152 14.589 91.4503 14.196C91.7486 13.803 91.9451 13.3438 92.0398 12.8182H92.9205C92.8163 13.4905 92.5795 14.0824 92.2102 14.5938C91.8409 15.1051 91.3698 15.5052 90.7969 15.794C90.224 16.0829 89.5824 16.2273 88.8722 16.2273ZM95.9176 16V5.09091H96.777V16H95.9176ZM96.3509 3.15909C96.1615 3.15909 95.9957 3.0928 95.8537 2.96023C95.7164 2.82765 95.6477 2.66667 95.6477 2.47727C95.6477 2.28788 95.7164 2.12689 95.8537 1.99432C95.991 1.86174 96.1567 1.79545 96.3509 1.79545C96.5402 1.79545 96.7036 1.86174 96.8409 1.99432C96.983 2.12689 97.054 2.28788 97.054 2.47727C97.054 2.66667 96.9853 2.82765 96.848 2.96023C96.7107 3.0928 96.545 3.15909 96.3509 3.15909ZM101.273 8.92614V16H100.406V5.09091H101.251V6.81676H101.337C101.592 6.25331 102.002 5.80114 102.565 5.46023C103.129 5.11932 103.799 4.94886 104.575 4.94886C105.309 4.94886 105.953 5.10511 106.507 5.41761C107.066 5.73011 107.501 6.17519 107.814 6.75284C108.131 7.32576 108.29 8.00994 108.29 8.8054V16H107.423V8.84091C107.423 7.91288 107.146 7.16714 106.592 6.60369C106.043 6.03551 105.316 5.75142 104.412 5.75142C103.806 5.75142 103.266 5.884 102.793 6.14915C102.319 6.4143 101.947 6.78598 101.678 7.2642C101.408 7.73769 101.273 8.29167 101.273 8.92614ZM114.781 16.2344C114.152 16.2344 113.574 16.1089 113.048 15.858C112.527 15.607 112.108 15.2401 111.791 14.7571C111.479 14.2741 111.322 13.687 111.322 12.9957C111.322 12.5412 111.403 12.1411 111.564 11.7955C111.725 11.4498 111.973 11.1515 112.31 10.9006C112.646 10.6496 113.077 10.4437 113.602 10.2827C114.128 10.117 114.755 9.98911 115.484 9.89915C116.038 9.83286 116.533 9.76894 116.969 9.70739C117.404 9.6411 117.745 9.5393 117.991 9.40199C118.242 9.26468 118.368 9.05634 118.368 8.77699V8.32244C118.368 7.52699 118.117 6.89489 117.615 6.42614C117.113 5.95739 116.422 5.72301 115.541 5.72301C114.76 5.72301 114.102 5.89583 113.567 6.24148C113.036 6.58239 112.665 7.02273 112.452 7.5625L111.635 7.2571C111.843 6.73627 112.144 6.30303 112.537 5.95739C112.935 5.61174 113.389 5.35369 113.901 5.18324C114.417 5.01278 114.956 4.92756 115.52 4.92756C116.008 4.92756 116.472 4.99621 116.912 5.13352C117.357 5.27083 117.752 5.47917 118.098 5.75852C118.448 6.03788 118.725 6.39536 118.929 6.83097C119.133 7.26184 119.234 7.77794 119.234 8.37926V16H118.368V14.0327H118.304C118.115 14.4399 117.854 14.8116 117.523 15.1477C117.196 15.4792 116.801 15.7443 116.337 15.9432C115.877 16.1373 115.359 16.2344 114.781 16.2344ZM114.866 15.4318C115.548 15.4318 116.152 15.2661 116.678 14.9347C117.208 14.5985 117.622 14.1392 117.92 13.5568C118.219 12.9744 118.368 12.3139 118.368 11.5753V9.97017C118.259 10.0649 118.1 10.1501 117.892 10.2259C117.688 10.2969 117.456 10.3608 117.196 10.4176C116.94 10.4697 116.67 10.517 116.386 10.5597C116.107 10.5975 115.835 10.633 115.57 10.6662C114.774 10.7609 114.125 10.9077 113.624 11.1065C113.126 11.3007 112.762 11.5563 112.53 11.8736C112.303 12.1908 112.189 12.5743 112.189 13.0241C112.189 13.7675 112.445 14.3546 112.956 14.7855C113.467 15.2164 114.104 15.4318 114.866 15.4318Z" fill="black"/>
<path d="M11.8906 12.6619L12.797 13.0844L12.7977 13.0829L11.8906 12.6619ZM9.71733 15.2685L9.16165 14.4371L9.15969 14.4384L9.71733 15.2685ZM3.31108 15.2685L2.7505 16.0966L2.7554 16.0999L3.31108 15.2685ZM1.14489 12.6548L0.237824 13.0758L0.238507 13.0773L1.14489 12.6548ZM1.14489 4.79972L0.239975 4.3741L0.238507 4.37725L1.14489 4.79972ZM3.31818 2.19318L3.87583 3.02327L3.87875 3.02129L3.31818 2.19318ZM9.71733 2.18608L9.15968 3.01616L9.16165 3.01748L9.71733 2.18608ZM11.8906 4.79972L10.9836 5.22071L10.9842 5.22218L11.8906 4.79972ZM11.1236 5.21875L10.2132 5.63256L10.2149 5.63615L11.1236 5.21875ZM9.25568 2.92472L8.69082 3.74991L8.69418 3.75219L9.25568 2.92472ZM3.78693 2.91761L4.34505 3.74738L4.34843 3.74509L3.78693 2.91761ZM1.91193 5.21165L1.00246 4.79589L1.00157 4.79784L1.91193 5.21165ZM1.90483 12.2287L0.992082 12.6373L0.994463 12.6425L1.90483 12.2287ZM3.77273 14.5298L3.20787 15.355L3.20787 15.355L3.77273 14.5298ZM9.25568 14.5369L9.81719 15.3644L9.82054 15.3621L9.25568 14.5369ZM11.1236 12.2358L10.2149 11.8184L10.2132 11.822L11.1236 12.2358ZM11.6719 8.72727C11.6719 10.1132 11.4315 11.2757 10.9836 12.2409L12.7977 13.0829C13.3914 11.8038 13.6719 10.3432 13.6719 8.72727H11.6719ZM10.9842 12.2395C10.5324 13.2089 9.92199 13.9289 9.16165 14.4371L10.273 16.0999C11.3687 15.3675 12.2072 14.3498 12.797 13.0844L10.9842 12.2395ZM9.15969 14.4384C8.41543 14.9384 7.54783 15.1989 6.52131 15.1989V17.1989C7.90956 17.1989 9.17264 16.8391 10.275 16.0985L9.15969 14.4384ZM6.52131 15.1989C5.48924 15.1989 4.61614 14.9379 3.86676 14.4371L2.7554 16.0999C3.86208 16.8395 5.12913 17.1989 6.52131 17.1989V15.1989ZM3.87165 14.4404C3.11371 13.9273 2.50397 13.2036 2.05127 12.2324L0.238507 13.0773C0.827469 14.3409 1.66186 15.3596 2.75051 16.0966L3.87165 14.4404ZM2.05195 12.2338C1.60379 11.2683 1.36364 10.108 1.36364 8.72727H-0.636364C-0.636364 10.339 -0.355686 11.7971 0.237825 13.0758L2.05195 12.2338ZM1.36364 8.72727C1.36364 7.34116 1.60402 6.18173 2.05127 5.22218L0.238507 4.37725C-0.355913 5.65255 -0.636364 7.11149 -0.636364 8.72727H1.36364ZM2.04979 5.22533C2.50706 4.25312 3.1189 3.53176 3.87583 3.02326L2.76054 1.3631C1.67088 2.09513 0.833849 3.11146 0.239981 4.3741L2.04979 5.22533ZM3.87875 3.02129C4.62208 2.51811 5.49079 2.25568 6.52131 2.25568V0.255681C5.12758 0.255681 3.86087 0.618251 2.75762 1.36507L3.87875 3.02129ZM6.52131 2.25568C7.54783 2.25568 8.41543 2.51617 9.15969 3.01616L10.275 1.356C9.17264 0.615459 7.90956 0.255681 6.52131 0.255681V2.25568ZM9.16165 3.01748C9.92095 3.52497 10.5314 4.24643 10.9836 5.22071L12.7977 4.37872C12.2082 3.10868 11.3698 2.08772 10.273 1.35468L9.16165 3.01748ZM10.9842 5.22218C11.4315 6.18173 11.6719 7.34116 11.6719 8.72727H13.6719C13.6719 7.11149 13.3914 5.65255 12.797 4.37725L10.9842 5.22218ZM12.8054 8.72727C12.8054 7.26733 12.5596 5.94928 12.0323 4.80135L10.2149 5.63615C10.5967 6.46739 10.8054 7.48835 10.8054 8.72727H12.8054ZM12.0339 4.80495C11.5183 3.67044 10.7839 2.75322 9.81718 2.09724L8.69418 3.75219C9.31838 4.17575 9.82928 4.78789 10.2132 5.63255L12.0339 4.80495ZM9.82054 2.09953C8.84754 1.43349 7.73638 1.10795 6.52131 1.10795V3.10795C7.36116 3.10795 8.07291 3.32693 8.69082 3.7499L9.82054 2.09953ZM6.52131 1.10795C5.30812 1.10795 4.19816 1.43007 3.22543 2.09014L4.34843 3.74509C4.96661 3.32561 5.67957 3.10795 6.52131 3.10795V1.10795ZM3.22882 2.08785C2.25972 2.73968 1.52269 3.65789 1.00246 4.79589L2.82141 5.62741C3.21027 4.77677 3.72323 4.16562 4.34505 3.74738L3.22882 2.08785ZM1.00157 4.79784C0.480038 5.94521 0.237216 7.26445 0.237216 8.72727H2.23722C2.23722 7.48176 2.4442 6.45726 2.8223 5.62545L1.00157 4.79784ZM0.237216 8.72727C0.237216 10.1765 0.477855 11.4884 0.992097 12.6372L2.81756 11.8201C2.44165 10.9803 2.23722 9.958 2.23722 8.72727H0.237216ZM0.994463 12.6425C1.50989 13.7764 2.24334 14.6948 3.20787 15.355L4.33759 13.7046C3.7112 13.2759 3.19939 12.6601 2.8152 11.8149L0.994463 12.6425ZM3.20787 15.355C4.18244 16.0221 5.29881 16.3466 6.52131 16.3466V14.3466C5.66994 14.3466 4.95392 14.1265 4.33759 13.7046L3.20787 15.355ZM6.52131 16.3466C7.73449 16.3466 8.84445 16.0245 9.81718 15.3644L8.69418 13.7095C8.076 14.1289 7.36304 14.3466 6.52131 14.3466V16.3466ZM9.82054 15.3621C10.7851 14.7019 11.5185 13.7835 12.0339 12.6496L10.2132 11.822C9.82902 12.6672 9.31721 13.283 8.69082 13.7117L9.82054 15.3621ZM12.0323 12.6532C12.5596 11.5053 12.8054 10.1872 12.8054 8.72727H10.8054C10.8054 9.96619 10.5967 10.9872 10.2149 11.8184L12.0323 12.6532ZM22.8246 5.09091V4.09091H21.8246V5.09091H22.8246ZM23.6911 5.09091H24.6911V4.09091H23.6911V5.09091ZM23.6911 16V17H24.6911V16H23.6911ZM22.8246 16H21.8246V17H22.8246V16ZM22.8246 14.2315H23.8246V13.2315H22.8246V14.2315ZM22.7536 14.2315V13.2315H22.1092L21.8429 13.8183L22.7536 14.2315ZM21.5107 15.6094L20.9838 14.7594L20.9807 14.7614L21.5107 15.6094ZM17.5973 15.6733L18.0918 14.8041L18.0918 14.8041L17.5973 15.6733ZM16.3047 14.3452L15.4251 14.821L15.4268 14.824L16.3047 14.3452ZM15.8359 5.09091V4.09091H14.8359V5.09091H15.8359ZM16.7024 5.09091H17.7024V4.09091H16.7024V5.09091ZM17.5263 14.4588L16.8102 15.1569L16.8162 15.1629L17.5263 14.4588ZM21.2408 14.9134L21.7123 15.7952L21.7123 15.7952L21.2408 14.9134ZM22.3913 13.8196L23.245 14.3404L23.2473 14.3366L22.3913 13.8196ZM23.8246 12.1293V5.09091H21.8246V12.1293H23.8246ZM22.8246 6.09091H23.6911V4.09091H22.8246V6.09091ZM22.6911 5.09091V16H24.6911V5.09091H22.6911ZM23.6911 15H22.8246V17H23.6911V15ZM23.8246 16V14.2315H21.8246V16H23.8246ZM22.8246 13.2315H22.7536V15.2315H22.8246V13.2315ZM21.8429 13.8183C21.6764 14.1852 21.4041 14.4989 20.9838 14.7594L22.0375 16.4593C22.763 16.0096 23.3193 15.4047 23.6642 14.6448L21.8429 13.8183ZM20.9807 14.7614C20.5953 15.0022 20.1131 15.142 19.4936 15.142V17.142C20.4272 17.142 21.2896 16.9268 22.0407 16.4574L20.9807 14.7614ZM19.4936 15.142C18.9289 15.142 18.4714 15.0201 18.0918 14.8041L17.1028 16.5425C17.8217 16.9515 18.6284 17.142 19.4936 17.142V15.142ZM18.0918 14.8041C17.7096 14.5867 17.4091 14.2816 17.1826 13.8663L15.4268 14.824C15.8253 15.5545 16.3865 16.1349 17.1028 16.5425L18.0918 14.8041ZM17.1842 13.8694C16.9659 13.4657 16.8359 12.9496 16.8359 12.2855H14.8359C14.8359 13.2123 15.0185 14.0694 15.4251 14.821L17.1842 13.8694ZM16.8359 12.2855V5.09091H14.8359V12.2855H16.8359ZM15.8359 6.09091H16.7024V4.09091H15.8359V6.09091ZM15.7024 5.09091V12.25H17.7024V5.09091H15.7024ZM15.7024 12.25C15.7024 13.3762 16.0505 14.3775 16.8102 15.1568L18.2424 13.7608C17.9035 13.4132 17.7024 12.942 17.7024 12.25H15.7024ZM16.8162 15.1629C17.58 15.9333 18.5617 16.2969 19.6712 16.2969V14.2969C19.0288 14.2969 18.5805 14.1018 18.2364 13.7547L16.8162 15.1629ZM19.6712 16.2969C20.3957 16.2969 21.082 16.1322 21.7123 15.7952L20.7693 14.0315C20.4431 14.2059 20.083 14.2969 19.6712 14.2969V16.2969ZM21.7123 15.7952C22.3515 15.4534 22.8655 14.9625 23.245 14.3404L21.5376 13.2988C21.3395 13.6237 21.0864 13.8619 20.7693 14.0315L21.7123 15.7952ZM23.2473 14.3366C23.6447 13.6787 23.8246 12.9304 23.8246 12.1293H21.8246C21.8246 12.6255 21.7157 13.0041 21.5353 13.3026L23.2473 14.3366ZM31.1378 5.09091H32.1378V4.09091H31.1378V5.09091ZM31.1378 5.86506V6.86506H32.1378V5.86506H31.1378ZM26.3722 5.86506H25.3722V6.86506H26.3722V5.86506ZM26.3722 5.09091V4.09091H25.3722V5.09091H26.3722ZM27.9844 2.47727V1.47727H26.9844V2.47727H27.9844ZM28.8438 2.47727H29.8438V1.47727H28.8438V2.47727ZM29.0994 14.5156L28.2419 15.0301L28.247 15.0386L28.2522 15.0469L29.0994 14.5156ZM29.7812 15.1406L29.3401 16.0381L29.3492 16.0425L29.3584 16.0468L29.7812 15.1406ZM31.0952 15.304L30.899 14.3234L30.8912 14.325L31.0952 15.304ZM31.429 15.2116L32.3943 14.9507L32.1103 13.8998L31.0872 14.2719L31.429 15.2116ZM31.642 16L31.9784 16.9417L32.8485 16.631L32.6074 15.7391L31.642 16ZM31.2017 16.1207L31.0001 15.1413L30.9863 15.1441L30.9727 15.1473L31.2017 16.1207ZM29.3409 15.8722L28.8895 16.7645L28.8937 16.7666L29.3409 15.8722ZM28.3608 14.9844L29.2006 14.4415L29.2006 14.4415L28.3608 14.9844ZM30.1378 5.09091V5.86506H32.1378V5.09091H30.1378ZM31.1378 4.86506H26.3722V6.86506H31.1378V4.86506ZM27.3722 5.86506V5.09091H25.3722V5.86506H27.3722ZM26.3722 6.09091H31.1378V4.09091H26.3722V6.09091ZM27.9844 3.47727H28.8438V1.47727H27.9844V3.47727ZM27.8438 2.47727V13.4219H29.8438V2.47727H27.8438ZM27.8438 13.4219C27.8438 13.988 27.9515 14.546 28.2419 15.0301L29.9569 14.0011C29.9065 13.917 29.8438 13.7459 29.8438 13.4219H27.8438ZM28.2522 15.0469C28.52 15.4739 28.884 15.8139 29.3401 16.0381L30.2224 14.2432C30.1198 14.1928 30.0292 14.116 29.9466 13.9843L28.2522 15.0469ZM29.3584 16.0468C29.7785 16.2429 30.2263 16.3395 30.6903 16.3395V14.3395C30.5104 14.3395 30.3522 14.3035 30.2041 14.2344L29.3584 16.0468ZM30.6903 16.3395C30.8932 16.3395 31.0999 16.3245 31.2991 16.283L30.8912 14.325C30.8631 14.3308 30.7999 14.3395 30.6903 14.3395V16.3395ZM31.2913 16.2846C31.4548 16.2518 31.6151 16.208 31.7707 16.1514L31.0872 14.2719C31.0345 14.291 30.9723 14.3088 30.8991 14.3234L31.2913 16.2846ZM30.4636 15.4726L30.6767 16.2609L32.6074 15.7391L32.3943 14.9507L30.4636 15.4726ZM31.3057 15.0583C31.2236 15.0876 31.1227 15.116 31.0001 15.1413L31.4034 17.1002C31.6027 17.0592 31.7953 17.0071 31.9784 16.9417L31.3057 15.0583ZM30.9727 15.1473C30.9061 15.163 30.797 15.1776 30.6335 15.1776V17.1776C30.9057 17.1776 31.1754 17.1542 31.4307 17.0942L30.9727 15.1473ZM30.6335 15.1776C30.3345 15.1776 30.0567 15.112 29.7881 14.9777L28.8937 16.7666C29.4395 17.0395 30.0235 17.1776 30.6335 17.1776V15.1776ZM29.7923 14.9798C29.5521 14.8583 29.3579 14.6848 29.2006 14.4415L27.521 15.5272C27.8656 16.0604 28.3248 16.4788 28.8895 16.7645L29.7923 14.9798ZM29.2006 14.4415C29.0725 14.2434 28.9844 13.9715 28.9844 13.5781H26.9844C26.9844 14.2832 27.1472 14.9489 27.521 15.5272L29.2006 14.4415ZM28.9844 13.5781V2.47727H26.9844V13.5781H28.9844ZM38.4709 5.09091H39.4709V4.09091H38.4709V5.09091ZM38.4709 5.86506V6.86506H39.4709V5.86506H38.4709ZM33.6342 5.86506H32.6342V6.86506H33.6342V5.86506ZM33.6342 5.09091V4.09091H32.6342V5.09091H33.6342ZM35.2251 16H34.2251V17H35.2251V16ZM35.6016 1.98722L34.7617 1.44439L34.7617 1.44439L35.6016 1.98722ZM36.5888 1.09943L36.1457 0.202943L36.1416 0.205004L36.5888 1.09943ZM38.5561 0.857954L38.3198 1.82962L38.3349 1.8333L38.3501 1.8365L38.5561 0.857954ZM39.0249 0.992898L39.9735 1.30913L40.2736 0.40906L39.3905 0.0621459L39.0249 0.992898ZM38.7692 1.75994L38.4407 2.70444L39.3975 3.03725L39.7179 2.07617L38.7692 1.75994ZM38.4141 1.66051L38.1892 2.63493L38.1971 2.6367L38.4141 1.66051ZM36.6172 2.12216L35.9297 1.39595L35.9297 1.39595L36.6172 2.12216ZM36.0845 3.52841L37.0845 3.52898V3.52841H36.0845ZM36.0774 16V17H37.0768L37.0774 16.0006L36.0774 16ZM37.4709 5.09091V5.86506H39.4709V5.09091H37.4709ZM38.4709 4.86506H33.6342V6.86506H38.4709V4.86506ZM34.6342 5.86506V5.09091H32.6342V5.86506H34.6342ZM33.6342 6.09091H38.4709V4.09091H33.6342V6.09091ZM36.2251 16V3.39347H34.2251V16H36.2251ZM36.2251 3.39347C36.2251 3.00005 36.3133 2.72823 36.4414 2.53004L34.7617 1.44439C34.3879 2.02272 34.2251 2.68839 34.2251 3.39347H36.2251ZM36.4414 2.53004C36.5969 2.28954 36.7913 2.11619 37.036 1.99386L36.1416 0.205004C35.5718 0.489874 35.1082 0.908371 34.7617 1.44439L36.4414 2.53004ZM37.0319 1.99591C37.3018 1.86252 37.5923 1.79403 37.9169 1.79403V-0.205966C37.2946 -0.205966 36.6997 -0.0708518 36.1457 0.202953L37.0319 1.99591ZM37.9169 1.79403C38.1167 1.79403 38.2455 1.81155 38.3198 1.82962L38.7925 -0.113714C38.5164 -0.18087 38.219 -0.205966 37.9169 -0.205966V1.79403ZM38.3501 1.8365C38.4903 1.86603 38.5908 1.89678 38.6592 1.92365L39.3905 0.0621459C39.1938 -0.0151473 38.9817 -0.0743647 38.7621 -0.120596L38.3501 1.8365ZM38.0762 0.67667L37.8205 1.44371L39.7179 2.07617L39.9735 1.30913L38.0762 0.67667ZM39.0977 0.815444C38.9477 0.763284 38.7916 0.720024 38.631 0.684324L38.1971 2.6367C38.2922 2.65782 38.3728 2.68084 38.4407 2.70444L39.0977 0.815444ZM38.6389 0.68612C38.4216 0.635966 38.1955 0.617898 37.9737 0.617898V2.6179C38.0929 2.6179 38.1603 2.62824 38.1892 2.6349L38.6389 0.68612ZM37.9737 0.617898C37.2029 0.617898 36.4939 0.86183 35.9297 1.39595L37.3047 2.84837C37.4507 2.71014 37.6461 2.6179 37.9737 2.6179V0.617898ZM35.9297 1.39595C35.3308 1.96291 35.0845 2.71997 35.0845 3.52841H37.0845C37.0845 3.1342 37.1933 2.95375 37.3047 2.84837L35.9297 1.39595ZM35.0845 3.52784L35.0774 15.9994L37.0774 16.0006L37.0845 3.52898L35.0845 3.52784ZM36.0774 15H35.2251V17H36.0774V15ZM41.2106 16H40.2106V17H41.2106V16ZM41.2106 5.09091V4.09091H40.2106V5.09091H41.2106ZM42.07 5.09091H43.07V4.09091H42.07V5.09091ZM42.07 16V17H43.07V16H42.07ZM41.1467 2.96023L40.4521 3.67963L40.4582 3.68551L40.4643 3.69128L41.1467 2.96023ZM42.1339 1.99432L41.4393 2.71372L41.4454 2.7196L41.4516 2.72537L42.1339 1.99432ZM42.141 2.96023L41.4464 2.24082L41.4464 2.24082L42.141 2.96023ZM42.2106 16V5.09091H40.2106V16H42.2106ZM41.2106 6.09091H42.07V4.09091H41.2106V6.09091ZM41.07 5.09091V16H43.07V5.09091H41.07ZM42.07 15H41.2106V17H42.07V15ZM41.6438 2.15909C41.6685 2.15909 41.7065 2.16396 41.7489 2.1809C41.7908 2.19766 41.8175 2.21848 41.829 2.22917L40.4643 3.69128C40.7862 3.99172 41.194 4.15909 41.6438 4.15909V2.15909ZM41.8413 2.24082C41.86 2.25894 41.8893 2.29451 41.912 2.34777C41.9348 2.40119 41.9407 2.44833 41.9407 2.47727H39.9407C39.9407 2.94035 40.1213 3.36027 40.4521 3.67963L41.8413 2.24082ZM41.9407 2.47727C41.9407 2.50621 41.9348 2.55335 41.912 2.60677C41.8893 2.66003 41.86 2.6956 41.8413 2.71372L40.4521 1.27492C40.1213 1.59428 39.9407 2.0142 39.9407 2.47727H41.9407ZM41.8413 2.71372C41.8233 2.73109 41.7909 2.75542 41.7453 2.77365C41.7001 2.79174 41.6628 2.79545 41.6438 2.79545V0.795454C41.1955 0.795454 40.7793 0.958938 40.4521 1.27492L41.8413 2.71372ZM41.6438 2.79545C41.6193 2.79545 41.5788 2.79061 41.5324 2.77178C41.4861 2.75301 41.4549 2.72884 41.4393 2.71372L42.8285 1.27492C42.5064 0.963908 42.0946 0.795454 41.6438 0.795454V2.79545ZM41.4516 2.72537C41.4341 2.70904 41.4033 2.67372 41.3788 2.61813C41.354 2.56196 41.3469 2.51081 41.3469 2.47727H43.3469C43.3469 2.00267 43.1549 1.57942 42.8162 1.26326L41.4516 2.72537ZM41.3469 2.47727C41.3469 2.44833 41.3528 2.40119 41.3756 2.34777C41.3983 2.29451 41.4276 2.25894 41.4464 2.24082L42.8356 3.67963C43.1663 3.36027 43.3469 2.94035 43.3469 2.47727H41.3469ZM41.4464 2.24082C41.4644 2.22346 41.4968 2.19912 41.5423 2.1809C41.5876 2.1628 41.6249 2.15909 41.6438 2.15909V4.15909C42.0922 4.15909 42.5083 3.99561 42.8356 3.67963L41.4464 2.24082ZM49.5558 5.09091H50.5558V4.09091H49.5558V5.09091ZM49.5558 5.86506V6.86506H50.5558V5.86506H49.5558ZM44.7901 5.86506H43.7901V6.86506H44.7901V5.86506ZM44.7901 5.09091V4.09091H43.7901V5.09091H44.7901ZM46.4023 2.47727V1.47727H45.4023V2.47727H46.4023ZM47.2617 2.47727H48.2617V1.47727H47.2617V2.47727ZM47.5174 14.5156L46.6599 15.0301L46.665 15.0386L46.6702 15.0469L47.5174 14.5156ZM48.1992 15.1406L47.7581 16.0381L47.7672 16.0425L47.7763 16.0468L48.1992 15.1406ZM49.5131 15.304L49.317 14.3234L49.3092 14.325L49.5131 15.304ZM49.8469 15.2116L50.8123 14.9507L50.5283 13.8998L49.5052 14.2719L49.8469 15.2116ZM50.06 16L50.3964 16.9417L51.2664 16.631L51.0254 15.7391L50.06 16ZM49.6197 16.1207L49.418 15.1413L49.4043 15.1441L49.3906 15.1473L49.6197 16.1207ZM47.7589 15.8722L47.3075 16.7645L47.3117 16.7666L47.7589 15.8722ZM46.7788 14.9844L47.6186 14.4415L47.6186 14.4415L46.7788 14.9844ZM48.5558 5.09091V5.86506H50.5558V5.09091H48.5558ZM49.5558 4.86506H44.7901V6.86506H49.5558V4.86506ZM45.7901 5.86506V5.09091H43.7901V5.86506H45.7901ZM44.7901 6.09091H49.5558V4.09091H44.7901V6.09091ZM46.4023 3.47727H47.2617V1.47727H46.4023V3.47727ZM46.2617 2.47727V13.4219H48.2617V2.47727H46.2617ZM46.2617 13.4219C46.2617 13.988 46.3694 14.546 46.6599 15.0301L48.3749 14.0011C48.3244 13.917 48.2617 13.7459 48.2617 13.4219H46.2617ZM46.6702 15.0469C46.938 15.4739 47.302 15.8139 47.7581 16.0381L48.6403 14.2432C48.5378 14.1928 48.4472 14.116 48.3646 13.9843L46.6702 15.0469ZM47.7763 16.0468C48.1965 16.2429 48.6443 16.3395 49.1083 16.3395V14.3395C48.9284 14.3395 48.7701 14.3035 48.6221 14.2344L47.7763 16.0468ZM49.1083 16.3395C49.3112 16.3395 49.5179 16.3245 49.7171 16.283L49.3092 14.325C49.2811 14.3308 49.2179 14.3395 49.1083 14.3395V16.3395ZM49.7093 16.2846C49.8728 16.2518 50.0331 16.208 50.1887 16.1514L49.5052 14.2719C49.4525 14.291 49.3902 14.3088 49.317 14.3234L49.7093 16.2846ZM48.8816 15.4726L49.0947 16.2609L51.0254 15.7391L50.8123 14.9507L48.8816 15.4726ZM49.7237 15.0583C49.6416 15.0876 49.5407 15.116 49.418 15.1413L49.8213 17.1002C50.0207 17.0592 50.2133 17.0071 50.3964 16.9417L49.7237 15.0583ZM49.3906 15.1473C49.324 15.163 49.2149 15.1776 49.0515 15.1776V17.1776C49.3236 17.1776 49.5933 17.1542 49.8487 17.0942L49.3906 15.1473ZM49.0515 15.1776C48.7524 15.1776 48.4747 15.112 48.2061 14.9777L47.3117 16.7666C47.8575 17.0395 48.4414 17.1776 49.0515 17.1776V15.1776ZM48.2103 14.9798C47.9701 14.8583 47.7759 14.6848 47.6186 14.4415L45.9389 15.5272C46.2836 16.0604 46.7428 16.4788 47.3075 16.7645L48.2103 14.9798ZM47.6186 14.4415C47.4905 14.2434 47.4023 13.9715 47.4023 13.5781H45.4023C45.4023 14.2832 45.5651 14.9489 45.9389 15.5272L47.6186 14.4415ZM47.4023 13.5781V2.47727H45.4023V13.5781H47.4023ZM69.4883 12.6619L70.3947 13.0844L70.3953 13.0829L69.4883 12.6619ZM67.315 15.2685L66.7593 14.4371L66.7573 14.4384L67.315 15.2685ZM60.9087 15.2685L60.3482 16.0966L60.3531 16.0999L60.9087 15.2685ZM58.7425 12.6548L57.8355 13.0758L57.8362 13.0773L58.7425 12.6548ZM58.7425 4.79972L57.8376 4.3741L57.8362 4.37725L58.7425 4.79972ZM60.9158 2.19318L61.4735 3.02327L61.4764 3.02129L60.9158 2.19318ZM67.315 2.18608L66.7573 3.01616L66.7593 3.01748L67.315 2.18608ZM69.4883 4.79972L68.5812 5.22071L68.5819 5.22218L69.4883 4.79972ZM68.7212 5.21875L67.8109 5.63256L67.8125 5.63615L68.7212 5.21875ZM66.8533 2.92472L66.2885 3.74991L66.2918 3.75219L66.8533 2.92472ZM61.3846 2.91761L61.9427 3.74738L61.9461 3.74509L61.3846 2.91761ZM59.5096 5.21165L58.6001 4.79589L58.5992 4.79784L59.5096 5.21165ZM59.5025 12.2287L58.5897 12.6373L58.5921 12.6425L59.5025 12.2287ZM61.3704 14.5298L60.8055 15.355L60.8055 15.355L61.3704 14.5298ZM66.8533 14.5369L67.4148 15.3644L67.4182 15.3621L66.8533 14.5369ZM68.7212 12.2358L67.8125 11.8184L67.8109 11.822L68.7212 12.2358ZM69.2695 8.72727C69.2695 10.1132 69.0292 11.2757 68.5812 12.2409L70.3953 13.0829C70.989 11.8038 71.2695 10.3432 71.2695 8.72727H69.2695ZM68.5819 12.2395C68.13 13.2089 67.5196 13.9289 66.7593 14.4371L67.8707 16.0999C68.9664 15.3675 69.8049 14.3498 70.3947 13.0844L68.5819 12.2395ZM66.7573 14.4384C66.0131 14.9384 65.1455 15.1989 64.119 15.1989V17.1989C65.5072 17.1989 66.7703 16.8391 67.8726 16.0985L66.7573 14.4384ZM64.119 15.1989C63.0869 15.1989 62.2138 14.9379 61.4644 14.4371L60.3531 16.0999C61.4597 16.8395 62.7268 17.1989 64.119 17.1989V15.1989ZM61.4693 14.4404C60.7114 13.9273 60.1016 13.2036 59.6489 12.2324L57.8362 13.0773C58.4251 14.3409 59.2595 15.3596 60.3482 16.0966L61.4693 14.4404ZM59.6496 12.2338C59.2014 11.2683 58.9613 10.108 58.9613 8.72727H56.9613C56.9613 10.339 57.242 11.7971 57.8355 13.0758L59.6496 12.2338ZM58.9613 8.72727C58.9613 7.34116 59.2017 6.18173 59.6489 5.22218L57.8362 4.37725C57.2417 5.65255 56.9613 7.11149 56.9613 8.72727H58.9613ZM59.6474 5.22533C60.1047 4.25312 60.7166 3.53176 61.4735 3.02326L60.3582 1.3631C59.2685 2.09513 58.4315 3.11146 57.8376 4.3741L59.6474 5.22533ZM61.4764 3.02129C62.2197 2.51811 63.0884 2.25568 64.119 2.25568V0.255681C62.7252 0.255681 61.4585 0.618251 60.3553 1.36507L61.4764 3.02129ZM64.119 2.25568C65.1455 2.25568 66.0131 2.51617 66.7573 3.01616L67.8726 1.356C66.7703 0.615459 65.5072 0.255681 64.119 0.255681V2.25568ZM66.7593 3.01748C67.5186 3.52497 68.129 4.24643 68.5812 5.22071L70.3953 4.37872C69.8059 3.10868 68.9674 2.08772 67.8707 1.35468L66.7593 3.01748ZM68.5819 5.22218C69.0291 6.18173 69.2695 7.34116 69.2695 8.72727H71.2695C71.2695 7.11149 70.9891 5.65255 70.3947 4.37725L68.5819 5.22218ZM70.4031 8.72727C70.4031 7.26733 70.1572 5.94928 69.63 4.80135L67.8125 5.63615C68.1943 6.46739 68.4031 7.48835 68.4031 8.72727H70.4031ZM69.6316 4.80495C69.1159 3.67044 68.3816 2.75322 67.4148 2.09724L66.2918 3.75219C66.916 4.17575 67.4269 4.78789 67.8109 5.63255L69.6316 4.80495ZM67.4182 2.09953C66.4452 1.43349 65.334 1.10795 64.119 1.10795V3.10795C64.9588 3.10795 65.6706 3.32693 66.2885 3.7499L67.4182 2.09953ZM64.119 1.10795C62.9058 1.10795 61.7958 1.43007 60.8231 2.09014L61.9461 3.74509C62.5643 3.32561 63.2772 3.10795 64.119 3.10795V1.10795ZM60.8265 2.08785C59.8574 2.73968 59.1203 3.65789 58.6001 4.79589L60.4191 5.62741C60.8079 4.77677 61.3209 4.16562 61.9427 3.74738L60.8265 2.08785ZM58.5992 4.79784C58.0777 5.94521 57.8349 7.26445 57.8349 8.72727H59.8349C59.8349 7.48176 60.0419 6.45726 60.42 5.62545L58.5992 4.79784ZM57.8349 8.72727C57.8349 10.1765 58.0755 11.4884 58.5898 12.6372L60.4152 11.8201C60.0393 10.9803 59.8349 9.958 59.8349 8.72727H57.8349ZM58.5921 12.6425C59.1076 13.7764 59.841 14.6948 60.8055 15.355L61.9352 13.7046C61.3089 13.2759 60.797 12.6601 60.4129 11.8149L58.5921 12.6425ZM60.8055 15.355C61.7801 16.0221 62.8965 16.3466 64.119 16.3466V14.3466C63.2676 14.3466 62.5516 14.1265 61.9352 13.7046L60.8055 15.355ZM64.119 16.3466C65.3321 16.3466 66.4421 16.0245 67.4148 15.3644L66.2918 13.7095C65.6737 14.1289 64.9607 14.3466 64.119 14.3466V16.3466ZM67.4182 15.3621C68.3827 14.7019 69.1162 13.7835 69.6316 12.6496L67.8109 11.822C67.4267 12.6672 66.9149 13.283 66.2885 13.7117L67.4182 15.3621ZM69.63 12.6532C70.1572 11.5053 70.4031 10.1872 70.4031 8.72727H68.4031C68.4031 9.96619 68.1943 10.9872 67.8125 11.8184L69.63 12.6532ZM77.5529 5.09091H78.5529V4.09091H77.5529V5.09091ZM77.5529 5.86506V6.86506H78.5529V5.86506H77.5529ZM72.7163 5.86506H71.7163V6.86506H72.7163V5.86506ZM72.7163 5.09091V4.09091H71.7163V5.09091H72.7163ZM74.3072 16H73.3072V17H74.3072V16ZM74.6836 1.98722L73.8437 1.44439L73.8437 1.44439L74.6836 1.98722ZM75.6708 1.09943L75.2277 0.202943L75.2236 0.205004L75.6708 1.09943ZM77.6381 0.857954L77.4018 1.82962L77.4169 1.8333L77.4321 1.8365L77.6381 0.857954ZM78.1069 0.992898L79.0556 1.30913L79.3556 0.40906L78.4725 0.0621459L78.1069 0.992898ZM77.8512 1.75994L77.5227 2.70444L78.4795 3.03725L78.7999 2.07617L77.8512 1.75994ZM77.4961 1.66051L77.2712 2.63493L77.2792 2.6367L77.4961 1.66051ZM75.6992 2.12216L75.0117 1.39595L75.0117 1.39595L75.6992 2.12216ZM75.1665 3.52841L76.1665 3.52898V3.52841H75.1665ZM75.1594 16V17H76.1589L76.1594 16.0006L75.1594 16ZM76.5529 5.09091V5.86506H78.5529V5.09091H76.5529ZM77.5529 4.86506H72.7163V6.86506H77.5529V4.86506ZM73.7163 5.86506V5.09091H71.7163V5.86506H73.7163ZM72.7163 6.09091H77.5529V4.09091H72.7163V6.09091ZM75.3072 16V3.39347H73.3072V16H75.3072ZM75.3072 3.39347C75.3072 3.00005 75.3953 2.72823 75.5234 2.53004L73.8437 1.44439C73.47 2.02272 73.3072 2.68839 73.3072 3.39347H75.3072ZM75.5234 2.53004C75.6789 2.28954 75.8734 2.11619 76.118 1.99386L75.2236 0.205004C74.6539 0.489874 74.1902 0.908371 73.8437 1.44439L75.5234 2.53004ZM76.1139 1.99591C76.3838 1.86252 76.6743 1.79403 76.9989 1.79403V-0.205966C76.3766 -0.205966 75.7817 -0.0708518 75.2277 0.202953L76.1139 1.99591ZM76.9989 1.79403C77.1988 1.79403 77.3275 1.81155 77.4018 1.82962L77.8745 -0.113714C77.5984 -0.18087 77.301 -0.205966 76.9989 -0.205966V1.79403ZM77.4321 1.8365C77.5724 1.86603 77.6728 1.89678 77.7412 1.92365L78.4725 0.0621459C78.2758 -0.0151473 78.0637 -0.0743647 77.8442 -0.120596L77.4321 1.8365ZM77.1582 0.67667L76.9025 1.44371L78.7999 2.07617L79.0556 1.30913L77.1582 0.67667ZM78.1797 0.815444C78.0298 0.763284 77.8737 0.720024 77.713 0.684324L77.2792 2.6367C77.3742 2.65782 77.4549 2.68084 77.5227 2.70444L78.1797 0.815444ZM77.721 0.68612C77.5036 0.635966 77.2775 0.617898 77.0558 0.617898V2.6179C77.1749 2.6179 77.2424 2.62824 77.2712 2.6349L77.721 0.68612ZM77.0558 0.617898C76.2849 0.617898 75.576 0.86183 75.0117 1.39595L76.3867 2.84837C76.5327 2.71014 76.7281 2.6179 77.0558 2.6179V0.617898ZM75.0117 1.39595C74.4128 1.96291 74.1665 2.71997 74.1665 3.52841H76.1665C76.1665 3.1342 76.2754 2.95375 76.3867 2.84837L75.0117 1.39595ZM74.1665 3.52784L74.1594 15.9994L76.1594 16.0006L76.1665 3.52898L74.1665 3.52784ZM75.1594 15H74.3072V17H75.1594V15ZM80.2926 16H79.2926V17H80.2926V16ZM80.2926 5.09091V4.09091H79.2926V5.09091H80.2926ZM81.152 5.09091H82.152V4.09091H81.152V5.09091ZM81.152 16V17H82.152V16H81.152ZM80.2287 2.96023L79.5341 3.67963L79.5402 3.68551L79.5464 3.69128L80.2287 2.96023ZM81.2159 1.99432L80.5213 2.71372L80.5274 2.7196L80.5336 2.72537L81.2159 1.99432ZM81.223 2.96023L80.5284 2.24082L80.5284 2.24082L81.223 2.96023ZM81.2926 16V5.09091H79.2926V16H81.2926ZM80.2926 6.09091H81.152V4.09091H80.2926V6.09091ZM80.152 5.09091V16H82.152V5.09091H80.152ZM81.152 15H80.2926V17H81.152V15ZM80.7259 2.15909C80.7505 2.15909 80.7886 2.16396 80.8309 2.1809C80.8728 2.19766 80.8996 2.21848 80.911 2.22917L79.5464 3.69128C79.8683 3.99172 80.276 4.15909 80.7259 4.15909V2.15909ZM80.9233 2.24082C80.9421 2.25894 80.9713 2.29451 80.9941 2.34777C81.0168 2.40119 81.0227 2.44833 81.0227 2.47727H79.0227C79.0227 2.94035 79.2033 3.36027 79.5341 3.67963L80.9233 2.24082ZM81.0227 2.47727C81.0227 2.50621 81.0168 2.55335 80.9941 2.60677C80.9713 2.66003 80.9421 2.6956 80.9233 2.71372L79.5341 1.27492C79.2033 1.59428 79.0227 2.0142 79.0227 2.47727H81.0227ZM80.9233 2.71372C80.9053 2.73109 80.8729 2.75542 80.8274 2.77365C80.7821 2.79174 80.7448 2.79545 80.7259 2.79545V0.795454C80.2775 0.795454 79.8614 0.958938 79.5341 1.27492L80.9233 2.71372ZM80.7259 2.79545C80.7013 2.79545 80.6608 2.79061 80.6144 2.77178C80.5681 2.75301 80.537 2.72884 80.5213 2.71372L81.9105 1.27492C81.5884 0.963908 81.1766 0.795454 80.7259 0.795454V2.79545ZM80.5336 2.72537C80.5161 2.70904 80.4853 2.67372 80.4608 2.61813C80.436 2.56196 80.429 2.51081 80.429 2.47727H82.429C82.429 2.00267 82.237 1.57942 81.8982 1.26326L80.5336 2.72537ZM80.429 2.47727C80.429 2.44833 80.4349 2.40119 80.4576 2.34777C80.4804 2.29451 80.5097 2.25894 80.5284 2.24082L81.9176 3.67963C82.2484 3.36027 82.429 2.94035 82.429 2.47727H80.429ZM80.5284 2.24082C80.5464 2.22346 80.5788 2.19912 80.6243 2.1809C80.6696 2.1628 80.7069 2.15909 80.7259 2.15909V4.15909C81.1742 4.15909 81.5903 3.99561 81.9176 3.67963L80.5284 2.24082ZM86.4219 15.4957L85.8495 16.3158L85.8532 16.3183L86.4219 15.4957ZM84.767 13.4787L83.8589 13.8974L83.8609 13.9016L84.767 13.4787ZM84.7741 7.68324L83.868 7.26035L83.868 7.26035L84.7741 7.68324ZM86.429 5.66619L85.8566 4.84619L85.8566 4.84619L86.429 5.66619ZM90.7543 5.35369L90.307 6.24812L90.31 6.2496L90.7543 5.35369ZM92.1747 6.53977L91.3702 7.13375L91.3738 7.13857L92.1747 6.53977ZM92.8991 8.30114V9.30114H94.0673L93.8872 8.14697L92.8991 8.30114ZM92.0185 8.30114L91.0365 8.48998L91.1925 9.30114H92.0185V8.30114ZM90.9531 6.46875L90.2987 7.22489L90.3055 7.23069L90.9531 6.46875ZM86.8977 6.36222L87.4783 7.17641L87.4827 7.17325L86.8977 6.36222ZM85.5341 8.07386L86.4434 8.4899L86.4445 8.48767L85.5341 8.07386ZM85.5199 13.0526L84.6041 13.4543L84.6051 13.4565L85.5199 13.0526ZM86.8693 14.7855L87.463 13.9808L87.463 13.9808L86.8693 14.7855ZM90.3352 15.1051L89.9034 14.2031L89.8997 14.205L90.3352 15.1051ZM91.4503 14.196L90.6538 13.5914L90.6538 13.5914L91.4503 14.196ZM92.0398 12.8182V11.8182H91.2039L91.0556 12.6409L92.0398 12.8182ZM92.9205 12.8182L93.9087 12.9713L94.0873 11.8182H92.9205V12.8182ZM90.7969 15.794L90.3467 14.9011L90.3467 14.9011L90.7969 15.794ZM88.8722 15.2273C88.1298 15.2273 87.515 15.0357 86.9905 14.6731L85.8532 16.3183C86.7397 16.9311 87.7585 17.2273 88.8722 17.2273V15.2273ZM86.9942 14.6757C86.4462 14.2932 86.0037 13.7639 85.6732 13.0558L83.8609 13.9016C84.3259 14.898 84.9865 15.7134 85.8495 16.3157L86.9942 14.6757ZM85.6752 13.06C85.3512 12.3573 85.1776 11.5376 85.1776 10.581H83.1776C83.1776 11.7834 83.3969 12.8955 83.8589 13.8974L85.6752 13.06ZM85.1776 10.581C85.1776 9.62597 85.3529 8.80774 85.6803 8.10612L83.868 7.26035C83.3999 8.26329 83.1776 9.37687 83.1776 10.581H85.1776ZM85.6803 8.10612C86.0108 7.398 86.4533 6.86869 87.0013 6.4862L85.8566 4.84619C84.9936 5.44855 84.333 6.26393 83.868 7.26035L85.6803 8.10612ZM87.0013 6.4862C87.5274 6.11904 88.1366 5.92756 88.8651 5.92756V3.92756C87.7564 3.92756 86.7416 4.2285 85.8566 4.84619L87.0013 6.4862ZM88.8651 5.92756C89.4151 5.92756 89.8897 6.03944 90.307 6.24812L91.2015 4.45927C90.4825 4.09977 89.6976 3.92756 88.8651 3.92756V5.92756ZM90.31 6.2496C90.7429 6.46423 91.0921 6.75699 91.3702 7.13374L92.9792 5.9458C92.5093 5.3093 91.9115 4.81134 91.1985 4.45779L90.31 6.2496ZM91.3738 7.13857C91.6482 7.50562 91.8303 7.93765 91.9111 8.4553L93.8872 8.14697C93.7596 7.3294 93.4588 6.58718 92.9756 5.94097L91.3738 7.13857ZM92.8991 7.30114H92.0185V9.30114H92.8991V7.30114ZM93.0005 8.11229C92.8158 7.15225 92.344 6.33856 91.6008 5.70681L90.3055 7.23069C90.6986 7.56485 90.937 7.97275 91.0365 8.48998L93.0005 8.11229ZM91.6076 5.71264C90.8428 5.05068 89.9091 4.73722 88.8722 4.73722V6.73722C89.4829 6.73722 89.9366 6.91144 90.2987 7.22486L91.6076 5.71264ZM88.8722 4.73722C87.9318 4.73722 87.0673 5.00689 86.3127 5.55119L87.4827 7.17325C87.8834 6.88421 88.3352 6.73722 88.8722 6.73722V4.73722ZM86.3171 5.54803C85.5785 6.07474 85.0184 6.79181 84.6237 7.66006L86.4445 8.48767C86.7127 7.89758 87.0616 7.47356 87.4783 7.1764L86.3171 5.54803ZM84.6247 7.65782C84.2239 8.53388 84.0369 9.51081 84.0369 10.5668H86.0369C86.0369 9.74771 86.1814 9.06271 86.4434 8.4899L84.6247 7.65782ZM84.0369 10.5668C84.0369 11.6075 84.2188 12.5759 84.6041 13.4543L86.4356 12.6508C86.1771 12.0614 86.0369 11.3727 86.0369 10.5668H84.0369ZM84.6051 13.4565C84.9894 14.3269 85.5429 15.0497 86.2757 15.5902L87.463 13.9808C87.0405 13.6691 86.6943 13.2365 86.4347 12.6486L84.6051 13.4565ZM86.2757 15.5902C87.0351 16.1505 87.9135 16.4247 88.8722 16.4247V14.4247C88.3156 14.4247 87.8588 14.2728 87.463 13.9808L86.2757 15.5902ZM88.8722 16.4247C89.5437 16.4247 90.1823 16.29 90.7708 16.0053L89.8997 14.205C89.6075 14.3463 89.2707 14.4247 88.8722 14.4247V16.4247ZM90.767 16.0071C91.3556 15.7253 91.8523 15.3204 92.2468 14.8006L90.6538 13.5914C90.4517 13.8577 90.205 14.0588 89.9034 14.2031L90.767 16.0071ZM92.2468 14.8006C92.6482 14.2718 92.9036 13.6632 93.0239 12.9955L91.0556 12.6409C90.9865 13.0243 90.849 13.3342 90.6538 13.5914L92.2468 14.8006ZM92.0398 13.8182H92.9205V11.8182H92.0398V13.8182ZM91.9322 12.6651C91.8503 13.1938 91.6692 13.6349 91.3995 14.0083L93.0209 15.1792C93.4899 14.5299 93.7823 13.7872 93.9087 12.9713L91.9322 12.6651ZM91.3995 14.0083C91.1257 14.3874 90.7791 14.6831 90.3467 14.9011L91.247 16.687C91.9605 16.3273 92.5561 15.8228 93.0209 15.1792L91.3995 14.0083ZM90.3467 14.9011C89.9278 15.1123 89.443 15.2273 88.8722 15.2273V17.2273C89.7218 17.2273 90.5201 17.0535 91.247 16.687L90.3467 14.9011ZM95.9176 16H94.9176V17H95.9176V16ZM95.9176 5.09091V4.09091H94.9176V5.09091H95.9176ZM96.777 5.09091H97.777V4.09091H96.777V5.09091ZM96.777 16V17H97.777V16H96.777ZM95.8537 2.96023L95.1591 3.67963L95.1652 3.68551L95.1714 3.69128L95.8537 2.96023ZM96.8409 1.99432L96.1463 2.71372L96.1524 2.7196L96.1586 2.72537L96.8409 1.99432ZM96.848 2.96023L96.1534 2.24082L96.1534 2.24082L96.848 2.96023ZM96.9176 16V5.09091H94.9176V16H96.9176ZM95.9176 6.09091H96.777V4.09091H95.9176V6.09091ZM95.777 5.09091V16H97.777V5.09091H95.777ZM96.777 15H95.9176V17H96.777V15ZM96.3509 2.15909C96.3755 2.15909 96.4136 2.16396 96.4559 2.1809C96.4978 2.19766 96.5246 2.21848 96.536 2.22917L95.1714 3.69128C95.4933 3.99172 95.901 4.15909 96.3509 4.15909V2.15909ZM96.5483 2.24082C96.5671 2.25894 96.5963 2.29451 96.6191 2.34777C96.6418 2.40119 96.6477 2.44833 96.6477 2.47727H94.6477C94.6477 2.94035 94.8283 3.36027 95.1591 3.67963L96.5483 2.24082ZM96.6477 2.47727C96.6477 2.50621 96.6418 2.55335 96.6191 2.60677C96.5963 2.66003 96.5671 2.6956 96.5483 2.71372L95.1591 1.27492C94.8283 1.59428 94.6477 2.0142 94.6477 2.47727H96.6477ZM96.5483 2.71372C96.5303 2.73109 96.4979 2.75542 96.4524 2.77365C96.4071 2.79174 96.3698 2.79545 96.3509 2.79545V0.795454C95.9025 0.795454 95.4864 0.958938 95.1591 1.27492L96.5483 2.71372ZM96.3509 2.79545C96.3263 2.79545 96.2858 2.79061 96.2394 2.77178C96.1931 2.75301 96.162 2.72884 96.1463 2.71372L97.5355 1.27492C97.2134 0.963908 96.8016 0.795454 96.3509 0.795454V2.79545ZM96.1586 2.72537C96.1411 2.70904 96.1103 2.67372 96.0858 2.61813C96.061 2.56196 96.054 2.51081 96.054 2.47727H98.054C98.054 2.00267 97.862 1.57942 97.5232 1.26326L96.1586 2.72537ZM96.054 2.47727C96.054 2.44833 96.0599 2.40119 96.0826 2.34777C96.1054 2.29451 96.1347 2.25894 96.1534 2.24082L97.5426 3.67963C97.8734 3.36027 98.054 2.94035 98.054 2.47727H96.054ZM96.1534 2.24082C96.1714 2.22346 96.2038 2.19912 96.2493 2.1809C96.2946 2.1628 96.3319 2.15909 96.3509 2.15909V4.15909C96.7992 4.15909 97.2153 3.99561 97.5426 3.67963L96.1534 2.24082ZM101.273 16V17H102.273V16H101.273ZM100.406 16H99.4062V17H100.406V16ZM100.406 5.09091V4.09091H99.4062V5.09091H100.406ZM101.251 5.09091H102.251V4.09091H101.251V5.09091ZM101.251 6.81676H100.251V7.81676H101.251V6.81676ZM101.337 6.81676V7.81676H101.981L102.247 7.22999L101.337 6.81676ZM102.565 5.46023L103.083 6.31581L103.083 6.31581L102.565 5.46023ZM106.507 5.41761L106.016 6.2886L106.019 6.29037L106.507 5.41761ZM107.814 6.75284L106.934 7.22868L106.939 7.23726L107.814 6.75284ZM108.29 16V17H109.29V16H108.29ZM107.423 16H106.423V17H107.423V16ZM106.592 6.60369L105.873 7.29874L105.879 7.30478L106.592 6.60369ZM102.793 6.14915L103.281 7.02165L102.793 6.14915ZM101.678 7.2642L102.546 7.75941L102.548 7.75569L101.678 7.2642ZM100.273 8.92614V16H102.273V8.92614H100.273ZM101.273 15H100.406V17H101.273V15ZM101.406 16V5.09091H99.4062V16H101.406ZM100.406 6.09091H101.251V4.09091H100.406V6.09091ZM100.251 5.09091V6.81676H102.251V5.09091H100.251ZM101.251 7.81676H101.337V5.81676H101.251V7.81676ZM102.247 7.22999C102.414 6.86233 102.68 6.55937 103.083 6.31581L102.048 4.60464C101.323 5.04291 100.771 5.64429 100.426 6.40354L102.247 7.22999ZM103.083 6.31581C103.464 6.08513 103.948 5.94886 104.575 5.94886V3.94886C103.649 3.94886 102.793 4.15351 102.048 4.60464L103.083 6.31581ZM104.575 5.94886C105.164 5.94886 105.633 6.07292 106.016 6.28859L106.998 4.54664C106.273 4.13731 105.455 3.94886 104.575 3.94886V5.94886ZM106.019 6.29037C106.408 6.50783 106.71 6.81318 106.934 7.22866L108.693 6.27702C108.293 5.5372 107.724 4.9524 106.995 4.54486L106.019 6.29037ZM106.939 7.23726C107.158 7.63321 107.29 8.14326 107.29 8.8054H109.29C109.29 7.87662 109.104 7.0183 108.689 6.26843L106.939 7.23726ZM107.29 8.8054V16H109.29V8.8054H107.29ZM108.29 15H107.423V17H108.29V15ZM108.423 16V8.84091H106.423V16H108.423ZM108.423 8.84091C108.423 7.69978 108.075 6.68544 107.305 5.9026L105.879 7.30478C106.218 7.64884 106.423 8.12598 106.423 8.84091H108.423ZM107.311 5.90867C106.546 5.11685 105.545 4.75142 104.412 4.75142V6.75142C105.088 6.75142 105.54 6.95418 105.873 7.29872L107.311 5.90867ZM104.412 4.75142C103.655 4.75142 102.944 4.91847 102.304 5.27664L103.281 7.02165C103.589 6.84952 103.957 6.75142 104.412 6.75142V4.75142ZM102.304 5.27664C101.669 5.63248 101.166 6.13685 100.807 6.77272L102.548 7.75569C102.729 7.43512 102.97 7.19612 103.281 7.02165L102.304 5.27664ZM100.809 6.769C100.44 7.41653 100.273 8.14678 100.273 8.92614H102.273C102.273 8.43656 102.376 8.05885 102.546 7.75941L100.809 6.769ZM113.048 15.858L112.614 16.7588L112.617 16.7604L113.048 15.858ZM111.791 14.7571L110.952 15.3004L110.955 15.3061L111.791 14.7571ZM111.564 11.7955L110.657 11.3732L110.657 11.3732L111.564 11.7955ZM112.31 10.9006L112.908 11.7019L112.908 11.7019L112.31 10.9006ZM113.602 10.2827L113.895 11.2389L113.903 11.2364L113.602 10.2827ZM115.484 9.89915L115.366 8.90622L115.362 8.90667L115.484 9.89915ZM116.969 9.70739L117.109 10.6976L117.119 10.696L116.969 9.70739ZM117.991 9.40199L117.511 8.5247L117.504 8.52862L117.991 9.40199ZM117.615 6.42614L116.932 7.15696L116.932 7.15696L117.615 6.42614ZM113.567 6.24148L114.108 7.08266L114.109 7.08145L113.567 6.24148ZM112.452 7.5625L112.101 8.49916L113.021 8.8431L113.382 7.92967L112.452 7.5625ZM111.635 7.2571L110.706 6.88571L110.327 7.8355L111.285 8.19377L111.635 7.2571ZM112.537 5.95739L111.881 5.20257L111.877 5.20649L112.537 5.95739ZM113.901 5.18324L113.587 4.23368L113.584 4.23456L113.901 5.18324ZM116.912 5.13352L116.614 6.08819L116.617 6.08908L116.912 5.13352ZM118.098 5.75852L117.469 6.53628L117.475 6.54042L118.098 5.75852ZM118.929 6.83097L118.023 7.25439L118.025 7.2582L118.929 6.83097ZM119.234 16V17H120.234V16H119.234ZM118.368 16H117.368V17H118.368V16ZM118.368 14.0327H119.368V13.0327H118.368V14.0327ZM118.304 14.0327V13.0327H117.666L117.397 13.6109L118.304 14.0327ZM117.523 15.1477L116.811 14.4457L116.811 14.4457L117.523 15.1477ZM116.337 15.9432L116.726 16.8643L116.731 16.8623L116.337 15.9432ZM116.678 14.9347L117.211 15.7805L117.213 15.7793L116.678 14.9347ZM117.92 13.5568L118.81 14.0127L118.81 14.0127L117.92 13.5568ZM118.368 9.97017H119.368V7.77541L117.712 9.21556L118.368 9.97017ZM117.892 10.2259L118.221 11.1701L118.234 11.1656L117.892 10.2259ZM117.196 10.4176L117.396 11.3976L117.409 11.3946L117.196 10.4176ZM116.386 10.5597L116.521 11.5507L116.535 11.5486L116.386 10.5597ZM115.57 10.6662L115.688 11.6592L115.694 11.6585L115.57 10.6662ZM113.624 11.1065L113.987 12.038L113.992 12.0362L113.624 11.1065ZM112.53 11.8736L111.723 11.2832L111.717 11.2912L112.53 11.8736ZM112.956 14.7855L112.312 15.5502L112.312 15.5502L112.956 14.7855ZM114.781 15.2344C114.288 15.2344 113.859 15.1371 113.479 14.9555L112.617 16.7604C113.288 17.0807 114.015 17.2344 114.781 17.2344V15.2344ZM113.482 14.9571C113.125 14.7848 112.845 14.5394 112.627 14.2081L110.955 15.3061C111.372 15.9407 111.93 16.4292 112.614 16.7588L113.482 14.9571ZM112.631 14.2139C112.442 13.9229 112.322 13.5336 112.322 12.9957H110.322C110.322 13.8405 110.515 14.6254 110.952 15.3004L112.631 14.2139ZM112.322 12.9957C112.322 12.6594 112.382 12.4081 112.47 12.2177L110.657 11.3732C110.424 11.8741 110.322 12.423 110.322 12.9957H112.322ZM112.47 12.2177C112.555 12.0366 112.691 11.8641 112.908 11.7019L111.711 10.0992C111.256 10.439 110.895 10.863 110.657 11.3732L112.47 12.2177ZM112.908 11.7019C113.128 11.5374 113.447 11.376 113.895 11.2388L113.309 9.32652C112.706 9.51131 112.163 9.76189 111.711 10.0992L112.908 11.7019ZM113.903 11.2364C114.355 11.0939 114.92 10.9764 115.607 10.8916L115.362 8.90667C114.591 9.0018 113.901 9.14002 113.302 9.32896L113.903 11.2364ZM115.603 10.8921C116.162 10.8251 116.664 10.7603 117.109 10.6975L116.829 8.71722C116.402 8.77756 115.914 8.84057 115.366 8.90623L115.603 10.8921ZM117.119 10.696C117.614 10.6207 118.086 10.4942 118.479 10.2754L117.504 8.52862C117.404 8.58439 117.195 8.66149 116.818 8.71877L117.119 10.696ZM118.471 10.2793C118.725 10.1407 118.961 9.93935 119.13 9.65868C119.3 9.37677 119.368 9.07095 119.368 8.77699H117.368C117.368 8.76238 117.373 8.70041 117.417 8.62683C117.437 8.59308 117.46 8.56719 117.48 8.54911C117.499 8.5316 117.512 8.52464 117.511 8.52473L118.471 10.2793ZM119.368 8.77699V8.32244H117.368V8.77699H119.368ZM119.368 8.32244C119.368 7.2979 119.035 6.38361 118.298 5.69531L116.932 7.15696C117.199 7.40616 117.368 7.75607 117.368 8.32244H119.368ZM118.298 5.69531C117.563 5.00886 116.601 4.72301 115.541 4.72301V6.72301C116.243 6.72301 116.664 6.90591 116.932 7.15696L118.298 5.69531ZM115.541 4.72301C114.611 4.72301 113.754 4.92993 113.024 5.40151L114.109 7.08145C114.449 6.86174 114.909 6.72301 115.541 6.72301V4.72301ZM113.026 5.4003C112.335 5.8442 111.818 6.44364 111.522 7.19533L113.382 7.92967C113.511 7.60181 113.737 7.32057 114.108 7.08266L113.026 5.4003ZM112.802 6.62584L111.985 6.32044L111.285 8.19377L112.101 8.49916L112.802 6.62584ZM112.563 7.62849C112.718 7.24273 112.931 6.94286 113.197 6.70828L111.877 5.20649C111.357 5.6632 110.969 6.22981 110.706 6.88571L112.563 7.62849ZM113.193 6.71219C113.489 6.45491 113.827 6.26172 114.217 6.13192L113.584 4.23456C112.951 4.44567 112.38 4.76857 111.881 5.20259L113.193 6.71219ZM114.214 6.13279C114.625 5.99697 115.059 5.92756 115.52 5.92756V3.92756C114.854 3.92756 114.208 4.0286 113.587 4.23369L114.214 6.13279ZM115.52 5.92756C115.912 5.92756 116.276 5.98261 116.614 6.08818L117.21 4.17886C116.668 4.00982 116.103 3.92756 115.52 3.92756V5.92756ZM116.617 6.08908C116.947 6.19072 117.227 6.34068 117.469 6.53626L118.727 4.98078C118.277 4.61765 117.767 4.35095 117.207 4.17796L116.617 6.08908ZM117.475 6.54042C117.696 6.71674 117.88 6.94803 118.023 7.25439L119.835 6.40754C119.571 5.84269 119.201 5.35902 118.721 4.97662L117.475 6.54042ZM118.025 7.2582C118.151 7.52527 118.234 7.88815 118.234 8.37926H120.234C120.234 7.66772 120.114 6.99841 119.833 6.40373L118.025 7.2582ZM118.234 8.37926V16H120.234V8.37926H118.234ZM119.234 15H118.368V17H119.234V15ZM119.368 16V14.0327H117.368V16H119.368ZM118.368 13.0327H118.304V15.0327H118.368V13.0327ZM117.397 13.6109C117.259 13.909 117.066 14.1869 116.811 14.4457L118.235 15.8498C118.643 15.4362 118.971 14.9707 119.211 14.4544L117.397 13.6109ZM116.811 14.4457C116.582 14.6773 116.298 14.8719 115.943 15.024L116.731 16.8623C117.304 16.6168 117.81 16.2811 118.235 15.8497L116.811 14.4457ZM115.947 15.0221C115.629 15.1565 115.246 15.2344 114.781 15.2344V17.2344C115.472 17.2344 116.126 17.1181 116.726 16.8643L115.947 15.0221ZM114.866 16.4318C115.718 16.4318 116.51 16.2224 117.211 15.7805L116.144 14.0888C115.794 14.3098 115.379 14.4318 114.866 14.4318V16.4318ZM117.213 15.7793C117.901 15.3434 118.434 14.747 118.81 14.0127L117.03 13.1009C116.81 13.5314 116.515 13.8536 116.142 14.0901L117.213 15.7793ZM118.81 14.0127C119.19 13.2719 119.368 12.4518 119.368 11.5753H117.368C117.368 12.176 117.248 12.6769 117.03 13.1009L118.81 14.0127ZM119.368 11.5753V9.97017H117.368V11.5753H119.368ZM117.712 9.21556C117.725 9.2039 117.723 9.20852 117.694 9.22422C117.665 9.23957 117.619 9.26103 117.55 9.28606L118.234 11.1656C118.502 11.0681 118.787 10.9312 119.024 10.7248L117.712 9.21556ZM117.563 9.28165C117.405 9.33674 117.213 9.39045 116.983 9.4406L117.409 11.3946C117.7 11.3311 117.972 11.257 118.221 11.1701L117.563 9.28165ZM116.996 9.43774C116.759 9.48603 116.507 9.53043 116.238 9.57072L116.535 11.5486C116.834 11.5037 117.121 11.4534 117.396 11.3975L116.996 9.43774ZM116.252 9.56873C115.976 9.60616 115.707 9.64122 115.446 9.67392L115.694 11.6585C115.962 11.6249 116.238 11.5889 116.521 11.5506L116.252 9.56873ZM115.451 9.6732C114.607 9.77369 113.866 9.93485 113.255 10.1769L113.992 12.0362C114.385 11.8805 114.941 11.7481 115.688 11.6592L115.451 9.6732ZM113.26 10.175C112.647 10.4144 112.1 10.7666 111.723 11.2833L113.337 12.4639C113.423 12.3461 113.606 12.187 113.987 12.038L113.26 10.175ZM111.717 11.2912C111.35 11.8033 111.189 12.3985 111.189 13.0241H113.189C113.189 12.7502 113.255 12.5784 113.343 12.456L111.717 11.2912ZM111.189 13.0241C111.189 14.0253 111.548 14.9067 112.312 15.5502L113.6 14.0208C113.341 13.8026 113.189 13.5098 113.189 13.0241H111.189ZM112.312 15.5502C113.028 16.1542 113.903 16.4318 114.866 16.4318V14.4318C114.305 14.4318 113.906 14.2786 113.6 14.0208L112.312 15.5502Z" fill="black" mask="url(#path-1-outside-1_86_11035)"/>
</svg>
