<svg width="105" height="20" viewBox="0 0 105 20" fill="none" xmlns="http://www.w3.org/2000/svg">
<path d="M5.28409 1.54545L9.1875 14.3295H9.33239L13.2358 1.54545H17.9574L12.0682 19H6.4517L0.5625 1.54545H5.28409ZM24.3857 19.2472C23.0163 19.2472 21.8345 18.9773 20.8402 18.4375C19.8516 17.892 19.0902 17.1165 18.5561 16.1108C18.0277 15.0994 17.7635 13.8977 17.7635 12.5057C17.7635 11.1534 18.0305 9.97159 18.5646 8.96023C19.0987 7.94318 19.8516 7.15341 20.8232 6.59091C21.7947 6.02273 22.9396 5.73864 24.2578 5.73864C25.1896 5.73864 26.0419 5.88352 26.8146 6.17329C27.5874 6.46307 28.255 6.89205 28.8175 7.46023C29.38 8.02841 29.8175 8.73011 30.13 9.56534C30.4425 10.3949 30.5987 11.3466 30.5987 12.4205V13.4602H19.2209V11.0398H26.7209C26.7152 10.5966 26.6101 10.2017 26.4055 9.85511C26.201 9.50852 25.9197 9.23864 25.5618 9.04545C25.2095 8.84659 24.8033 8.74716 24.343 8.74716C23.8771 8.74716 23.4595 8.85227 23.0902 9.0625C22.7209 9.26705 22.4283 9.5483 22.2124 9.90625C21.9964 10.2585 21.8828 10.6591 21.8714 11.108V13.571C21.8714 14.1051 21.9766 14.5739 22.1868 14.9773C22.397 15.375 22.6953 15.6847 23.0817 15.9062C23.468 16.1278 23.9283 16.2386 24.4624 16.2386C24.8317 16.2386 25.1669 16.1875 25.468 16.0852C25.7692 15.983 26.0277 15.8324 26.2436 15.6335C26.4595 15.4347 26.6214 15.1903 26.7294 14.9006L30.5561 15.0114C30.397 15.8693 30.0476 16.6165 29.5078 17.2528C28.9737 17.8835 28.272 18.375 27.4027 18.7273C26.5334 19.0739 25.5277 19.2472 24.3857 19.2472ZM44.1562 9.90625L40.3295 10.0085C40.2898 9.7358 40.1818 9.49432 40.0057 9.28409C39.8295 9.06818 39.5994 8.90057 39.3153 8.78125C39.0369 8.65625 38.7131 8.59375 38.3438 8.59375C37.8608 8.59375 37.4489 8.69034 37.108 8.88352C36.7727 9.0767 36.608 9.33807 36.6136 9.66761C36.608 9.9233 36.7102 10.1449 36.9205 10.3324C37.1364 10.5199 37.5199 10.6705 38.071 10.7841L40.5938 11.2614C41.9006 11.5114 42.8722 11.9261 43.5085 12.5057C44.1506 13.0852 44.4744 13.8523 44.4801 14.8068C44.4744 15.7045 44.2074 16.4858 43.679 17.1506C43.1562 17.8153 42.4403 18.3324 41.5312 18.7017C40.6222 19.0653 39.5824 19.2472 38.4119 19.2472C36.5426 19.2472 35.0682 18.8636 33.9886 18.0966C32.9148 17.3239 32.3011 16.2898 32.1477 14.9943L36.2642 14.892C36.3551 15.3693 36.5909 15.733 36.9716 15.983C37.3523 16.233 37.8381 16.358 38.429 16.358C38.9631 16.358 39.3977 16.2585 39.733 16.0597C40.0682 15.8608 40.2386 15.5966 40.2443 15.267C40.2386 14.9716 40.108 14.7358 39.8523 14.5597C39.5966 14.3778 39.196 14.2358 38.6506 14.1335L36.3665 13.6989C35.054 13.4602 34.0767 13.0199 33.4347 12.3778C32.7926 11.7301 32.4744 10.9062 32.4801 9.90625C32.4744 9.03125 32.7074 8.28409 33.179 7.66477C33.6506 7.03977 34.321 6.5625 35.1903 6.23295C36.0597 5.90341 37.0852 5.73864 38.267 5.73864C40.0398 5.73864 41.4375 6.1108 42.4602 6.85511C43.483 7.59375 44.0483 8.6108 44.1562 9.90625ZM53.9212 5.90909V8.97727H45.6626V5.90909H53.9212ZM47.3928 2.77273H51.5604V14.8835C51.5604 15.1392 51.6001 15.3466 51.6797 15.5057C51.7649 15.6591 51.8871 15.7699 52.0462 15.8381C52.2053 15.9006 52.3956 15.9318 52.6172 15.9318C52.7763 15.9318 52.9439 15.9176 53.12 15.8892C53.3018 15.8551 53.4382 15.8267 53.5291 15.804L54.1598 18.8125C53.9609 18.8693 53.6797 18.9403 53.3161 19.0256C52.9581 19.1108 52.5291 19.1648 52.0291 19.1875C51.0518 19.233 50.2138 19.1193 49.5149 18.8466C48.8217 18.5682 48.2905 18.1364 47.9212 17.5511C47.5575 16.9659 47.3814 16.2301 47.3928 15.3438V2.77273ZM56.0476 19V5.90909H60.2152V19H56.0476ZM58.1357 4.38352C57.5504 4.38352 57.0476 4.19034 56.6271 3.80398C56.2067 3.41193 55.9964 2.94034 55.9964 2.3892C55.9964 1.84375 56.2067 1.37784 56.6271 0.991477C57.0476 0.599431 57.5504 0.403408 58.1357 0.403408C58.7266 0.403408 59.2294 0.599431 59.6442 0.991477C60.0646 1.37784 60.2749 1.84375 60.2749 2.3892C60.2749 2.94034 60.0646 3.41193 59.6442 3.80398C59.2294 4.19034 58.7266 4.38352 58.1357 4.38352ZM67.6491 19.1875C66.6832 19.1875 65.8054 18.9375 65.0156 18.4375C64.2259 17.9375 63.5952 17.1875 63.1236 16.1875C62.652 15.1875 62.4162 13.946 62.4162 12.4631C62.4162 10.9233 62.6605 9.65625 63.1491 8.66193C63.6378 7.66761 64.277 6.93182 65.0668 6.45454C65.8622 5.97727 66.7173 5.73864 67.6321 5.73864C68.3196 5.73864 68.9077 5.85795 69.3963 6.09659C69.8849 6.32955 70.2884 6.63068 70.6065 7C70.9247 7.36932 71.1662 7.75284 71.331 8.15057H71.4162V1.54545H75.5838V19H71.4588V16.8778H71.331C71.1548 17.2812 70.9048 17.6591 70.581 18.0114C70.2571 18.3636 69.8509 18.6477 69.3622 18.8636C68.8793 19.0795 68.3082 19.1875 67.6491 19.1875ZM69.098 15.9403C69.6037 15.9403 70.0355 15.7983 70.3935 15.5142C70.7514 15.2244 71.027 14.8182 71.2202 14.2955C71.4134 13.7727 71.5099 13.1591 71.5099 12.4545C71.5099 11.7386 71.4134 11.1222 71.2202 10.6051C71.0327 10.0881 70.7571 9.69034 70.3935 9.41193C70.0355 9.13352 69.6037 8.99432 69.098 8.99432C68.581 8.99432 68.1435 9.13636 67.7855 9.42045C67.4276 9.70455 67.1548 10.1051 66.9673 10.6222C66.7855 11.1392 66.6946 11.75 66.6946 12.4545C66.6946 13.1591 66.7884 13.7727 66.9759 14.2955C67.1634 14.8182 67.4332 15.2244 67.7855 15.5142C68.1435 15.7983 68.581 15.9403 69.098 15.9403ZM84.3303 19.2472C82.9553 19.2472 81.7734 18.9659 80.7848 18.4034C79.8018 17.8352 79.0433 17.0455 78.5092 16.0341C77.9808 15.017 77.7166 13.8381 77.7166 12.4972C77.7166 11.1506 77.9808 9.97159 78.5092 8.96023C79.0433 7.94318 79.8018 7.15341 80.7848 6.59091C81.7734 6.02273 82.9553 5.73864 84.3303 5.73864C85.7053 5.73864 86.8842 6.02273 87.8672 6.59091C88.8558 7.15341 89.6143 7.94318 90.1428 8.96023C90.6768 9.97159 90.9439 11.1506 90.9439 12.4972C90.9439 13.8381 90.6768 15.017 90.1428 16.0341C89.6143 17.0455 88.8558 17.8352 87.8672 18.4034C86.8842 18.9659 85.7053 19.2472 84.3303 19.2472ZM84.3558 16.1023C84.8558 16.1023 85.2791 15.9489 85.6257 15.642C85.9723 15.3352 86.2365 14.9091 86.4183 14.3636C86.6058 13.8182 86.6996 13.1875 86.6996 12.4716C86.6996 11.7443 86.6058 11.108 86.4183 10.5625C86.2365 10.017 85.9723 9.59091 85.6257 9.28409C85.2791 8.97727 84.8558 8.82386 84.3558 8.82386C83.8388 8.82386 83.4013 8.97727 83.0433 9.28409C82.6911 9.59091 82.4212 10.017 82.2337 10.5625C82.0518 11.108 81.9609 11.7443 81.9609 12.4716C81.9609 13.1875 82.0518 13.8182 82.2337 14.3636C82.4212 14.9091 82.6911 15.3352 83.0433 15.642C83.4013 15.9489 83.8388 16.1023 84.3558 16.1023ZM104.508 9.90625L100.681 10.0085C100.641 9.7358 100.533 9.49432 100.357 9.28409C100.181 9.06818 99.951 8.90057 99.6669 8.78125C99.3885 8.65625 99.0646 8.59375 98.6953 8.59375C98.2124 8.59375 97.8004 8.69034 97.4595 8.88352C97.1243 9.0767 96.9595 9.33807 96.9652 9.66761C96.9595 9.9233 97.0618 10.1449 97.272 10.3324C97.4879 10.5199 97.8714 10.6705 98.4226 10.7841L100.945 11.2614C102.252 11.5114 103.224 11.9261 103.86 12.5057C104.502 13.0852 104.826 13.8523 104.832 14.8068C104.826 15.7045 104.559 16.4858 104.031 17.1506C103.508 17.8153 102.792 18.3324 101.883 18.7017C100.974 19.0653 99.9339 19.2472 98.7635 19.2472C96.8942 19.2472 95.4197 18.8636 94.3402 18.0966C93.2663 17.3239 92.6527 16.2898 92.4993 14.9943L96.6158 14.892C96.7067 15.3693 96.9425 15.733 97.3232 15.983C97.7038 16.233 98.1896 16.358 98.7805 16.358C99.3146 16.358 99.7493 16.2585 100.085 16.0597C100.42 15.8608 100.59 15.5966 100.596 15.267C100.59 14.9716 100.46 14.7358 100.204 14.5597C99.9482 14.3778 99.5476 14.2358 99.0021 14.1335L96.718 13.6989C95.4055 13.4602 94.4283 13.0199 93.7862 12.3778C93.1442 11.7301 92.826 10.9062 92.8317 9.90625C92.826 9.03125 93.0589 8.28409 93.5305 7.66477C94.0021 7.03977 94.6726 6.5625 95.5419 6.23295C96.4112 5.90341 97.4368 5.73864 98.6186 5.73864C100.391 5.73864 101.789 6.1108 102.812 6.85511C103.835 7.59375 104.4 8.6108 104.508 9.90625Z" fill="black"/>
</svg>
