<svg width="91" height="36" viewBox="0 0 91 36" fill="none" xmlns="http://www.w3.org/2000/svg">
<mask id="path-1-outside-1_86_13319" maskUnits="userSpaceOnUse" x="-1" y="-1" width="93" height="38" fill="black">
<rect fill="white" x="-1" y="-1" width="93" height="38"/>
<path d="M0.876421 28V1.81818H4.8267V24.5994H16.6903V28H0.876421ZM29.1612 28.3963C27.3203 28.3963 25.7138 27.9744 24.3416 27.1307C22.9695 26.2869 21.9041 25.1065 21.1456 23.5895C20.3871 22.0724 20.0078 20.2997 20.0078 18.2713C20.0078 16.2344 20.3871 14.4531 21.1456 12.9276C21.9041 11.402 22.9695 10.2173 24.3416 9.37358C25.7138 8.52983 27.3203 8.10795 29.1612 8.10795C31.0021 8.10795 32.6087 8.52983 33.9808 9.37358C35.353 10.2173 36.4183 11.402 37.1768 12.9276C37.9354 14.4531 38.3146 16.2344 38.3146 18.2713C38.3146 20.2997 37.9354 22.0724 37.1768 23.5895C36.4183 25.1065 35.353 26.2869 33.9808 27.1307C32.6087 27.9744 31.0021 28.3963 29.1612 28.3963ZM29.174 25.1875C30.3672 25.1875 31.3558 24.8722 32.1399 24.2415C32.924 23.6108 33.5036 22.7713 33.8786 21.723C34.2621 20.6747 34.4538 19.5199 34.4538 18.2585C34.4538 17.0057 34.2621 15.8551 33.8786 14.8068C33.5036 13.75 32.924 12.902 32.1399 12.2628C31.3558 11.6236 30.3672 11.304 29.174 11.304C27.9723 11.304 26.9751 11.6236 26.1825 12.2628C25.3984 12.902 24.8146 13.75 24.4311 14.8068C24.0561 15.8551 23.8686 17.0057 23.8686 18.2585C23.8686 19.5199 24.0561 20.6747 24.4311 21.723C24.8146 22.7713 25.3984 23.6108 26.1825 24.2415C26.9751 24.8722 27.9723 25.1875 29.174 25.1875ZM50.8143 35.7727C49.2546 35.7727 47.9123 35.5682 46.7873 35.1591C45.6708 34.75 44.7589 34.2088 44.0515 33.5355C43.3441 32.8622 42.8157 32.125 42.4663 31.3239L45.7518 29.9688C45.9819 30.3438 46.2887 30.7401 46.6722 31.1577C47.0643 31.5838 47.5927 31.946 48.2575 32.2443C48.9308 32.5426 49.7958 32.6918 50.8526 32.6918C52.3015 32.6918 53.4989 32.3381 54.445 31.6307C55.391 30.9318 55.864 29.8153 55.864 28.2812V24.4205H55.6211C55.391 24.8381 55.0586 25.3026 54.6239 25.8139C54.1978 26.3253 53.6097 26.7685 52.8597 27.1435C52.1097 27.5185 51.1339 27.706 49.9322 27.706C48.381 27.706 46.9833 27.3437 45.739 26.6193C44.5032 25.8864 43.5231 24.8082 42.7987 23.3849C42.0827 21.9531 41.7248 20.1932 41.7248 18.1051C41.7248 16.017 42.0785 14.2273 42.7859 12.7358C43.5018 11.2443 44.4819 10.1023 45.7262 9.30966C46.9705 8.50852 48.381 8.10795 49.9577 8.10795C51.1765 8.10795 52.1609 8.3125 52.9109 8.72159C53.6609 9.12216 54.2447 9.59091 54.6623 10.1278C55.0884 10.6648 55.4165 11.1378 55.6467 11.5469H55.9279V8.36364H59.6737V28.4347C59.6737 30.1222 59.2816 31.5071 58.4975 32.5895C57.7134 33.6719 56.6523 34.473 55.3143 34.9929C53.9847 35.5128 52.4847 35.7727 50.8143 35.7727ZM50.7759 24.5355C51.8754 24.5355 52.8043 24.2798 53.5629 23.7685C54.3299 23.2486 54.9094 22.5071 55.3015 21.544C55.7021 20.5724 55.9023 19.4091 55.9023 18.054C55.9023 16.733 55.7063 15.5696 55.3143 14.5639C54.9222 13.5582 54.3469 12.7741 53.5884 12.2116C52.8299 11.6406 51.8924 11.3551 50.7759 11.3551C49.6254 11.3551 48.6665 11.6534 47.8995 12.25C47.1325 12.8381 46.5529 13.6392 46.1609 14.6534C45.7773 15.6676 45.5856 16.8011 45.5856 18.054C45.5856 19.3409 45.7816 20.4702 46.1737 21.4418C46.5657 22.4134 47.1452 23.1719 47.9123 23.7173C48.6879 24.2628 49.6424 24.5355 50.7759 24.5355ZM64.8001 28V8.36364H68.6225V28H64.8001ZM66.7305 5.33381C66.0657 5.33381 65.4947 5.11221 65.0174 4.66903C64.5487 4.21733 64.3143 3.6804 64.3143 3.05824C64.3143 2.42756 64.5487 1.89062 65.0174 1.44744C65.4947 0.995738 66.0657 0.769886 66.7305 0.769886C67.3952 0.769886 67.962 0.995738 68.4308 1.44744C68.908 1.89062 69.1467 2.42756 69.1467 3.05824C69.1467 3.6804 68.908 4.21733 68.4308 4.66903C67.962 5.11221 67.3952 5.33381 66.7305 5.33381ZM77.5874 16.3409V28H73.7649V8.36364H77.4339V11.5597H77.6768C78.1286 10.5199 78.8359 9.68466 79.799 9.05398C80.7706 8.4233 81.9936 8.10795 83.468 8.10795C84.8061 8.10795 85.978 8.3892 86.9837 8.9517C87.9893 9.50568 88.7692 10.3324 89.3232 11.4318C89.8771 12.5312 90.1541 13.8906 90.1541 15.5099V28H86.3317V15.9702C86.3317 14.5469 85.9609 13.4347 85.2195 12.6335C84.478 11.8239 83.4595 11.419 82.1641 11.419C81.2777 11.419 80.4893 11.6108 79.799 11.9943C79.1172 12.3778 78.576 12.9403 78.1754 13.6818C77.7834 14.4148 77.5874 15.3011 77.5874 16.3409Z"/>
</mask>
<path d="M0.876421 28V1.81818H4.8267V24.5994H16.6903V28H0.876421ZM29.1612 28.3963C27.3203 28.3963 25.7138 27.9744 24.3416 27.1307C22.9695 26.2869 21.9041 25.1065 21.1456 23.5895C20.3871 22.0724 20.0078 20.2997 20.0078 18.2713C20.0078 16.2344 20.3871 14.4531 21.1456 12.9276C21.9041 11.402 22.9695 10.2173 24.3416 9.37358C25.7138 8.52983 27.3203 8.10795 29.1612 8.10795C31.0021 8.10795 32.6087 8.52983 33.9808 9.37358C35.353 10.2173 36.4183 11.402 37.1768 12.9276C37.9354 14.4531 38.3146 16.2344 38.3146 18.2713C38.3146 20.2997 37.9354 22.0724 37.1768 23.5895C36.4183 25.1065 35.353 26.2869 33.9808 27.1307C32.6087 27.9744 31.0021 28.3963 29.1612 28.3963ZM29.174 25.1875C30.3672 25.1875 31.3558 24.8722 32.1399 24.2415C32.924 23.6108 33.5036 22.7713 33.8786 21.723C34.2621 20.6747 34.4538 19.5199 34.4538 18.2585C34.4538 17.0057 34.2621 15.8551 33.8786 14.8068C33.5036 13.75 32.924 12.902 32.1399 12.2628C31.3558 11.6236 30.3672 11.304 29.174 11.304C27.9723 11.304 26.9751 11.6236 26.1825 12.2628C25.3984 12.902 24.8146 13.75 24.4311 14.8068C24.0561 15.8551 23.8686 17.0057 23.8686 18.2585C23.8686 19.5199 24.0561 20.6747 24.4311 21.723C24.8146 22.7713 25.3984 23.6108 26.1825 24.2415C26.9751 24.8722 27.9723 25.1875 29.174 25.1875ZM50.8143 35.7727C49.2546 35.7727 47.9123 35.5682 46.7873 35.1591C45.6708 34.75 44.7589 34.2088 44.0515 33.5355C43.3441 32.8622 42.8157 32.125 42.4663 31.3239L45.7518 29.9688C45.9819 30.3438 46.2887 30.7401 46.6722 31.1577C47.0643 31.5838 47.5927 31.946 48.2575 32.2443C48.9308 32.5426 49.7958 32.6918 50.8526 32.6918C52.3015 32.6918 53.4989 32.3381 54.445 31.6307C55.391 30.9318 55.864 29.8153 55.864 28.2812V24.4205H55.6211C55.391 24.8381 55.0586 25.3026 54.6239 25.8139C54.1978 26.3253 53.6097 26.7685 52.8597 27.1435C52.1097 27.5185 51.1339 27.706 49.9322 27.706C48.381 27.706 46.9833 27.3437 45.739 26.6193C44.5032 25.8864 43.5231 24.8082 42.7987 23.3849C42.0827 21.9531 41.7248 20.1932 41.7248 18.1051C41.7248 16.017 42.0785 14.2273 42.7859 12.7358C43.5018 11.2443 44.4819 10.1023 45.7262 9.30966C46.9705 8.50852 48.381 8.10795 49.9577 8.10795C51.1765 8.10795 52.1609 8.3125 52.9109 8.72159C53.6609 9.12216 54.2447 9.59091 54.6623 10.1278C55.0884 10.6648 55.4165 11.1378 55.6467 11.5469H55.9279V8.36364H59.6737V28.4347C59.6737 30.1222 59.2816 31.5071 58.4975 32.5895C57.7134 33.6719 56.6523 34.473 55.3143 34.9929C53.9847 35.5128 52.4847 35.7727 50.8143 35.7727ZM50.7759 24.5355C51.8754 24.5355 52.8043 24.2798 53.5629 23.7685C54.3299 23.2486 54.9094 22.5071 55.3015 21.544C55.7021 20.5724 55.9023 19.4091 55.9023 18.054C55.9023 16.733 55.7063 15.5696 55.3143 14.5639C54.9222 13.5582 54.3469 12.7741 53.5884 12.2116C52.8299 11.6406 51.8924 11.3551 50.7759 11.3551C49.6254 11.3551 48.6665 11.6534 47.8995 12.25C47.1325 12.8381 46.5529 13.6392 46.1609 14.6534C45.7773 15.6676 45.5856 16.8011 45.5856 18.054C45.5856 19.3409 45.7816 20.4702 46.1737 21.4418C46.5657 22.4134 47.1452 23.1719 47.9123 23.7173C48.6879 24.2628 49.6424 24.5355 50.7759 24.5355ZM64.8001 28V8.36364H68.6225V28H64.8001ZM66.7305 5.33381C66.0657 5.33381 65.4947 5.11221 65.0174 4.66903C64.5487 4.21733 64.3143 3.6804 64.3143 3.05824C64.3143 2.42756 64.5487 1.89062 65.0174 1.44744C65.4947 0.995738 66.0657 0.769886 66.7305 0.769886C67.3952 0.769886 67.962 0.995738 68.4308 1.44744C68.908 1.89062 69.1467 2.42756 69.1467 3.05824C69.1467 3.6804 68.908 4.21733 68.4308 4.66903C67.962 5.11221 67.3952 5.33381 66.7305 5.33381ZM77.5874 16.3409V28H73.7649V8.36364H77.4339V11.5597H77.6768C78.1286 10.5199 78.8359 9.68466 79.799 9.05398C80.7706 8.4233 81.9936 8.10795 83.468 8.10795C84.8061 8.10795 85.978 8.3892 86.9837 8.9517C87.9893 9.50568 88.7692 10.3324 89.3232 11.4318C89.8771 12.5312 90.1541 13.8906 90.1541 15.5099V28H86.3317V15.9702C86.3317 14.5469 85.9609 13.4347 85.2195 12.6335C84.478 11.8239 83.4595 11.419 82.1641 11.419C81.2777 11.419 80.4893 11.6108 79.799 11.9943C79.1172 12.3778 78.576 12.9403 78.1754 13.6818C77.7834 14.4148 77.5874 15.3011 77.5874 16.3409Z" fill="#FFD1E3"/>
<path d="M0.876421 28H-0.123579V29H0.876421V28ZM0.876421 1.81818V0.818181H-0.123579V1.81818H0.876421ZM4.8267 1.81818H5.8267V0.818181H4.8267V1.81818ZM4.8267 24.5994H3.8267V25.5994H4.8267V24.5994ZM16.6903 24.5994H17.6903V23.5994H16.6903V24.5994ZM16.6903 28V29H17.6903V28H16.6903ZM1.87642 28V1.81818H-0.123579V28H1.87642ZM0.876421 2.81818H4.8267V0.818181H0.876421V2.81818ZM3.8267 1.81818V24.5994H5.8267V1.81818H3.8267ZM4.8267 25.5994H16.6903V23.5994H4.8267V25.5994ZM15.6903 24.5994V28H17.6903V24.5994H15.6903ZM16.6903 27H0.876421V29H16.6903V27ZM21.1456 23.5895L22.04 23.1423L22.04 23.1423L21.1456 23.5895ZM24.3416 9.37358L24.8654 10.2254L24.8654 10.2254L24.3416 9.37358ZM33.9808 9.37358L33.457 10.2254L33.457 10.2254L33.9808 9.37358ZM37.1768 23.5895L36.2824 23.1423L37.1768 23.5895ZM33.9808 27.1307L34.5046 27.9825L34.5046 27.9825L33.9808 27.1307ZM32.1399 24.2415L31.5132 23.4623L31.5132 23.4623L32.1399 24.2415ZM33.8786 21.723L32.9394 21.3794L32.937 21.3862L33.8786 21.723ZM33.8786 14.8068L32.9361 15.1412L32.9394 15.1504L33.8786 14.8068ZM32.1399 12.2628L31.5081 13.0379L31.5081 13.0379L32.1399 12.2628ZM26.1825 12.2628L25.5548 11.4844L25.5507 11.4877L26.1825 12.2628ZM24.4311 14.8068L23.4911 14.4657L23.4895 14.47L24.4311 14.8068ZM24.4311 21.723L23.4895 22.0598L23.492 22.0666L24.4311 21.723ZM26.1825 24.2415L25.5558 25.0207L25.5599 25.024L26.1825 24.2415ZM29.1612 27.3963C27.4783 27.3963 26.0585 27.0125 24.8654 26.2788L23.8178 27.9825C25.369 28.9364 27.1624 29.3963 29.1612 29.3963V27.3963ZM24.8654 26.2788C23.6607 25.538 22.7198 24.5018 22.04 23.1423L20.2512 24.0367C21.0885 25.7113 22.2782 27.0358 23.8178 27.9825L24.8654 26.2788ZM22.04 23.1423C21.3633 21.7887 21.0078 20.1746 21.0078 18.2713H19.0078C19.0078 20.4248 19.4109 22.3561 20.2512 24.0367L22.04 23.1423ZM21.0078 18.2713C21.0078 16.3589 21.3635 14.7355 22.041 13.3728L20.2502 12.4823C19.4107 14.1708 19.0078 16.1098 19.0078 18.2713H21.0078ZM22.041 13.3728C22.7212 12.0047 23.6621 10.9653 24.8654 10.2254L23.8178 8.52174C22.2768 9.46932 21.087 10.7992 20.2502 12.4823L22.041 13.3728ZM24.8654 10.2254C26.0585 9.49177 27.4783 9.10795 29.1612 9.10795V7.10795C27.1624 7.10795 25.369 7.56789 23.8178 8.52174L24.8654 10.2254ZM29.1612 9.10795C30.8442 9.10795 32.2639 9.49177 33.457 10.2254L34.5046 8.52174C32.9534 7.56789 31.1601 7.10795 29.1612 7.10795V9.10795ZM33.457 10.2254C34.6603 10.9653 35.6012 12.0047 36.2814 13.3728L38.0723 12.4823C37.2354 10.7992 36.0456 9.46932 34.5046 8.52174L33.457 10.2254ZM36.2814 13.3728C36.959 14.7355 37.3146 16.3589 37.3146 18.2713H39.3146C39.3146 16.1098 38.9118 14.1708 38.0723 12.4823L36.2814 13.3728ZM37.3146 18.2713C37.3146 20.1746 36.9592 21.7887 36.2824 23.1423L38.0713 24.0367C38.9116 22.3561 39.3146 20.4248 39.3146 18.2713H37.3146ZM36.2824 23.1423C35.6027 24.5018 34.6617 25.538 33.457 26.2788L34.5046 27.9825C36.0442 27.0358 37.234 25.7113 38.0713 24.0367L36.2824 23.1423ZM33.457 26.2788C32.2639 27.0125 30.8442 27.3963 29.1612 27.3963V29.3963C31.1601 29.3963 32.9534 28.9364 34.5046 27.9825L33.457 26.2788ZM29.174 26.1875C30.5511 26.1875 31.7734 25.8196 32.7667 25.0207L31.5132 23.4623C30.9383 23.9247 30.1833 24.1875 29.174 24.1875V26.1875ZM32.7667 25.0207C33.7095 24.2623 34.3898 23.2627 34.8201 22.0598L32.937 21.3862C32.6173 22.2799 32.1385 22.9593 31.5132 23.4623L32.7667 25.0207ZM34.8177 22.0666C35.2463 20.8949 35.4538 19.622 35.4538 18.2585H33.4538C33.4538 19.4178 33.2778 20.4545 32.9394 21.3794L34.8177 22.0666ZM35.4538 18.2585C35.4538 16.9027 35.2461 15.6342 34.8177 14.4632L32.9394 15.1504C33.2781 16.076 33.4538 17.1087 33.4538 18.2585H35.4538ZM34.821 14.4724C34.3916 13.2623 33.7128 12.2549 32.7718 11.4877L31.5081 13.0379C32.1352 13.5491 32.6155 14.2377 32.9361 15.1412L34.821 14.4724ZM32.7718 11.4877C31.7784 10.6779 30.5542 10.304 29.174 10.304V12.304C30.1801 12.304 30.9332 12.5693 31.5081 13.0379L32.7718 11.4877ZM29.174 10.304C27.7868 10.304 26.556 10.677 25.5548 11.4844L26.8103 13.0412C27.3943 12.5702 28.1578 12.304 29.174 12.304V10.304ZM25.5507 11.4877C24.6113 12.2534 23.9292 13.2585 23.4911 14.4657L25.3711 15.148C25.7001 14.2415 26.1855 13.5505 26.8144 13.0379L25.5507 11.4877ZM23.4895 14.47C23.0714 15.639 22.8686 16.9051 22.8686 18.2585H24.8686C24.8686 17.1062 25.0409 16.0712 25.3727 15.1436L23.4895 14.47ZM22.8686 18.2585C22.8686 19.6196 23.0711 20.8901 23.4895 22.0598L25.3727 21.3862C25.0411 20.4593 24.8686 19.4202 24.8686 18.2585H22.8686ZM23.492 22.0666C23.931 23.2666 24.6147 24.2638 25.5558 25.0207L26.8093 23.4623C26.1822 22.9578 25.6982 22.276 25.3702 21.3794L23.492 22.0666ZM25.5599 25.024C26.561 25.8205 27.79 26.1875 29.174 26.1875V24.1875C28.1546 24.1875 27.3893 23.9238 26.8052 23.459L25.5599 25.024ZM46.7873 35.1591L46.4432 36.098L46.4455 36.0989L46.7873 35.1591ZM44.0515 33.5355L44.7409 32.8112L44.7409 32.8112L44.0515 33.5355ZM42.4663 31.3239L42.085 30.3994L41.1417 30.7884L41.5497 31.7237L42.4663 31.3239ZM45.7518 29.9688L46.6041 29.4457L46.1584 28.7193L45.3705 29.0443L45.7518 29.9688ZM46.6722 31.1577L45.9357 31.8341L45.9363 31.8347L46.6722 31.1577ZM48.2575 32.2443L47.8481 33.1567L47.8524 33.1586L48.2575 32.2443ZM54.445 31.6307L53.8508 30.8263L53.8461 30.8298L54.445 31.6307ZM55.864 24.4205H56.864V23.4205H55.864V24.4205ZM55.6211 24.4205V23.4205H55.0304L54.7453 23.9378L55.6211 24.4205ZM54.6239 25.8139L53.862 25.1662L53.8557 25.1737L54.6239 25.8139ZM52.8597 27.1435L52.4125 26.249L52.4125 26.249L52.8597 27.1435ZM45.739 26.6193L45.2288 27.4794L45.2359 27.4835L45.739 26.6193ZM42.7987 23.3849L41.9042 23.8322L41.9074 23.8385L42.7987 23.3849ZM42.7859 12.7358L41.8843 12.3031L41.8823 12.3073L42.7859 12.7358ZM45.7262 9.30966L46.2635 10.1531L46.2675 10.1505L45.7262 9.30966ZM52.9109 8.72159L52.432 9.59952L52.4398 9.60367L52.9109 8.72159ZM54.6623 10.1278L53.8729 10.7418L53.879 10.7495L54.6623 10.1278ZM55.6467 11.5469L54.7751 12.0371L55.0618 12.5469H55.6467V11.5469ZM55.9279 11.5469V12.5469H56.9279V11.5469H55.9279ZM55.9279 8.36364V7.36364H54.9279V8.36364H55.9279ZM59.6737 8.36364H60.6737V7.36364H59.6737V8.36364ZM58.4975 32.5895L57.6877 32.0028L57.6877 32.0028L58.4975 32.5895ZM55.3143 34.9929L54.9521 34.0608L54.9501 34.0616L55.3143 34.9929ZM53.5629 23.7685L54.1218 24.5976L54.1239 24.5962L53.5629 23.7685ZM55.3015 21.544L54.377 21.1629L54.3753 21.167L55.3015 21.544ZM53.5884 12.2116L52.987 13.0106L52.9928 13.0149L53.5884 12.2116ZM47.8995 12.25L48.5079 13.0436L48.5134 13.0394L47.8995 12.25ZM46.1609 14.6534L45.2281 14.2928L45.2255 14.2997L46.1609 14.6534ZM46.1737 21.4418L47.101 21.0676L47.101 21.0676L46.1737 21.4418ZM47.9123 23.7173L47.3328 24.5323L47.337 24.5353L47.9123 23.7173ZM50.8143 34.7727C49.3377 34.7727 48.117 34.5785 47.129 34.2193L46.4455 36.0989C47.7076 36.5578 49.1715 36.7727 50.8143 36.7727V34.7727ZM47.1313 34.2201C46.1161 33.8482 45.33 33.3718 44.7409 32.8112L43.3621 34.2599C44.1878 35.0458 45.2255 35.6518 46.4432 36.098L47.1313 34.2201ZM44.7409 32.8112C44.1188 32.219 43.6731 31.5894 43.3829 30.9241L41.5497 31.7237C41.9583 32.6606 42.5694 33.5054 43.3621 34.2599L44.7409 32.8112ZM42.8476 32.2483L46.1331 30.8932L45.3705 29.0443L42.085 30.3994L42.8476 32.2483ZM44.8995 30.4918C45.1711 30.9345 45.5205 31.3819 45.9357 31.8341L47.4088 30.4813C47.0569 30.0982 46.7926 29.753 46.6041 29.4457L44.8995 30.4918ZM45.9363 31.8347C46.4405 32.3828 47.0905 32.8167 47.8481 33.1567L48.6668 31.332C48.0949 31.0753 47.688 30.7848 47.4082 30.4806L45.9363 31.8347ZM47.8524 33.1586C48.6961 33.5324 49.7124 33.6918 50.8526 33.6918V31.6918C49.8792 31.6918 49.1654 31.5528 48.6625 31.33L47.8524 33.1586ZM50.8526 33.6918C52.4674 33.6918 53.8888 33.2952 55.0438 32.4315L53.8461 30.8298C53.1091 31.3809 52.1355 31.6918 50.8526 31.6918V33.6918ZM55.0391 32.435C56.315 31.4925 56.864 30.0268 56.864 28.2812H54.864C54.864 29.6039 54.467 30.3711 53.8508 30.8264L55.0391 32.435ZM56.864 28.2812V24.4205H54.864V28.2812H56.864ZM55.864 23.4205H55.6211V25.4205H55.864V23.4205ZM54.7453 23.9378C54.5576 24.2784 54.2693 24.6871 53.862 25.1663L55.3859 26.4616C55.8479 25.918 56.2244 25.3977 56.4969 24.9031L54.7453 23.9378ZM53.8557 25.1737C53.5377 25.5554 53.0701 25.9203 52.4125 26.249L53.3069 28.0379C54.1494 27.6167 54.8579 27.0952 55.3922 26.4541L53.8557 25.1737ZM52.4125 26.249C51.8482 26.5312 51.0413 26.706 49.9322 26.706V28.706C51.2265 28.706 52.3712 28.5058 53.3069 28.0379L52.4125 26.249ZM49.9322 26.706C48.5437 26.706 47.3219 26.3838 46.2421 25.7551L45.2359 27.4835C46.6447 28.3037 48.2184 28.706 49.9322 28.706V26.706ZM46.2491 25.7592C45.1941 25.1335 44.3382 24.2052 43.6899 22.9313L41.9074 23.8385C42.7079 25.4113 43.8123 26.6392 45.2289 27.4794L46.2491 25.7592ZM43.6931 22.9377C43.0644 21.6804 42.7248 20.0835 42.7248 18.1051H40.7248C40.7248 20.3029 41.1011 22.2258 41.9042 23.8322L43.6931 22.9377ZM42.7248 18.1051C42.7248 16.1272 43.06 14.4913 43.6894 13.1643L41.8823 12.3073C41.0969 13.9633 40.7248 15.9069 40.7248 18.1051H42.7248ZM43.6874 13.1685C44.3326 11.8242 45.195 10.8336 46.2635 10.1531L45.189 8.46624C43.7687 9.3709 42.6709 10.6644 41.8843 12.3031L43.6874 13.1685ZM46.2675 10.1505C47.3397 9.46015 48.5599 9.10795 49.9577 9.10795V7.10795C48.2022 7.10795 46.6013 7.55689 45.1849 8.46886L46.2675 10.1505ZM49.9577 9.10795C51.0762 9.10795 51.8782 9.29743 52.432 9.59949L53.3897 7.84369C52.4435 7.32757 51.2768 7.10795 49.9577 7.10795V9.10795ZM52.4398 9.60367C53.096 9.95418 53.5601 10.3396 53.8729 10.7418L55.4516 9.5139C54.9292 8.84225 54.2257 8.29014 53.382 7.83951L52.4398 9.60367ZM53.879 10.7495C54.2858 11.2621 54.5797 11.6898 54.7751 12.0371L56.5182 11.0566C56.2534 10.5858 55.8911 10.0675 55.4456 9.50618L53.879 10.7495ZM55.6467 12.5469H55.9279V10.5469H55.6467V12.5469ZM56.9279 11.5469V8.36364H54.9279V11.5469H56.9279ZM55.9279 9.36364H59.6737V7.36364H55.9279V9.36364ZM58.6737 8.36364V28.4347H60.6737V8.36364H58.6737ZM58.6737 28.4347C58.6737 29.9672 58.319 31.1313 57.6877 32.0028L59.3074 33.1761C60.2442 31.8829 60.6737 30.2771 60.6737 28.4347H58.6737ZM57.6877 32.0028C57.0249 32.9178 56.1247 33.6052 54.9521 34.0608L55.6764 35.925C57.18 35.3408 58.402 34.426 59.3074 33.1761L57.6877 32.0028ZM54.9501 34.0616C53.7546 34.5291 52.381 34.7727 50.8143 34.7727V36.7727C52.5885 36.7727 54.2149 36.4965 55.6785 35.9242L54.9501 34.0616ZM50.7759 25.5355C52.0337 25.5355 53.1673 25.2412 54.1218 24.5976L53.0039 22.9393C52.4414 23.3185 51.717 23.5355 50.7759 23.5355V25.5355ZM54.1239 24.5962C55.0741 23.9523 55.7706 23.044 56.2277 21.9211L54.3753 21.167C54.0483 21.9702 53.5857 22.5449 53.0018 22.9407L54.1239 24.5962ZM56.226 21.9252C56.6886 20.8032 56.9023 19.5037 56.9023 18.054H54.9023C54.9023 19.3145 54.7156 20.3416 54.377 21.1629L56.226 21.9252ZM56.9023 18.054C56.9023 16.6357 56.692 15.3449 56.246 14.2007L54.3826 14.9271C54.7206 15.7943 54.9023 16.8303 54.9023 18.054H56.9023ZM56.246 14.2007C55.7956 13.0453 55.1145 12.0984 54.1841 11.4084L52.9928 13.0149C53.5794 13.4499 54.0489 14.0711 54.3826 14.9271L56.246 14.2007ZM54.1899 11.4127C53.2289 10.6893 52.0699 10.3551 50.7759 10.3551V12.3551C51.7149 12.3551 52.4309 12.592 52.987 13.0106L54.1899 11.4127ZM50.7759 10.3551C49.4454 10.3551 48.2589 10.7036 47.2856 11.4606L48.5134 13.0394C49.0742 12.6032 49.8053 12.3551 50.7759 12.3551V10.3551ZM47.2911 11.4564C46.3606 12.1698 45.6779 13.1292 45.2281 14.2929L47.0936 15.014C47.4279 14.1492 47.9044 13.5063 48.5079 13.0436L47.2911 11.4564ZM45.2255 14.2997C44.7932 15.443 44.5856 16.6988 44.5856 18.054H46.5856C46.5856 16.9035 46.7615 15.8922 47.0962 15.0071L45.2255 14.2997ZM44.5856 18.054C44.5856 19.4407 44.7967 20.7017 45.2463 21.816L47.101 21.0676C46.7665 20.2387 46.5856 19.2411 46.5856 18.054H44.5856ZM45.2463 21.816C45.7015 22.944 46.3928 23.8639 47.3328 24.5323L48.4918 22.9024C47.8977 22.4799 47.4299 21.8827 47.101 21.0676L45.2463 21.816ZM47.337 24.5353C48.3118 25.2209 49.4776 25.5355 50.7759 25.5355V23.5355C49.8072 23.5355 49.0639 23.3047 48.4876 22.8994L47.337 24.5353ZM64.8001 28H63.8001V29H64.8001V28ZM64.8001 8.36364V7.36364H63.8001V8.36364H64.8001ZM68.6225 8.36364H69.6225V7.36364H68.6225V8.36364ZM68.6225 28V29H69.6225V28H68.6225ZM65.0174 4.66903L64.3235 5.38911L64.3302 5.39553L64.3369 5.40183L65.0174 4.66903ZM65.0174 1.44744L65.7044 2.17409L65.7048 2.17374L65.0174 1.44744ZM68.4308 1.44744L67.7369 2.16752L67.7435 2.17394L67.7503 2.18023L68.4308 1.44744ZM68.4308 4.66903L69.1178 5.39568L69.1181 5.39533L68.4308 4.66903ZM65.8001 28V8.36364H63.8001V28H65.8001ZM64.8001 9.36364H68.6225V7.36364H64.8001V9.36364ZM67.6225 8.36364V28H69.6225V8.36364H67.6225ZM68.6225 27H64.8001V29H68.6225V27ZM66.7305 4.33381C66.3123 4.33381 65.986 4.20377 65.6979 3.93624L64.3369 5.40183C65.0034 6.02066 65.8191 6.33381 66.7305 6.33381V4.33381ZM65.7113 3.94895C65.428 3.67596 65.3143 3.39498 65.3143 3.05824H63.3143C63.3143 3.96582 63.6693 4.7587 64.3235 5.38911L65.7113 3.94895ZM65.3143 3.05824C65.3143 2.70952 65.4303 2.43326 65.7044 2.17409L64.3304 0.720796C63.667 1.34799 63.3143 2.14559 63.3143 3.05824H65.3143ZM65.7048 2.17374C65.994 1.90005 66.3181 1.76989 66.7305 1.76989V-0.230114C65.8133 -0.230114 64.9954 0.0914206 64.33 0.721148L65.7048 2.17374ZM66.7305 1.76989C67.1426 1.76989 67.4588 1.8996 67.7369 2.16752L69.1246 0.727364C68.4652 0.0918765 67.6479 -0.230114 66.7305 -0.230114V1.76989ZM67.7503 2.18023C68.0313 2.4412 68.1467 2.71575 68.1467 3.05824H70.1467C70.1467 2.13936 69.7847 1.34004 69.1112 0.714649L67.7503 2.18023ZM68.1467 3.05824C68.1467 3.38878 68.0337 3.668 67.7434 3.94274L69.1181 5.39533C69.7824 4.76665 70.1467 3.97201 70.1467 3.05824H68.1467ZM67.7437 3.94239C67.4669 4.20417 67.1484 4.33381 66.7305 4.33381V6.33381C67.6421 6.33381 68.4572 6.02026 69.1178 5.39568L67.7437 3.94239ZM77.5874 28V29H78.5874V28H77.5874ZM73.7649 28H72.7649V29H73.7649V28ZM73.7649 8.36364V7.36364H72.7649V8.36364H73.7649ZM77.4339 8.36364H78.4339V7.36364H77.4339V8.36364ZM77.4339 11.5597H76.4339V12.5597H77.4339V11.5597ZM77.6768 11.5597V12.5597H78.3327L78.594 11.9581L77.6768 11.5597ZM79.799 9.05398L79.2545 8.21519L79.2512 8.2174L79.799 9.05398ZM86.9837 8.9517L86.4955 9.82448L86.5012 9.82761L86.9837 8.9517ZM89.3232 11.4318L88.4301 11.8818L88.4301 11.8818L89.3232 11.4318ZM90.1541 28V29H91.1541V28H90.1541ZM86.3317 28H85.3317V29H86.3317V28ZM85.2195 12.6335L84.482 13.3089L84.4856 13.3128L85.2195 12.6335ZM79.799 11.9943L79.3134 11.1201L79.3087 11.1227L79.799 11.9943ZM78.1754 13.6818L77.2956 13.2065L77.2936 13.2102L78.1754 13.6818ZM76.5874 16.3409V28H78.5874V16.3409H76.5874ZM77.5874 27H73.7649V29H77.5874V27ZM74.7649 28V8.36364H72.7649V28H74.7649ZM73.7649 9.36364H77.4339V7.36364H73.7649V9.36364ZM76.4339 8.36364V11.5597H78.4339V8.36364H76.4339ZM77.4339 12.5597H77.6768V10.5597H77.4339V12.5597ZM78.594 11.9581C78.9667 11.1002 79.5443 10.4161 80.3469 9.89055L79.2512 8.2174C78.1276 8.95321 77.2904 9.93957 76.7597 11.1612L78.594 11.9581ZM80.3435 9.89276C81.114 9.39258 82.1345 9.10795 83.468 9.10795V7.10795C81.8527 7.10795 80.4272 7.45401 79.2545 8.2152L80.3435 9.89276ZM83.468 9.10795C84.663 9.10795 85.6615 9.35798 86.4955 9.82446L87.4718 8.07895C86.2945 7.42042 84.9492 7.10795 83.468 7.10795V9.10795ZM86.5012 9.82761C87.3172 10.2771 87.96 10.9488 88.4301 11.8818L90.2162 10.9818C89.5783 9.71597 88.6615 8.73424 87.4662 8.0758L86.5012 9.82761ZM88.4301 11.8818C88.8952 12.8048 89.1541 13.9996 89.1541 15.5099H91.1541C91.1541 13.7817 90.8591 12.2577 90.2162 10.9818L88.4301 11.8818ZM89.1541 15.5099V28H91.1541V15.5099H89.1541ZM90.1541 27H86.3317V29H90.1541V27ZM87.3317 28V15.9702H85.3317V28H87.3317ZM87.3317 15.9702C87.3317 14.3738 86.9128 12.9909 85.9534 11.9543L84.4856 13.3128C85.0091 13.8784 85.3317 14.72 85.3317 15.9702H87.3317ZM85.9569 11.9581C84.9918 10.9042 83.6849 10.419 82.1641 10.419V12.419C83.2341 12.419 83.9642 12.7435 84.482 13.3089L85.9569 11.9581ZM82.1641 10.419C81.1289 10.419 80.1697 10.6444 79.3134 11.1202L80.2846 12.8685C80.809 12.5772 81.4265 12.419 82.1641 12.419V10.419ZM79.3087 11.1227C78.4495 11.6061 77.7787 12.3122 77.2956 13.2065L79.0552 14.1571C79.3732 13.5685 79.7849 13.1496 80.2893 12.8659L79.3087 11.1227ZM77.2936 13.2102C76.8069 14.1202 76.5874 15.1771 76.5874 16.3409H78.5874C78.5874 15.4252 78.7599 14.7094 79.0572 14.1535L77.2936 13.2102Z" fill="#666666" fill-opacity="0.4" mask="url(#path-1-outside-1_86_13319)"/>
</svg>
