<svg width="46" height="42" viewBox="0 0 46 42" fill="none" xmlns="http://www.w3.org/2000/svg">
<path d="M21.9434 1.52706C22.1843 1.80663 22.3719 2.13564 22.4956 2.49523C22.6193 2.85482 22.6766 3.23792 22.6641 3.62255C22.6517 4.00718 22.5698 4.38577 22.4232 4.73662C22.2765 5.08748 22.068 5.40369 21.8096 5.66712L9.9141 17.8352L42.7175 18.8957C43.4277 18.9186 44.0989 19.2485 44.5833 19.8128C45.0678 20.3771 45.3259 21.1296 45.3008 21.9046C45.2758 22.6797 44.9696 23.4139 44.4497 23.9457C43.9298 24.4775 43.2387 24.7634 42.5285 24.7404L9.72515 23.68L20.8097 36.5958C21.295 37.1611 21.5536 37.9148 21.5285 38.6913C21.5034 39.4677 21.1967 40.2031 20.6759 40.7359C20.1551 41.2686 19.4628 41.555 18.7514 41.532C18.0399 41.509 17.3676 41.1785 16.8823 40.6132L1.38218 22.5594C1.14131 22.2799 0.953661 21.9509 0.829989 21.5913C0.706317 21.2317 0.649057 20.8486 0.661491 20.464C0.673925 20.0793 0.75581 19.7007 0.902449 19.3499C1.04909 18.999 1.2576 18.6828 1.51602 18.4194L18.1498 1.40442C18.4074 1.14002 18.71 0.933403 19.0403 0.796424C19.3706 0.659448 19.722 0.5948 20.0744 0.606193C20.4269 0.617587 20.7734 0.704799 21.0941 0.86282C21.4148 1.02084 21.7035 1.24657 21.9434 1.52706Z" fill="#FFD1E3"/>
</svg>
