<svg width="84" height="28" viewBox="0 0 84 28" fill="none" xmlns="http://www.w3.org/2000/svg">
<path d="M0 14C0 6.26801 6.26801 0 14 0H70C77.732 0 84 6.26801 84 14C84 21.732 77.732 28 70 28H14C6.26802 28 0 21.732 0 14Z" fill="black"/>
<path d="M25.8864 7.36364L29.3409 17.1591H29.4773L32.9318 7.36364H34.4091L30.1364 19H28.6818L24.4091 7.36364H25.8864ZM36.0398 19V10.2727H37.3807V19H36.0398ZM36.7216 8.81818C36.4602 8.81818 36.2348 8.72917 36.0455 8.55114C35.8598 8.37311 35.767 8.15909 35.767 7.90909C35.767 7.65909 35.8598 7.44508 36.0455 7.26705C36.2348 7.08902 36.4602 7 36.7216 7C36.983 7 37.2064 7.08902 37.392 7.26705C37.5814 7.44508 37.6761 7.65909 37.6761 7.90909C37.6761 8.15909 37.5814 8.37311 37.392 8.55114C37.2064 8.72917 36.983 8.81818 36.7216 8.81818ZM43.4957 19.1818C42.6548 19.1818 41.9295 18.9962 41.3196 18.625C40.7135 18.25 40.2457 17.7273 39.9162 17.0568C39.5904 16.3826 39.4276 15.5985 39.4276 14.7045C39.4276 13.8106 39.5904 13.0227 39.9162 12.3409C40.2457 11.6553 40.7041 11.1212 41.2912 10.7386C41.8821 10.3523 42.5715 10.1591 43.3594 10.1591C43.8139 10.1591 44.2628 10.2348 44.706 10.3864C45.1491 10.5379 45.5526 10.7841 45.9162 11.125C46.2798 11.4621 46.5696 11.9091 46.7855 12.4659C47.0014 13.0227 47.1094 13.7083 47.1094 14.5227V15.0909H40.3821V13.9318H45.7457C45.7457 13.4394 45.6473 13 45.4503 12.6136C45.2571 12.2273 44.9806 11.9223 44.6207 11.6989C44.2647 11.4754 43.8442 11.3636 43.3594 11.3636C42.8253 11.3636 42.3632 11.4962 41.973 11.7614C41.5866 12.0227 41.2893 12.3636 41.081 12.7841C40.8726 13.2045 40.7685 13.6553 40.7685 14.1364V14.9091C40.7685 15.5682 40.8821 16.1269 41.1094 16.5852C41.3404 17.0398 41.6605 17.3864 42.0696 17.625C42.4787 17.8598 42.9541 17.9773 43.4957 17.9773C43.848 17.9773 44.1662 17.928 44.4503 17.8295C44.7382 17.7273 44.9863 17.5758 45.1946 17.375C45.4029 17.1705 45.5639 16.9167 45.6776 16.6136L46.973 16.9773C46.8366 17.4167 46.6075 17.803 46.2855 18.1364C45.9635 18.4659 45.5658 18.7235 45.0923 18.9091C44.6188 19.0909 44.0866 19.1818 43.4957 19.1818ZM51.1264 19L48.4673 10.2727H49.8764L51.7628 16.9545H51.8537L53.7173 10.2727H55.1491L56.9901 16.9318H57.081L58.9673 10.2727H60.3764L57.7173 19H56.3991L54.4901 12.2955H54.3537L52.4446 19H51.1264Z" fill="#5BBCFF"/>
</svg>
