<svg width="205" height="57" viewBox="0 0 205 57" fill="none" xmlns="http://www.w3.org/2000/svg">
<rect width="205" height="57" rx="28.5" fill="#1C1C1C"/>
<path d="M59.5568 37V13.7273H63.0682V33.9773H73.6136V37H59.5568ZM84.6989 37.3523C83.0625 37.3523 81.6345 36.9773 80.4148 36.2273C79.1951 35.4773 78.2481 34.428 77.5739 33.0795C76.8996 31.7311 76.5625 30.1553 76.5625 28.3523C76.5625 26.5417 76.8996 24.9583 77.5739 23.6023C78.2481 22.2462 79.1951 21.1932 80.4148 20.4432C81.6345 19.6932 83.0625 19.3182 84.6989 19.3182C86.3352 19.3182 87.7633 19.6932 88.983 20.4432C90.2027 21.1932 91.1496 22.2462 91.8239 23.6023C92.4981 24.9583 92.8352 26.5417 92.8352 28.3523C92.8352 30.1553 92.4981 31.7311 91.8239 33.0795C91.1496 34.428 90.2027 35.4773 88.983 36.2273C87.7633 36.9773 86.3352 37.3523 84.6989 37.3523ZM84.7102 34.5C85.7708 34.5 86.6496 34.2197 87.3466 33.6591C88.0436 33.0985 88.5587 32.3523 88.892 31.4205C89.233 30.4886 89.4034 29.4621 89.4034 28.3409C89.4034 27.2273 89.233 26.2045 88.892 25.2727C88.5587 24.3333 88.0436 23.5795 87.3466 23.0114C86.6496 22.4432 85.7708 22.1591 84.7102 22.1591C83.642 22.1591 82.7557 22.4432 82.0511 23.0114C81.3542 23.5795 80.8352 24.3333 80.4943 25.2727C80.161 26.2045 79.9943 27.2273 79.9943 28.3409C79.9943 29.4621 80.161 30.4886 80.4943 31.4205C80.8352 32.3523 81.3542 33.0985 82.0511 33.6591C82.7557 34.2197 83.642 34.5 84.7102 34.5ZM103.946 43.9091C102.56 43.9091 101.366 43.7273 100.366 43.3636C99.3741 43 98.5634 42.5189 97.9347 41.9205C97.3059 41.322 96.8362 40.6667 96.5256 39.9545L99.446 38.75C99.6506 39.0833 99.9233 39.4356 100.264 39.8068C100.613 40.1856 101.082 40.5076 101.673 40.7727C102.272 41.0379 103.041 41.1705 103.98 41.1705C105.268 41.1705 106.332 40.8561 107.173 40.2273C108.014 39.6061 108.435 38.6136 108.435 37.25V33.8182H108.219C108.014 34.1894 107.719 34.6023 107.332 35.0568C106.954 35.5114 106.431 35.9053 105.764 36.2386C105.098 36.572 104.23 36.7386 103.162 36.7386C101.783 36.7386 100.541 36.4167 99.4347 35.7727C98.3362 35.1212 97.465 34.1629 96.821 32.8977C96.1847 31.625 95.8665 30.0606 95.8665 28.2045C95.8665 26.3485 96.1809 24.7576 96.8097 23.4318C97.446 22.1061 98.3172 21.0909 99.4233 20.3864C100.529 19.6742 101.783 19.3182 103.185 19.3182C104.268 19.3182 105.143 19.5 105.81 19.8636C106.476 20.2197 106.995 20.6364 107.366 21.1136C107.745 21.5909 108.037 22.0114 108.241 22.375H108.491V19.5455H111.821V37.3864C111.821 38.8864 111.473 40.1174 110.776 41.0795C110.079 42.0417 109.135 42.7538 107.946 43.2159C106.764 43.678 105.431 43.9091 103.946 43.9091ZM103.912 33.9205C104.889 33.9205 105.715 33.6932 106.389 33.2386C107.071 32.7765 107.586 32.1174 107.935 31.2614C108.291 30.3977 108.469 29.3636 108.469 28.1591C108.469 26.9848 108.295 25.9508 107.946 25.0568C107.598 24.1629 107.086 23.4659 106.412 22.9659C105.738 22.4583 104.904 22.2045 103.912 22.2045C102.889 22.2045 102.037 22.4697 101.355 23C100.673 23.5227 100.158 24.2348 99.8097 25.1364C99.4688 26.0379 99.2983 27.0455 99.2983 28.1591C99.2983 29.303 99.4725 30.3068 99.821 31.1705C100.17 32.0341 100.685 32.7083 101.366 33.1932C102.056 33.678 102.904 33.9205 103.912 33.9205ZM116.378 37V19.5455H119.776V37H116.378ZM118.094 16.8523C117.503 16.8523 116.995 16.6553 116.571 16.2614C116.154 15.8598 115.946 15.3826 115.946 14.8295C115.946 14.2689 116.154 13.7917 116.571 13.3977C116.995 12.9962 117.503 12.7955 118.094 12.7955C118.685 12.7955 119.188 12.9962 119.605 13.3977C120.029 13.7917 120.241 14.2689 120.241 14.8295C120.241 15.3826 120.029 15.8598 119.605 16.2614C119.188 16.6553 118.685 16.8523 118.094 16.8523ZM127.744 26.6364V37H124.347V19.5455H127.608V22.3864H127.824C128.225 21.4621 128.854 20.7197 129.71 20.1591C130.574 19.5985 131.661 19.3182 132.972 19.3182C134.161 19.3182 135.203 19.5682 136.097 20.0682C136.991 20.5606 137.684 21.2955 138.176 22.2727C138.669 23.25 138.915 24.4583 138.915 25.8977V37H135.517V26.3068C135.517 25.0417 135.188 24.053 134.528 23.3409C133.869 22.6212 132.964 22.2614 131.812 22.2614C131.025 22.2614 130.324 22.4318 129.71 22.7727C129.104 23.1136 128.623 23.6136 128.267 24.2727C127.919 24.9242 127.744 25.7121 127.744 26.6364Z" fill="#5BBCFF"/>
</svg>
