<svg width="125" height="30" viewBox="0 0 125 30" fill="none" xmlns="http://www.w3.org/2000/svg">
<mask id="path-1-outside-1_86_9876" maskUnits="userSpaceOnUse" x="-1" y="-1" width="128" height="32" fill="black">
<rect fill="white" x="-1" y="-1" width="128" height="32"/>
<path d="M0.522727 30V0.90909H18.0795V4.03409H4.04545V13.8636H17.1705V16.9886H4.04545V26.875H18.3068V30H0.522727ZM47.4972 0.90909V30H44.0881L28.2358 7.15909H27.9517V30H24.429V0.90909H27.8381L43.7472 23.8068H44.0312V0.90909H47.4972ZM52.9553 4.03409V0.90909H74.7734V4.03409H65.6257V30H62.103V4.03409H52.9553ZM80.2102 30V0.90909H97.767V4.03409H83.733V13.8636H96.858V16.9886H83.733V26.875H97.9943V30H80.2102ZM104.116 30V0.90909H113.946C116.219 0.90909 118.084 1.29735 119.543 2.07386C121.001 2.84091 122.08 3.89678 122.781 5.24148C123.482 6.58617 123.832 8.11553 123.832 9.82955C123.832 11.5436 123.482 13.0634 122.781 14.3892C122.08 15.715 121.006 16.7566 119.557 17.5142C118.108 18.2623 116.257 18.6364 114.003 18.6364H106.048V15.4545H113.889C115.442 15.4545 116.692 15.2273 117.639 14.7727C118.596 14.3182 119.287 13.6742 119.713 12.8409C120.149 11.9981 120.366 10.9943 120.366 9.82955C120.366 8.66477 120.149 7.64678 119.713 6.77557C119.277 5.90436 118.581 5.23201 117.625 4.75852C116.669 4.27557 115.404 4.03409 113.832 4.03409H107.639V30H104.116ZM117.81 16.9318L124.969 30H120.878L113.832 16.9318H117.81Z"/>
</mask>
<path d="M0.522727 30V0.90909H18.0795V4.03409H4.04545V13.8636H17.1705V16.9886H4.04545V26.875H18.3068V30H0.522727ZM47.4972 0.90909V30H44.0881L28.2358 7.15909H27.9517V30H24.429V0.90909H27.8381L43.7472 23.8068H44.0312V0.90909H47.4972ZM52.9553 4.03409V0.90909H74.7734V4.03409H65.6257V30H62.103V4.03409H52.9553ZM80.2102 30V0.90909H97.767V4.03409H83.733V13.8636H96.858V16.9886H83.733V26.875H97.9943V30H80.2102ZM104.116 30V0.90909H113.946C116.219 0.90909 118.084 1.29735 119.543 2.07386C121.001 2.84091 122.08 3.89678 122.781 5.24148C123.482 6.58617 123.832 8.11553 123.832 9.82955C123.832 11.5436 123.482 13.0634 122.781 14.3892C122.08 15.715 121.006 16.7566 119.557 17.5142C118.108 18.2623 116.257 18.6364 114.003 18.6364H106.048V15.4545H113.889C115.442 15.4545 116.692 15.2273 117.639 14.7727C118.596 14.3182 119.287 13.6742 119.713 12.8409C120.149 11.9981 120.366 10.9943 120.366 9.82955C120.366 8.66477 120.149 7.64678 119.713 6.77557C119.277 5.90436 118.581 5.23201 117.625 4.75852C116.669 4.27557 115.404 4.03409 113.832 4.03409H107.639V30H104.116ZM117.81 16.9318L124.969 30H120.878L113.832 16.9318H117.81Z" fill="#5BBCFF"/>
<path d="M0.522727 30H-0.477273V31H0.522727V30ZM0.522727 0.90909V-0.09091H-0.477273V0.90909H0.522727ZM18.0795 0.90909H19.0795V-0.09091H18.0795V0.90909ZM18.0795 4.03409V5.03409H19.0795V4.03409H18.0795ZM4.04545 4.03409V3.03409H3.04545V4.03409H4.04545ZM4.04545 13.8636H3.04545V14.8636H4.04545V13.8636ZM17.1705 13.8636H18.1705V12.8636H17.1705V13.8636ZM17.1705 16.9886V17.9886H18.1705V16.9886H17.1705ZM4.04545 16.9886V15.9886H3.04545V16.9886H4.04545ZM4.04545 26.875H3.04545V27.875H4.04545V26.875ZM18.3068 26.875H19.3068V25.875H18.3068V26.875ZM18.3068 30V31H19.3068V30H18.3068ZM1.52273 30V0.90909H-0.477273V30H1.52273ZM0.522727 1.90909H18.0795V-0.09091H0.522727V1.90909ZM17.0795 0.90909V4.03409H19.0795V0.90909H17.0795ZM18.0795 3.03409H4.04545V5.03409H18.0795V3.03409ZM3.04545 4.03409V13.8636H5.04545V4.03409H3.04545ZM4.04545 14.8636H17.1705V12.8636H4.04545V14.8636ZM16.1705 13.8636V16.9886H18.1705V13.8636H16.1705ZM17.1705 15.9886H4.04545V17.9886H17.1705V15.9886ZM3.04545 16.9886V26.875H5.04545V16.9886H3.04545ZM4.04545 27.875H18.3068V25.875H4.04545V27.875ZM17.3068 26.875V30H19.3068V26.875H17.3068ZM18.3068 29H0.522727V31H18.3068V29ZM47.4972 0.90909H48.4972V-0.09091H47.4972V0.90909ZM47.4972 30V31H48.4972V30H47.4972ZM44.0881 30L43.2665 30.5702L43.5649 31H44.0881V30ZM28.2358 7.15909L29.0573 6.58892L28.759 6.15909H28.2358V7.15909ZM27.9517 7.15909V6.15909H26.9517V7.15909H27.9517ZM27.9517 30V31H28.9517V30H27.9517ZM24.429 30H23.429V31H24.429V30ZM24.429 0.90909V-0.09091H23.429V0.90909H24.429ZM27.8381 0.90909L28.6593 0.338503L28.361 -0.09091H27.8381V0.90909ZM43.7472 23.8068L42.9259 24.3774L43.2243 24.8068H43.7472V23.8068ZM44.0312 23.8068V24.8068H45.0312V23.8068H44.0312ZM44.0312 0.90909V-0.09091H43.0312V0.90909H44.0312ZM46.4972 0.90909V30H48.4972V0.90909H46.4972ZM47.4972 29H44.0881V31H47.4972V29ZM44.9096 29.4298L29.0573 6.58892L27.4143 7.72926L43.2665 30.5702L44.9096 29.4298ZM28.2358 6.15909H27.9517V8.15909H28.2358V6.15909ZM26.9517 7.15909V30H28.9517V7.15909H26.9517ZM27.9517 29H24.429V31H27.9517V29ZM25.429 30V0.90909H23.429V30H25.429ZM24.429 1.90909H27.8381V-0.09091H24.429V1.90909ZM27.0168 1.47968L42.9259 24.3774L44.5684 23.2362L28.6593 0.338503L27.0168 1.47968ZM43.7472 24.8068H44.0312V22.8068H43.7472V24.8068ZM45.0312 23.8068V0.90909H43.0312V23.8068H45.0312ZM44.0312 1.90909H47.4972V-0.09091H44.0312V1.90909ZM52.9553 4.03409H51.9553V5.03409H52.9553V4.03409ZM52.9553 0.90909V-0.09091H51.9553V0.90909H52.9553ZM74.7734 0.90909H75.7734V-0.09091H74.7734V0.90909ZM74.7734 4.03409V5.03409H75.7734V4.03409H74.7734ZM65.6257 4.03409V3.03409H64.6257V4.03409H65.6257ZM65.6257 30V31H66.6257V30H65.6257ZM62.103 30H61.103V31H62.103V30ZM62.103 4.03409H63.103V3.03409H62.103V4.03409ZM53.9553 4.03409V0.90909H51.9553V4.03409H53.9553ZM52.9553 1.90909H74.7734V-0.09091H52.9553V1.90909ZM73.7734 0.90909V4.03409H75.7734V0.90909H73.7734ZM74.7734 3.03409H65.6257V5.03409H74.7734V3.03409ZM64.6257 4.03409V30H66.6257V4.03409H64.6257ZM65.6257 29H62.103V31H65.6257V29ZM63.103 30V4.03409H61.103V30H63.103ZM62.103 3.03409H52.9553V5.03409H62.103V3.03409ZM80.2102 30H79.2102V31H80.2102V30ZM80.2102 0.90909V-0.09091H79.2102V0.90909H80.2102ZM97.767 0.90909H98.767V-0.09091H97.767V0.90909ZM97.767 4.03409V5.03409H98.767V4.03409H97.767ZM83.733 4.03409V3.03409H82.733V4.03409H83.733ZM83.733 13.8636H82.733V14.8636H83.733V13.8636ZM96.858 13.8636H97.858V12.8636H96.858V13.8636ZM96.858 16.9886V17.9886H97.858V16.9886H96.858ZM83.733 16.9886V15.9886H82.733V16.9886H83.733ZM83.733 26.875H82.733V27.875H83.733V26.875ZM97.9943 26.875H98.9943V25.875H97.9943V26.875ZM97.9943 30V31H98.9943V30H97.9943ZM81.2102 30V0.90909H79.2102V30H81.2102ZM80.2102 1.90909H97.767V-0.09091H80.2102V1.90909ZM96.767 0.90909V4.03409H98.767V0.90909H96.767ZM97.767 3.03409H83.733V5.03409H97.767V3.03409ZM82.733 4.03409V13.8636H84.733V4.03409H82.733ZM83.733 14.8636H96.858V12.8636H83.733V14.8636ZM95.858 13.8636V16.9886H97.858V13.8636H95.858ZM96.858 15.9886H83.733V17.9886H96.858V15.9886ZM82.733 16.9886V26.875H84.733V16.9886H82.733ZM83.733 27.875H97.9943V25.875H83.733V27.875ZM96.9943 26.875V30H98.9943V26.875H96.9943ZM97.9943 29H80.2102V31H97.9943V29ZM104.116 30H103.116V31H104.116V30ZM104.116 0.90909V-0.09091H103.116V0.90909H104.116ZM119.543 2.07386L119.073 2.95654L119.077 2.95891L119.543 2.07386ZM122.781 5.24148L121.894 5.70362V5.70362L122.781 5.24148ZM122.781 14.3892L121.897 13.9219L122.781 14.3892ZM119.557 17.5142L120.016 18.4028L120.02 18.4004L119.557 17.5142ZM106.048 18.6364H105.048V19.6364H106.048V18.6364ZM106.048 15.4545V14.4545H105.048V15.4545H106.048ZM117.639 14.7727L117.21 13.8695L117.206 13.8712L117.639 14.7727ZM119.713 12.8409L118.825 12.3818L118.823 12.3856L119.713 12.8409ZM117.625 4.75852L117.174 5.6512L117.181 5.65472L117.625 4.75852ZM107.639 4.03409V3.03409H106.639V4.03409H107.639ZM107.639 30V31H108.639V30H107.639ZM117.81 16.9318L118.687 16.4514L118.402 15.9318H117.81V16.9318ZM124.969 30V31H126.657L125.846 29.5195L124.969 30ZM120.878 30L119.998 30.4746L120.281 31H120.878V30ZM113.832 16.9318V15.9318H112.157L112.952 17.4064L113.832 16.9318ZM105.116 30V0.90909H103.116V30H105.116ZM104.116 1.90909H113.946V-0.09091H104.116V1.90909ZM113.946 1.90909C116.113 1.90909 117.803 2.28052 119.073 2.95653L120.013 1.19119C118.366 0.314179 116.324 -0.09091 113.946 -0.09091V1.90909ZM119.077 2.95891C120.372 3.63978 121.296 4.55525 121.894 5.70362L123.668 4.77934C122.865 3.23831 121.63 2.04203 120.008 1.18882L119.077 2.95891ZM121.894 5.70362C122.512 6.88793 122.832 8.25524 122.832 9.82954H124.832C124.832 7.97582 124.452 6.28442 123.668 4.77934L121.894 5.70362ZM122.832 9.82954C122.832 11.4042 122.512 12.7596 121.897 13.9219L123.665 14.8565C124.452 13.3673 124.832 11.683 124.832 9.82954H122.832ZM121.897 13.9219C121.3 15.0524 120.38 15.9554 119.093 16.628L120.02 18.4004C121.631 17.5579 122.861 16.3775 123.665 14.8565L121.897 13.9219ZM119.098 16.6257C117.835 17.278 116.155 17.6364 114.003 17.6364V19.6364C116.359 19.6364 118.381 19.2466 120.016 18.4027L119.098 16.6257ZM114.003 17.6364H106.048V19.6364H114.003V17.6364ZM107.048 18.6364V15.4545H105.048V18.6364H107.048ZM106.048 16.4545H113.889V14.4545H106.048V16.4545ZM113.889 16.4545C115.526 16.4545 116.941 16.2171 118.072 15.6742L117.206 13.8712C116.443 14.2375 115.358 14.4545 113.889 14.4545V16.4545ZM118.068 15.6759C119.196 15.1399 120.064 14.3509 120.603 13.2962L118.823 12.3856C118.51 12.9976 117.995 13.4964 117.21 13.8695L118.068 15.6759ZM120.601 13.3001C121.125 12.2866 121.366 11.1182 121.366 9.82954H119.366C119.366 10.8704 119.172 11.7096 118.825 12.3818L120.601 13.3001ZM121.366 9.82954C121.366 8.53965 121.125 7.36306 120.607 6.32835L118.819 7.22278C119.173 7.9305 119.366 8.7899 119.366 9.82954H121.366ZM120.607 6.32835C120.065 5.24358 119.2 4.42264 118.069 3.86233L117.181 5.65472C117.962 6.04138 118.49 6.56514 118.819 7.22278L120.607 6.32835ZM118.076 3.86587C116.93 3.28714 115.493 3.03409 113.832 3.03409V5.03409C115.315 5.03409 116.407 5.264 117.174 5.65117L118.076 3.86587ZM113.832 3.03409H107.639V5.03409H113.832V3.03409ZM106.639 4.03409V30H108.639V4.03409H106.639ZM107.639 29H104.116V31H107.639V29ZM116.933 17.4123L124.092 30.4805L125.846 29.5195L118.687 16.4514L116.933 17.4123ZM124.969 29H120.878V31H124.969V29ZM121.758 29.5254L114.713 16.4573L112.952 17.4064L119.998 30.4746L121.758 29.5254ZM113.832 17.9318H117.81V15.9318H113.832V17.9318Z" fill="black" mask="url(#path-1-outside-1_86_9876)"/>
</svg>
