<svg width="26" height="26" viewBox="0 0 26 26" fill="none" xmlns="http://www.w3.org/2000/svg">
<path d="M8 0C7.20435 0 6.44129 0.31607 5.87868 0.87868C5.31607 1.44129 5 2.20435 5 3V23C5 23.7956 5.31607 24.5587 5.87868 25.1213C6.44129 25.6839 7.20435 26 8 26H19C19.7956 26 20.5587 25.6839 21.1213 25.1213C21.6839 24.5587 22 23.7956 22 23V3C22 2.20435 21.6839 1.44129 21.1213 0.87868C20.5587 0.31607 19.7956 0 19 0L8 0ZM12.5 1H14.5C14.6326 1 14.7598 1.05268 14.8536 1.14645C14.9473 1.24021 15 1.36739 15 1.5C15 1.63261 14.9473 1.75979 14.8536 1.85355C14.7598 1.94732 14.6326 2 14.5 2H12.5C12.3674 2 12.2402 1.94732 12.1464 1.85355C12.0527 1.75979 12 1.63261 12 1.5C12 1.36739 12.0527 1.24021 12.1464 1.14645C12.2402 1.05268 12.3674 1 12.5 1ZM7.5 3H19.5C19.6326 3 19.7598 3.05268 19.8536 3.14645C19.9473 3.24021 20 3.36739 20 3.5V20.5C20 20.6326 19.9473 20.7598 19.8536 20.8536C19.7598 20.9473 19.6326 21 19.5 21H7.5C7.36739 21 7.24021 20.9473 7.14645 20.8536C7.05268 20.7598 7 20.6326 7 20.5V3.5C7 3.36739 7.05268 3.24021 7.14645 3.14645C7.24021 3.05268 7.36739 3 7.5 3ZM14.938 8C14.525 8.027 14.063 8.282 13.781 8.625C13.525 8.935 13.292 9.394 13.375 9.844C13.826 9.856 14.293 9.598 14.563 9.25C14.815 8.926 15.008 8.468 14.938 8ZM12.156 9.781C11.566 9.781 10.929 10.167 10.531 10.781C9.969 11.643 10.061 13.24 10.969 14.625C11.295 15.119 11.745 15.682 12.313 15.688C12.816 15.693 12.94 15.379 13.625 15.375C14.31 15.371 14.432 15.693 14.938 15.688C15.504 15.682 15.988 15.088 16.312 14.594C16.508 14.2979 16.6755 13.9838 16.812 13.656C15.497 13.159 15.262 11.274 16.562 10.562C16.166 10.068 15.619 9.782 15.094 9.782C14.399 9.782 14.108 10.125 13.625 10.125C13.127 10.125 12.758 9.781 12.156 9.781ZM13.5 22.22C14.206 22.22 14.781 22.795 14.781 23.501C14.781 24.207 14.206 24.782 13.5 24.782C13.1604 24.7815 12.8349 24.6463 12.5948 24.4062C12.3547 24.1661 12.2195 23.8406 12.219 23.501C12.219 22.795 12.794 22.22 13.5 22.22Z" fill="black"/>
</svg>
