<svg width="21" height="21" viewBox="0 0 21 21" fill="none" xmlns="http://www.w3.org/2000/svg">
<path d="M2.659 6.5H18.5M4.5 2.5H16.5C17.0304 2.5 17.5391 2.71071 17.9142 3.08579C18.2893 3.46086 18.5 3.96957 18.5 4.5V16.49C18.5 17.0204 18.2893 17.5291 17.9142 17.9042C17.5391 18.2793 17.0304 18.49 16.5 18.49H4.5C3.96957 18.49 3.46086 18.2793 3.08579 17.9042C2.71071 17.5291 2.5 17.0204 2.5 16.49V4.5C2.5 3.96957 2.71071 3.46086 3.08579 3.08579C3.46086 2.71071 3.96957 2.5 4.5 2.5Z" stroke="black" stroke-linecap="round" stroke-linejoin="round"/>
<path fill-rule="evenodd" clip-rule="evenodd" d="M6.816 13.155V12.076H7.696C8.364 12.076 8.818 11.681 8.818 11.104C8.818 10.577 8.403 10.177 7.715 10.177C7.002 10.177 6.563 10.543 6.514 11.173H5.15C5.201 9.874 6.201 9 7.788 9C9.351 9 10.22 9.864 10.215 10.895C10.21 11.749 9.673 12.311 8.916 12.496V12.589C9.897 12.73 10.493 13.355 10.493 14.298C10.493 15.533 9.331 16.408 7.739 16.408C6.147 16.408 5.063 15.537 5 14.204H6.411C6.455 14.8 6.963 15.181 7.72 15.181C8.467 15.181 8.99 14.775 8.99 14.165C8.99 13.54 8.501 13.155 7.71 13.155H6.816ZM13.516 16.227V10.616H13.429L11.7 11.808V10.436L13.521 9.181H14.991V16.227H13.516Z" fill="black"/>
</svg>
