<svg width="24" height="24" viewBox="0 0 24 24" fill="none" xmlns="http://www.w3.org/2000/svg">
<path d="M12 4.00587C13.3056 4.00398 14.56 4.51278 15.4954 5.42353C16.4307 6.33427 16.9728 7.57474 17.0057 8.87983C17.0386 10.1849 16.5598 11.4511 15.6715 12.4079C14.7832 13.3646 13.556 13.936 12.252 13.9999H11.748C10.4441 13.936 9.21687 13.3646 8.3286 12.4079C7.44034 11.4511 6.9615 10.1849 6.9944 8.87983C7.02731 7.57474 7.56936 6.33427 8.50472 5.42353C9.44007 4.51278 10.6945 4.00398 12 4.00587ZM13 15.9359C14.749 15.6796 16.3363 14.7713 17.4434 13.3933C18.5505 12.0153 19.0955 10.2696 18.9689 8.50649C18.8423 6.74339 18.0536 5.0934 16.761 3.88767C15.4685 2.68194 13.7677 2.0097 12 2.00587C10.2281 2.00268 8.52092 2.67159 7.22281 3.87767C5.9247 5.08376 5.13228 6.73726 5.00541 8.50464C4.87853 10.272 5.42664 12.0217 6.53916 13.4009C7.65168 14.78 9.24584 15.6859 11 15.9359V16.9999H8.00005V18.9999H11V21.9999H13V18.9999H16V16.9999H13V15.9359Z" fill="black"/>
</svg>
