<svg width="70" height="70" viewBox="0 0 70 70" fill="none" xmlns="http://www.w3.org/2000/svg">
<path d="M24.6838 35.6125C24.6838 34.2825 23.7598 33.488 22.1305 33.488C21.4655 33.488 21.0158 33.5528 20.7795 33.6158V37.8875C21.0595 37.9505 21.4025 37.9733 21.8733 37.9733C23.611 37.9733 24.6838 37.093 24.6838 35.6125ZM34.7743 33.53C34.0445 33.53 33.572 33.5948 33.292 33.6595V43.1235C33.572 43.1883 34.0218 43.1883 34.4295 43.1883C37.3905 43.2093 39.3225 41.5783 39.3225 38.1238C39.3453 35.119 37.5848 33.53 34.7743 33.53Z" fill="black"/>
<path d="M54.1065 27.9703H52.92V22.246L52.9095 22.1375C52.9106 21.9075 52.8293 21.6846 52.6803 21.5093L43.155 10.6313L43.148 10.6243C43.0268 10.4933 42.8727 10.3972 42.7017 10.346L42.6493 10.3285C42.5767 10.3097 42.502 10.3003 42.427 10.3005H19.0172C17.948 10.3005 17.08 11.1703 17.08 12.2378V27.9703H15.8935C14.364 27.9703 13.125 29.2093 13.125 30.7388V45.1378C13.125 46.6655 14.3657 47.9063 15.8935 47.9063H17.08V57.764C17.08 58.8315 17.948 59.7013 19.0172 59.7013H50.9827C52.0502 59.7013 52.92 58.8315 52.92 57.764V47.9063H54.1065C55.636 47.9063 56.875 46.6655 56.875 45.1378V30.7388C56.875 29.2093 55.6342 27.9703 54.1065 27.9703ZM19.0172 12.2378H41.4575V22.1498C41.4575 22.6853 41.8915 23.1175 42.427 23.1175H50.9845V27.9703H19.0172V12.2378ZM42.7998 38.0153C42.7998 40.7838 41.7918 42.6948 40.3935 43.8743C38.871 45.1395 36.554 45.7415 33.7207 45.7415C32.025 45.7415 30.8245 45.633 30.0072 45.528V31.3198C31.2095 31.1273 32.7757 31.0205 34.4295 31.0205C37.1752 31.0205 38.9568 31.514 40.3515 32.5658C41.8548 33.6805 42.7998 35.462 42.7998 38.0153ZM17.5367 45.5928V31.3198C18.5447 31.1483 19.9622 31.0205 21.9572 31.0205C23.975 31.0205 25.4135 31.4073 26.3777 32.179C27.3 32.9088 27.9212 34.111 27.9212 35.5268C27.9212 36.9443 27.4505 38.1448 26.5912 38.9603C25.4747 40.012 23.8227 40.4845 21.8907 40.4845C21.462 40.4845 21.0752 40.4635 20.776 40.4198V45.5928H17.5367ZM50.9827 57.239H19.0172V47.9063H50.9827V57.239ZM53.7897 33.81H48.23V37.1158H53.424V39.7775H48.23V45.5928H44.9487V31.1273H53.7897V33.81Z" fill="black"/>
</svg>
