<svg width="30" height="32" viewBox="0 0 30 32" fill="none" xmlns="http://www.w3.org/2000/svg">
<g clip-path="url(#clip0_86_13327)">
<path d="M25 18.1333V16C25 15.4342 24.7893 14.8916 24.4142 14.4915C24.0391 14.0914 23.5304 13.8667 23 13.8667H3C2.46957 13.8667 1.96086 14.0914 1.58579 14.4915C1.21071 14.8916 1 15.4342 1 16V28.8C1 29.3658 1.21071 29.9084 1.58579 30.3085C1.96086 30.7086 2.46957 30.9333 3 30.9333H23C23.5304 30.9333 24.0391 30.7086 24.4142 30.3085C24.7893 29.9084 25 29.3658 25 28.8V26.6667M25 18.1333H17C15.9391 18.1333 14.9217 18.5828 14.1716 19.383C13.4214 20.1832 13 21.2684 13 22.4C13 23.5316 13.4214 24.6168 14.1716 25.417C14.9217 26.2171 15.9391 26.6667 17 26.6667H25M25 18.1333C26.0609 18.1333 27.0783 18.5828 27.8284 19.383C28.5786 20.1832 29 21.2684 29 22.4C29 23.5316 28.5786 24.6168 27.8284 25.417C27.0783 26.2171 26.0609 26.6667 25 26.6667M7 13.8667V7.46665C7 5.76927 7.63214 4.1414 8.75736 2.94117C9.88258 1.74093 11.4087 1.06665 13 1.06665C14.5913 1.06665 16.1174 1.74093 17.2426 2.94117C18.3679 4.1414 19 5.76927 19 7.46665V13.8667M24 22.4H26M20 22.4H22M16 22.4H18" stroke="#FFD1E3"/>
</g>
<defs>
<clipPath id="clip0_86_13327">
<rect width="30" height="32" fill="white"/>
</clipPath>
</defs>
</svg>
