<svg width="79" height="19" viewBox="0 0 79 19" fill="none" xmlns="http://www.w3.org/2000/svg">
<path d="M0.321023 18V0.545454H7.59943C8.90625 0.545454 10 0.730113 10.8807 1.09943C11.767 1.46875 12.4318 1.98579 12.875 2.65057C13.3239 3.31534 13.5483 4.08523 13.5483 4.96023C13.5483 5.625 13.4091 6.21875 13.1307 6.74148C12.8523 7.25852 12.4688 7.6875 11.9801 8.02841C11.4915 8.36932 10.9261 8.60795 10.2841 8.74432V8.91477C10.9886 8.94886 11.6392 9.1392 12.2358 9.4858C12.8381 9.83239 13.321 10.3153 13.6847 10.9347C14.0483 11.5483 14.2301 12.2756 14.2301 13.1165C14.2301 14.054 13.9915 14.892 13.5142 15.6307C13.0369 16.3636 12.3466 16.9432 11.4432 17.3693C10.5398 17.7898 9.44318 18 8.15341 18H0.321023ZM4.53977 14.5994H7.14773C8.0625 14.5994 8.7358 14.4261 9.16761 14.0795C9.60511 13.733 9.82386 13.25 9.82386 12.6307C9.82386 12.1818 9.71875 11.7955 9.50852 11.4716C9.2983 11.142 9 10.8892 8.61364 10.7131C8.22727 10.5312 7.7642 10.4403 7.22443 10.4403H4.53977V14.5994ZM4.53977 7.72159H6.875C7.33523 7.72159 7.74432 7.64489 8.10227 7.49148C8.46023 7.33807 8.73864 7.11648 8.9375 6.8267C9.14205 6.53693 9.24432 6.1875 9.24432 5.77841C9.24432 5.19318 9.03693 4.73295 8.62216 4.39773C8.20739 4.0625 7.64773 3.89489 6.94318 3.89489H4.53977V7.72159ZM22.3693 18.2472C20.9943 18.2472 19.8125 17.9659 18.8239 17.4034C17.8409 16.8352 17.0824 16.0455 16.5483 15.0341C16.0199 14.017 15.7557 12.8381 15.7557 11.4972C15.7557 10.1506 16.0199 8.97159 16.5483 7.96023C17.0824 6.94318 17.8409 6.15341 18.8239 5.59091C19.8125 5.02273 20.9943 4.73864 22.3693 4.73864C23.7443 4.73864 24.9233 5.02273 25.9062 5.59091C26.8949 6.15341 27.6534 6.94318 28.1818 7.96023C28.7159 8.97159 28.983 10.1506 28.983 11.4972C28.983 12.8381 28.7159 14.017 28.1818 15.0341C27.6534 16.0455 26.8949 16.8352 25.9062 17.4034C24.9233 17.9659 23.7443 18.2472 22.3693 18.2472ZM22.3949 15.1023C22.8949 15.1023 23.3182 14.9489 23.6648 14.642C24.0114 14.3352 24.2756 13.9091 24.4574 13.3636C24.6449 12.8182 24.7386 12.1875 24.7386 11.4716C24.7386 10.7443 24.6449 10.108 24.4574 9.5625C24.2756 9.01705 24.0114 8.59091 23.6648 8.28409C23.3182 7.97727 22.8949 7.82386 22.3949 7.82386C21.8778 7.82386 21.4403 7.97727 21.0824 8.28409C20.7301 8.59091 20.4602 9.01705 20.2727 9.5625C20.0909 10.108 20 10.7443 20 11.4716C20 12.1875 20.0909 12.8182 20.2727 13.3636C20.4602 13.9091 20.7301 14.3352 21.0824 14.642C21.4403 14.9489 21.8778 15.1023 22.3949 15.1023ZM35.2855 0.545454V18H31.1179V0.545454H35.2855ZM49.3672 8.90625L45.5405 9.00852C45.5007 8.7358 45.3928 8.49432 45.2166 8.28409C45.0405 8.06818 44.8104 7.90057 44.5263 7.78125C44.2479 7.65625 43.924 7.59375 43.5547 7.59375C43.0717 7.59375 42.6598 7.69034 42.3189 7.88352C41.9837 8.0767 41.8189 8.33807 41.8246 8.66761C41.8189 8.9233 41.9212 9.14489 42.1314 9.33239C42.3473 9.51989 42.7308 9.67045 43.282 9.78409L45.8047 10.2614C47.1115 10.5114 48.0831 10.9261 48.7195 11.5057C49.3615 12.0852 49.6854 12.8523 49.6911 13.8068C49.6854 14.7045 49.4183 15.4858 48.8899 16.1506C48.3672 16.8153 47.6513 17.3324 46.7422 17.7017C45.8331 18.0653 44.7933 18.2472 43.6229 18.2472C41.7536 18.2472 40.2791 17.8636 39.1996 17.0966C38.1257 16.3239 37.5121 15.2898 37.3587 13.9943L41.4751 13.892C41.5661 14.3693 41.8018 14.733 42.1825 14.983C42.5632 15.233 43.049 15.358 43.6399 15.358C44.174 15.358 44.6087 15.2585 44.9439 15.0597C45.2791 14.8608 45.4496 14.5966 45.4553 14.267C45.4496 13.9716 45.3189 13.7358 45.0632 13.5597C44.8075 13.3778 44.407 13.2358 43.8615 13.1335L41.5774 12.6989C40.2649 12.4602 39.2876 12.0199 38.6456 11.3778C38.0036 10.7301 37.6854 9.90625 37.6911 8.90625C37.6854 8.03125 37.9183 7.28409 38.3899 6.66477C38.8615 6.03977 39.532 5.5625 40.4013 5.23295C41.2706 4.90341 42.2962 4.73864 43.478 4.73864C45.2507 4.73864 46.6484 5.1108 47.6712 5.85511C48.6939 6.59375 49.2592 7.6108 49.3672 8.90625ZM57.8537 18.2472C56.4787 18.2472 55.2969 17.9659 54.3082 17.4034C53.3253 16.8352 52.5668 16.0455 52.0327 15.0341C51.5043 14.017 51.2401 12.8381 51.2401 11.4972C51.2401 10.1506 51.5043 8.97159 52.0327 7.96023C52.5668 6.94318 53.3253 6.15341 54.3082 5.59091C55.2969 5.02273 56.4787 4.73864 57.8537 4.73864C59.2287 4.73864 60.4077 5.02273 61.3906 5.59091C62.3793 6.15341 63.1378 6.94318 63.6662 7.96023C64.2003 8.97159 64.4673 10.1506 64.4673 11.4972C64.4673 12.8381 64.2003 14.017 63.6662 15.0341C63.1378 16.0455 62.3793 16.8352 61.3906 17.4034C60.4077 17.9659 59.2287 18.2472 57.8537 18.2472ZM57.8793 15.1023C58.3793 15.1023 58.8026 14.9489 59.1491 14.642C59.4957 14.3352 59.7599 13.9091 59.9418 13.3636C60.1293 12.8182 60.223 12.1875 60.223 11.4716C60.223 10.7443 60.1293 10.108 59.9418 9.5625C59.7599 9.01705 59.4957 8.59091 59.1491 8.28409C58.8026 7.97727 58.3793 7.82386 57.8793 7.82386C57.3622 7.82386 56.9247 7.97727 56.5668 8.28409C56.2145 8.59091 55.9446 9.01705 55.7571 9.5625C55.5753 10.108 55.4844 10.7443 55.4844 11.4716C55.4844 12.1875 55.5753 12.8182 55.7571 13.3636C55.9446 13.9091 56.2145 14.3352 56.5668 14.642C56.9247 14.9489 57.3622 15.1023 57.8793 15.1023ZM78.0312 8.90625L74.2045 9.00852C74.1648 8.7358 74.0568 8.49432 73.8807 8.28409C73.7045 8.06818 73.4744 7.90057 73.1903 7.78125C72.9119 7.65625 72.5881 7.59375 72.2188 7.59375C71.7358 7.59375 71.3239 7.69034 70.983 7.88352C70.6477 8.0767 70.483 8.33807 70.4886 8.66761C70.483 8.9233 70.5852 9.14489 70.7955 9.33239C71.0114 9.51989 71.3949 9.67045 71.946 9.78409L74.4688 10.2614C75.7756 10.5114 76.7472 10.9261 77.3835 11.5057C78.0256 12.0852 78.3494 12.8523 78.3551 13.8068C78.3494 14.7045 78.0824 15.4858 77.554 16.1506C77.0312 16.8153 76.3153 17.3324 75.4062 17.7017C74.4972 18.0653 73.4574 18.2472 72.2869 18.2472C70.4176 18.2472 68.9432 17.8636 67.8636 17.0966C66.7898 16.3239 66.1761 15.2898 66.0227 13.9943L70.1392 13.892C70.2301 14.3693 70.4659 14.733 70.8466 14.983C71.2273 15.233 71.7131 15.358 72.304 15.358C72.8381 15.358 73.2727 15.2585 73.608 15.0597C73.9432 14.8608 74.1136 14.5966 74.1193 14.267C74.1136 13.9716 73.983 13.7358 73.7273 13.5597C73.4716 13.3778 73.071 13.2358 72.5256 13.1335L70.2415 12.6989C68.929 12.4602 67.9517 12.0199 67.3097 11.3778C66.6676 10.7301 66.3494 9.90625 66.3551 8.90625C66.3494 8.03125 66.5824 7.28409 67.054 6.66477C67.5256 6.03977 68.196 5.5625 69.0653 5.23295C69.9347 4.90341 70.9602 4.73864 72.142 4.73864C73.9148 4.73864 75.3125 5.1108 76.3352 5.85511C77.358 6.59375 77.9233 7.6108 78.0312 8.90625Z" fill="black"/>
</svg>
