<svg width="114" height="29" viewBox="0 0 114 29" fill="none" xmlns="http://www.w3.org/2000/svg">
<mask id="path-1-outside-1_86_11027" maskUnits="userSpaceOnUse" x="-1" y="-1" width="116" height="31" fill="black">
<rect fill="white" x="-1" y="-1" width="116" height="31"/>
<path d="M23.6193 14.9091C23.6193 17.7045 23.108 20.108 22.0852 22.1193C21.0625 24.1222 19.6605 25.6648 17.8793 26.7472C16.1065 27.821 14.0909 28.358 11.8324 28.358C9.56534 28.358 7.54119 27.821 5.75994 26.7472C3.98722 25.6648 2.58949 24.1179 1.56676 22.1065C0.544034 20.0952 0.0326705 17.696 0.0326705 14.9091C0.0326705 12.1136 0.544034 9.71449 1.56676 7.71165C2.58949 5.70028 3.98722 4.15767 5.75994 3.08381C7.54119 2.00142 9.56534 1.46023 11.8324 1.46023C14.0909 1.46023 16.1065 2.00142 17.8793 3.08381C19.6605 4.15767 21.0625 5.70028 22.0852 7.71165C23.108 9.71449 23.6193 12.1136 23.6193 14.9091ZM19.7074 14.9091C19.7074 12.7784 19.3622 10.9844 18.6719 9.52699C17.9901 8.06108 17.0526 6.95313 15.8594 6.20312C14.6747 5.4446 13.3324 5.06534 11.8324 5.06534C10.3239 5.06534 8.97727 5.4446 7.79261 6.20312C6.60795 6.95313 5.67045 8.06108 4.98011 9.52699C4.2983 10.9844 3.95739 12.7784 3.95739 14.9091C3.95739 17.0398 4.2983 18.8381 4.98011 20.304C5.67045 21.7614 6.60795 22.8693 7.79261 23.6278C8.97727 24.3778 10.3239 24.7528 11.8324 24.7528C13.3324 24.7528 14.6747 24.3778 15.8594 23.6278C17.0526 22.8693 17.9901 21.7614 18.6719 20.304C19.3622 18.8381 19.7074 17.0398 19.7074 14.9091ZM40.6765 19.8565V8.36364H44.5117V28H40.7532V24.5994H40.5487C40.0969 25.6477 39.3725 26.5213 38.3754 27.2202C37.3867 27.9105 36.1552 28.2557 34.6808 28.2557C33.4194 28.2557 32.3029 27.9787 31.3313 27.4247C30.3683 26.8622 29.6097 26.0312 29.0558 24.9318C28.5103 23.8324 28.2376 22.473 28.2376 20.8537V8.36364H32.06V20.3935C32.06 21.7315 32.4308 22.7969 33.1722 23.5895C33.9137 24.3821 34.8768 24.7784 36.0614 24.7784C36.7773 24.7784 37.489 24.5994 38.1964 24.2415C38.9123 23.8835 39.5046 23.3423 39.9734 22.6179C40.4506 21.8935 40.685 20.973 40.6765 19.8565ZM58.8139 8.36364V11.4318H48.0881V8.36364H58.8139ZM50.9645 3.65909H54.7869V22.2344C54.7869 22.9759 54.8977 23.5341 55.1193 23.9091C55.3409 24.2756 55.6264 24.527 55.9759 24.6634C56.3338 24.7912 56.7216 24.8551 57.1392 24.8551C57.446 24.8551 57.7145 24.8338 57.9446 24.7912C58.1747 24.7486 58.3537 24.7145 58.4815 24.6889L59.1719 27.8466C58.9503 27.9318 58.6349 28.017 58.2259 28.1023C57.8168 28.196 57.3054 28.2472 56.6918 28.2557C55.6861 28.2727 54.7486 28.0938 53.8793 27.7188C53.0099 27.3438 52.3068 26.7642 51.7699 25.9801C51.233 25.196 50.9645 24.2116 50.9645 23.027V3.65909ZM72.3874 8.36364V11.4318H61.2908V8.36364H72.3874ZM64.3335 28V6.08807C64.3335 4.86079 64.6019 3.84233 65.1388 3.03267C65.6758 2.21449 66.3874 1.60511 67.2738 1.20455C68.1602 0.795453 69.1232 0.590907 70.163 0.590907C70.93 0.590907 71.5863 0.654828 72.1317 0.78267C72.6772 0.901988 73.082 1.01278 73.3462 1.11506L72.4514 4.20881C72.2724 4.15767 72.0423 4.09801 71.761 4.02983C71.4798 3.95312 71.1388 3.91477 70.7383 3.91477C69.8093 3.91477 69.1445 4.14489 68.744 4.60511C68.3519 5.06534 68.1559 5.73011 68.1559 6.59943V28H64.3335ZM76.3313 28V8.36364H80.1538V28H76.3313ZM78.2617 5.33381C77.5969 5.33381 77.0259 5.11221 76.5487 4.66903C76.0799 4.21733 75.8455 3.6804 75.8455 3.05824C75.8455 2.42756 76.0799 1.89062 76.5487 1.44744C77.0259 0.995738 77.5969 0.769886 78.2617 0.769886C78.9265 0.769886 79.4933 0.995738 79.962 1.44744C80.4393 1.89062 80.6779 2.42756 80.6779 3.05824C80.6779 3.6804 80.4393 4.21733 79.962 4.66903C79.4933 5.11221 78.9265 5.33381 78.2617 5.33381ZM94.4624 8.36364V11.4318H83.7365V8.36364H94.4624ZM86.6129 3.65909H90.4354V22.2344C90.4354 22.9759 90.5462 23.5341 90.7678 23.9091C90.9893 24.2756 91.2749 24.527 91.6243 24.6634C91.9822 24.7912 92.37 24.8551 92.7876 24.8551C93.0945 24.8551 93.3629 24.8338 93.593 24.7912C93.8232 24.7486 94.0021 24.7145 94.13 24.6889L94.8203 27.8466C94.5987 27.9318 94.2834 28.017 93.8743 28.1023C93.4652 28.196 92.9538 28.2472 92.3402 28.2557C91.3345 28.2727 90.397 28.0938 89.5277 27.7188C88.6584 27.3438 87.9553 26.7642 87.4183 25.9801C86.8814 25.196 86.6129 24.2116 86.6129 23.027V3.65909ZM113.089 13.1577L109.624 13.7713C109.479 13.3281 109.249 12.9062 108.934 12.5057C108.627 12.1051 108.21 11.777 107.681 11.5213C107.153 11.2656 106.492 11.1378 105.7 11.1378C104.617 11.1378 103.714 11.3807 102.989 11.8665C102.265 12.3437 101.903 12.9616 101.903 13.7202C101.903 14.3764 102.146 14.9048 102.631 15.3054C103.117 15.706 103.901 16.0341 104.984 16.2898L108.103 17.0057C109.91 17.4233 111.256 18.0668 112.143 18.9361C113.029 19.8054 113.472 20.9347 113.472 22.3239C113.472 23.5 113.131 24.5483 112.45 25.4688C111.776 26.3807 110.835 27.0966 109.624 27.6165C108.423 28.1364 107.029 28.3963 105.444 28.3963C103.245 28.3963 101.451 27.9276 100.062 26.9901C98.6726 26.044 97.8203 24.7017 97.505 22.9631L101.2 22.4006C101.43 23.3636 101.903 24.0923 102.619 24.5866C103.335 25.0724 104.268 25.3153 105.418 25.3153C106.671 25.3153 107.673 25.0554 108.423 24.5355C109.173 24.0071 109.548 23.3636 109.548 22.6051C109.548 21.9915 109.317 21.4759 108.857 21.0582C108.406 20.6406 107.711 20.3253 106.773 20.1122L103.45 19.3835C101.617 18.9659 100.262 18.3011 99.3842 17.3892C98.5149 16.4773 98.0803 15.3224 98.0803 13.9247C98.0803 12.7656 98.4041 11.7514 99.0518 10.8821C99.6996 10.0128 100.594 9.33523 101.737 8.84943C102.879 8.35511 104.187 8.10795 105.661 8.10795C107.783 8.10795 109.454 8.56818 110.673 9.48864C111.891 10.4006 112.697 11.6236 113.089 13.1577Z"/>
</mask>
<path d="M23.6193 14.9091C23.6193 17.7045 23.108 20.108 22.0852 22.1193C21.0625 24.1222 19.6605 25.6648 17.8793 26.7472C16.1065 27.821 14.0909 28.358 11.8324 28.358C9.56534 28.358 7.54119 27.821 5.75994 26.7472C3.98722 25.6648 2.58949 24.1179 1.56676 22.1065C0.544034 20.0952 0.0326705 17.696 0.0326705 14.9091C0.0326705 12.1136 0.544034 9.71449 1.56676 7.71165C2.58949 5.70028 3.98722 4.15767 5.75994 3.08381C7.54119 2.00142 9.56534 1.46023 11.8324 1.46023C14.0909 1.46023 16.1065 2.00142 17.8793 3.08381C19.6605 4.15767 21.0625 5.70028 22.0852 7.71165C23.108 9.71449 23.6193 12.1136 23.6193 14.9091ZM19.7074 14.9091C19.7074 12.7784 19.3622 10.9844 18.6719 9.52699C17.9901 8.06108 17.0526 6.95313 15.8594 6.20312C14.6747 5.4446 13.3324 5.06534 11.8324 5.06534C10.3239 5.06534 8.97727 5.4446 7.79261 6.20312C6.60795 6.95313 5.67045 8.06108 4.98011 9.52699C4.2983 10.9844 3.95739 12.7784 3.95739 14.9091C3.95739 17.0398 4.2983 18.8381 4.98011 20.304C5.67045 21.7614 6.60795 22.8693 7.79261 23.6278C8.97727 24.3778 10.3239 24.7528 11.8324 24.7528C13.3324 24.7528 14.6747 24.3778 15.8594 23.6278C17.0526 22.8693 17.9901 21.7614 18.6719 20.304C19.3622 18.8381 19.7074 17.0398 19.7074 14.9091ZM40.6765 19.8565V8.36364H44.5117V28H40.7532V24.5994H40.5487C40.0969 25.6477 39.3725 26.5213 38.3754 27.2202C37.3867 27.9105 36.1552 28.2557 34.6808 28.2557C33.4194 28.2557 32.3029 27.9787 31.3313 27.4247C30.3683 26.8622 29.6097 26.0312 29.0558 24.9318C28.5103 23.8324 28.2376 22.473 28.2376 20.8537V8.36364H32.06V20.3935C32.06 21.7315 32.4308 22.7969 33.1722 23.5895C33.9137 24.3821 34.8768 24.7784 36.0614 24.7784C36.7773 24.7784 37.489 24.5994 38.1964 24.2415C38.9123 23.8835 39.5046 23.3423 39.9734 22.6179C40.4506 21.8935 40.685 20.973 40.6765 19.8565ZM58.8139 8.36364V11.4318H48.0881V8.36364H58.8139ZM50.9645 3.65909H54.7869V22.2344C54.7869 22.9759 54.8977 23.5341 55.1193 23.9091C55.3409 24.2756 55.6264 24.527 55.9759 24.6634C56.3338 24.7912 56.7216 24.8551 57.1392 24.8551C57.446 24.8551 57.7145 24.8338 57.9446 24.7912C58.1747 24.7486 58.3537 24.7145 58.4815 24.6889L59.1719 27.8466C58.9503 27.9318 58.6349 28.017 58.2259 28.1023C57.8168 28.196 57.3054 28.2472 56.6918 28.2557C55.6861 28.2727 54.7486 28.0938 53.8793 27.7188C53.0099 27.3438 52.3068 26.7642 51.7699 25.9801C51.233 25.196 50.9645 24.2116 50.9645 23.027V3.65909ZM72.3874 8.36364V11.4318H61.2908V8.36364H72.3874ZM64.3335 28V6.08807C64.3335 4.86079 64.6019 3.84233 65.1388 3.03267C65.6758 2.21449 66.3874 1.60511 67.2738 1.20455C68.1602 0.795453 69.1232 0.590907 70.163 0.590907C70.93 0.590907 71.5863 0.654828 72.1317 0.78267C72.6772 0.901988 73.082 1.01278 73.3462 1.11506L72.4514 4.20881C72.2724 4.15767 72.0423 4.09801 71.761 4.02983C71.4798 3.95312 71.1388 3.91477 70.7383 3.91477C69.8093 3.91477 69.1445 4.14489 68.744 4.60511C68.3519 5.06534 68.1559 5.73011 68.1559 6.59943V28H64.3335ZM76.3313 28V8.36364H80.1538V28H76.3313ZM78.2617 5.33381C77.5969 5.33381 77.0259 5.11221 76.5487 4.66903C76.0799 4.21733 75.8455 3.6804 75.8455 3.05824C75.8455 2.42756 76.0799 1.89062 76.5487 1.44744C77.0259 0.995738 77.5969 0.769886 78.2617 0.769886C78.9265 0.769886 79.4933 0.995738 79.962 1.44744C80.4393 1.89062 80.6779 2.42756 80.6779 3.05824C80.6779 3.6804 80.4393 4.21733 79.962 4.66903C79.4933 5.11221 78.9265 5.33381 78.2617 5.33381ZM94.4624 8.36364V11.4318H83.7365V8.36364H94.4624ZM86.6129 3.65909H90.4354V22.2344C90.4354 22.9759 90.5462 23.5341 90.7678 23.9091C90.9893 24.2756 91.2749 24.527 91.6243 24.6634C91.9822 24.7912 92.37 24.8551 92.7876 24.8551C93.0945 24.8551 93.3629 24.8338 93.593 24.7912C93.8232 24.7486 94.0021 24.7145 94.13 24.6889L94.8203 27.8466C94.5987 27.9318 94.2834 28.017 93.8743 28.1023C93.4652 28.196 92.9538 28.2472 92.3402 28.2557C91.3345 28.2727 90.397 28.0938 89.5277 27.7188C88.6584 27.3438 87.9553 26.7642 87.4183 25.9801C86.8814 25.196 86.6129 24.2116 86.6129 23.027V3.65909ZM113.089 13.1577L109.624 13.7713C109.479 13.3281 109.249 12.9062 108.934 12.5057C108.627 12.1051 108.21 11.777 107.681 11.5213C107.153 11.2656 106.492 11.1378 105.7 11.1378C104.617 11.1378 103.714 11.3807 102.989 11.8665C102.265 12.3437 101.903 12.9616 101.903 13.7202C101.903 14.3764 102.146 14.9048 102.631 15.3054C103.117 15.706 103.901 16.0341 104.984 16.2898L108.103 17.0057C109.91 17.4233 111.256 18.0668 112.143 18.9361C113.029 19.8054 113.472 20.9347 113.472 22.3239C113.472 23.5 113.131 24.5483 112.45 25.4688C111.776 26.3807 110.835 27.0966 109.624 27.6165C108.423 28.1364 107.029 28.3963 105.444 28.3963C103.245 28.3963 101.451 27.9276 100.062 26.9901C98.6726 26.044 97.8203 24.7017 97.505 22.9631L101.2 22.4006C101.43 23.3636 101.903 24.0923 102.619 24.5866C103.335 25.0724 104.268 25.3153 105.418 25.3153C106.671 25.3153 107.673 25.0554 108.423 24.5355C109.173 24.0071 109.548 23.3636 109.548 22.6051C109.548 21.9915 109.317 21.4759 108.857 21.0582C108.406 20.6406 107.711 20.3253 106.773 20.1122L103.45 19.3835C101.617 18.9659 100.262 18.3011 99.3842 17.3892C98.5149 16.4773 98.0803 15.3224 98.0803 13.9247C98.0803 12.7656 98.4041 11.7514 99.0518 10.8821C99.6996 10.0128 100.594 9.33523 101.737 8.84943C102.879 8.35511 104.187 8.10795 105.661 8.10795C107.783 8.10795 109.454 8.56818 110.673 9.48864C111.891 10.4006 112.697 11.6236 113.089 13.1577Z" fill="#FFFAB7"/>
<path d="M22.0852 22.1193L22.9758 22.5741L22.9766 22.5726L22.0852 22.1193ZM17.8793 26.7472L18.3974 27.6025L18.3986 27.6018L17.8793 26.7472ZM5.75994 26.7472L5.23882 27.6007L5.24364 27.6036L5.75994 26.7472ZM1.56676 22.1065L2.45815 21.6533L1.56676 22.1065ZM1.56676 7.71165L2.45737 8.16642L2.45815 8.16489L1.56676 7.71165ZM5.75994 3.08381L6.27806 3.93912L6.27924 3.9384L5.75994 3.08381ZM17.8793 3.08381L17.3581 3.9373L17.363 3.94021L17.8793 3.08381ZM22.0852 7.71165L21.1938 8.16489L21.1946 8.16642L22.0852 7.71165ZM18.6719 9.52699L17.7651 9.94873L17.7681 9.95507L18.6719 9.52699ZM15.8594 6.20312L15.3201 7.04532L15.3272 7.04976L15.8594 6.20312ZM7.79261 6.20312L8.32753 7.04805L8.33184 7.04529L7.79261 6.20312ZM4.98011 9.52699L4.07541 9.10093L4.07434 9.10323L4.98011 9.52699ZM4.98011 20.304L4.07337 20.7257L4.07638 20.7321L4.98011 20.304ZM7.79261 23.6278L7.25338 24.47L7.25771 24.4728L7.79261 23.6278ZM15.8594 23.6278L16.3943 24.4728L16.3959 24.4718L15.8594 23.6278ZM18.6719 20.304L17.7672 19.8779L17.7661 19.8802L18.6719 20.304ZM22.6193 14.9091C22.6193 17.5839 22.1301 19.8247 21.1938 21.6661L22.9766 22.5726C24.0858 20.3912 24.6193 17.8252 24.6193 14.9091H22.6193ZM21.1946 21.6645C20.2493 23.5158 18.9703 24.9141 17.36 25.8926L18.3986 27.6018C20.3508 26.4155 21.8757 24.7285 22.9758 22.5741L21.1946 21.6645ZM17.3611 25.8918C15.7586 26.8627 13.9252 27.358 11.8324 27.358V29.358C14.2566 29.358 16.4545 28.7794 18.3974 27.6025L17.3611 25.8918ZM11.8324 27.358C9.73038 27.358 7.88778 26.8623 6.27625 25.8908L5.24364 27.6036C7.19461 28.7797 9.40031 29.358 11.8324 29.358V27.358ZM6.28106 25.8937C4.68003 24.9161 3.40443 23.5143 2.45815 21.6533L0.675376 22.5598C1.77455 24.7215 3.2944 26.4134 5.23883 27.6006L6.28106 25.8937ZM2.45815 21.6533C1.52165 19.8115 1.03267 17.5749 1.03267 14.9091H-0.96733C-0.96733 17.8172 -0.433586 20.3788 0.675376 22.5598L2.45815 21.6533ZM1.03267 14.9091C1.03267 12.2341 1.52191 9.99835 2.45737 8.16642L0.676156 7.25687C-0.433846 9.43062 -0.96733 11.9932 -0.96733 14.9091H1.03267ZM2.45815 8.16489C3.40414 6.30444 4.67886 4.90786 6.27806 3.93911L5.24182 2.2285C3.29557 3.40748 1.77484 5.09613 0.675376 7.2584L2.45815 8.16489ZM6.27924 3.9384C7.89035 2.9594 9.73187 2.46023 11.8324 2.46023V0.460226C9.39881 0.460226 7.19203 1.04344 5.24065 2.22921L6.27924 3.9384ZM11.8324 2.46023C13.9237 2.46023 15.756 2.95904 17.3581 3.93729L18.4004 2.23032C16.4571 1.0438 14.2581 0.460226 11.8324 0.460226V2.46023ZM17.363 3.94021C18.9704 4.90926 20.2485 6.30566 21.1938 8.16489L22.9766 7.2584C21.8765 5.0949 20.3507 3.40608 18.3956 2.2274L17.363 3.94021ZM21.1946 8.16642C22.1301 9.99835 22.6193 12.2341 22.6193 14.9091H24.6193C24.6193 11.9932 24.0858 9.43062 22.9758 7.25687L21.1946 8.16642ZM20.7074 14.9091C20.7074 12.6758 20.3463 10.7259 19.5756 9.0989L17.7681 9.95507C18.3782 11.2429 18.7074 12.881 18.7074 14.9091H20.7074ZM19.5786 9.10526C18.8278 7.49096 17.7709 6.22352 16.3915 5.35649L15.3272 7.04976C16.3342 7.68273 17.1524 8.6312 17.7652 9.94872L19.5786 9.10526ZM16.3986 5.36096C15.0422 4.49245 13.5103 4.06534 11.8324 4.06534V6.06534C13.1545 6.06534 14.3073 6.39675 15.3201 7.04529L16.3986 5.36096ZM11.8324 4.06534C10.1472 4.06534 8.61077 4.49185 7.25339 5.36096L8.33184 7.04529C9.34378 6.39735 10.5005 6.06534 11.8324 6.06534V4.06534ZM7.25771 5.35821C5.88874 6.2249 4.83384 7.49045 4.07541 9.10094L5.88481 9.95304C6.50706 8.63171 7.32717 7.68135 8.32752 7.04804L7.25771 5.35821ZM4.07434 9.10323C3.31377 10.729 2.95739 12.6773 2.95739 14.9091H4.95739C4.95739 12.8796 5.28282 11.2398 5.88589 9.95074L4.07434 9.10323ZM2.95739 14.9091C2.95739 17.1412 3.31387 19.0927 4.07339 20.7257L5.88683 19.8822C5.28272 18.5834 4.95739 16.9383 4.95739 14.9091H2.95739ZM4.07638 20.7321C4.83498 22.3336 5.88872 23.5962 7.25339 24.47L8.33184 22.7857C7.32719 22.1424 6.50593 21.1892 5.88385 19.8759L4.07638 20.7321ZM7.25771 24.4728C8.61459 25.3318 10.1495 25.7528 11.8324 25.7528V23.7528C10.4983 23.7528 9.33996 23.4239 8.32752 22.7829L7.25771 24.4728ZM11.8324 25.7528C13.508 25.7528 15.0383 25.3312 16.3943 24.4728L15.3245 22.7829C14.3111 23.4245 13.1568 23.7528 11.8324 23.7528V25.7528ZM16.3959 24.4718C17.7709 23.5976 18.8266 22.333 19.5777 20.7277L17.7661 19.8802C17.1535 21.1897 16.3342 22.141 15.3229 22.7839L16.3959 24.4718ZM19.5766 20.73C20.3462 19.0958 20.7074 17.1427 20.7074 14.9091H18.7074C18.7074 16.9369 18.3783 18.5803 17.7672 19.8779L19.5766 20.73ZM40.6765 19.8565H39.6765L39.6765 19.8642L40.6765 19.8565ZM40.6765 8.36364V7.36364H39.6765V8.36364H40.6765ZM44.5117 8.36364H45.5117V7.36364H44.5117V8.36364ZM44.5117 28V29H45.5117V28H44.5117ZM40.7532 28H39.7532V29H40.7532V28ZM40.7532 24.5994H41.7532V23.5994H40.7532V24.5994ZM40.5487 24.5994V23.5994H39.8907L39.6303 24.2037L40.5487 24.5994ZM38.3754 27.2202L38.9479 28.0401L38.9493 28.0391L38.3754 27.2202ZM31.3313 27.4247L30.8269 28.2883L30.836 28.2934L31.3313 27.4247ZM29.0558 24.9318L28.1599 25.3763L28.1627 25.3818L29.0558 24.9318ZM28.2376 8.36364V7.36364H27.2376V8.36364H28.2376ZM32.06 8.36364H33.06V7.36364H32.06V8.36364ZM33.1722 23.5895L33.9025 22.9063H33.9025L33.1722 23.5895ZM38.1964 24.2415L37.7492 23.347L37.7449 23.3492L38.1964 24.2415ZM39.9734 22.6179L39.1383 22.0677L39.1338 22.0746L39.9734 22.6179ZM41.6765 19.8565V8.36364H39.6765V19.8565H41.6765ZM40.6765 9.36364H44.5117V7.36364H40.6765V9.36364ZM43.5117 8.36364V28H45.5117V8.36364H43.5117ZM44.5117 27H40.7532V29H44.5117V27ZM41.7532 28V24.5994H39.7532V28H41.7532ZM40.7532 23.5994H40.5487V25.5994H40.7532V23.5994ZM39.6303 24.2037C39.2569 25.0703 38.6573 25.8014 37.8014 26.4013L38.9493 28.0391C40.0877 27.2412 40.937 26.2252 41.467 24.9952L39.6303 24.2037ZM37.8028 26.4003C37.0164 26.9494 35.9967 27.2557 34.6808 27.2557V29.2557C36.3137 29.2557 37.757 28.8716 38.9479 28.0401L37.8028 26.4003ZM34.6808 27.2557C33.5705 27.2557 32.6288 27.0134 31.8266 26.556L30.836 28.2934C31.977 28.944 33.2683 29.2557 34.6808 29.2557V27.2557ZM31.8357 26.5612C31.0565 26.1061 30.4252 25.4274 29.9488 24.4818L28.1627 25.3818C28.7942 26.6351 29.68 27.6183 30.827 28.2882L31.8357 26.5612ZM29.9516 24.4874C29.4929 23.5629 29.2376 22.366 29.2376 20.8537H27.2376C27.2376 22.58 27.5277 24.1018 28.1599 25.3763L29.9516 24.4874ZM29.2376 20.8537V8.36364H27.2376V20.8537H29.2376ZM28.2376 9.36364H32.06V7.36364H28.2376V9.36364ZM31.06 8.36364V20.3935H33.06V8.36364H31.06ZM31.06 20.3935C31.06 21.9232 31.489 23.254 32.442 24.2726L33.9025 22.9063C33.3725 22.3398 33.06 21.5399 33.06 20.3935H31.06ZM32.442 24.2726C33.3909 25.2871 34.6282 25.7784 36.0614 25.7784V23.7784C35.1254 23.7784 34.4365 23.4771 33.9025 22.9063L32.442 24.2726ZM36.0614 25.7784C36.9505 25.7784 37.8158 25.5548 38.6479 25.1337L37.7449 23.3492C37.1622 23.6441 36.6042 23.7784 36.0614 23.7784V25.7784ZM38.6436 25.1359C39.5317 24.6918 40.255 24.0235 40.8129 23.1611L39.1338 22.0746C38.7543 22.6612 38.2928 23.0752 37.7492 23.347L38.6436 25.1359ZM40.8084 23.1681C41.4221 22.2366 41.6861 21.1071 41.6765 19.8489L39.6765 19.8642C39.684 20.8389 39.4792 21.5504 39.1383 22.0677L40.8084 23.1681ZM58.8139 8.36364H59.8139V7.36364H58.8139V8.36364ZM58.8139 11.4318V12.4318H59.8139V11.4318H58.8139ZM48.0881 11.4318H47.0881V12.4318H48.0881V11.4318ZM48.0881 8.36364V7.36364H47.0881V8.36364H48.0881ZM50.9645 3.65909V2.65909H49.9645V3.65909H50.9645ZM54.7869 3.65909H55.7869V2.65909H54.7869V3.65909ZM55.1193 23.9091L54.2583 24.4178L54.2636 24.4265L55.1193 23.9091ZM55.9759 24.6634L55.6123 25.5949L55.6258 25.6002L55.6395 25.6051L55.9759 24.6634ZM57.9446 24.7912L58.1267 25.7745H58.1267L57.9446 24.7912ZM58.4815 24.6889L59.4585 24.4753L59.2487 23.5157L58.2854 23.7083L58.4815 24.6889ZM59.1719 27.8466L59.5309 28.7799L60.3322 28.4717L60.1488 27.633L59.1719 27.8466ZM58.2259 28.1023L58.0219 27.1233L58.0122 27.1253L58.0025 27.1275L58.2259 28.1023ZM56.6918 28.2557L56.6779 27.2558L56.6748 27.2558L56.6918 28.2557ZM53.8793 27.7188L53.4832 28.637L53.8793 27.7188ZM51.7699 25.9801L50.9448 26.5451L51.7699 25.9801ZM57.8139 8.36364V11.4318H59.8139V8.36364H57.8139ZM58.8139 10.4318H48.0881V12.4318H58.8139V10.4318ZM49.0881 11.4318V8.36364H47.0881V11.4318H49.0881ZM48.0881 9.36364H58.8139V7.36364H48.0881V9.36364ZM50.9645 4.65909H54.7869V2.65909H50.9645V4.65909ZM53.7869 3.65909V22.2344H55.7869V3.65909H53.7869ZM53.7869 22.2344C53.7869 23.0441 53.9024 23.8154 54.2584 24.4178L55.9802 23.4004C55.8931 23.2528 55.7869 22.9076 55.7869 22.2344H53.7869ZM54.2636 24.4265C54.5822 24.9535 55.0292 25.3674 55.6123 25.5949L56.3394 23.7318C56.2237 23.6866 56.0996 23.5976 55.9751 23.3917L54.2636 24.4265ZM55.6395 25.6051C56.1156 25.7751 56.6183 25.8551 57.1392 25.8551V23.8551C56.8249 23.8551 56.5521 23.8073 56.3122 23.7216L55.6395 25.6051ZM57.1392 25.8551C57.4894 25.8551 57.8213 25.831 58.1267 25.7745L57.7625 23.8079C57.6076 23.8366 57.4026 23.8551 57.1392 23.8551V25.8551ZM58.1267 25.7745C58.3584 25.7316 58.5429 25.6965 58.6777 25.6695L58.2854 23.7083C58.1645 23.7325 57.991 23.7656 57.7625 23.8079L58.1267 25.7745ZM57.5046 24.9025L58.195 28.0602L60.1488 27.633L59.4585 24.4753L57.5046 24.9025ZM58.8129 26.9132C58.6657 26.9699 58.4114 27.0421 58.0219 27.1233L58.4298 29.0813C58.8585 28.992 59.2349 28.8938 59.5309 28.7799L58.8129 26.9132ZM58.0025 27.1275C57.6857 27.2001 57.2502 27.2478 56.6779 27.2558L56.7057 29.2556C57.3606 29.2465 57.9478 29.1919 58.4492 29.077L58.0025 27.1275ZM56.6748 27.2558C55.802 27.2706 55.0063 27.1159 54.2754 26.8005L53.4832 28.637C54.4908 29.0716 55.5701 29.2748 56.7087 29.2555L56.6748 27.2558ZM54.2754 26.8005C53.5802 26.5007 53.0256 26.0439 52.595 25.4151L50.9448 26.5451C51.5881 27.4845 52.4397 28.1868 53.4832 28.637L54.2754 26.8005ZM52.595 25.4151C52.1973 24.8344 51.9645 24.06 51.9645 23.027H49.9645C49.9645 24.3633 50.2686 25.5577 50.9448 26.5451L52.595 25.4151ZM51.9645 23.027V3.65909H49.9645V23.027H51.9645ZM72.3874 8.36364H73.3874V7.36364H72.3874V8.36364ZM72.3874 11.4318V12.4318H73.3874V11.4318H72.3874ZM61.2908 11.4318H60.2908V12.4318H61.2908V11.4318ZM61.2908 8.36364V7.36364H60.2908V8.36364H61.2908ZM64.3335 28H63.3335V29H64.3335V28ZM65.1388 3.03267L65.9723 3.58535L65.9749 3.58133L65.1388 3.03267ZM67.2738 1.20455L67.6856 2.11584L67.6928 2.1125L67.2738 1.20455ZM72.1317 0.78267L71.9036 1.75629L71.9108 1.75798L71.9181 1.75957L72.1317 0.78267ZM73.3462 1.11506L74.3069 1.39292L74.5613 0.513114L73.7072 0.182488L73.3462 1.11506ZM72.4513 4.20881L72.1766 5.17033L73.135 5.44415L73.412 4.48667L72.4513 4.20881ZM71.761 4.02983L71.4979 4.99459L71.5116 4.99833L71.5254 5.00168L71.761 4.02983ZM68.744 4.60511L67.9896 3.94855L67.9827 3.95665L68.744 4.60511ZM68.1559 28V29H69.1559V28H68.1559ZM71.3874 8.36364V11.4318H73.3874V8.36364H71.3874ZM72.3874 10.4318H61.2908V12.4318H72.3874V10.4318ZM62.2908 11.4318V8.36364H60.2908V11.4318H62.2908ZM61.2908 9.36364H72.3874V7.36364H61.2908V9.36364ZM65.3335 28V6.08807H63.3335V28H65.3335ZM65.3335 6.08807C65.3335 5.00575 65.5694 4.19285 65.9722 3.58535L64.3055 2.48C63.6345 3.4918 63.3335 4.71583 63.3335 6.08807H65.3335ZM65.9749 3.58133C66.4084 2.92079 66.9733 2.43771 67.6856 2.11581L66.862 0.293281C65.8015 0.772517 64.9432 1.50818 64.3028 2.48401L65.9749 3.58133ZM67.6928 2.1125C68.4394 1.76795 69.2583 1.59091 70.163 1.59091V-0.409093C68.9881 -0.409093 67.8809 -0.177042 66.8547 0.296586L67.6928 2.1125ZM70.163 1.59091C70.8793 1.59091 71.4546 1.65106 71.9036 1.75629L72.3599 -0.190946C71.718 -0.341406 70.9808 -0.409093 70.163 -0.409093V1.59091ZM71.9181 1.75957C72.4516 1.87629 72.7952 1.97407 72.9852 2.04762L73.7072 0.182488C73.3688 0.0514994 72.9028 -0.0723171 72.3454 -0.19423L71.9181 1.75957ZM72.3856 0.837191L71.4907 3.93094L73.412 4.48667L74.3069 1.39292L72.3856 0.837191ZM72.7261 3.24728C72.5291 3.191 72.2847 3.12781 71.9966 3.05798L71.5254 5.00168C71.7999 5.06821 72.0156 5.12433 72.1766 5.17033L72.7261 3.24728ZM72.0241 3.06507C71.6319 2.9581 71.1971 2.91477 70.7383 2.91477V4.91477C71.0806 4.91477 71.3276 4.94815 71.4979 4.99459L72.0241 3.06507ZM70.7383 2.91477C69.6718 2.91477 68.6611 3.1771 67.9897 3.94859L69.4983 5.26164C69.6279 5.11267 69.9468 4.91477 70.7383 4.91477V2.91477ZM67.9827 3.95665C67.3812 4.66276 67.1559 5.59463 67.1559 6.59943H69.1559C69.1559 5.8656 69.3226 5.46792 69.5052 5.25358L67.9827 3.95665ZM67.1559 6.59943V28H69.1559V6.59943H67.1559ZM68.1559 27H64.3335V29H68.1559V27ZM76.3313 28H75.3313V29H76.3313V28ZM76.3313 8.36364V7.36364H75.3313V8.36364H76.3313ZM80.1538 8.36364H81.1538V7.36364H80.1538V8.36364ZM80.1538 28V29H81.1538V28H80.1538ZM76.5487 4.66903L75.8548 5.38911L75.8614 5.39553L75.8682 5.40182L76.5487 4.66903ZM76.5487 1.44744L77.2357 2.17409L77.236 2.17374L76.5487 1.44744ZM79.962 1.44744L79.2681 2.16752L79.2748 2.17394L79.2816 2.18023L79.962 1.44744ZM79.962 4.66903L80.649 5.39568L80.6494 5.39533L79.962 4.66903ZM77.3313 28V8.36364H75.3313V28H77.3313ZM76.3313 9.36364H80.1538V7.36364H76.3313V9.36364ZM79.1538 8.36364V28H81.1538V8.36364H79.1538ZM80.1538 27H76.3313V29H80.1538V27ZM78.2617 4.33381C77.8436 4.33381 77.5172 4.20377 77.2291 3.93624L75.8682 5.40182C76.5346 6.02066 77.3503 6.33381 78.2617 6.33381V4.33381ZM77.2425 3.94895C76.9592 3.67596 76.8455 3.39498 76.8455 3.05824H74.8455C74.8455 3.96581 75.2006 4.7587 75.8548 5.38911L77.2425 3.94895ZM76.8455 3.05824C76.8455 2.70952 76.9615 2.43326 77.2357 2.17409L75.8616 0.720796C75.1983 1.34799 74.8455 2.14559 74.8455 3.05824H76.8455ZM77.236 2.17374C77.5252 1.90005 77.8493 1.76989 78.2617 1.76989V-0.230114C77.3446 -0.230114 76.5266 0.0914207 75.8613 0.721148L77.236 2.17374ZM78.2617 1.76989C78.6738 1.76989 78.9901 1.8996 79.2681 2.16752L80.6559 0.727364C79.9964 0.0918765 79.1792 -0.230114 78.2617 -0.230114V1.76989ZM79.2816 2.18023C79.5626 2.44121 79.6779 2.71575 79.6779 3.05824H81.6779C81.6779 2.13937 81.316 1.34004 80.6425 0.714649L79.2816 2.18023ZM79.6779 3.05824C79.6779 3.38878 79.5649 3.668 79.2746 3.94274L80.6494 5.39533C81.3136 4.76665 81.6779 3.97201 81.6779 3.05824H79.6779ZM79.275 3.94239C78.9981 4.20417 78.6796 4.33381 78.2617 4.33381V6.33381C79.1734 6.33381 79.9884 6.02026 80.649 5.39568L79.275 3.94239ZM94.4624 8.36364H95.4624V7.36364H94.4624V8.36364ZM94.4624 11.4318V12.4318H95.4624V11.4318H94.4624ZM83.7365 11.4318H82.7365V12.4318H83.7365V11.4318ZM83.7365 8.36364V7.36364H82.7365V8.36364H83.7365ZM86.6129 3.65909V2.65909H85.6129V3.65909H86.6129ZM90.4354 3.65909H91.4354V2.65909H90.4354V3.65909ZM90.7678 23.9091L89.9068 24.4178L89.912 24.4265L90.7678 23.9091ZM91.6243 24.6634L91.2607 25.5949L91.2743 25.6002L91.288 25.6051L91.6243 24.6634ZM93.593 24.7912L93.7751 25.7745L93.593 24.7912ZM94.13 24.6889L95.1069 24.4753L94.8971 23.5157L93.9339 23.7083L94.13 24.6889ZM94.8203 27.8466L95.1793 28.7799L95.9806 28.4717L95.7972 27.633L94.8203 27.8466ZM93.8743 28.1023L93.6703 27.1233L93.6606 27.1253L93.6509 27.1275L93.8743 28.1023ZM92.3402 28.2557L92.3263 27.2558L92.3232 27.2558L92.3402 28.2557ZM89.5277 27.7188L89.1316 28.637L89.5277 27.7188ZM87.4183 25.9801L86.5932 26.5451L87.4183 25.9801ZM93.4624 8.36364V11.4318H95.4624V8.36364H93.4624ZM94.4624 10.4318H83.7365V12.4318H94.4624V10.4318ZM84.7365 11.4318V8.36364H82.7365V11.4318H84.7365ZM83.7365 9.36364H94.4624V7.36364H83.7365V9.36364ZM86.6129 4.65909H90.4354V2.65909H86.6129V4.65909ZM89.4354 3.65909V22.2344H91.4354V3.65909H89.4354ZM89.4354 22.2344C89.4354 23.0441 89.5508 23.8154 89.9068 24.4178L91.6287 23.4004C91.5415 23.2528 91.4354 22.9076 91.4354 22.2344H89.4354ZM89.912 24.4265C90.2307 24.9535 90.6776 25.3674 91.2607 25.5949L91.9878 23.7318C91.8721 23.6866 91.748 23.5976 91.6235 23.3917L89.912 24.4265ZM91.288 25.6051C91.764 25.7751 92.2667 25.8551 92.7876 25.8551V23.8551C92.4734 23.8551 92.2005 23.8073 91.9606 23.7216L91.288 25.6051ZM92.7876 25.8551C93.1379 25.8551 93.4698 25.831 93.7751 25.7745L93.4109 23.8079C93.2561 23.8366 93.051 23.8551 92.7876 23.8551V25.8551ZM93.7751 25.7745C94.0069 25.7316 94.1913 25.6965 94.3261 25.6695L93.9339 23.7083C93.813 23.7325 93.6394 23.7656 93.4109 23.8079L93.7751 25.7745ZM93.153 24.9025L93.8434 28.0602L95.7972 27.633L95.1069 24.4753L93.153 24.9025ZM94.4613 26.9132C94.3141 26.9699 94.0599 27.0421 93.6703 27.1233L94.0782 29.0813C94.5069 28.992 94.8833 28.8938 95.1793 28.7799L94.4613 26.9132ZM93.6509 27.1275C93.3342 27.2001 92.8986 27.2478 92.3263 27.2558L92.3541 29.2556C93.009 29.2465 93.5962 29.1919 94.0977 29.077L93.6509 27.1275ZM92.3232 27.2558C91.4505 27.2706 90.6547 27.1159 89.9238 26.8005L89.1316 28.637C90.1393 29.0716 91.2186 29.2748 92.3571 29.2555L92.3232 27.2558ZM89.9238 26.8005C89.2287 26.5007 88.674 26.0439 88.2434 25.4151L86.5932 26.5451C87.2365 27.4845 88.0881 28.1868 89.1316 28.637L89.9238 26.8005ZM88.2434 25.4151C87.8457 24.8344 87.6129 24.06 87.6129 23.027H85.6129C85.6129 24.3633 85.9171 25.5577 86.5932 26.5451L88.2434 25.4151ZM87.6129 23.027V3.65909H85.6129V23.027H87.6129ZM113.089 13.1577L113.263 14.1423L114.325 13.9544L114.058 12.9101L113.089 13.1577ZM109.624 13.7713L108.674 14.082L108.944 14.9074L109.799 14.756L109.624 13.7713ZM108.934 12.5057L108.14 13.1138L108.148 13.1242L108.934 12.5057ZM107.681 11.5213L108.117 10.6211L107.681 11.5213ZM102.989 11.8665L103.54 12.7016L103.546 12.697L102.989 11.8665ZM104.984 16.2898L104.754 17.263L104.76 17.2644L104.984 16.2898ZM108.103 17.0057L108.328 16.0314L108.327 16.031L108.103 17.0057ZM112.143 18.9361L111.443 19.65L112.143 18.9361ZM112.45 25.4688L111.646 24.8735L111.645 24.8748L112.45 25.4688ZM109.624 27.6165L109.23 26.6977L109.227 26.6987L109.624 27.6165ZM100.062 26.9901L99.4989 27.8166L99.5024 27.819L100.062 26.9901ZM97.505 22.9631L97.3545 21.9745L96.3374 22.1293L96.521 23.1415L97.505 22.9631ZM101.2 22.4006L102.172 22.1682L101.958 21.2735L101.049 21.412L101.2 22.4006ZM102.619 24.5866L102.05 25.4096L102.057 25.4141L102.619 24.5866ZM108.423 24.5355L108.992 25.3574L108.999 25.353L108.423 24.5355ZM108.857 21.0582L108.178 21.7925L108.185 21.7988L108.857 21.0582ZM106.773 20.1122L106.995 19.1371L106.988 19.1354L106.773 20.1122ZM103.45 19.3835L103.227 20.3586L103.235 20.3603L103.45 19.3835ZM99.3842 17.3892L98.6604 18.0792L98.6638 18.0827L99.3842 17.3892ZM99.0518 10.8821L98.25 10.2846L99.0518 10.8821ZM101.737 8.84943L102.128 9.76966L102.134 9.76715L101.737 8.84943ZM110.673 9.48864L110.07 10.2866L110.073 10.2893L110.673 9.48864ZM112.914 12.173L109.45 12.7866L109.799 14.756L113.263 14.1423L112.914 12.173ZM110.575 13.4606C110.39 12.896 110.101 12.3712 109.72 11.8871L108.148 13.1242C108.398 13.4413 108.569 13.7603 108.674 14.082L110.575 13.4606ZM109.728 11.8976C109.312 11.3542 108.763 10.9338 108.117 10.6211L107.246 12.4215C107.656 12.6202 107.943 12.856 108.14 13.1138L109.728 11.8976ZM108.117 10.6211C107.414 10.2809 106.593 10.1378 105.7 10.1378V12.1378C106.392 12.1378 106.892 12.2503 107.246 12.4215L108.117 10.6211ZM105.7 10.1378C104.467 10.1378 103.357 10.4157 102.432 11.0359L103.546 12.697C104.07 12.3457 104.768 12.1378 105.7 12.1378V10.1378ZM102.439 11.0314C101.481 11.6626 100.903 12.5725 100.903 13.7202H102.903C102.903 13.3508 103.049 13.0249 103.54 12.7015L102.439 11.0314ZM100.903 13.7202C100.903 14.6605 101.268 15.4774 101.995 16.0769L103.268 14.5339C103.023 14.3323 102.903 14.0924 102.903 13.7202H100.903ZM101.995 16.0769C102.658 16.6233 103.62 16.9952 104.754 17.263L105.214 15.3166C104.183 15.073 103.577 14.7887 103.268 14.5339L101.995 16.0769ZM104.76 17.2644L107.879 17.9803L108.327 16.031L105.207 15.3151L104.76 17.2644ZM107.878 17.98C109.588 18.3752 110.737 18.9581 111.443 19.65L112.843 18.2221C111.776 17.1754 110.232 16.4714 108.328 16.0314L107.878 17.98ZM111.443 19.65C112.114 20.3081 112.472 21.1682 112.472 22.3239H114.472C114.472 20.7011 113.945 19.3027 112.843 18.2221L111.443 19.65ZM112.472 22.3239C112.472 23.2918 112.197 24.1302 111.646 24.8735L113.253 26.064C114.066 24.9664 114.472 23.7082 114.472 22.3239H112.472ZM111.645 24.8748C111.093 25.6223 110.304 26.2363 109.23 26.6977L110.019 28.5353C111.365 27.9569 112.459 27.1391 113.254 26.0627L111.645 24.8748ZM109.227 26.6987C108.174 27.1542 106.921 27.3963 105.444 27.3963V29.3963C107.138 29.3963 108.671 29.1185 110.021 28.5343L109.227 26.6987ZM105.444 27.3963C103.383 27.3963 101.801 26.9571 100.621 26.1611L99.5024 27.819C101.101 28.898 103.107 29.3963 105.444 29.3963V27.3963ZM100.625 26.1635C99.4694 25.3768 98.7592 24.2746 98.4889 22.7846L96.521 23.1415C96.8815 25.1288 97.8758 26.7113 99.4989 27.8166L100.625 26.1635ZM97.6555 23.9517L101.35 23.3892L101.049 21.412L97.3545 21.9745L97.6555 23.9517ZM100.227 22.633C100.506 23.8005 101.103 24.7556 102.05 25.4095L103.187 23.7638C102.702 23.4291 102.353 22.9267 102.172 22.1682L100.227 22.633ZM102.057 25.4141C102.985 26.044 104.132 26.3153 105.418 26.3153V24.3153C104.403 24.3153 103.684 24.1009 103.18 23.7592L102.057 25.4141ZM105.418 26.3153C106.801 26.3153 108.023 26.0292 108.992 25.3574L107.853 23.7137C107.322 24.0816 106.542 24.3153 105.418 24.3153V26.3153ZM108.999 25.353C109.951 24.6818 110.548 23.7592 110.548 22.6051H108.548C108.548 22.9681 108.394 23.3324 107.847 23.718L108.999 25.353ZM110.548 22.6051C110.548 21.7053 110.195 20.9221 109.529 20.3177L108.185 21.7988C108.44 22.0296 108.548 22.2776 108.548 22.6051H110.548ZM109.536 20.324C108.903 19.7385 108.016 19.3691 106.995 19.1371L106.552 21.0873C107.406 21.2815 107.908 21.5428 108.178 21.7925L109.536 20.324ZM106.988 19.1354L103.664 18.4067L103.235 20.3603L106.559 21.089L106.988 19.1354ZM103.672 18.4085C101.943 18.0145 100.797 17.4146 100.105 16.6957L98.6638 18.0827C99.7274 19.1876 101.292 19.9174 103.227 20.3585L103.672 18.4085ZM100.108 16.6992C99.4361 15.9943 99.0803 15.0961 99.0803 13.9247H97.0803C97.0803 15.5488 97.5938 16.9603 98.6604 18.0792L100.108 16.6992ZM99.0803 13.9247C99.0803 12.9651 99.3438 12.164 99.8537 11.4796L98.25 10.2846C97.4645 11.3389 97.0803 12.5662 97.0803 13.9247H99.0803ZM99.8537 11.4796C100.381 10.7718 101.125 10.1963 102.128 9.76964L101.345 7.92922C100.064 8.47414 99.0181 9.25374 98.25 10.2846L99.8537 11.4796ZM102.134 9.76715C103.129 9.33619 104.299 9.10795 105.661 9.10795V7.10795C104.075 7.10795 102.628 7.37404 101.339 7.93171L102.134 9.76715ZM105.661 9.10795C107.649 9.10795 109.081 9.53973 110.07 10.2866L111.275 8.69065C109.827 7.59663 107.918 7.10795 105.661 7.10795V9.10795ZM110.073 10.2893C111.102 11.0587 111.782 12.0827 112.12 13.4053L114.058 12.9101C113.612 11.1644 112.681 9.74248 111.272 8.68796L110.073 10.2893Z" fill="#666666" mask="url(#path-1-outside-1_86_11027)"/>
</svg>
