<svg width="140" height="36" viewBox="0 0 140 36" fill="none" xmlns="http://www.w3.org/2000/svg">
<mask id="path-1-outside-1_86_10658" maskUnits="userSpaceOnUse" x="-1" y="-1" width="142" height="38" fill="black">
<rect fill="white" x="-1" y="-1" width="142" height="38"/>
<path d="M0.876421 28V1.81818H10.2088C12.2372 1.81818 13.9205 2.16761 15.2585 2.86648C16.6051 3.56534 17.6108 4.53267 18.2756 5.76847C18.9403 6.99574 19.2727 8.41477 19.2727 10.0256C19.2727 11.6278 18.9361 13.0384 18.2628 14.2571C17.598 15.4673 16.5923 16.4091 15.2457 17.0824C13.9077 17.7557 12.2244 18.0923 10.196 18.0923H3.12642V14.6918H9.83807C11.1165 14.6918 12.1563 14.5085 12.9574 14.142C13.767 13.7756 14.3594 13.2429 14.7344 12.544C15.1094 11.8452 15.2969 11.0057 15.2969 10.0256C15.2969 9.03693 15.1051 8.1804 14.7216 7.45597C14.3466 6.73153 13.7543 6.17756 12.9446 5.79403C12.1435 5.40199 11.0909 5.20597 9.78693 5.20597H4.8267V28H0.876421ZM13.8011 16.1875L20.2699 28H15.7699L9.42898 16.1875H13.8011ZM31.9897 28.3963C30.055 28.3963 28.3888 27.983 26.9911 27.1562C25.6019 26.321 24.5281 25.1491 23.7695 23.6406C23.0195 22.1236 22.6445 20.3466 22.6445 18.3097C22.6445 16.2983 23.0195 14.5256 23.7695 12.9915C24.5281 11.4574 25.5849 10.2599 26.94 9.39915C28.3036 8.53835 29.8974 8.10795 31.7212 8.10795C32.8292 8.10795 33.9031 8.29119 34.9428 8.65767C35.9826 9.02415 36.9158 9.59943 37.7425 10.3835C38.5692 11.1676 39.2212 12.1861 39.6985 13.4389C40.1758 14.6832 40.4144 16.196 40.4144 17.9773V19.3324H24.805V16.4688H36.6687C36.6687 15.4631 36.4641 14.5724 36.055 13.7969C35.646 13.0128 35.0707 12.3949 34.3292 11.9432C33.5962 11.4915 32.7354 11.2656 31.7468 11.2656C30.6729 11.2656 29.7354 11.5298 28.9343 12.0582C28.1417 12.5781 27.5281 13.2599 27.0934 14.1037C26.6673 14.9389 26.4542 15.8466 26.4542 16.8267V19.0639C26.4542 20.3764 26.6843 21.4929 27.1445 22.4134C27.6133 23.3338 28.2653 24.0369 29.1005 24.5227C29.9357 25 30.9116 25.2386 32.0281 25.2386C32.7525 25.2386 33.413 25.1364 34.0096 24.9318C34.6062 24.7187 35.1218 24.4034 35.5565 23.9858C35.9911 23.5682 36.3235 23.0526 36.5536 22.4389L40.1715 23.0909C39.8817 24.1562 39.3619 25.0895 38.6119 25.8906C37.8704 26.6832 36.9371 27.3011 35.8121 27.7443C34.6957 28.179 33.4215 28.3963 31.9897 28.3963ZM52.8885 35.7727C51.3288 35.7727 49.9865 35.5682 48.8615 35.1591C47.745 34.75 46.8331 34.2088 46.1257 33.5355C45.4183 32.8622 44.8899 32.125 44.5405 31.3239L47.826 29.9688C48.0561 30.3438 48.3629 30.7401 48.7464 31.1577C49.1385 31.5838 49.6669 31.946 50.3317 32.2443C51.005 32.5426 51.87 32.6918 52.9268 32.6918C54.3757 32.6918 55.5732 32.3381 56.5192 31.6307C57.4652 30.9318 57.9382 29.8153 57.9382 28.2812V24.4205H57.6953C57.4652 24.8381 57.1328 25.3026 56.6982 25.8139C56.272 26.3253 55.6839 26.7685 54.9339 27.1435C54.1839 27.5185 53.2081 27.706 52.0064 27.706C50.4553 27.706 49.0575 27.3437 47.8132 26.6193C46.5774 25.8864 45.5973 24.8082 44.8729 23.3849C44.157 21.9531 43.799 20.1932 43.799 18.1051C43.799 16.017 44.1527 14.2273 44.8601 12.7358C45.576 11.2443 46.5561 10.1023 47.8004 9.30966C49.0447 8.50852 50.4553 8.10795 52.032 8.10795C53.2507 8.10795 54.2351 8.3125 54.9851 8.72159C55.7351 9.12216 56.3189 9.59091 56.7365 10.1278C57.1626 10.6648 57.4908 11.1378 57.7209 11.5469H58.0021V8.36364H61.7479V28.4347C61.7479 30.1222 61.3558 31.5071 60.5717 32.5895C59.7876 33.6719 58.7266 34.473 57.3885 34.9929C56.0589 35.5128 54.5589 35.7727 52.8885 35.7727ZM52.8501 24.5355C53.9496 24.5355 54.8786 24.2798 55.6371 23.7685C56.4041 23.2486 56.9837 22.5071 57.3757 21.544C57.7763 20.5724 57.9766 19.4091 57.9766 18.054C57.9766 16.733 57.7805 15.5696 57.3885 14.5639C56.9964 13.5582 56.4212 12.7741 55.6626 12.2116C54.9041 11.6406 53.9666 11.3551 52.8501 11.3551C51.6996 11.3551 50.7408 11.6534 49.9737 12.25C49.2067 12.8381 48.6271 13.6392 48.2351 14.6534C47.8516 15.6676 47.6598 16.8011 47.6598 18.054C47.6598 19.3409 47.8558 20.4702 48.2479 21.4418C48.6399 22.4134 49.2195 23.1719 49.9865 23.7173C50.7621 24.2628 51.7166 24.5355 52.8501 24.5355ZM66.8743 28V8.36364H70.6967V28H66.8743ZM68.8047 5.33381C68.1399 5.33381 67.5689 5.11221 67.0916 4.66903C66.6229 4.21733 66.3885 3.6804 66.3885 3.05824C66.3885 2.42756 66.6229 1.89062 67.0916 1.44744C67.5689 0.995738 68.1399 0.769886 68.8047 0.769886C69.4695 0.769886 70.0362 0.995738 70.505 1.44744C70.9822 1.89062 71.2209 2.42756 71.2209 3.05824C71.2209 3.6804 70.9822 4.21733 70.505 4.66903C70.0362 5.11221 69.4695 5.33381 68.8047 5.33381ZM90.5536 13.1577L87.0891 13.7713C86.9442 13.3281 86.7141 12.9062 86.3988 12.5057C86.092 12.1051 85.6744 11.777 85.146 11.5213C84.6175 11.2656 83.957 11.1378 83.1644 11.1378C82.082 11.1378 81.1786 11.3807 80.4542 11.8665C79.7298 12.3437 79.3675 12.9616 79.3675 13.7202C79.3675 14.3764 79.6104 14.9048 80.0962 15.3054C80.582 15.706 81.3661 16.0341 82.4485 16.2898L85.5678 17.0057C87.3746 17.4233 88.7212 18.0668 89.6076 18.9361C90.494 19.8054 90.9371 20.9347 90.9371 22.3239C90.9371 23.5 90.5962 24.5483 89.9144 25.4688C89.2411 26.3807 88.2994 27.0966 87.0891 27.6165C85.8874 28.1364 84.494 28.3963 82.9087 28.3963C80.7099 28.3963 78.9158 27.9276 77.5266 26.9901C76.1374 26.044 75.2852 24.7017 74.9698 22.9631L78.6644 22.4006C78.8945 23.3636 79.3675 24.0923 80.0835 24.5866C80.7994 25.0724 81.7326 25.3153 82.8832 25.3153C84.136 25.3153 85.1374 25.0554 85.8874 24.5355C86.6374 24.0071 87.0124 23.3636 87.0124 22.6051C87.0124 21.9915 86.7823 21.4759 86.3221 21.0582C85.8704 20.6406 85.1758 20.3253 84.2383 20.1122L80.9144 19.3835C79.082 18.9659 77.7269 18.3011 76.8491 17.3892C75.9798 16.4773 75.5451 15.3224 75.5451 13.9247C75.5451 12.7656 75.869 11.7514 76.5167 10.8821C77.1644 10.0128 78.0593 9.33523 79.2013 8.84943C80.3434 8.35511 81.6516 8.10795 83.1261 8.10795C85.2482 8.10795 86.9187 8.56818 88.1374 9.48864C89.3562 10.4006 90.1616 11.6236 90.5536 13.1577ZM104.306 8.36364V11.4318H93.5803V8.36364H104.306ZM96.4567 3.65909H100.279V22.2344C100.279 22.9759 100.39 23.5341 100.612 23.9091C100.833 24.2756 101.119 24.527 101.468 24.6634C101.826 24.7912 102.214 24.8551 102.631 24.8551C102.938 24.8551 103.207 24.8338 103.437 24.7912C103.667 24.7486 103.846 24.7145 103.974 24.6889L104.664 27.8466C104.442 27.9318 104.127 28.017 103.718 28.1023C103.309 28.196 102.798 28.2472 102.184 28.2557C101.178 28.2727 100.241 28.0938 99.3714 27.7188C98.5021 27.3438 97.799 26.7642 97.2621 25.9801C96.7251 25.196 96.4567 24.2116 96.4567 23.027V3.65909ZM116.787 28.3963C114.852 28.3963 113.186 27.983 111.788 27.1562C110.399 26.321 109.325 25.1491 108.566 23.6406C107.816 22.1236 107.441 20.3466 107.441 18.3097C107.441 16.2983 107.816 14.5256 108.566 12.9915C109.325 11.4574 110.382 10.2599 111.737 9.39915C113.1 8.53835 114.694 8.10795 116.518 8.10795C117.626 8.10795 118.7 8.29119 119.74 8.65767C120.779 9.02415 121.713 9.59943 122.539 10.3835C123.366 11.1676 124.018 12.1861 124.495 13.4389C124.973 14.6832 125.211 16.196 125.211 17.9773V19.3324H109.602V16.4688H121.466C121.466 15.4631 121.261 14.5724 120.852 13.7969C120.443 13.0128 119.868 12.3949 119.126 11.9432C118.393 11.4915 117.532 11.2656 116.544 11.2656C115.47 11.2656 114.532 11.5298 113.731 12.0582C112.939 12.5781 112.325 13.2599 111.89 14.1037C111.464 14.9389 111.251 15.8466 111.251 16.8267V19.0639C111.251 20.3764 111.481 21.4929 111.941 22.4134C112.41 23.3338 113.062 24.0369 113.897 24.5227C114.733 25 115.708 25.2386 116.825 25.2386C117.549 25.2386 118.21 25.1364 118.806 24.9318C119.403 24.7187 119.919 24.4034 120.353 23.9858C120.788 23.5682 121.12 23.0526 121.35 22.4389L124.968 23.0909C124.679 24.1562 124.159 25.0895 123.409 25.8906C122.667 26.6832 121.734 27.3011 120.609 27.7443C119.493 28.179 118.218 28.3963 116.787 28.3963ZM129.452 28V8.36364H133.147V11.483H133.352C133.71 10.4261 134.34 9.59517 135.244 8.99006C136.156 8.37642 137.187 8.0696 138.337 8.0696C138.576 8.0696 138.857 8.07812 139.181 8.09517C139.513 8.11221 139.773 8.13352 139.961 8.15909V11.8153C139.808 11.7727 139.535 11.7259 139.143 11.6747C138.751 11.6151 138.359 11.5852 137.967 11.5852C137.063 11.5852 136.258 11.777 135.55 12.1605C134.852 12.5355 134.298 13.0597 133.888 13.733C133.479 14.3977 133.275 15.1562 133.275 16.0085V28H129.452Z"/>
</mask>
<path d="M0.876421 28V1.81818H10.2088C12.2372 1.81818 13.9205 2.16761 15.2585 2.86648C16.6051 3.56534 17.6108 4.53267 18.2756 5.76847C18.9403 6.99574 19.2727 8.41477 19.2727 10.0256C19.2727 11.6278 18.9361 13.0384 18.2628 14.2571C17.598 15.4673 16.5923 16.4091 15.2457 17.0824C13.9077 17.7557 12.2244 18.0923 10.196 18.0923H3.12642V14.6918H9.83807C11.1165 14.6918 12.1563 14.5085 12.9574 14.142C13.767 13.7756 14.3594 13.2429 14.7344 12.544C15.1094 11.8452 15.2969 11.0057 15.2969 10.0256C15.2969 9.03693 15.1051 8.1804 14.7216 7.45597C14.3466 6.73153 13.7543 6.17756 12.9446 5.79403C12.1435 5.40199 11.0909 5.20597 9.78693 5.20597H4.8267V28H0.876421ZM13.8011 16.1875L20.2699 28H15.7699L9.42898 16.1875H13.8011ZM31.9897 28.3963C30.055 28.3963 28.3888 27.983 26.9911 27.1562C25.6019 26.321 24.5281 25.1491 23.7695 23.6406C23.0195 22.1236 22.6445 20.3466 22.6445 18.3097C22.6445 16.2983 23.0195 14.5256 23.7695 12.9915C24.5281 11.4574 25.5849 10.2599 26.94 9.39915C28.3036 8.53835 29.8974 8.10795 31.7212 8.10795C32.8292 8.10795 33.9031 8.29119 34.9428 8.65767C35.9826 9.02415 36.9158 9.59943 37.7425 10.3835C38.5692 11.1676 39.2212 12.1861 39.6985 13.4389C40.1758 14.6832 40.4144 16.196 40.4144 17.9773V19.3324H24.805V16.4688H36.6687C36.6687 15.4631 36.4641 14.5724 36.055 13.7969C35.646 13.0128 35.0707 12.3949 34.3292 11.9432C33.5962 11.4915 32.7354 11.2656 31.7468 11.2656C30.6729 11.2656 29.7354 11.5298 28.9343 12.0582C28.1417 12.5781 27.5281 13.2599 27.0934 14.1037C26.6673 14.9389 26.4542 15.8466 26.4542 16.8267V19.0639C26.4542 20.3764 26.6843 21.4929 27.1445 22.4134C27.6133 23.3338 28.2653 24.0369 29.1005 24.5227C29.9357 25 30.9116 25.2386 32.0281 25.2386C32.7525 25.2386 33.413 25.1364 34.0096 24.9318C34.6062 24.7187 35.1218 24.4034 35.5565 23.9858C35.9911 23.5682 36.3235 23.0526 36.5536 22.4389L40.1715 23.0909C39.8817 24.1562 39.3619 25.0895 38.6119 25.8906C37.8704 26.6832 36.9371 27.3011 35.8121 27.7443C34.6957 28.179 33.4215 28.3963 31.9897 28.3963ZM52.8885 35.7727C51.3288 35.7727 49.9865 35.5682 48.8615 35.1591C47.745 34.75 46.8331 34.2088 46.1257 33.5355C45.4183 32.8622 44.8899 32.125 44.5405 31.3239L47.826 29.9688C48.0561 30.3438 48.3629 30.7401 48.7464 31.1577C49.1385 31.5838 49.6669 31.946 50.3317 32.2443C51.005 32.5426 51.87 32.6918 52.9268 32.6918C54.3757 32.6918 55.5732 32.3381 56.5192 31.6307C57.4652 30.9318 57.9382 29.8153 57.9382 28.2812V24.4205H57.6953C57.4652 24.8381 57.1328 25.3026 56.6982 25.8139C56.272 26.3253 55.6839 26.7685 54.9339 27.1435C54.1839 27.5185 53.2081 27.706 52.0064 27.706C50.4553 27.706 49.0575 27.3437 47.8132 26.6193C46.5774 25.8864 45.5973 24.8082 44.8729 23.3849C44.157 21.9531 43.799 20.1932 43.799 18.1051C43.799 16.017 44.1527 14.2273 44.8601 12.7358C45.576 11.2443 46.5561 10.1023 47.8004 9.30966C49.0447 8.50852 50.4553 8.10795 52.032 8.10795C53.2507 8.10795 54.2351 8.3125 54.9851 8.72159C55.7351 9.12216 56.3189 9.59091 56.7365 10.1278C57.1626 10.6648 57.4908 11.1378 57.7209 11.5469H58.0021V8.36364H61.7479V28.4347C61.7479 30.1222 61.3558 31.5071 60.5717 32.5895C59.7876 33.6719 58.7266 34.473 57.3885 34.9929C56.0589 35.5128 54.5589 35.7727 52.8885 35.7727ZM52.8501 24.5355C53.9496 24.5355 54.8786 24.2798 55.6371 23.7685C56.4041 23.2486 56.9837 22.5071 57.3757 21.544C57.7763 20.5724 57.9766 19.4091 57.9766 18.054C57.9766 16.733 57.7805 15.5696 57.3885 14.5639C56.9964 13.5582 56.4212 12.7741 55.6626 12.2116C54.9041 11.6406 53.9666 11.3551 52.8501 11.3551C51.6996 11.3551 50.7408 11.6534 49.9737 12.25C49.2067 12.8381 48.6271 13.6392 48.2351 14.6534C47.8516 15.6676 47.6598 16.8011 47.6598 18.054C47.6598 19.3409 47.8558 20.4702 48.2479 21.4418C48.6399 22.4134 49.2195 23.1719 49.9865 23.7173C50.7621 24.2628 51.7166 24.5355 52.8501 24.5355ZM66.8743 28V8.36364H70.6967V28H66.8743ZM68.8047 5.33381C68.1399 5.33381 67.5689 5.11221 67.0916 4.66903C66.6229 4.21733 66.3885 3.6804 66.3885 3.05824C66.3885 2.42756 66.6229 1.89062 67.0916 1.44744C67.5689 0.995738 68.1399 0.769886 68.8047 0.769886C69.4695 0.769886 70.0362 0.995738 70.505 1.44744C70.9822 1.89062 71.2209 2.42756 71.2209 3.05824C71.2209 3.6804 70.9822 4.21733 70.505 4.66903C70.0362 5.11221 69.4695 5.33381 68.8047 5.33381ZM90.5536 13.1577L87.0891 13.7713C86.9442 13.3281 86.7141 12.9062 86.3988 12.5057C86.092 12.1051 85.6744 11.777 85.146 11.5213C84.6175 11.2656 83.957 11.1378 83.1644 11.1378C82.082 11.1378 81.1786 11.3807 80.4542 11.8665C79.7298 12.3437 79.3675 12.9616 79.3675 13.7202C79.3675 14.3764 79.6104 14.9048 80.0962 15.3054C80.582 15.706 81.3661 16.0341 82.4485 16.2898L85.5678 17.0057C87.3746 17.4233 88.7212 18.0668 89.6076 18.9361C90.494 19.8054 90.9371 20.9347 90.9371 22.3239C90.9371 23.5 90.5962 24.5483 89.9144 25.4688C89.2411 26.3807 88.2994 27.0966 87.0891 27.6165C85.8874 28.1364 84.494 28.3963 82.9087 28.3963C80.7099 28.3963 78.9158 27.9276 77.5266 26.9901C76.1374 26.044 75.2852 24.7017 74.9698 22.9631L78.6644 22.4006C78.8945 23.3636 79.3675 24.0923 80.0835 24.5866C80.7994 25.0724 81.7326 25.3153 82.8832 25.3153C84.136 25.3153 85.1374 25.0554 85.8874 24.5355C86.6374 24.0071 87.0124 23.3636 87.0124 22.6051C87.0124 21.9915 86.7823 21.4759 86.3221 21.0582C85.8704 20.6406 85.1758 20.3253 84.2383 20.1122L80.9144 19.3835C79.082 18.9659 77.7269 18.3011 76.8491 17.3892C75.9798 16.4773 75.5451 15.3224 75.5451 13.9247C75.5451 12.7656 75.869 11.7514 76.5167 10.8821C77.1644 10.0128 78.0593 9.33523 79.2013 8.84943C80.3434 8.35511 81.6516 8.10795 83.1261 8.10795C85.2482 8.10795 86.9187 8.56818 88.1374 9.48864C89.3562 10.4006 90.1616 11.6236 90.5536 13.1577ZM104.306 8.36364V11.4318H93.5803V8.36364H104.306ZM96.4567 3.65909H100.279V22.2344C100.279 22.9759 100.39 23.5341 100.612 23.9091C100.833 24.2756 101.119 24.527 101.468 24.6634C101.826 24.7912 102.214 24.8551 102.631 24.8551C102.938 24.8551 103.207 24.8338 103.437 24.7912C103.667 24.7486 103.846 24.7145 103.974 24.6889L104.664 27.8466C104.442 27.9318 104.127 28.017 103.718 28.1023C103.309 28.196 102.798 28.2472 102.184 28.2557C101.178 28.2727 100.241 28.0938 99.3714 27.7188C98.5021 27.3438 97.799 26.7642 97.2621 25.9801C96.7251 25.196 96.4567 24.2116 96.4567 23.027V3.65909ZM116.787 28.3963C114.852 28.3963 113.186 27.983 111.788 27.1562C110.399 26.321 109.325 25.1491 108.566 23.6406C107.816 22.1236 107.441 20.3466 107.441 18.3097C107.441 16.2983 107.816 14.5256 108.566 12.9915C109.325 11.4574 110.382 10.2599 111.737 9.39915C113.1 8.53835 114.694 8.10795 116.518 8.10795C117.626 8.10795 118.7 8.29119 119.74 8.65767C120.779 9.02415 121.713 9.59943 122.539 10.3835C123.366 11.1676 124.018 12.1861 124.495 13.4389C124.973 14.6832 125.211 16.196 125.211 17.9773V19.3324H109.602V16.4688H121.466C121.466 15.4631 121.261 14.5724 120.852 13.7969C120.443 13.0128 119.868 12.3949 119.126 11.9432C118.393 11.4915 117.532 11.2656 116.544 11.2656C115.47 11.2656 114.532 11.5298 113.731 12.0582C112.939 12.5781 112.325 13.2599 111.89 14.1037C111.464 14.9389 111.251 15.8466 111.251 16.8267V19.0639C111.251 20.3764 111.481 21.4929 111.941 22.4134C112.41 23.3338 113.062 24.0369 113.897 24.5227C114.733 25 115.708 25.2386 116.825 25.2386C117.549 25.2386 118.21 25.1364 118.806 24.9318C119.403 24.7187 119.919 24.4034 120.353 23.9858C120.788 23.5682 121.12 23.0526 121.35 22.4389L124.968 23.0909C124.679 24.1562 124.159 25.0895 123.409 25.8906C122.667 26.6832 121.734 27.3011 120.609 27.7443C119.493 28.179 118.218 28.3963 116.787 28.3963ZM129.452 28V8.36364H133.147V11.483H133.352C133.71 10.4261 134.34 9.59517 135.244 8.99006C136.156 8.37642 137.187 8.0696 138.337 8.0696C138.576 8.0696 138.857 8.07812 139.181 8.09517C139.513 8.11221 139.773 8.13352 139.961 8.15909V11.8153C139.808 11.7727 139.535 11.7259 139.143 11.6747C138.751 11.6151 138.359 11.5852 137.967 11.5852C137.063 11.5852 136.258 11.777 135.55 12.1605C134.852 12.5355 134.298 13.0597 133.888 13.733C133.479 14.3977 133.275 15.1562 133.275 16.0085V28H129.452Z" fill="#FFFAB7"/>
<path d="M0.87642 28H-0.12358V29H0.87642V28ZM0.87642 1.81818V0.818181H-0.12358V1.81818H0.87642ZM15.2585 2.86648L14.7956 3.75286L14.7979 3.75406L15.2585 2.86648ZM18.2756 5.76847L17.3949 6.2422L17.3963 6.24475L18.2756 5.76847ZM18.2628 14.2571L17.3875 13.7735L17.3863 13.7757L18.2628 14.2571ZM15.2457 17.0824L14.7985 16.188L14.7963 16.1891L15.2457 17.0824ZM3.12642 18.0923H2.12642V19.0923H3.12642V18.0923ZM3.12642 14.6918V13.6918H2.12642V14.6918H3.12642ZM12.9574 14.142L12.545 13.231L12.5414 13.2327L12.9574 14.142ZM14.7216 7.45597L13.8335 7.91569L13.8378 7.92385L14.7216 7.45597ZM12.9446 5.79403L12.505 6.69232L12.5165 6.69777L12.9446 5.79403ZM4.8267 5.20597V4.20597H3.8267V5.20597H4.8267ZM4.8267 28V29H5.8267V28H4.8267ZM13.8011 16.1875L14.6782 15.7072L14.3936 15.1875H13.8011V16.1875ZM20.2699 28V29H21.9576L21.147 27.5197L20.2699 28ZM15.7699 28L14.8888 28.473L15.1717 29H15.7699V28ZM9.42898 16.1875V15.1875H7.75721L8.54789 16.6605L9.42898 16.1875ZM1.87642 28V1.81818H-0.12358V28H1.87642ZM0.87642 2.81818H10.2088V0.818181H0.87642V2.81818ZM10.2088 2.81818C12.129 2.81818 13.641 3.14982 14.7956 3.75286L15.7215 1.98009C14.1999 1.18541 12.3454 0.818181 10.2088 0.818181V2.81818ZM14.7979 3.75406C15.9812 4.36821 16.8332 5.19793 17.3949 6.2422L19.1562 5.29473C18.3884 3.86741 17.229 2.76247 15.7192 1.97889L14.7979 3.75406ZM17.3963 6.24475C17.9704 7.30463 18.2727 8.55528 18.2727 10.0256H20.2727C20.2727 8.27426 19.9103 6.68684 19.1549 5.29218L17.3963 6.24475ZM18.2727 10.0256C18.2727 11.4845 17.9674 12.7239 17.3875 13.7735L19.1381 14.7407C19.9048 13.3528 20.2727 11.7712 20.2727 10.0256H18.2727ZM17.3863 13.7757C16.8282 14.7917 15.9806 15.5969 14.7985 16.188L15.693 17.9768C17.2041 17.2213 18.3678 16.143 19.1393 14.7385L17.3863 13.7757ZM14.7963 16.1891C13.638 16.7719 12.1209 17.0923 10.196 17.0923V19.0923C12.3279 19.0923 14.1773 18.7395 15.6952 17.9757L14.7963 16.1891ZM10.196 17.0923H3.12642V19.0923H10.196V17.0923ZM4.12642 18.0923V14.6918H2.12642V18.0923H4.12642ZM3.12642 15.6918H9.83807V13.6918H3.12642V15.6918ZM9.83807 15.6918C11.2003 15.6918 12.3965 15.4983 13.3734 15.0514L12.5414 13.2327C11.916 13.5188 11.0326 13.6918 9.83807 13.6918V15.6918ZM13.3697 15.0531C14.3542 14.6075 15.1242 13.9325 15.6155 13.0169L13.8532 12.0712C13.5946 12.5533 13.1799 12.9436 12.545 13.231L13.3697 15.0531ZM15.6155 13.0169C16.0849 12.1422 16.2969 11.1323 16.2969 10.0256H14.2969C14.2969 10.879 14.1339 11.5481 13.8532 12.0712L15.6155 13.0169ZM16.2969 10.0256C16.2969 8.90719 16.0794 7.88351 15.6054 6.98808L13.8378 7.92385C14.1308 8.47728 14.2969 9.16668 14.2969 10.0256H16.2969ZM15.6097 6.99626C15.1241 6.05819 14.3596 5.35777 13.3727 4.8903L12.5165 6.69777C13.149 6.99735 13.5691 7.40488 13.8335 7.91567L15.6097 6.99626ZM13.3842 4.89582C12.3978 4.41314 11.1783 4.20597 9.78693 4.20597V6.20597C11.0035 6.20597 11.8891 6.39084 12.505 6.69225L13.3842 4.89582ZM9.78693 4.20597H4.8267V6.20597H9.78693V4.20597ZM3.8267 5.20597V28H5.8267V5.20597H3.8267ZM4.8267 27H0.87642V29H4.8267V27ZM12.924 16.6678L19.3928 28.4803L21.147 27.5197L14.6782 15.7072L12.924 16.6678ZM20.2699 27H15.7699V29H20.2699V27ZM16.651 27.527L10.3101 15.7145L8.54789 16.6605L14.8888 28.473L16.651 27.527ZM9.42898 17.1875H13.8011V15.1875H9.42898V17.1875ZM26.9911 27.1562L26.4758 28.0133L26.482 28.017L26.9911 27.1562ZM23.7695 23.6406L22.8731 24.0838L22.8761 24.0899L23.7695 23.6406ZM23.7695 12.9915L22.8731 12.5482L22.8711 12.5523L23.7695 12.9915ZM26.94 9.39915L26.4062 8.55353L26.4038 8.55505L26.94 9.39915ZM34.9428 8.65767L35.2752 7.71454L34.9428 8.65767ZM37.7425 10.3835L37.0544 11.1091V11.1091L37.7425 10.3835ZM39.6985 13.4389L38.764 13.7949L38.7648 13.797L39.6985 13.4389ZM40.4144 19.3324V20.3324H41.4144V19.3324H40.4144ZM24.805 19.3324H23.805V20.3324H24.805V19.3324ZM24.805 16.4688V15.4688H23.805V16.4688H24.805ZM36.6687 16.4688V17.4688H37.6687V16.4688H36.6687ZM36.055 13.7969L35.1684 14.2594L35.1705 14.2634L36.055 13.7969ZM34.3292 11.9432L33.8045 12.7945L33.8089 12.7972L34.3292 11.9432ZM28.9343 12.0582L29.4828 12.8944L29.4849 12.893L28.9343 12.0582ZM27.0934 14.1037L26.2044 13.6457L26.2026 13.6492L27.0934 14.1037ZM27.1445 22.4134L26.2501 22.8606L26.2534 22.8672L27.1445 22.4134ZM29.1005 24.5227L28.5977 25.3872L28.6044 25.391L29.1005 24.5227ZM34.0096 24.9318L34.3339 25.8778L34.3459 25.8736L34.0096 24.9318ZM35.5565 23.9858L34.8636 23.2647L35.5565 23.9858ZM36.5536 22.4389L36.731 21.4548L35.9101 21.3069L35.6173 22.0878L36.5536 22.4389ZM40.1715 23.0909L41.1365 23.3534L41.4229 22.3003L40.3489 22.1068L40.1715 23.0909ZM38.6119 25.8906L37.8818 25.2072L37.8816 25.2075L38.6119 25.8906ZM35.8121 27.7443L36.1749 28.6762L36.1787 28.6747L35.8121 27.7443ZM31.9897 27.3963C30.1997 27.3963 28.7166 27.015 27.5002 26.2955L26.482 28.017C28.0611 28.9509 29.9104 29.3963 31.9897 29.3963V27.3963ZM27.5064 26.2992C26.2862 25.5656 25.3402 24.5384 24.6629 23.1914L22.8761 24.0899C23.7159 25.7599 24.9176 27.0764 26.4759 28.0133L27.5064 26.2992ZM24.666 23.1974C23.9966 21.8435 23.6445 20.2238 23.6445 18.3097H21.6445C21.6445 20.4694 22.0425 22.4037 22.8731 24.0838L24.666 23.1974ZM23.6445 18.3097C23.6445 16.4236 23.9957 14.8057 24.6679 13.4307L22.8711 12.5523C22.0434 14.2454 21.6445 16.173 21.6445 18.3097H23.6445ZM24.6659 13.4347C25.3489 12.0534 26.2858 10.9994 27.4762 10.2432L26.4038 8.55505C24.8839 9.52052 23.7072 10.8614 22.8731 12.5483L24.6659 13.4347ZM27.4738 10.2448C28.6574 9.49759 30.0609 9.10795 31.7212 9.10795V7.10795C29.7339 7.10795 27.9498 7.57911 26.4062 8.55353L27.4738 10.2448ZM31.7212 9.10795C32.7165 9.10795 33.678 9.27216 34.6104 9.6008L35.2752 7.71454C34.1281 7.31023 32.9418 7.10795 31.7212 7.10795V9.10795ZM34.6104 9.6008C35.5132 9.91898 36.3261 10.4184 37.0544 11.1091L38.4307 9.65796C37.5055 8.78048 36.452 8.12931 35.2752 7.71454L34.6104 9.6008ZM37.0544 11.1091C37.7547 11.7733 38.3308 12.6576 38.764 13.7949L40.633 13.0829C40.1117 11.7146 39.3838 10.5619 38.4307 9.65796L37.0544 11.1091ZM38.7648 13.797C39.1862 14.8957 39.4144 16.2797 39.4144 17.9773H41.4144C41.4144 16.1124 41.1653 14.4708 40.6322 13.0808L38.7648 13.797ZM39.4144 17.9773V19.3324H41.4144V17.9773H39.4144ZM40.4144 18.3324H24.805V20.3324H40.4144V18.3324ZM25.805 19.3324V16.4688H23.805V19.3324H25.805ZM24.805 17.4688H36.6687V15.4688H24.805V17.4688ZM37.6687 16.4688C37.6687 15.3245 37.435 14.2696 36.9395 13.3303L35.1705 14.2634C35.4933 14.8753 35.6687 15.6016 35.6687 16.4688H37.6687ZM36.9416 13.3343C36.45 12.392 35.7494 11.6374 34.8494 11.0892L33.8089 12.7972C34.3919 13.1523 34.8419 13.6336 35.1685 14.2594L36.9416 13.3343ZM34.8538 11.0919C33.9409 10.5292 32.8927 10.2656 31.7468 10.2656V12.2656C32.5782 12.2656 33.2516 12.4537 33.8045 12.7945L34.8538 11.0919ZM31.7468 10.2656C30.5013 10.2656 29.3673 10.5747 28.3837 11.2235L29.4849 12.893C30.1036 12.4849 30.8446 12.2656 31.7468 12.2656V10.2656ZM28.3858 11.2221C27.4488 11.8367 26.718 12.6489 26.2044 13.6457L27.9824 14.5616C28.3381 13.871 28.8346 13.3196 29.4828 12.8944L28.3858 11.2221ZM26.2026 13.6492C25.7014 14.6316 25.4542 15.696 25.4542 16.8267H27.4542C27.4542 15.9972 27.6331 15.2462 27.9842 14.5582L26.2026 13.6492ZM25.4542 16.8267V19.0639H27.4542V16.8267H25.4542ZM25.4542 19.0639C25.4542 20.4902 25.704 21.7684 26.2501 22.8606L28.039 21.9661C27.6646 21.2174 27.4542 20.2627 27.4542 19.0639H25.4542ZM26.2534 22.8672C26.8031 23.9466 27.5847 24.7979 28.5977 25.3871L29.6033 23.6583C28.9459 23.276 28.4234 22.721 28.0356 21.9596L26.2534 22.8672ZM28.6044 25.391C29.6134 25.9676 30.7658 26.2386 32.0281 26.2386V24.2386C31.0574 24.2386 30.258 24.0324 29.5966 23.6545L28.6044 25.391ZM32.0281 26.2386C32.8467 26.2386 33.6187 26.123 34.3339 25.8778L33.6853 23.9859C33.2073 24.1497 32.6583 24.2386 32.0281 24.2386V26.2386ZM34.3459 25.8736C35.0687 25.6154 35.7076 25.2274 36.2493 24.7069L34.8636 23.2647C34.5361 23.5794 34.1437 23.8221 33.6733 23.9901L34.3459 25.8736ZM36.2493 24.7069C36.8009 24.1769 37.212 23.5312 37.49 22.79L35.6173 22.0878C35.435 22.5739 35.1813 22.9595 34.8636 23.2647L36.2493 24.7069ZM36.3763 23.4231L39.9942 24.0751L40.3489 22.1068L36.731 21.4548L36.3763 23.4231ZM39.2066 22.8284C38.9593 23.7374 38.5197 24.5259 37.8818 25.2072L39.3419 26.5741C40.204 25.6531 40.8042 24.5751 41.1365 23.3534L39.2066 22.8284ZM37.8816 25.2075C37.2526 25.8799 36.4484 26.4189 35.4456 26.8139L36.1787 28.6747C37.4259 28.1834 38.4882 27.4866 39.3421 26.5738L37.8816 25.2075ZM35.4494 26.8124C34.4687 27.1942 33.3211 27.3963 31.9897 27.3963V29.3963C33.522 29.3963 34.9226 29.1637 36.1749 28.6762L35.4494 26.8124ZM48.8615 35.1591L48.5175 36.098L48.5198 36.0989L48.8615 35.1591ZM46.1257 33.5355L46.8151 32.8112L46.1257 33.5355ZM44.5405 31.3239L44.1592 30.3994L43.216 30.7884L43.6239 31.7237L44.5405 31.3239ZM47.826 29.9688L48.6783 29.4457L48.2326 28.7193L47.4447 29.0443L47.826 29.9688ZM48.7464 31.1577L48.0099 31.8341L48.0105 31.8347L48.7464 31.1577ZM50.3317 32.2443L49.9223 33.1567L49.9266 33.1586L50.3317 32.2443ZM56.5192 31.6307L55.925 30.8263L55.9203 30.8298L56.5192 31.6307ZM57.9382 24.4205H58.9382V23.4205H57.9382V24.4205ZM57.6953 24.4205V23.4205H57.1046L56.8195 23.9378L57.6953 24.4205ZM56.6982 25.8139L55.9362 25.1662L55.9299 25.1737L56.6982 25.8139ZM54.9339 27.1435L54.4867 26.249L54.9339 27.1435ZM47.8132 26.6193L47.3031 27.4794L47.3101 27.4835L47.8132 26.6193ZM44.8729 23.3849L43.9784 23.8322L43.9817 23.8385L44.8729 23.3849ZM44.8601 12.7358L43.9586 12.3031L43.9566 12.3073L44.8601 12.7358ZM47.8004 9.30966L48.3377 10.1531L48.3418 10.1505L47.8004 9.30966ZM54.9851 8.72159L54.5062 9.59952L54.514 9.60367L54.9851 8.72159ZM56.7365 10.1278L55.9471 10.7418L55.9532 10.7495L56.7365 10.1278ZM57.7209 11.5469L56.8493 12.0371L57.136 12.5469H57.7209V11.5469ZM58.0021 11.5469V12.5469H59.0021V11.5469H58.0021ZM58.0021 8.36364V7.36364H57.0021V8.36364H58.0021ZM61.7479 8.36364H62.7479V7.36364H61.7479V8.36364ZM60.5717 32.5895L59.7619 32.0028L60.5717 32.5895ZM57.3885 34.9929L57.0263 34.0608L57.0243 34.0616L57.3885 34.9929ZM55.6371 23.7685L56.1961 24.5976L56.1981 24.5962L55.6371 23.7685ZM57.3757 21.544L56.4512 21.1629L56.4495 21.167L57.3757 21.544ZM55.6626 12.2116L55.0612 13.0106L55.067 13.0149L55.6626 12.2116ZM49.9737 12.25L50.5822 13.0436L50.5877 13.0394L49.9737 12.25ZM48.2351 14.6534L47.3023 14.2928L47.2997 14.2997L48.2351 14.6534ZM48.2479 21.4418L49.1752 21.0676L48.2479 21.4418ZM49.9865 23.7173L49.407 24.5323L49.4112 24.5353L49.9865 23.7173ZM52.8885 34.7727C51.412 34.7727 50.1912 34.5785 49.2032 34.2193L48.5198 36.0989C49.7818 36.5578 51.2457 36.7727 52.8885 36.7727V34.7727ZM49.2056 34.2201C48.1904 33.8482 47.4042 33.3718 46.8151 32.8112L45.4363 34.2599C46.262 35.0458 47.2997 35.6518 48.5175 36.098L49.2056 34.2201ZM46.8151 32.8112C46.193 32.219 45.7473 31.5894 45.4571 30.9241L43.6239 31.7237C44.0326 32.6606 44.6436 33.5054 45.4363 34.2599L46.8151 32.8112ZM44.9218 32.2483L48.2073 30.8932L47.4447 29.0443L44.1592 30.3994L44.9218 32.2483ZM46.9737 30.4918C47.2454 30.9345 47.5947 31.3819 48.0099 31.8341L49.483 30.4813C49.1312 30.0982 48.8669 29.753 48.6783 29.4457L46.9737 30.4918ZM48.0105 31.8347C48.5148 32.3828 49.1647 32.8167 49.9223 33.1567L50.7411 31.332C50.1691 31.0753 49.7622 30.7848 49.4824 30.4806L48.0105 31.8347ZM49.9266 33.1586C50.7703 33.5324 51.7866 33.6918 52.9268 33.6918V31.6918C51.9535 31.6918 51.2396 31.5528 50.7367 31.33L49.9266 33.1586ZM52.9268 33.6918C54.5417 33.6918 55.963 33.2952 57.118 32.4315L55.9203 30.8298C55.1833 31.3809 54.2098 31.6918 52.9268 31.6918V33.6918ZM57.1134 32.435C58.3892 31.4925 58.9382 30.0268 58.9382 28.2812H56.9382C56.9382 29.6039 56.5412 30.3711 55.925 30.8264L57.1134 32.435ZM58.9382 28.2812V24.4205H56.9382V28.2812H58.9382ZM57.9382 23.4205H57.6953V25.4205H57.9382V23.4205ZM56.8195 23.9378C56.6318 24.2784 56.3435 24.6871 55.9362 25.1663L57.4601 26.4616C57.9221 25.918 58.2986 25.3977 58.5712 24.9031L56.8195 23.9378ZM55.9299 25.1737C55.6119 25.5554 55.1443 25.9203 54.4867 26.249L55.3812 28.0379C56.2236 27.6167 56.9322 27.0952 57.4664 26.4541L55.9299 25.1737ZM54.4867 26.249C53.9225 26.5312 53.1155 26.706 52.0064 26.706V28.706C53.3007 28.706 54.4454 28.5058 55.3812 28.0379L54.4867 26.249ZM52.0064 26.706C50.6179 26.706 49.3961 26.3838 48.3163 25.7551L47.3101 27.4835C48.7189 28.3037 50.2926 28.706 52.0064 28.706V26.706ZM48.3233 25.7592C47.2683 25.1335 46.4125 24.2052 45.7641 22.9313L43.9817 23.8385C44.7821 25.4113 45.8865 26.6392 47.3031 27.4794L48.3233 25.7592ZM45.7673 22.9377C45.1386 21.6804 44.799 20.0835 44.799 18.1051H42.799C42.799 20.3029 43.1753 22.2258 43.9784 23.8322L45.7673 22.9377ZM44.799 18.1051C44.799 16.1272 45.1343 14.4913 45.7636 13.1643L43.9566 12.3073C43.1711 13.9633 42.799 15.9069 42.799 18.1051H44.799ZM45.7616 13.1685C46.4069 11.8242 47.2693 10.8336 48.3377 10.1531L47.2632 8.46624C45.8429 9.3709 44.7451 10.6644 43.9586 12.3031L45.7616 13.1685ZM48.3418 10.1505C49.414 9.46015 50.6341 9.10795 52.032 9.10795V7.10795C50.2764 7.10795 48.6755 7.55689 47.2591 8.46886L48.3418 10.1505ZM52.032 9.10795C53.1504 9.10795 53.9525 9.29743 54.5062 9.59949L55.4639 7.84369C54.5177 7.32757 53.351 7.10795 52.032 7.10795V9.10795ZM54.514 9.60367C55.1703 9.95418 55.6343 10.3396 55.9472 10.7418L57.5259 9.5139C57.0035 8.84225 56.2999 8.29014 55.4562 7.83951L54.514 9.60367ZM55.9532 10.7495C56.36 11.2621 56.6539 11.6898 56.8493 12.0371L58.5925 11.0566C58.3276 10.5858 57.9653 10.0675 57.5198 9.50618L55.9532 10.7495ZM57.7209 12.5469H58.0021V10.5469H57.7209V12.5469ZM59.0021 11.5469V8.36364H57.0021V11.5469H59.0021ZM58.0021 9.36364H61.7479V7.36364H58.0021V9.36364ZM60.7479 8.36364V28.4347H62.7479V8.36364H60.7479ZM60.7479 28.4347C60.7479 29.9672 60.3933 31.1313 59.7619 32.0028L61.3816 33.1761C62.3184 31.8829 62.7479 30.2771 62.7479 28.4347H60.7479ZM59.7619 32.0028C59.0991 32.9178 58.1989 33.6052 57.0263 34.0608L57.7507 35.925C59.2542 35.3408 60.4762 34.426 61.3816 33.1761L59.7619 32.0028ZM57.0243 34.0616C55.8288 34.5291 54.4552 34.7727 52.8885 34.7727V36.7727C54.6627 36.7727 56.2891 36.4965 57.7527 35.9242L57.0243 34.0616ZM52.8501 25.5355C54.1079 25.5355 55.2415 25.2412 56.1961 24.5976L55.0781 22.9393C54.5156 23.3185 53.7912 23.5355 52.8501 23.5355V25.5355ZM56.1981 24.5962C57.1483 23.9522 57.8448 23.044 58.3019 21.9211L56.4495 21.167C56.1225 21.9702 55.66 22.5449 55.076 22.9407L56.1981 24.5962ZM58.3002 21.9252C58.7628 20.8032 58.9766 19.5037 58.9766 18.054H56.9766C56.9766 19.3145 56.7898 20.3416 56.4512 21.1629L58.3002 21.9252ZM58.9766 18.054C58.9766 16.6357 58.7662 15.3449 58.3202 14.2007L56.4568 14.9271C56.7948 15.7943 56.9766 16.8302 56.9766 18.054H58.9766ZM58.3202 14.2007C57.8698 13.0453 57.1887 12.0984 56.2583 11.4084L55.067 13.0149C55.6536 13.4499 56.1231 14.0711 56.4568 14.9271L58.3202 14.2007ZM56.2641 11.4127C55.3031 10.6893 54.1441 10.3551 52.8501 10.3551V12.3551C53.7892 12.3551 54.5052 12.592 55.0612 13.0106L56.2641 11.4127ZM52.8501 10.3551C51.5196 10.3551 50.3332 10.7036 49.3598 11.4606L50.5877 13.0394C51.1484 12.6032 51.8795 12.3551 52.8501 12.3551V10.3551ZM49.3653 11.4564C48.4348 12.1698 47.7522 13.1292 47.3023 14.2929L49.1678 15.014C49.5021 14.1492 49.9786 13.5063 50.5822 13.0436L49.3653 11.4564ZM47.2997 14.2997C46.8674 15.443 46.6598 16.6988 46.6598 18.054H48.6598C48.6598 16.9035 48.8358 15.8922 49.1704 15.0071L47.2997 14.2997ZM46.6598 18.054C46.6598 19.4407 46.8709 20.7017 47.3205 21.816L49.1752 21.0676C48.8408 20.2387 48.6598 19.2411 48.6598 18.054H46.6598ZM47.3205 21.816C47.7757 22.944 48.467 23.8639 49.407 24.5323L50.566 22.9024C49.9719 22.4799 49.5042 21.8827 49.1752 21.0676L47.3205 21.816ZM49.4112 24.5353C50.386 25.2209 51.5518 25.5355 52.8501 25.5355V23.5355C51.8814 23.5355 51.1381 23.3047 50.5618 22.8994L49.4112 24.5353ZM66.8743 28H65.8743V29H66.8743V28ZM66.8743 8.36364V7.36364H65.8743V8.36364H66.8743ZM70.6967 8.36364H71.6967V7.36364H70.6967V8.36364ZM70.6967 28V29H71.6967V28H70.6967ZM67.0916 4.66903L66.3977 5.38911L66.4044 5.39553L66.4112 5.40182L67.0916 4.66903ZM67.0916 1.44744L67.7786 2.17409L67.779 2.17374L67.0916 1.44744ZM70.505 1.44744L69.8111 2.16752L69.8177 2.17394L69.8245 2.18023L70.505 1.44744ZM70.505 4.66903L71.192 5.39568L71.1924 5.39533L70.505 4.66903ZM67.8743 28V8.36364H65.8743V28H67.8743ZM66.8743 9.36364H70.6967V7.36364H66.8743V9.36364ZM69.6967 8.36364V28H71.6967V8.36364H69.6967ZM70.6967 27H66.8743V29H70.6967V27ZM68.8047 4.33381C68.3865 4.33381 68.0602 4.20377 67.7721 3.93624L66.4112 5.40182C67.0776 6.02066 67.8933 6.33381 68.8047 6.33381V4.33381ZM67.7855 3.94895C67.5022 3.67596 67.3885 3.39498 67.3885 3.05824H65.3885C65.3885 3.96581 65.7435 4.7587 66.3977 5.38911L67.7855 3.94895ZM67.3885 3.05824C67.3885 2.70952 67.5045 2.43326 67.7786 2.17409L66.4046 0.720796C65.7412 1.34799 65.3885 2.14559 65.3885 3.05824H67.3885ZM67.779 2.17374C68.0682 1.90005 68.3923 1.76989 68.8047 1.76989V-0.230114C67.8875 -0.230114 67.0696 0.0914207 66.4042 0.721148L67.779 2.17374ZM68.8047 1.76989C69.2168 1.76989 69.5331 1.8996 69.8111 2.16752L71.1989 0.727364C70.5394 0.0918765 69.7222 -0.230114 68.8047 -0.230114V1.76989ZM69.8245 2.18023C70.1056 2.44121 70.2209 2.71575 70.2209 3.05824H72.2209C72.2209 2.13937 71.8589 1.34004 71.1854 0.714649L69.8245 2.18023ZM70.2209 3.05824C70.2209 3.38878 70.1079 3.668 69.8176 3.94274L71.1924 5.39533C71.8566 4.76665 72.2209 3.97201 72.2209 3.05824H70.2209ZM69.818 3.94239C69.5411 4.20417 69.2226 4.33381 68.8047 4.33381V6.33381C69.7163 6.33381 70.5314 6.02026 71.192 5.39568L69.818 3.94239ZM90.5536 13.1577L90.728 14.1423L91.7894 13.9544L91.5225 12.9101L90.5536 13.1577ZM87.0891 13.7713L86.1386 14.082L86.4085 14.9074L87.2635 14.756L87.0891 13.7713ZM86.3988 12.5057L85.6048 13.1138L85.6131 13.1242L86.3988 12.5057ZM85.146 11.5213L85.5815 10.6211L85.146 11.5213ZM80.4542 11.8665L81.0044 12.7016L81.0111 12.697L80.4542 11.8665ZM82.4485 16.2898L82.2186 17.263L82.2248 17.2644L82.4485 16.2898ZM85.5678 17.0057L85.793 16.0314L85.7915 16.031L85.5678 17.0057ZM89.6076 18.9361L88.9074 19.65L89.6076 18.9361ZM89.9144 25.4688L89.1109 24.8735L89.1099 24.8748L89.9144 25.4688ZM87.0891 27.6165L86.6944 26.6977L86.6921 26.6987L87.0891 27.6165ZM77.5266 26.9901L76.9638 27.8166L76.9672 27.819L77.5266 26.9901ZM74.9698 22.9631L74.8193 21.9745L73.8023 22.1293L73.9859 23.1415L74.9698 22.9631ZM78.6644 22.4006L79.637 22.1682L79.4233 21.2735L78.5139 21.412L78.6644 22.4006ZM80.0835 24.5866L79.5152 25.4096L79.5219 25.4141L80.0835 24.5866ZM85.8874 24.5355L86.4571 25.3574L86.4634 25.353L85.8874 24.5355ZM86.3221 21.0582L85.6432 21.7925L85.6501 21.7988L86.3221 21.0582ZM84.2383 20.1122L84.4599 19.1371L84.4524 19.1354L84.2383 20.1122ZM80.9144 19.3835L80.6922 20.3586L80.7003 20.3603L80.9144 19.3835ZM76.8491 17.3892L76.1253 18.0792L76.1286 18.0827L76.8491 17.3892ZM76.5167 10.8821L75.7148 10.2846L76.5167 10.8821ZM79.2013 8.84943L79.5928 9.76966L79.5986 9.76715L79.2013 8.84943ZM88.1374 9.48864L87.5348 10.2866L87.5383 10.2893L88.1374 9.48864ZM90.3792 12.173L86.9147 12.7866L87.2635 14.756L90.728 14.1423L90.3792 12.173ZM88.0396 13.4606C87.855 12.896 87.5656 12.3712 87.1845 11.8871L85.6131 13.1242C85.8626 13.4413 86.0334 13.7603 86.1386 14.082L88.0396 13.4606ZM87.1927 11.8976C86.7765 11.3542 86.2276 10.9338 85.5815 10.6211L84.7104 12.4215C85.1212 12.6202 85.4075 12.856 85.6049 13.1138L87.1927 11.8976ZM85.5815 10.6211C84.8784 10.2809 84.0577 10.1378 83.1644 10.1378V12.1378C83.8564 12.1378 84.3567 12.2503 84.7104 12.4215L85.5815 10.6211ZM83.1644 10.1378C81.9317 10.1378 80.8222 10.4157 79.8972 11.0359L81.0111 12.697C81.535 12.3457 82.2324 12.1378 83.1644 12.1378V10.1378ZM79.904 11.0314C78.946 11.6626 78.3675 12.5725 78.3675 13.7202H80.3675C80.3675 13.3508 80.5136 13.0249 81.0043 12.7015L79.904 11.0314ZM78.3675 13.7202C78.3675 14.6605 78.7329 15.4774 79.4601 16.0769L80.7324 14.5339C80.488 14.3323 80.3675 14.0924 80.3675 13.7202H78.3675ZM79.4601 16.0769C80.1226 16.6233 81.0848 16.9952 82.2186 17.263L82.6784 15.3166C81.6475 15.073 81.0414 14.7887 80.7324 14.5339L79.4601 16.0769ZM82.2248 17.2644L85.3441 17.9803L85.7915 16.031L82.6722 15.3151L82.2248 17.2644ZM85.3426 17.98C87.0527 18.3752 88.202 18.9581 88.9074 19.65L90.3078 18.2221C89.2405 17.1754 87.6966 16.4714 85.793 16.0314L85.3426 17.98ZM88.9074 19.65C89.5784 20.3081 89.9371 21.1682 89.9371 22.3239H91.9371C91.9371 20.7011 91.4096 19.3027 90.3078 18.2221L88.9074 19.65ZM89.9371 22.3239C89.9371 23.2918 89.6615 24.1302 89.1109 24.8735L90.718 26.064C91.531 24.9664 91.9371 23.7082 91.9371 22.3239H89.9371ZM89.1099 24.8748C88.558 25.6223 87.7684 26.2363 86.6944 26.6977L87.4838 28.5353C88.8303 27.9569 89.9242 27.1391 90.7189 26.0627L89.1099 24.8748ZM86.6921 26.6987C85.6392 27.1542 84.3855 27.3963 82.9087 27.3963V29.3963C84.6024 29.3963 86.1357 29.1185 87.4862 28.5343L86.6921 26.6987ZM82.9087 27.3963C80.8478 27.3963 79.2655 26.9571 78.086 26.1611L76.9672 27.819C78.5661 28.898 80.5719 29.3963 82.9087 29.3963V27.3963ZM78.0895 26.1635C76.9342 25.3768 76.224 24.2746 75.9538 22.7846L73.9859 23.1415C74.3463 25.1288 75.3407 26.7113 76.9638 27.8166L78.0895 26.1635ZM75.1203 23.9517L78.8149 23.3892L78.5139 21.412L74.8193 21.9745L75.1203 23.9517ZM77.6918 22.633C77.9708 23.8005 78.5682 24.7556 79.5153 25.4095L80.6516 23.7638C80.1669 23.4291 79.8183 22.9267 79.637 22.1682L77.6918 22.633ZM79.5219 25.4141C80.4501 26.044 81.5973 26.3153 82.8832 26.3153V24.3153C81.8679 24.3153 81.1486 24.1009 80.645 23.7592L79.5219 25.4141ZM82.8832 26.3153C84.2657 26.3153 85.4879 26.0292 86.4571 25.3574L85.3177 23.7137C84.787 24.0816 84.0063 24.3153 82.8832 24.3153V26.3153ZM86.4634 25.353C87.4161 24.6818 88.0124 23.7592 88.0124 22.6051H86.0124C86.0124 22.9681 85.8588 23.3324 85.3115 23.718L86.4634 25.353ZM88.0124 22.6051C88.0124 21.7053 87.6602 20.9221 86.9941 20.3177L85.6501 21.7988C85.9045 22.0296 86.0124 22.2776 86.0124 22.6051H88.0124ZM87.0009 20.324C86.3677 19.7385 85.4807 19.3691 84.4599 19.1371L84.0167 21.0873C84.8709 21.2815 85.3731 21.5428 85.6432 21.7925L87.0009 20.324ZM84.4524 19.1354L81.1286 18.4067L80.7003 20.3603L84.0241 21.089L84.4524 19.1354ZM81.1366 18.4085C79.4076 18.0145 78.2616 17.4146 77.5695 16.6957L76.1286 18.0827C77.1922 19.1876 78.7565 19.9174 80.6922 20.3585L81.1366 18.4085ZM77.5729 16.6992C76.9009 15.9943 76.5451 15.0961 76.5451 13.9247H74.5451C74.5451 15.5488 75.0586 16.9603 76.1253 18.0792L77.5729 16.6992ZM76.5451 13.9247C76.5451 12.9651 76.8086 12.164 77.3186 11.4796L75.7148 10.2846C74.9293 11.3389 74.5451 12.5662 74.5451 13.9247H76.5451ZM77.3186 11.4796C77.8459 10.7718 78.5897 10.1963 79.5928 9.76964L78.8099 7.92922C77.5289 8.47414 76.4829 9.25374 75.7148 10.2846L77.3186 11.4796ZM79.5986 9.76715C80.5943 9.33619 81.7634 9.10795 83.1261 9.10795V7.10795C81.5399 7.10795 80.0925 7.37404 78.8041 7.93171L79.5986 9.76715ZM83.1261 9.10795C85.1137 9.10795 86.5458 9.53973 87.5348 10.2866L88.7401 8.69065C87.2915 7.59663 85.3828 7.10795 83.1261 7.10795V9.10795ZM87.5383 10.2893C88.5665 11.0587 89.2468 12.0827 89.5848 13.4053L91.5225 12.9101C91.0764 11.1644 90.1458 9.74248 88.7365 8.68796L87.5383 10.2893ZM104.306 8.36364H105.306V7.36364H104.306V8.36364ZM104.306 11.4318V12.4318H105.306V11.4318H104.306ZM93.5803 11.4318H92.5803V12.4318H93.5803V11.4318ZM93.5803 8.36364V7.36364H92.5803V8.36364H93.5803ZM96.4567 3.65909V2.65909H95.4567V3.65909H96.4567ZM100.279 3.65909H101.279V2.65909H100.279V3.65909ZM100.612 23.9091L99.7505 24.4178L99.7558 24.4265L100.612 23.9091ZM101.468 24.6634L101.104 25.5949L101.118 25.6002L101.132 25.6051L101.468 24.6634ZM103.437 24.7912L103.619 25.7745L103.437 24.7912ZM103.974 24.6889L104.951 24.4753L104.741 23.5157L103.778 23.7083L103.974 24.6889ZM104.664 27.8466L105.023 28.7799L105.824 28.4717L105.641 27.633L104.664 27.8466ZM103.718 28.1023L103.514 27.1233L103.504 27.1253L103.495 27.1275L103.718 28.1023ZM102.184 28.2557L102.17 27.2558L102.167 27.2558L102.184 28.2557ZM99.3715 27.7188L98.9754 28.637L99.3715 27.7188ZM97.2621 25.9801L96.437 26.5451L97.2621 25.9801ZM103.306 8.36364V11.4318H105.306V8.36364H103.306ZM104.306 10.4318H93.5803V12.4318H104.306V10.4318ZM94.5803 11.4318V8.36364H92.5803V11.4318H94.5803ZM93.5803 9.36364H104.306V7.36364H93.5803V9.36364ZM96.4567 4.65909H100.279V2.65909H96.4567V4.65909ZM99.2791 3.65909V22.2344H101.279V3.65909H99.2791ZM99.2791 22.2344C99.2791 23.0441 99.3946 23.8154 99.7506 24.4178L101.472 23.4004C101.385 23.2528 101.279 22.9076 101.279 22.2344H99.2791ZM99.7558 24.4265C100.074 24.9535 100.521 25.3674 101.104 25.5949L101.832 23.7318C101.716 23.6866 101.592 23.5976 101.467 23.3917L99.7558 24.4265ZM101.132 25.6051C101.608 25.7751 102.11 25.8551 102.631 25.8551V23.8551C102.317 23.8551 102.044 23.8073 101.804 23.7216L101.132 25.6051ZM102.631 25.8551C102.982 25.8551 103.314 25.831 103.619 25.7745L103.255 23.8079C103.1 23.8366 102.895 23.8551 102.631 23.8551V25.8551ZM103.619 25.7745C103.851 25.7316 104.035 25.6965 104.17 25.6695L103.778 23.7083C103.657 23.7325 103.483 23.7656 103.255 23.8079L103.619 25.7745ZM102.997 24.9025L103.687 28.0602L105.641 27.633L104.951 24.4753L102.997 24.9025ZM104.305 26.9132C104.158 26.9699 103.904 27.0421 103.514 27.1233L103.922 29.0813C104.351 28.992 104.727 28.8938 105.023 28.7799L104.305 26.9132ZM103.495 27.1275C103.178 27.2001 102.742 27.2478 102.17 27.2558L102.198 29.2556C102.853 29.2465 103.44 29.1919 103.941 29.077L103.495 27.1275ZM102.167 27.2558C101.294 27.2706 100.498 27.1159 99.7675 26.8005L98.9754 28.637C99.983 29.0716 101.062 29.2748 102.201 29.2555L102.167 27.2558ZM99.7675 26.8005C99.0724 26.5007 98.5178 26.0439 98.0872 25.4151L96.437 26.5451C97.0803 27.4845 97.9319 28.1868 98.9754 28.637L99.7675 26.8005ZM98.0872 25.4151C97.6895 24.8344 97.4567 24.06 97.4567 23.027H95.4567C95.4567 24.3633 95.7608 25.5577 96.437 26.5451L98.0872 25.4151ZM97.4567 23.027V3.65909H95.4567V23.027H97.4567ZM111.788 27.1562L111.273 28.0133L111.279 28.017L111.788 27.1562ZM108.566 23.6406L107.67 24.0838L107.673 24.0899L108.566 23.6406ZM108.566 12.9915L107.67 12.5482L107.668 12.5523L108.566 12.9915ZM111.737 9.39915L111.203 8.55353L111.201 8.55505L111.737 9.39915ZM119.74 8.65767L120.072 7.71454L119.74 8.65767ZM122.539 10.3835L121.851 11.1091V11.1091L122.539 10.3835ZM124.495 13.4389L123.561 13.7949L123.562 13.797L124.495 13.4389ZM125.211 19.3324V20.3324H126.211V19.3324H125.211ZM109.602 19.3324H108.602V20.3324H109.602V19.3324ZM109.602 16.4688V15.4688H108.602V16.4688H109.602ZM121.466 16.4688V17.4688H122.466V16.4688H121.466ZM120.852 13.7969L119.965 14.2594L119.967 14.2634L120.852 13.7969ZM119.126 11.9432L118.601 12.7945L118.606 12.7972L119.126 11.9432ZM113.731 12.0582L114.28 12.8944L114.282 12.893L113.731 12.0582ZM111.89 14.1037L111.001 13.6457L111 13.6492L111.89 14.1037ZM111.941 22.4134L111.047 22.8606L111.05 22.8672L111.941 22.4134ZM113.897 24.5227L113.395 25.3872L113.401 25.391L113.897 24.5227ZM118.806 24.9318L119.131 25.8778L119.143 25.8736L118.806 24.9318ZM120.353 23.9858L119.661 23.2647L120.353 23.9858ZM121.35 22.4389L121.528 21.4548L120.707 21.3069L120.414 22.0878L121.35 22.4389ZM124.968 23.0909L125.933 23.3534L126.22 22.3003L125.146 22.1068L124.968 23.0909ZM123.409 25.8906L122.679 25.2072L122.678 25.2075L123.409 25.8906ZM120.609 27.7443L120.972 28.6762L120.976 28.6747L120.609 27.7443ZM116.787 27.3963C114.997 27.3963 113.513 27.015 112.297 26.2955L111.279 28.017C112.858 28.9509 114.707 29.3963 116.787 29.3963V27.3963ZM112.303 26.2992C111.083 25.5656 110.137 24.5384 109.46 23.1914L107.673 24.0899C108.513 25.7599 109.714 27.0764 111.273 28.0133L112.303 26.2992ZM109.463 23.1974C108.793 21.8435 108.441 20.2238 108.441 18.3097H106.441C106.441 20.4694 106.839 22.4037 107.67 24.0838L109.463 23.1974ZM108.441 18.3097C108.441 16.4236 108.793 14.8057 109.465 13.4307L107.668 12.5523C106.84 14.2454 106.441 16.173 106.441 18.3097H108.441ZM109.463 13.4347C110.146 12.0534 111.083 10.9994 112.273 10.2432L111.201 8.55505C109.681 9.52052 108.504 10.8614 107.67 12.5483L109.463 13.4347ZM112.271 10.2448C113.454 9.49759 114.858 9.10795 116.518 9.10795V7.10795C114.531 7.10795 112.747 7.57911 111.203 8.55353L112.271 10.2448ZM116.518 9.10795C117.513 9.10795 118.475 9.27216 119.407 9.6008L120.072 7.71454C118.925 7.31023 117.739 7.10795 116.518 7.10795V9.10795ZM119.407 9.6008C120.31 9.91898 121.123 10.4184 121.851 11.1091L123.228 9.65796C122.302 8.78048 121.249 8.12931 120.072 7.71454L119.407 9.6008ZM121.851 11.1091C122.552 11.7733 123.128 12.6576 123.561 13.7949L125.43 13.0829C124.909 11.7146 124.181 10.5619 123.228 9.65796L121.851 11.1091ZM123.562 13.797C123.983 14.8957 124.211 16.2797 124.211 17.9773H126.211C126.211 16.1124 125.962 14.4708 125.429 13.0808L123.562 13.797ZM124.211 17.9773V19.3324H126.211V17.9773H124.211ZM125.211 18.3324H109.602V20.3324H125.211V18.3324ZM110.602 19.3324V16.4688H108.602V19.3324H110.602ZM109.602 17.4688H121.466V15.4688H109.602V17.4688ZM122.466 16.4688C122.466 15.3245 122.232 14.2696 121.736 13.3303L119.967 14.2634C120.29 14.8753 120.466 15.6016 120.466 16.4688H122.466ZM121.739 13.3343C121.247 12.392 120.546 11.6374 119.646 11.0892L118.606 12.7972C119.189 13.1523 119.639 13.6336 119.965 14.2594L121.739 13.3343ZM119.651 11.0919C118.738 10.5292 117.69 10.2656 116.544 10.2656V12.2656C117.375 12.2656 118.048 12.4537 118.601 12.7945L119.651 11.0919ZM116.544 10.2656C115.298 10.2656 114.164 10.5747 113.181 11.2235L114.282 12.893C114.9 12.4849 115.641 12.2656 116.544 12.2656V10.2656ZM113.183 11.2221C112.246 11.8367 111.515 12.6489 111.001 13.6457L112.779 14.5616C113.135 13.871 113.631 13.3196 114.28 12.8944L113.183 11.2221ZM111 13.6492C110.498 14.6316 110.251 15.696 110.251 16.8267H112.251C112.251 15.9972 112.43 15.2462 112.781 14.5582L111 13.6492ZM110.251 16.8267V19.0639H112.251V16.8267H110.251ZM110.251 19.0639C110.251 20.4902 110.501 21.7684 111.047 22.8606L112.836 21.9661C112.461 21.2174 112.251 20.2627 112.251 19.0639H110.251ZM111.05 22.8672C111.6 23.9466 112.382 24.7979 113.395 25.3871L114.4 23.6583C113.743 23.276 113.22 22.721 112.833 21.9596L111.05 22.8672ZM113.401 25.391C114.41 25.9676 115.563 26.2386 116.825 26.2386V24.2386C115.854 24.2386 115.055 24.0324 114.394 23.6545L113.401 25.391ZM116.825 26.2386C117.644 26.2386 118.416 26.123 119.131 25.8778L118.482 23.9859C118.004 24.1497 117.455 24.2386 116.825 24.2386V26.2386ZM119.143 25.8736C119.866 25.6154 120.504 25.2274 121.046 24.7069L119.661 23.2647C119.333 23.5794 118.941 23.8221 118.47 23.9901L119.143 25.8736ZM121.046 24.7069C121.598 24.1769 122.009 23.5312 122.287 22.79L120.414 22.0878C120.232 22.5739 119.978 22.9595 119.661 23.2647L121.046 24.7069ZM121.173 23.4231L124.791 24.0751L125.146 22.1068L121.528 21.4548L121.173 23.4231ZM124.003 22.8284C123.756 23.7374 123.317 24.5259 122.679 25.2072L124.139 26.5741C125.001 25.6531 125.601 24.5751 125.933 23.3534L124.003 22.8284ZM122.678 25.2075C122.049 25.8799 121.245 26.4189 120.242 26.8139L120.976 28.6747C122.223 28.1834 123.285 27.4866 124.139 26.5738L122.678 25.2075ZM120.246 26.8124C119.266 27.1942 118.118 27.3963 116.787 27.3963V29.3963C118.319 29.3963 119.72 29.1637 120.972 28.6762L120.246 26.8124ZM129.452 28H128.452V29H129.452V28ZM129.452 8.36364V7.36364H128.452V8.36364H129.452ZM133.147 8.36364H134.147V7.36364H133.147V8.36364ZM133.147 11.483H132.147V12.483H133.147V11.483ZM133.352 11.483V12.483H134.069L134.299 11.8038L133.352 11.483ZM135.244 8.99006L135.8 9.8209L135.802 9.81971L135.244 8.99006ZM139.181 8.09517L139.129 9.09379L139.13 9.09386L139.181 8.09517ZM139.961 8.15909H140.961V7.2862L140.096 7.16826L139.961 8.15909ZM139.961 11.8153L139.693 12.7789L140.961 13.131V11.8153H139.961ZM139.143 11.6747L138.992 12.6633L139.003 12.6649L139.013 12.6663L139.143 11.6747ZM135.55 12.1605L136.023 13.0417L136.027 13.0396L135.55 12.1605ZM133.888 13.733L134.74 14.2571L134.743 14.2522L133.888 13.733ZM133.275 28V29H134.275V28H133.275ZM130.452 28V8.36364H128.452V28H130.452ZM129.452 9.36364H133.147V7.36364H129.452V9.36364ZM132.147 8.36364V11.483H134.147V8.36364H132.147ZM133.147 12.483H133.352V10.483H133.147V12.483ZM134.299 11.8038C134.588 10.9494 135.085 10.3002 135.8 9.8209L134.687 8.15921C133.596 8.89016 132.831 9.90286 132.404 11.1621L134.299 11.8038ZM135.802 9.81971C136.541 9.32248 137.376 9.0696 138.337 9.0696V7.0696C136.998 7.0696 135.77 7.43036 134.685 8.1604L135.802 9.81971ZM138.337 9.0696C138.554 9.0696 138.816 9.07736 139.129 9.09379L139.234 7.09655C138.898 7.07889 138.598 7.0696 138.337 7.0696V9.0696ZM139.13 9.09386C139.452 9.11036 139.679 9.12995 139.826 9.14992L140.096 7.16826C139.867 7.13709 139.575 7.11406 139.232 7.09648L139.13 9.09386ZM138.961 8.15909V11.8153H140.961V8.15909H138.961ZM140.229 10.8518C139.999 10.7881 139.662 10.734 139.272 10.6831L139.013 12.6663C139.407 12.7177 139.616 12.7573 139.693 12.7789L140.229 10.8518ZM139.293 10.6861C138.852 10.6189 138.41 10.5852 137.967 10.5852V12.5852C138.308 12.5852 138.649 12.6112 138.992 12.6633L139.293 10.6861ZM137.967 10.5852C136.917 10.5852 135.945 10.8092 135.074 11.2814L136.027 13.0396C136.571 12.7448 137.209 12.5852 137.967 12.5852V10.5852ZM135.078 11.2794C134.223 11.7381 133.536 12.3868 133.034 13.2137L134.743 14.2522C135.059 13.7325 135.481 13.3329 136.023 13.0417L135.078 11.2794ZM133.037 13.2089C132.522 14.0456 132.275 14.9888 132.275 16.0085H134.275C134.275 15.3237 134.437 14.7499 134.74 14.2571L133.037 13.2089ZM132.275 16.0085V28H134.275V16.0085H132.275ZM133.275 27H129.452V29H133.275V27Z" fill="#666666" mask="url(#path-1-outside-1_86_10658)"/>
</svg>
