<svg width="70" height="82" viewBox="0 0 70 82" fill="none" xmlns="http://www.w3.org/2000/svg">
<path d="M33.4359 33.4359C42.6726 33.4359 50.1539 25.9546 50.1539 16.718C50.1539 7.48129 42.6726 0 33.4359 0C24.1992 0 16.718 7.48129 16.718 16.718C16.718 25.9546 24.1992 33.4359 33.4359 33.4359ZM33.4359 41.7949C22.2767 41.7949 0 47.3954 0 58.5129V66.8718H66.8718V58.5129C66.8718 47.3954 44.5952 41.7949 33.4359 41.7949Z" fill="#79DAE8"/>
<path d="M2.72338 70.6765V75.1065C2.72338 75.6331 2.86005 76.0298 3.13338 76.2965C3.41338 76.5631 3.80005 76.6965 4.29338 76.6965C4.79338 76.6965 5.18005 76.5631 5.45338 76.2965C5.73338 76.0298 5.87338 75.6331 5.87338 75.1065V70.6765H7.01338V75.0865C7.01338 75.6531 6.89005 76.1331 6.64338 76.5265C6.39672 76.9198 6.06672 77.2131 5.65338 77.4065C5.24005 77.5998 4.78338 77.6965 4.28338 77.6965C3.78338 77.6965 3.32672 77.5998 2.91338 77.4065C2.50672 77.2131 2.18338 76.9198 1.94338 76.5265C1.70338 76.1331 1.58338 75.6531 1.58338 75.0865V70.6765H2.72338ZM9.63768 72.9265C9.83101 72.6731 10.0943 72.4598 10.4277 72.2865C10.761 72.1131 11.1377 72.0265 11.5577 72.0265C12.0377 72.0265 12.4743 72.1465 12.8677 72.3865C13.2677 72.6198 13.581 72.9498 13.8077 73.3765C14.0343 73.8031 14.1477 74.2931 14.1477 74.8465C14.1477 75.3998 14.0343 75.8965 13.8077 76.3365C13.581 76.7698 13.2677 77.1098 12.8677 77.3565C12.4743 77.5965 12.0377 77.7165 11.5577 77.7165C11.1377 77.7165 10.7643 77.6331 10.4377 77.4665C10.111 77.2931 9.84435 77.0798 9.63768 76.8265V80.2465H8.49768V72.1165H9.63768V72.9265ZM12.9877 74.8465C12.9877 74.4665 12.9077 74.1398 12.7477 73.8665C12.5943 73.5865 12.3877 73.3765 12.1277 73.2365C11.8743 73.0898 11.601 73.0165 11.3077 73.0165C11.021 73.0165 10.7477 73.0898 10.4877 73.2365C10.2343 73.3831 10.0277 73.5965 9.86768 73.8765C9.71435 74.1565 9.63768 74.4865 9.63768 74.8665C9.63768 75.2465 9.71435 75.5798 9.86768 75.8665C10.0277 76.1465 10.2343 76.3598 10.4877 76.5065C10.7477 76.6531 11.021 76.7265 11.3077 76.7265C11.601 76.7265 11.8743 76.6531 12.1277 76.5065C12.3877 76.3531 12.5943 76.1331 12.7477 75.8465C12.9077 75.5598 12.9877 75.2265 12.9877 74.8465ZM16.415 70.2265V77.6265H15.275V70.2265H16.415ZM20.3017 77.7165C19.7817 77.7165 19.3117 77.5998 18.8917 77.3665C18.4717 77.1265 18.1417 76.7931 17.9017 76.3665C17.6617 75.9331 17.5417 75.4331 17.5417 74.8665C17.5417 74.3065 17.6651 73.8098 17.9117 73.3765C18.1584 72.9431 18.4951 72.6098 18.9217 72.3765C19.3484 72.1431 19.8251 72.0265 20.3517 72.0265C20.8784 72.0265 21.3551 72.1431 21.7817 72.3765C22.2084 72.6098 22.5451 72.9431 22.7917 73.3765C23.0384 73.8098 23.1617 74.3065 23.1617 74.8665C23.1617 75.4265 23.0351 75.9231 22.7817 76.3565C22.5284 76.7898 22.1817 77.1265 21.7417 77.3665C21.3084 77.5998 20.8284 77.7165 20.3017 77.7165ZM20.3017 76.7265C20.5951 76.7265 20.8684 76.6565 21.1217 76.5165C21.3817 76.3765 21.5917 76.1665 21.7517 75.8865C21.9117 75.6065 21.9917 75.2665 21.9917 74.8665C21.9917 74.4665 21.9151 74.1298 21.7617 73.8565C21.6084 73.5765 21.4051 73.3665 21.1517 73.2265C20.8984 73.0865 20.6251 73.0165 20.3317 73.0165C20.0384 73.0165 19.7651 73.0865 19.5117 73.2265C19.2651 73.3665 19.0684 73.5765 18.9217 73.8565C18.7751 74.1298 18.7017 74.4665 18.7017 74.8665C18.7017 75.4598 18.8517 75.9198 19.1517 76.2465C19.4584 76.5665 19.8417 76.7265 20.3017 76.7265ZM23.9087 74.8465C23.9087 74.2931 24.022 73.8031 24.2487 73.3765C24.482 72.9498 24.7954 72.6198 25.1887 72.3865C25.5887 72.1465 26.0287 72.0265 26.5087 72.0265C26.942 72.0265 27.3187 72.1131 27.6387 72.2865C27.9654 72.4531 28.2254 72.6631 28.4187 72.9165V72.1165H29.5687V77.6265H28.4187V76.8065C28.2254 77.0665 27.962 77.2831 27.6287 77.4565C27.2954 77.6298 26.9154 77.7165 26.4887 77.7165C26.0154 77.7165 25.582 77.5965 25.1887 77.3565C24.7954 77.1098 24.482 76.7698 24.2487 76.3365C24.022 75.8965 23.9087 75.3998 23.9087 74.8465ZM28.4187 74.8665C28.4187 74.4865 28.3387 74.1565 28.1787 73.8765C28.0254 73.5965 27.822 73.3831 27.5687 73.2365C27.3154 73.0898 27.042 73.0165 26.7487 73.0165C26.4554 73.0165 26.182 73.0898 25.9287 73.2365C25.6754 73.3765 25.4687 73.5865 25.3087 73.8665C25.1554 74.1398 25.0787 74.4665 25.0787 74.8465C25.0787 75.2265 25.1554 75.5598 25.3087 75.8465C25.4687 76.1331 25.6754 76.3531 25.9287 76.5065C26.1887 76.6531 26.462 76.7265 26.7487 76.7265C27.042 76.7265 27.3154 76.6531 27.5687 76.5065C27.822 76.3598 28.0254 76.1465 28.1787 75.8665C28.3387 75.5798 28.4187 75.2465 28.4187 74.8665ZM30.686 74.8465C30.686 74.2931 30.7994 73.8031 31.026 73.3765C31.2594 72.9498 31.5727 72.6198 31.966 72.3865C32.366 72.1465 32.8094 72.0265 33.296 72.0265C33.656 72.0265 34.0094 72.1065 34.356 72.2665C34.7094 72.4198 34.9894 72.6265 35.196 72.8865V70.2265H36.346V77.6265H35.196V76.7965C35.0094 77.0631 34.7494 77.2831 34.416 77.4565C34.0894 77.6298 33.7127 77.7165 33.286 77.7165C32.806 77.7165 32.366 77.5965 31.966 77.3565C31.5727 77.1098 31.2594 76.7698 31.026 76.3365C30.7994 75.8965 30.686 75.3998 30.686 74.8465ZM35.196 74.8665C35.196 74.4865 35.116 74.1565 34.956 73.8765C34.8027 73.5965 34.5994 73.3831 34.346 73.2365C34.0927 73.0898 33.8194 73.0165 33.526 73.0165C33.2327 73.0165 32.9594 73.0898 32.706 73.2365C32.4527 73.3765 32.246 73.5865 32.086 73.8665C31.9327 74.1398 31.856 74.4665 31.856 74.8465C31.856 75.2265 31.9327 75.5598 32.086 75.8465C32.246 76.1331 32.4527 76.3531 32.706 76.5065C32.966 76.6531 33.2394 76.7265 33.526 76.7265C33.8194 76.7265 34.0927 76.6531 34.346 76.5065C34.5994 76.3598 34.8027 76.1465 34.956 75.8665C35.116 75.5798 35.196 75.2465 35.196 74.8665ZM45.301 72.7465C45.301 73.0998 45.2177 73.4331 45.051 73.7465C44.8844 74.0598 44.6177 74.3165 44.251 74.5165C43.8844 74.7098 43.4144 74.8065 42.841 74.8065H41.581V77.6265H40.441V70.6765H42.841C43.3744 70.6765 43.8244 70.7698 44.191 70.9565C44.5644 71.1365 44.841 71.3831 45.021 71.6965C45.2077 72.0098 45.301 72.3598 45.301 72.7465ZM42.841 73.8765C43.2744 73.8765 43.5977 73.7798 43.811 73.5865C44.0244 73.3865 44.131 73.1065 44.131 72.7465C44.131 71.9865 43.701 71.6065 42.841 71.6065H41.581V73.8765H42.841ZM49.2383 72.0265C49.6583 72.0265 50.0316 72.1165 50.3583 72.2965C50.6916 72.4765 50.9516 72.7431 51.1383 73.0965C51.3316 73.4498 51.4283 73.8765 51.4283 74.3765V77.6265H50.2983V74.5465C50.2983 74.0531 50.175 73.6765 49.9283 73.4165C49.6816 73.1498 49.345 73.0165 48.9183 73.0165C48.4916 73.0165 48.1516 73.1498 47.8983 73.4165C47.6516 73.6765 47.5283 74.0531 47.5283 74.5465V77.6265H46.3883V70.2265H47.5283V72.7565C47.7216 72.5231 47.965 72.3431 48.2583 72.2165C48.5583 72.0898 48.885 72.0265 49.2383 72.0265ZM55.2724 77.7165C54.7524 77.7165 54.2824 77.5998 53.8624 77.3665C53.4424 77.1265 53.1124 76.7931 52.8724 76.3665C52.6324 75.9331 52.5124 75.4331 52.5124 74.8665C52.5124 74.3065 52.6358 73.8098 52.8824 73.3765C53.1291 72.9431 53.4658 72.6098 53.8924 72.3765C54.3191 72.1431 54.7958 72.0265 55.3224 72.0265C55.8491 72.0265 56.3258 72.1431 56.7524 72.3765C57.1791 72.6098 57.5158 72.9431 57.7624 73.3765C58.0091 73.8098 58.1324 74.3065 58.1324 74.8665C58.1324 75.4265 58.0058 75.9231 57.7524 76.3565C57.4991 76.7898 57.1524 77.1265 56.7124 77.3665C56.2791 77.5998 55.7991 77.7165 55.2724 77.7165ZM55.2724 76.7265C55.5658 76.7265 55.8391 76.6565 56.0924 76.5165C56.3524 76.3765 56.5624 76.1665 56.7224 75.8865C56.8824 75.6065 56.9624 75.2665 56.9624 74.8665C56.9624 74.4665 56.8858 74.1298 56.7324 73.8565C56.5791 73.5765 56.3758 73.3665 56.1224 73.2265C55.8691 73.0865 55.5958 73.0165 55.3024 73.0165C55.0091 73.0165 54.7358 73.0865 54.4824 73.2265C54.2358 73.3665 54.0391 73.5765 53.8924 73.8565C53.7458 74.1298 53.6724 74.4665 53.6724 74.8665C53.6724 75.4598 53.8224 75.9198 54.1224 76.2465C54.4291 76.5665 54.8124 76.7265 55.2724 76.7265ZM60.5894 73.0465V76.0965C60.5894 76.3031 60.6361 76.4531 60.7294 76.5465C60.8294 76.6331 60.9961 76.6765 61.2294 76.6765H61.9294V77.6265H61.0294C60.5161 77.6265 60.1227 77.5065 59.8494 77.2665C59.5761 77.0265 59.4394 76.6365 59.4394 76.0965V73.0465H58.7894V72.1165H59.4394V70.7465H60.5894V72.1165H61.9294V73.0465H60.5894ZM65.3701 77.7165C64.8501 77.7165 64.3801 77.5998 63.9601 77.3665C63.5401 77.1265 63.2101 76.7931 62.9701 76.3665C62.7301 75.9331 62.6101 75.4331 62.6101 74.8665C62.6101 74.3065 62.7334 73.8098 62.9801 73.3765C63.2268 72.9431 63.5634 72.6098 63.9901 72.3765C64.4168 72.1431 64.8934 72.0265 65.4201 72.0265C65.9468 72.0265 66.4234 72.1431 66.8501 72.3765C67.2768 72.6098 67.6134 72.9431 67.8601 73.3765C68.1068 73.8098 68.2301 74.3065 68.2301 74.8665C68.2301 75.4265 68.1034 75.9231 67.8501 76.3565C67.5968 76.7898 67.2501 77.1265 66.8101 77.3665C66.3768 77.5998 65.8968 77.7165 65.3701 77.7165ZM65.3701 76.7265C65.6634 76.7265 65.9368 76.6565 66.1901 76.5165C66.4501 76.3765 66.6601 76.1665 66.8201 75.8865C66.9801 75.6065 67.0601 75.2665 67.0601 74.8665C67.0601 74.4665 66.9834 74.1298 66.8301 73.8565C66.6768 73.5765 66.4734 73.3665 66.2201 73.2265C65.9668 73.0865 65.6934 73.0165 65.4001 73.0165C65.1068 73.0165 64.8334 73.0865 64.5801 73.2265C64.3334 73.3665 64.1368 73.5765 63.9901 73.8565C63.8434 74.1298 63.7701 74.4665 63.7701 74.8665C63.7701 75.4598 63.9201 75.9198 64.2201 76.2465C64.5268 76.5665 64.9101 76.7265 65.3701 76.7265Z" fill="white"/>
</svg>
