<svg width="209" height="29" viewBox="0 0 209 29" fill="none" xmlns="http://www.w3.org/2000/svg">
<mask id="path-1-outside-1_140_37" maskUnits="userSpaceOnUse" x="-1" y="-1" width="211" height="31" fill="black">
<rect fill="white" x="-1" y="-1" width="211" height="31"/>
<path d="M5.08807 28H0.894886L10.3168 1.81818H14.8807L24.3026 28H20.1094L12.7074 6.57386H12.5028L5.08807 28ZM5.79119 17.7472H19.3935V21.071H5.79119V17.7472ZM35.7315 28.3963C33.831 28.3963 32.1946 27.9659 30.8224 27.1051C29.4588 26.2358 28.4105 25.0384 27.6776 23.5128C26.9446 21.9872 26.5781 20.2401 26.5781 18.2713C26.5781 16.277 26.9531 14.517 27.7031 12.9915C28.4531 11.4574 29.5099 10.2599 30.8736 9.39915C32.2372 8.53835 33.8438 8.10795 35.6932 8.10795C37.1847 8.10795 38.5142 8.38494 39.6818 8.93892C40.8494 9.48437 41.7912 10.2514 42.5071 11.2401C43.2315 12.2287 43.6619 13.3835 43.7983 14.7045H40.0781C39.8736 13.7841 39.4048 12.9915 38.6719 12.3267C37.9474 11.6619 36.9759 11.3295 35.7571 11.3295C34.6918 11.3295 33.7585 11.6108 32.9574 12.1733C32.1648 12.7273 31.5469 13.5199 31.1037 14.5511C30.6605 15.5739 30.4389 16.7841 30.4389 18.1818C30.4389 19.6136 30.6563 20.8494 31.0909 21.8892C31.5256 22.929 32.1392 23.7344 32.9318 24.3054C33.733 24.8764 34.6747 25.1619 35.7571 25.1619C36.4815 25.1619 37.1378 25.0298 37.7259 24.7656C38.3224 24.4929 38.821 24.1051 39.2216 23.6023C39.6307 23.0994 39.9162 22.4943 40.0781 21.7869H43.7983C43.6619 23.0568 43.2486 24.1903 42.5582 25.1875C41.8679 26.1847 40.9432 26.9687 39.7841 27.5398C38.6335 28.1108 37.2827 28.3963 35.7315 28.3963ZM56.1573 28.3963C54.2567 28.3963 52.6204 27.9659 51.2482 27.1051C49.8846 26.2358 48.8363 25.0384 48.1033 23.5128C47.3704 21.9872 47.0039 20.2401 47.0039 18.2713C47.0039 16.277 47.3789 14.517 48.1289 12.9915C48.8789 11.4574 49.9357 10.2599 51.2994 9.39915C52.663 8.53835 54.2695 8.10795 56.119 8.10795C57.6104 8.10795 58.94 8.38494 60.1076 8.93892C61.2752 9.48437 62.217 10.2514 62.9329 11.2401C63.6573 12.2287 64.0877 13.3835 64.2241 14.7045H60.5039C60.2994 13.7841 59.8306 12.9915 59.0977 12.3267C58.3732 11.6619 57.4016 11.3295 56.1829 11.3295C55.1175 11.3295 54.1843 11.6108 53.3832 12.1733C52.5906 12.7273 51.9727 13.5199 51.5295 14.5511C51.0863 15.5739 50.8647 16.7841 50.8647 18.1818C50.8647 19.6136 51.082 20.8494 51.5167 21.8892C51.9513 22.929 52.565 23.7344 53.3576 24.3054C54.1587 24.8764 55.1005 25.1619 56.1829 25.1619C56.9073 25.1619 57.5636 25.0298 58.1516 24.7656C58.7482 24.4929 59.2468 24.1051 59.6474 23.6023C60.0565 23.0994 60.342 22.4943 60.5039 21.7869H64.2241C64.0877 23.0568 63.6744 24.1903 62.984 25.1875C62.2937 26.1847 61.369 26.9687 60.2099 27.5398C59.0593 28.1108 57.7085 28.3963 56.1573 28.3963ZM76.7749 28.3963C74.8402 28.3963 73.174 27.983 71.7763 27.1562C70.3871 26.321 69.3132 25.1491 68.5547 23.6406C67.8047 22.1236 67.4297 20.3466 67.4297 18.3097C67.4297 16.2983 67.8047 14.5256 68.5547 12.9915C69.3132 11.4574 70.37 10.2599 71.7251 9.39915C73.0888 8.53835 74.6825 8.10795 76.5064 8.10795C77.6143 8.10795 78.6882 8.29119 79.728 8.65767C80.7678 9.02415 81.701 9.59943 82.5277 10.3835C83.3544 11.1676 84.0064 12.1861 84.4837 13.4389C84.9609 14.6832 85.1996 16.196 85.1996 17.9773V19.3324H69.5902V16.4688H81.4538C81.4538 15.4631 81.2493 14.5724 80.8402 13.7969C80.4311 13.0128 79.8558 12.3949 79.1143 11.9432C78.3814 11.4915 77.5206 11.2656 76.532 11.2656C75.4581 11.2656 74.5206 11.5298 73.7195 12.0582C72.9268 12.5781 72.3132 13.2599 71.8786 14.1037C71.4524 14.9389 71.2393 15.8466 71.2393 16.8267V19.0639C71.2393 20.3764 71.4695 21.4929 71.9297 22.4134C72.3984 23.3338 73.0504 24.0369 73.8857 24.5227C74.7209 25 75.6967 25.2386 76.8132 25.2386C77.5376 25.2386 78.1982 25.1364 78.7947 24.9318C79.3913 24.7187 79.907 24.4034 80.3416 23.9858C80.7763 23.5682 81.1087 23.0526 81.3388 22.4389L84.9567 23.0909C84.6669 24.1562 84.147 25.0895 83.397 25.8906C82.6555 26.6832 81.7223 27.3011 80.5973 27.7443C79.4808 28.179 78.2067 28.3963 76.7749 28.3963ZM104.155 13.1577L100.691 13.7713C100.546 13.3281 100.316 12.9062 100 12.5057C99.6935 12.1051 99.2759 11.777 98.7475 11.5213C98.2191 11.2656 97.5586 11.1378 96.766 11.1378C95.6836 11.1378 94.7802 11.3807 94.0558 11.8665C93.3313 12.3437 92.9691 12.9616 92.9691 13.7202C92.9691 14.3764 93.212 14.9048 93.6978 15.3054C94.1836 15.706 94.9677 16.0341 96.0501 16.2898L99.1694 17.0057C100.976 17.4233 102.323 18.0668 103.209 18.9361C104.096 19.8054 104.539 20.9347 104.539 22.3239C104.539 23.5 104.198 24.5483 103.516 25.4688C102.843 26.3807 101.901 27.0966 100.691 27.6165C99.489 28.1364 98.0955 28.3963 96.5103 28.3963C94.3114 28.3963 92.5174 27.9276 91.1282 26.9901C89.739 26.044 88.8867 24.7017 88.5714 22.9631L92.266 22.4006C92.4961 23.3636 92.9691 24.0923 93.685 24.5866C94.4009 25.0724 95.3342 25.3153 96.4847 25.3153C97.7376 25.3153 98.739 25.0554 99.489 24.5355C100.239 24.0071 100.614 23.3636 100.614 22.6051C100.614 21.9915 100.384 21.4759 99.9237 21.0582C99.4719 20.6406 98.7773 20.3253 97.8398 20.1122L94.516 19.3835C92.6836 18.9659 91.3285 18.3011 90.4506 17.3892C89.5813 16.4773 89.1467 15.3224 89.1467 13.9247C89.1467 12.7656 89.4705 11.7514 90.1183 10.8821C90.766 10.0128 91.6609 9.33523 92.8029 8.84943C93.945 8.35511 95.2532 8.10795 96.7276 8.10795C98.8498 8.10795 100.52 8.56818 101.739 9.48864C102.958 10.4006 103.763 11.6236 104.155 13.1577ZM123.456 13.1577L119.991 13.7713C119.847 13.3281 119.616 12.9062 119.301 12.5057C118.994 12.1051 118.577 11.777 118.048 11.5213C117.52 11.2656 116.859 11.1378 116.067 11.1378C114.984 11.1378 114.081 11.3807 113.357 11.8665C112.632 12.3437 112.27 12.9616 112.27 13.7202C112.27 14.3764 112.513 14.9048 112.999 15.3054C113.484 15.706 114.268 16.0341 115.351 16.2898L118.47 17.0057C120.277 17.4233 121.624 18.0668 122.51 18.9361C123.396 19.8054 123.839 20.9347 123.839 22.3239C123.839 23.5 123.499 24.5483 122.817 25.4688C122.143 26.3807 121.202 27.0966 119.991 27.6165C118.79 28.1364 117.396 28.3963 115.811 28.3963C113.612 28.3963 111.818 27.9276 110.429 26.9901C109.04 26.044 108.188 24.7017 107.872 22.9631L111.567 22.4006C111.797 23.3636 112.27 24.0923 112.986 24.5866C113.702 25.0724 114.635 25.3153 115.786 25.3153C117.038 25.3153 118.04 25.0554 118.79 24.5355C119.54 24.0071 119.915 23.3636 119.915 22.6051C119.915 21.9915 119.685 21.4759 119.224 21.0582C118.773 20.6406 118.078 20.3253 117.141 20.1122L113.817 19.3835C111.984 18.9659 110.629 18.3011 109.751 17.3892C108.882 16.4773 108.447 15.3224 108.447 13.9247C108.447 12.7656 108.771 11.7514 109.419 10.8821C110.067 10.0128 110.962 9.33523 112.104 8.84943C113.246 8.35511 114.554 8.10795 116.028 8.10795C118.151 8.10795 119.821 8.56818 121.04 9.48864C122.259 10.4006 123.064 11.6236 123.456 13.1577ZM136.314 28.3963C134.473 28.3963 132.866 27.9744 131.494 27.1307C130.122 26.2869 129.056 25.1065 128.298 23.5895C127.539 22.0724 127.16 20.2997 127.16 18.2713C127.16 16.2344 127.539 14.4531 128.298 12.9276C129.056 11.402 130.122 10.2173 131.494 9.37358C132.866 8.52983 134.473 8.10795 136.314 8.10795C138.154 8.10795 139.761 8.52983 141.133 9.37358C142.505 10.2173 143.571 11.402 144.329 12.9276C145.088 14.4531 145.467 16.2344 145.467 18.2713C145.467 20.2997 145.088 22.0724 144.329 23.5895C143.571 25.1065 142.505 26.2869 141.133 27.1307C139.761 27.9744 138.154 28.3963 136.314 28.3963ZM136.326 25.1875C137.52 25.1875 138.508 24.8722 139.292 24.2415C140.076 23.6108 140.656 22.7713 141.031 21.723C141.414 20.6747 141.606 19.5199 141.606 18.2585C141.606 17.0057 141.414 15.8551 141.031 14.8068C140.656 13.75 140.076 12.902 139.292 12.2628C138.508 11.6236 137.52 11.304 136.326 11.304C135.125 11.304 134.127 11.6236 133.335 12.2628C132.551 12.902 131.967 13.75 131.583 14.8068C131.208 15.8551 131.021 17.0057 131.021 18.2585C131.021 19.5199 131.208 20.6747 131.583 21.723C131.967 22.7713 132.551 23.6108 133.335 24.2415C134.127 24.8722 135.125 25.1875 136.326 25.1875ZM149.734 28V8.36364H153.428V11.483H153.633C153.991 10.4261 154.621 9.59517 155.525 8.99006C156.437 8.37642 157.468 8.0696 158.619 8.0696C158.857 8.0696 159.138 8.07812 159.462 8.09517C159.795 8.11221 160.055 8.13352 160.242 8.15909V11.8153C160.089 11.7727 159.816 11.7259 159.424 11.6747C159.032 11.6151 158.64 11.5852 158.248 11.5852C157.344 11.5852 156.539 11.777 155.832 12.1605C155.133 12.5355 154.579 13.0597 154.17 13.733C153.761 14.3977 153.556 15.1562 153.556 16.0085V28H149.734ZM163.55 28V8.36364H167.373V28H163.55ZM165.48 5.33381C164.816 5.33381 164.245 5.11221 163.767 4.66903C163.299 4.21733 163.064 3.6804 163.064 3.05824C163.064 2.42756 163.299 1.89062 163.767 1.44744C164.245 0.995738 164.816 0.769886 165.48 0.769886C166.145 0.769886 166.712 0.995738 167.181 1.44744C167.658 1.89062 167.897 2.42756 167.897 3.05824C167.897 3.6804 167.658 4.21733 167.181 4.66903C166.712 5.11221 166.145 5.33381 165.48 5.33381ZM180.978 28.3963C179.043 28.3963 177.377 27.983 175.979 27.1562C174.59 26.321 173.516 25.1491 172.758 23.6406C172.008 22.1236 171.633 20.3466 171.633 18.3097C171.633 16.2983 172.008 14.5256 172.758 12.9915C173.516 11.4574 174.573 10.2599 175.928 9.39915C177.292 8.53835 178.886 8.10795 180.71 8.10795C181.817 8.10795 182.891 8.29119 183.931 8.65767C184.971 9.02415 185.904 9.59943 186.731 10.3835C187.558 11.1676 188.21 12.1861 188.687 13.4389C189.164 14.6832 189.403 16.196 189.403 17.9773V19.3324H173.793V16.4688H185.657C185.657 15.4631 185.452 14.5724 185.043 13.7969C184.634 13.0128 184.059 12.3949 183.317 11.9432C182.585 11.4915 181.724 11.2656 180.735 11.2656C179.661 11.2656 178.724 11.5298 177.923 12.0582C177.13 12.5781 176.516 13.2599 176.082 14.1037C175.656 14.9389 175.442 15.8466 175.442 16.8267V19.0639C175.442 20.3764 175.673 21.4929 176.133 22.4134C176.602 23.3338 177.254 24.0369 178.089 24.5227C178.924 25 179.9 25.2386 181.016 25.2386C181.741 25.2386 182.401 25.1364 182.998 24.9318C183.594 24.7187 184.11 24.4034 184.545 23.9858C184.979 23.5682 185.312 23.0526 185.542 22.4389L189.16 23.0909C188.87 24.1562 188.35 25.0895 187.6 25.8906C186.859 26.6832 185.925 27.3011 184.8 27.7443C183.684 28.179 182.41 28.3963 180.978 28.3963ZM208.358 13.1577L204.894 13.7713C204.749 13.3281 204.519 12.9062 204.203 12.5057C203.897 12.1051 203.479 11.777 202.951 11.5213C202.422 11.2656 201.762 11.1378 200.969 11.1378C199.887 11.1378 198.983 11.3807 198.259 11.8665C197.534 12.3437 197.172 12.9616 197.172 13.7202C197.172 14.3764 197.415 14.9048 197.901 15.3054C198.387 15.706 199.171 16.0341 200.253 16.2898L203.373 17.0057C205.179 17.4233 206.526 18.0668 207.412 18.9361C208.299 19.8054 208.742 20.9347 208.742 22.3239C208.742 23.5 208.401 24.5483 207.719 25.4688C207.046 26.3807 206.104 27.0966 204.894 27.6165C203.692 28.1364 202.299 28.3963 200.713 28.3963C198.515 28.3963 196.721 27.9276 195.331 26.9901C193.942 26.044 193.09 24.7017 192.775 22.9631L196.469 22.4006C196.699 23.3636 197.172 24.0923 197.888 24.5866C198.604 25.0724 199.537 25.3153 200.688 25.3153C201.941 25.3153 202.942 25.0554 203.692 24.5355C204.442 24.0071 204.817 23.3636 204.817 22.6051C204.817 21.9915 204.587 21.4759 204.127 21.0582C203.675 20.6406 202.98 20.3253 202.043 20.1122L198.719 19.3835C196.887 18.9659 195.532 18.3011 194.654 17.3892C193.784 16.4773 193.35 15.3224 193.35 13.9247C193.35 12.7656 193.674 11.7514 194.321 10.8821C194.969 10.0128 195.864 9.33523 197.006 8.84943C198.148 8.35511 199.456 8.10795 200.931 8.10795C203.053 8.10795 204.723 8.56818 205.942 9.48864C207.161 10.4006 207.966 11.6236 208.358 13.1577Z"/>
</mask>
<path d="M5.08807 28H0.894886L10.3168 1.81818H14.8807L24.3026 28H20.1094L12.7074 6.57386H12.5028L5.08807 28ZM5.79119 17.7472H19.3935V21.071H5.79119V17.7472ZM35.7315 28.3963C33.831 28.3963 32.1946 27.9659 30.8224 27.1051C29.4588 26.2358 28.4105 25.0384 27.6776 23.5128C26.9446 21.9872 26.5781 20.2401 26.5781 18.2713C26.5781 16.277 26.9531 14.517 27.7031 12.9915C28.4531 11.4574 29.5099 10.2599 30.8736 9.39915C32.2372 8.53835 33.8438 8.10795 35.6932 8.10795C37.1847 8.10795 38.5142 8.38494 39.6818 8.93892C40.8494 9.48437 41.7912 10.2514 42.5071 11.2401C43.2315 12.2287 43.6619 13.3835 43.7983 14.7045H40.0781C39.8736 13.7841 39.4048 12.9915 38.6719 12.3267C37.9474 11.6619 36.9759 11.3295 35.7571 11.3295C34.6918 11.3295 33.7585 11.6108 32.9574 12.1733C32.1648 12.7273 31.5469 13.5199 31.1037 14.5511C30.6605 15.5739 30.4389 16.7841 30.4389 18.1818C30.4389 19.6136 30.6563 20.8494 31.0909 21.8892C31.5256 22.929 32.1392 23.7344 32.9318 24.3054C33.733 24.8764 34.6747 25.1619 35.7571 25.1619C36.4815 25.1619 37.1378 25.0298 37.7259 24.7656C38.3224 24.4929 38.821 24.1051 39.2216 23.6023C39.6307 23.0994 39.9162 22.4943 40.0781 21.7869H43.7983C43.6619 23.0568 43.2486 24.1903 42.5582 25.1875C41.8679 26.1847 40.9432 26.9687 39.7841 27.5398C38.6335 28.1108 37.2827 28.3963 35.7315 28.3963ZM56.1573 28.3963C54.2567 28.3963 52.6204 27.9659 51.2482 27.1051C49.8846 26.2358 48.8363 25.0384 48.1033 23.5128C47.3704 21.9872 47.0039 20.2401 47.0039 18.2713C47.0039 16.277 47.3789 14.517 48.1289 12.9915C48.8789 11.4574 49.9357 10.2599 51.2994 9.39915C52.663 8.53835 54.2695 8.10795 56.119 8.10795C57.6104 8.10795 58.94 8.38494 60.1076 8.93892C61.2752 9.48437 62.217 10.2514 62.9329 11.2401C63.6573 12.2287 64.0877 13.3835 64.2241 14.7045H60.5039C60.2994 13.7841 59.8306 12.9915 59.0977 12.3267C58.3732 11.6619 57.4016 11.3295 56.1829 11.3295C55.1175 11.3295 54.1843 11.6108 53.3832 12.1733C52.5906 12.7273 51.9727 13.5199 51.5295 14.5511C51.0863 15.5739 50.8647 16.7841 50.8647 18.1818C50.8647 19.6136 51.082 20.8494 51.5167 21.8892C51.9513 22.929 52.565 23.7344 53.3576 24.3054C54.1587 24.8764 55.1005 25.1619 56.1829 25.1619C56.9073 25.1619 57.5636 25.0298 58.1516 24.7656C58.7482 24.4929 59.2468 24.1051 59.6474 23.6023C60.0565 23.0994 60.342 22.4943 60.5039 21.7869H64.2241C64.0877 23.0568 63.6744 24.1903 62.984 25.1875C62.2937 26.1847 61.369 26.9687 60.2099 27.5398C59.0593 28.1108 57.7085 28.3963 56.1573 28.3963ZM76.7749 28.3963C74.8402 28.3963 73.174 27.983 71.7763 27.1562C70.3871 26.321 69.3132 25.1491 68.5547 23.6406C67.8047 22.1236 67.4297 20.3466 67.4297 18.3097C67.4297 16.2983 67.8047 14.5256 68.5547 12.9915C69.3132 11.4574 70.37 10.2599 71.7251 9.39915C73.0888 8.53835 74.6825 8.10795 76.5064 8.10795C77.6143 8.10795 78.6882 8.29119 79.728 8.65767C80.7678 9.02415 81.701 9.59943 82.5277 10.3835C83.3544 11.1676 84.0064 12.1861 84.4837 13.4389C84.9609 14.6832 85.1996 16.196 85.1996 17.9773V19.3324H69.5902V16.4688H81.4538C81.4538 15.4631 81.2493 14.5724 80.8402 13.7969C80.4311 13.0128 79.8558 12.3949 79.1143 11.9432C78.3814 11.4915 77.5206 11.2656 76.532 11.2656C75.4581 11.2656 74.5206 11.5298 73.7195 12.0582C72.9268 12.5781 72.3132 13.2599 71.8786 14.1037C71.4524 14.9389 71.2393 15.8466 71.2393 16.8267V19.0639C71.2393 20.3764 71.4695 21.4929 71.9297 22.4134C72.3984 23.3338 73.0504 24.0369 73.8857 24.5227C74.7209 25 75.6967 25.2386 76.8132 25.2386C77.5376 25.2386 78.1982 25.1364 78.7947 24.9318C79.3913 24.7187 79.907 24.4034 80.3416 23.9858C80.7763 23.5682 81.1087 23.0526 81.3388 22.4389L84.9567 23.0909C84.6669 24.1562 84.147 25.0895 83.397 25.8906C82.6555 26.6832 81.7223 27.3011 80.5973 27.7443C79.4808 28.179 78.2067 28.3963 76.7749 28.3963ZM104.155 13.1577L100.691 13.7713C100.546 13.3281 100.316 12.9062 100 12.5057C99.6935 12.1051 99.2759 11.777 98.7475 11.5213C98.2191 11.2656 97.5586 11.1378 96.766 11.1378C95.6836 11.1378 94.7802 11.3807 94.0558 11.8665C93.3313 12.3437 92.9691 12.9616 92.9691 13.7202C92.9691 14.3764 93.212 14.9048 93.6978 15.3054C94.1836 15.706 94.9677 16.0341 96.0501 16.2898L99.1694 17.0057C100.976 17.4233 102.323 18.0668 103.209 18.9361C104.096 19.8054 104.539 20.9347 104.539 22.3239C104.539 23.5 104.198 24.5483 103.516 25.4688C102.843 26.3807 101.901 27.0966 100.691 27.6165C99.489 28.1364 98.0955 28.3963 96.5103 28.3963C94.3114 28.3963 92.5174 27.9276 91.1282 26.9901C89.739 26.044 88.8867 24.7017 88.5714 22.9631L92.266 22.4006C92.4961 23.3636 92.9691 24.0923 93.685 24.5866C94.4009 25.0724 95.3342 25.3153 96.4847 25.3153C97.7376 25.3153 98.739 25.0554 99.489 24.5355C100.239 24.0071 100.614 23.3636 100.614 22.6051C100.614 21.9915 100.384 21.4759 99.9237 21.0582C99.4719 20.6406 98.7773 20.3253 97.8398 20.1122L94.516 19.3835C92.6836 18.9659 91.3285 18.3011 90.4506 17.3892C89.5813 16.4773 89.1467 15.3224 89.1467 13.9247C89.1467 12.7656 89.4705 11.7514 90.1183 10.8821C90.766 10.0128 91.6609 9.33523 92.8029 8.84943C93.945 8.35511 95.2532 8.10795 96.7276 8.10795C98.8498 8.10795 100.52 8.56818 101.739 9.48864C102.958 10.4006 103.763 11.6236 104.155 13.1577ZM123.456 13.1577L119.991 13.7713C119.847 13.3281 119.616 12.9062 119.301 12.5057C118.994 12.1051 118.577 11.777 118.048 11.5213C117.52 11.2656 116.859 11.1378 116.067 11.1378C114.984 11.1378 114.081 11.3807 113.357 11.8665C112.632 12.3437 112.27 12.9616 112.27 13.7202C112.27 14.3764 112.513 14.9048 112.999 15.3054C113.484 15.706 114.268 16.0341 115.351 16.2898L118.47 17.0057C120.277 17.4233 121.624 18.0668 122.51 18.9361C123.396 19.8054 123.839 20.9347 123.839 22.3239C123.839 23.5 123.499 24.5483 122.817 25.4688C122.143 26.3807 121.202 27.0966 119.991 27.6165C118.79 28.1364 117.396 28.3963 115.811 28.3963C113.612 28.3963 111.818 27.9276 110.429 26.9901C109.04 26.044 108.188 24.7017 107.872 22.9631L111.567 22.4006C111.797 23.3636 112.27 24.0923 112.986 24.5866C113.702 25.0724 114.635 25.3153 115.786 25.3153C117.038 25.3153 118.04 25.0554 118.79 24.5355C119.54 24.0071 119.915 23.3636 119.915 22.6051C119.915 21.9915 119.685 21.4759 119.224 21.0582C118.773 20.6406 118.078 20.3253 117.141 20.1122L113.817 19.3835C111.984 18.9659 110.629 18.3011 109.751 17.3892C108.882 16.4773 108.447 15.3224 108.447 13.9247C108.447 12.7656 108.771 11.7514 109.419 10.8821C110.067 10.0128 110.962 9.33523 112.104 8.84943C113.246 8.35511 114.554 8.10795 116.028 8.10795C118.151 8.10795 119.821 8.56818 121.04 9.48864C122.259 10.4006 123.064 11.6236 123.456 13.1577ZM136.314 28.3963C134.473 28.3963 132.866 27.9744 131.494 27.1307C130.122 26.2869 129.056 25.1065 128.298 23.5895C127.539 22.0724 127.16 20.2997 127.16 18.2713C127.16 16.2344 127.539 14.4531 128.298 12.9276C129.056 11.402 130.122 10.2173 131.494 9.37358C132.866 8.52983 134.473 8.10795 136.314 8.10795C138.154 8.10795 139.761 8.52983 141.133 9.37358C142.505 10.2173 143.571 11.402 144.329 12.9276C145.088 14.4531 145.467 16.2344 145.467 18.2713C145.467 20.2997 145.088 22.0724 144.329 23.5895C143.571 25.1065 142.505 26.2869 141.133 27.1307C139.761 27.9744 138.154 28.3963 136.314 28.3963ZM136.326 25.1875C137.52 25.1875 138.508 24.8722 139.292 24.2415C140.076 23.6108 140.656 22.7713 141.031 21.723C141.414 20.6747 141.606 19.5199 141.606 18.2585C141.606 17.0057 141.414 15.8551 141.031 14.8068C140.656 13.75 140.076 12.902 139.292 12.2628C138.508 11.6236 137.52 11.304 136.326 11.304C135.125 11.304 134.127 11.6236 133.335 12.2628C132.551 12.902 131.967 13.75 131.583 14.8068C131.208 15.8551 131.021 17.0057 131.021 18.2585C131.021 19.5199 131.208 20.6747 131.583 21.723C131.967 22.7713 132.551 23.6108 133.335 24.2415C134.127 24.8722 135.125 25.1875 136.326 25.1875ZM149.734 28V8.36364H153.428V11.483H153.633C153.991 10.4261 154.621 9.59517 155.525 8.99006C156.437 8.37642 157.468 8.0696 158.619 8.0696C158.857 8.0696 159.138 8.07812 159.462 8.09517C159.795 8.11221 160.055 8.13352 160.242 8.15909V11.8153C160.089 11.7727 159.816 11.7259 159.424 11.6747C159.032 11.6151 158.64 11.5852 158.248 11.5852C157.344 11.5852 156.539 11.777 155.832 12.1605C155.133 12.5355 154.579 13.0597 154.17 13.733C153.761 14.3977 153.556 15.1562 153.556 16.0085V28H149.734ZM163.55 28V8.36364H167.373V28H163.55ZM165.48 5.33381C164.816 5.33381 164.245 5.11221 163.767 4.66903C163.299 4.21733 163.064 3.6804 163.064 3.05824C163.064 2.42756 163.299 1.89062 163.767 1.44744C164.245 0.995738 164.816 0.769886 165.48 0.769886C166.145 0.769886 166.712 0.995738 167.181 1.44744C167.658 1.89062 167.897 2.42756 167.897 3.05824C167.897 3.6804 167.658 4.21733 167.181 4.66903C166.712 5.11221 166.145 5.33381 165.48 5.33381ZM180.978 28.3963C179.043 28.3963 177.377 27.983 175.979 27.1562C174.59 26.321 173.516 25.1491 172.758 23.6406C172.008 22.1236 171.633 20.3466 171.633 18.3097C171.633 16.2983 172.008 14.5256 172.758 12.9915C173.516 11.4574 174.573 10.2599 175.928 9.39915C177.292 8.53835 178.886 8.10795 180.71 8.10795C181.817 8.10795 182.891 8.29119 183.931 8.65767C184.971 9.02415 185.904 9.59943 186.731 10.3835C187.558 11.1676 188.21 12.1861 188.687 13.4389C189.164 14.6832 189.403 16.196 189.403 17.9773V19.3324H173.793V16.4688H185.657C185.657 15.4631 185.452 14.5724 185.043 13.7969C184.634 13.0128 184.059 12.3949 183.317 11.9432C182.585 11.4915 181.724 11.2656 180.735 11.2656C179.661 11.2656 178.724 11.5298 177.923 12.0582C177.13 12.5781 176.516 13.2599 176.082 14.1037C175.656 14.9389 175.442 15.8466 175.442 16.8267V19.0639C175.442 20.3764 175.673 21.4929 176.133 22.4134C176.602 23.3338 177.254 24.0369 178.089 24.5227C178.924 25 179.9 25.2386 181.016 25.2386C181.741 25.2386 182.401 25.1364 182.998 24.9318C183.594 24.7187 184.11 24.4034 184.545 23.9858C184.979 23.5682 185.312 23.0526 185.542 22.4389L189.16 23.0909C188.87 24.1562 188.35 25.0895 187.6 25.8906C186.859 26.6832 185.925 27.3011 184.8 27.7443C183.684 28.179 182.41 28.3963 180.978 28.3963ZM208.358 13.1577L204.894 13.7713C204.749 13.3281 204.519 12.9062 204.203 12.5057C203.897 12.1051 203.479 11.777 202.951 11.5213C202.422 11.2656 201.762 11.1378 200.969 11.1378C199.887 11.1378 198.983 11.3807 198.259 11.8665C197.534 12.3437 197.172 12.9616 197.172 13.7202C197.172 14.3764 197.415 14.9048 197.901 15.3054C198.387 15.706 199.171 16.0341 200.253 16.2898L203.373 17.0057C205.179 17.4233 206.526 18.0668 207.412 18.9361C208.299 19.8054 208.742 20.9347 208.742 22.3239C208.742 23.5 208.401 24.5483 207.719 25.4688C207.046 26.3807 206.104 27.0966 204.894 27.6165C203.692 28.1364 202.299 28.3963 200.713 28.3963C198.515 28.3963 196.721 27.9276 195.331 26.9901C193.942 26.044 193.09 24.7017 192.775 22.9631L196.469 22.4006C196.699 23.3636 197.172 24.0923 197.888 24.5866C198.604 25.0724 199.537 25.3153 200.688 25.3153C201.941 25.3153 202.942 25.0554 203.692 24.5355C204.442 24.0071 204.817 23.3636 204.817 22.6051C204.817 21.9915 204.587 21.4759 204.127 21.0582C203.675 20.6406 202.98 20.3253 202.043 20.1122L198.719 19.3835C196.887 18.9659 195.532 18.3011 194.654 17.3892C193.784 16.4773 193.35 15.3224 193.35 13.9247C193.35 12.7656 193.674 11.7514 194.321 10.8821C194.969 10.0128 195.864 9.33523 197.006 8.84943C198.148 8.35511 199.456 8.10795 200.931 8.10795C203.053 8.10795 204.723 8.56818 205.942 9.48864C207.161 10.4006 207.966 11.6236 208.358 13.1577Z" fill="#FFFAB7"/>
<path d="M5.08807 28V29H5.80019L6.03308 28.327L5.08807 28ZM0.894886 28L-0.046042 27.6614L-0.527757 29H0.894886V28ZM10.3168 1.81818V0.818181H9.61384L9.37583 1.47958L10.3168 1.81818ZM14.8807 1.81818L15.8216 1.47958L15.5836 0.818181H14.8807V1.81818ZM24.3026 28V29H25.7252L25.2435 27.6614L24.3026 28ZM20.1094 28L19.1642 28.3265L19.3968 29H20.1094V28ZM12.7074 6.57386L13.6526 6.24733L13.4199 5.57386H12.7074V6.57386ZM12.5028 6.57386V5.57386H11.7907L11.5578 6.24683L12.5028 6.57386ZM5.79119 17.7472V16.7472H4.79119V17.7472H5.79119ZM19.3935 17.7472H20.3935V16.7472H19.3935V17.7472ZM19.3935 21.071V22.071H20.3935V21.071H19.3935ZM5.79119 21.071H4.79119V22.071H5.79119V21.071ZM5.08807 27H0.894886V29H5.08807V27ZM1.83581 28.3386L11.2577 2.15679L9.37583 1.47958L-0.046042 27.6614L1.83581 28.3386ZM10.3168 2.81818H14.8807V0.818181H10.3168V2.81818ZM13.9398 2.15679L23.3616 28.3386L25.2435 27.6614L15.8216 1.47958L13.9398 2.15679ZM24.3026 27H20.1094V29H24.3026V27ZM21.0546 27.6735L13.6526 6.24733L11.7622 6.90039L19.1642 28.3265L21.0546 27.6735ZM12.7074 5.57386H12.5028V7.57386H12.7074V5.57386ZM11.5578 6.24683L4.14306 27.673L6.03308 28.327L13.4479 6.9009L11.5578 6.24683ZM5.79119 18.7472H19.3935V16.7472H5.79119V18.7472ZM18.3935 17.7472V21.071H20.3935V17.7472H18.3935ZM19.3935 20.071H5.79119V22.071H19.3935V20.071ZM6.79119 21.071V17.7472H4.79119V21.071H6.79119ZM30.8224 27.1051L30.2849 27.9484L30.291 27.9522L30.8224 27.1051ZM27.7031 12.9915L28.6005 13.4327L28.6015 13.4307L27.7031 12.9915ZM30.8736 9.39915L30.3398 8.55353L30.3398 8.55353L30.8736 9.39915ZM39.6818 8.93892L39.2532 9.84241L39.2586 9.84493L39.6818 8.93892ZM42.5071 11.2401L41.6971 11.8266L41.7005 11.8311L42.5071 11.2401ZM43.7983 14.7045V15.7045H44.9068L44.793 14.6019L43.7983 14.7045ZM40.0781 14.7045L39.1019 14.9215L39.276 15.7045H40.0781V14.7045ZM38.6719 12.3267L37.9957 13.0635L38.0001 13.0674L38.6719 12.3267ZM32.9574 12.1733L33.5303 12.9929L33.532 12.9917L32.9574 12.1733ZM31.1037 14.5511L32.0213 14.9487L32.0224 14.946L31.1037 14.5511ZM31.0909 21.8892L32.0135 21.5035L31.0909 21.8892ZM32.9318 24.3054L32.3473 25.1168L32.3514 25.1197L32.9318 24.3054ZM37.7259 24.7656L38.1357 25.6778L38.1416 25.6751L37.7259 24.7656ZM39.2216 23.6023L38.4458 22.9712L38.4394 22.9792L39.2216 23.6023ZM40.0781 21.7869V20.7869H39.2812L39.1033 21.5638L40.0781 21.7869ZM43.7983 21.7869L44.7926 21.8937L44.9114 20.7869H43.7983V21.7869ZM42.5582 25.1875L43.3804 25.7567L42.5582 25.1875ZM39.7841 27.5398L39.3422 26.6427L39.3395 26.644L39.7841 27.5398ZM35.7315 27.3963C33.9859 27.3963 32.5409 27.0027 31.3539 26.258L30.291 27.9522C31.8483 28.9292 33.6761 29.3963 35.7315 29.3963V27.3963ZM31.36 26.2619C30.161 25.4975 29.2351 24.4455 28.5789 23.0797L26.7762 23.9458C27.5859 25.6312 28.7566 26.9741 30.2849 27.9483L31.36 26.2619ZM28.5789 23.0797C27.9207 21.7097 27.5781 20.1145 27.5781 18.2713H25.5781C25.5781 20.3656 25.9685 22.2648 26.7762 23.9458L28.5789 23.0797ZM27.5781 18.2713C27.5781 16.4036 27.9288 14.7991 28.6005 13.4327L26.8057 12.5503C25.9775 14.235 25.5781 16.1504 25.5781 18.2713H27.5781ZM28.6015 13.4307C29.275 12.053 30.21 11.0006 31.4074 10.2448L30.3398 8.55353C28.8099 9.51928 27.6312 10.8618 26.8047 12.5523L28.6015 13.4307ZM31.4074 10.2448C32.5888 9.49898 34.0043 9.10795 35.6932 9.10795V7.10795C33.6832 7.10795 31.8856 7.57773 30.3398 8.55353L31.4074 10.2448ZM35.6932 9.10795C37.0592 9.10795 38.2387 9.36107 39.2532 9.84239L40.1105 8.03545C38.7897 7.40882 37.3101 7.10795 35.6932 7.10795V9.10795ZM39.2586 9.84493C40.2811 10.3226 41.0865 10.9833 41.6972 11.8266L43.317 10.6535C42.4959 9.51955 41.4177 8.64612 40.1051 8.03291L39.2586 9.84493ZM41.7005 11.8311C42.3113 12.6647 42.6839 13.6476 42.8036 14.8072L44.793 14.6019C44.64 13.1195 44.1518 11.7927 43.3137 10.649L41.7005 11.8311ZM43.7983 13.7045H40.0781V15.7045H43.7983V13.7045ZM41.0543 14.4876C40.8026 13.3549 40.2218 12.3824 39.3437 11.586L38.0001 13.0674C38.5879 13.6006 38.9445 14.2132 39.1019 14.9215L41.0543 14.4876ZM39.348 11.5899C38.3976 10.7178 37.1635 10.3295 35.7571 10.3295V12.3295C36.7882 12.3295 37.4973 12.6061 37.9958 13.0635L39.348 11.5899ZM35.7571 10.3295C34.5052 10.3295 33.3672 10.6637 32.3828 11.3549L33.532 12.9917C34.1499 12.5579 34.8783 12.3295 35.7571 12.3295V10.3295ZM32.3845 11.3536C31.4161 12.0305 30.6896 12.982 30.1849 14.1563L32.0224 14.946C32.4041 14.0578 32.9134 13.4241 33.5303 12.9929L32.3845 11.3536ZM30.1861 14.1535C29.6766 15.3293 29.4389 16.6809 29.4389 18.1818H31.4389C31.4389 16.8873 31.6444 15.8184 32.0212 14.9487L30.1861 14.1535ZM29.4389 18.1818C29.4389 19.7116 29.6708 21.0848 30.1683 22.2749L32.0135 21.5035C31.6417 20.6141 31.4389 19.5156 31.4389 18.1818H29.4389ZM30.1683 22.2749C30.663 23.4584 31.383 24.4221 32.3473 25.1168L33.5164 23.494C32.8954 23.0467 32.3881 22.3996 32.0135 21.5035L30.1683 22.2749ZM32.3514 25.1197C33.339 25.8236 34.4885 26.1619 35.7571 26.1619V24.1619C34.8609 24.1619 34.1269 23.9292 33.5122 23.4911L32.3514 25.1197ZM35.7571 26.1619C36.6053 26.1619 37.4037 26.0067 38.1357 25.6778L37.316 23.8535C36.8719 24.053 36.3578 24.1619 35.7571 24.1619V26.1619ZM38.1416 25.6751C38.8781 25.3384 39.5032 24.8537 40.0038 24.2253L38.4394 22.9792C38.1388 23.3565 37.7668 23.6474 37.3101 23.8561L38.1416 25.6751ZM39.9973 24.2334C40.5142 23.598 40.8609 22.8489 41.0529 22.0101L39.1033 21.5638C38.9715 22.1398 38.7472 22.6008 38.4459 22.9712L39.9973 24.2334ZM40.0781 22.7869H43.7983V20.7869H40.0781V22.7869ZM42.804 21.6802C42.6845 22.7931 42.3262 23.7658 41.736 24.6183L43.3804 25.7567C44.171 24.6148 44.6394 23.3206 44.7926 21.8937L42.804 21.6802ZM41.736 24.6183C41.1489 25.4665 40.359 26.1418 39.3422 26.6427L40.226 28.4368C41.5274 27.7957 42.5869 26.9029 43.3804 25.7567L41.736 24.6183ZM39.3395 26.644C38.3529 27.1337 37.16 27.3963 35.7315 27.3963V29.3963C37.4053 29.3963 38.9141 29.0879 40.2286 28.4355L39.3395 26.644ZM51.2482 27.1051L50.7107 27.9484L50.7168 27.9522L51.2482 27.1051ZM48.1289 12.9915L49.0263 13.4327L49.0273 13.4307L48.1289 12.9915ZM51.2994 9.39915L50.7656 8.55353V8.55353L51.2994 9.39915ZM60.1076 8.93892L59.6789 9.84241L59.6844 9.84493L60.1076 8.93892ZM62.9329 11.2401L62.1229 11.8266L62.1263 11.8311L62.9329 11.2401ZM64.2241 14.7045V15.7045H65.3326L65.2188 14.6019L64.2241 14.7045ZM60.5039 14.7045L59.5277 14.9215L59.7017 15.7045H60.5039V14.7045ZM59.0977 12.3267L58.4215 13.0635L58.4258 13.0674L59.0977 12.3267ZM53.3832 12.1733L53.956 12.9929L53.9578 12.9917L53.3832 12.1733ZM51.5295 14.5511L52.447 14.9487L52.4482 14.946L51.5295 14.5511ZM51.5167 21.8892L52.4393 21.5035L51.5167 21.8892ZM53.3576 24.3054L52.7731 25.1168L52.7772 25.1197L53.3576 24.3054ZM58.1516 24.7656L58.5615 25.6778L58.5674 25.6751L58.1516 24.7656ZM59.6474 23.6023L58.8716 22.9712L58.8652 22.9792L59.6474 23.6023ZM60.5039 21.7869V20.7869H59.707L59.5291 21.5638L60.5039 21.7869ZM64.2241 21.7869L65.2184 21.8937L65.3372 20.7869H64.2241V21.7869ZM62.984 25.1875L63.8062 25.7567L62.984 25.1875ZM60.2099 27.5398L59.7679 26.6427L59.7653 26.644L60.2099 27.5398ZM56.1573 27.3963C54.4116 27.3963 52.9667 27.0027 51.7796 26.258L50.7168 27.9522C52.2741 28.9292 54.1019 29.3963 56.1573 29.3963V27.3963ZM51.7858 26.2619C50.5868 25.4975 49.6609 24.4455 49.0047 23.0797L47.202 23.9458C48.0117 25.6312 49.1824 26.9741 50.7107 27.9483L51.7858 26.2619ZM49.0047 23.0797C48.3465 21.7097 48.0039 20.1145 48.0039 18.2713H46.0039C46.0039 20.3656 46.3943 22.2648 47.202 23.9458L49.0047 23.0797ZM48.0039 18.2713C48.0039 16.4036 48.3546 14.7991 49.0263 13.4327L47.2315 12.5503C46.4033 14.235 46.0039 16.1504 46.0039 18.2713H48.0039ZM49.0273 13.4307C49.7008 12.053 50.6358 11.0006 51.8332 10.2448L50.7656 8.55353C49.2357 9.51928 48.057 10.8618 47.2305 12.5523L49.0273 13.4307ZM51.8332 10.2448C53.0146 9.49898 54.4301 9.10795 56.119 9.10795V7.10795C54.109 7.10795 52.3114 7.57773 50.7656 8.55353L51.8332 10.2448ZM56.119 9.10795C57.485 9.10795 58.6645 9.36107 59.6789 9.84239L60.5363 8.03545C59.2155 7.40882 57.7359 7.10795 56.119 7.10795V9.10795ZM59.6844 9.84493C60.7069 10.3226 61.5123 10.9833 62.1229 11.8266L63.7428 10.6535C62.9217 9.51955 61.8435 8.64612 60.5308 8.03291L59.6844 9.84493ZM62.1263 11.8311C62.7371 12.6647 63.1097 13.6476 63.2294 14.8072L65.2188 14.6019C65.0658 13.1195 64.5776 11.7927 63.7395 10.649L62.1263 11.8311ZM64.2241 13.7045H60.5039V15.7045H64.2241V13.7045ZM61.4801 14.4876C61.2284 13.3549 60.6476 12.3824 59.7695 11.586L58.4258 13.0674C59.0137 13.6006 59.3703 14.2132 59.5277 14.9215L61.4801 14.4876ZM59.7738 11.5899C58.8234 10.7178 57.5893 10.3295 56.1829 10.3295V12.3295C57.214 12.3295 57.9231 12.6061 58.4215 13.0635L59.7738 11.5899ZM56.1829 10.3295C54.931 10.3295 53.793 10.6637 52.8085 11.3549L53.9578 12.9917C54.5757 12.5579 55.3041 12.3295 56.1829 12.3295V10.3295ZM52.8103 11.3536C51.8419 12.0305 51.1154 12.982 50.6107 14.1563L52.4482 14.946C52.8299 14.0578 53.3392 13.4241 53.956 12.9929L52.8103 11.3536ZM50.6119 14.1535C50.1024 15.3293 49.8647 16.6809 49.8647 18.1818H51.8647C51.8647 16.8873 52.0702 15.8184 52.447 14.9487L50.6119 14.1535ZM49.8647 18.1818C49.8647 19.7116 50.0965 21.0848 50.5941 22.2749L52.4393 21.5035C52.0675 20.6141 51.8647 19.5156 51.8647 18.1818H49.8647ZM50.5941 22.2749C51.0888 23.4584 51.8088 24.4221 52.7731 25.1168L53.9421 23.494C53.3212 23.0467 52.8139 22.3996 52.4393 21.5035L50.5941 22.2749ZM52.7772 25.1197C53.7647 25.8236 54.9143 26.1619 56.1829 26.1619V24.1619C55.2867 24.1619 54.5527 23.9292 53.938 23.4911L52.7772 25.1197ZM56.1829 26.1619C57.0311 26.1619 57.8294 26.0067 58.5614 25.6778L57.7418 23.8535C57.2977 24.053 56.7836 24.1619 56.1829 24.1619V26.1619ZM58.5674 25.6751C59.3039 25.3384 59.929 24.8537 60.4295 24.2253L58.8652 22.9792C58.5646 23.3565 58.1925 23.6474 57.7359 23.8561L58.5674 25.6751ZM60.4231 24.2334C60.94 23.598 61.2867 22.8489 61.4787 22.0101L59.5291 21.5638C59.3973 22.1398 59.173 22.6008 58.8717 22.9712L60.4231 24.2334ZM60.5039 22.7869H64.2241V20.7869H60.5039V22.7869ZM63.2298 21.6802C63.1103 22.7931 62.752 23.7658 62.1618 24.6183L63.8062 25.7567C64.5967 24.6148 65.0651 23.3206 65.2184 21.8937L63.2298 21.6802ZM62.1618 24.6183C61.5746 25.4665 60.7848 26.1418 59.7679 26.6427L60.6518 28.4368C61.9532 27.7957 63.0127 26.9029 63.8062 25.7567L62.1618 24.6183ZM59.7653 26.644C58.7787 27.1337 57.5858 27.3963 56.1573 27.3963V29.3963C57.8311 29.3963 59.3399 29.0879 60.6544 28.4355L59.7653 26.644ZM71.7763 27.1562L71.261 28.0133L71.2672 28.017L71.7763 27.1562ZM68.5547 23.6406L67.6582 24.0838L67.6613 24.0899L68.5547 23.6406ZM68.5547 12.9915L67.6583 12.5482L67.6563 12.5523L68.5547 12.9915ZM71.7251 9.39915L71.1913 8.55353L71.189 8.55505L71.7251 9.39915ZM79.728 8.65767L80.0604 7.71454L79.728 8.65767ZM82.5277 10.3835L81.8395 11.1091V11.1091L82.5277 10.3835ZM84.4837 13.4389L83.5492 13.7949L83.55 13.797L84.4837 13.4389ZM85.1996 19.3324V20.3324H86.1996V19.3324H85.1996ZM69.5902 19.3324H68.5902V20.3324H69.5902V19.3324ZM69.5902 16.4688V15.4688H68.5902V16.4688H69.5902ZM81.4538 16.4688V17.4688H82.4538V16.4688H81.4538ZM80.8402 13.7969L79.9536 14.2594L79.9557 14.2634L80.8402 13.7969ZM79.1143 11.9432L78.5897 12.7945L78.5941 12.7972L79.1143 11.9432ZM73.7195 12.0582L74.2679 12.8944L74.2701 12.893L73.7195 12.0582ZM71.8785 14.1037L70.9896 13.6457L70.9878 13.6492L71.8785 14.1037ZM71.9297 22.4134L71.0352 22.8606L71.0386 22.8672L71.9297 22.4134ZM73.8857 24.5227L73.3829 25.3872L73.3895 25.391L73.8857 24.5227ZM78.7947 24.9318L79.1191 25.8778L79.1311 25.8736L78.7947 24.9318ZM80.3416 23.9858L79.6488 23.2647L80.3416 23.9858ZM81.3388 22.4389L81.5161 21.4548L80.6953 21.3069L80.4025 22.0878L81.3388 22.4389ZM84.9567 23.0909L85.9216 23.3534L86.2081 22.3003L85.134 22.1068L84.9567 23.0909ZM83.397 25.8906L82.667 25.2072L82.6667 25.2075L83.397 25.8906ZM80.5973 27.7443L80.9601 28.6762L80.9638 28.6747L80.5973 27.7443ZM76.7749 27.3963C74.9848 27.3963 73.5018 27.015 72.2854 26.2955L71.2672 28.017C72.8463 28.9509 74.6955 29.3963 76.7749 29.3963V27.3963ZM72.2915 26.2992C71.0714 25.5656 70.1254 24.5384 69.4481 23.1914L67.6613 24.0899C68.501 25.7599 69.7028 27.0764 71.261 28.0133L72.2915 26.2992ZM69.4511 23.1974C68.7817 21.8435 68.4297 20.2238 68.4297 18.3097H66.4297C66.4297 20.4694 66.8276 22.4037 67.6583 24.0838L69.4511 23.1974ZM68.4297 18.3097C68.4297 16.4236 68.7808 14.8057 69.4531 13.4307L67.6563 12.5523C66.8286 14.2454 66.4297 16.173 66.4297 18.3097H68.4297ZM69.4511 13.4347C70.1341 12.0534 71.071 10.9994 72.2613 10.2432L71.189 8.55505C69.6691 9.52052 68.4923 10.8614 67.6583 12.5483L69.4511 13.4347ZM72.2589 10.2448C73.4426 9.49759 74.846 9.10795 76.5064 9.10795V7.10795C74.519 7.10795 72.735 7.57911 71.1913 8.55353L72.2589 10.2448ZM76.5064 9.10795C77.5017 9.10795 78.4631 9.27216 79.3956 9.6008L80.0604 7.71454C78.9133 7.31023 77.727 7.10795 76.5064 7.10795V9.10795ZM79.3956 9.6008C80.2983 9.91898 81.1113 10.4184 81.8395 11.1091L83.2159 9.65796C82.2907 8.78048 81.2372 8.12931 80.0604 7.71454L79.3956 9.6008ZM81.8395 11.1091C82.5399 11.7733 83.1159 12.6576 83.5492 13.7949L85.4182 13.0829C84.8969 11.7146 84.1689 10.5619 83.2159 9.65796L81.8395 11.1091ZM83.55 13.797C83.9714 14.8957 84.1996 16.2797 84.1996 17.9773H86.1996C86.1996 16.1124 85.9505 14.4708 85.4173 13.0808L83.55 13.797ZM84.1996 17.9773V19.3324H86.1996V17.9773H84.1996ZM85.1996 18.3324H69.5902V20.3324H85.1996V18.3324ZM70.5902 19.3324V16.4688H68.5902V19.3324H70.5902ZM69.5902 17.4688H81.4538V15.4688H69.5902V17.4688ZM82.4538 16.4688C82.4538 15.3245 82.2201 14.2696 81.7247 13.3303L79.9557 14.2634C80.2785 14.8753 80.4538 15.6016 80.4538 16.4688H82.4538ZM81.7268 13.3343C81.2351 12.392 80.5346 11.6374 79.6346 11.0892L78.5941 12.7972C79.1771 13.1523 79.6271 13.6336 79.9536 14.2594L81.7268 13.3343ZM79.639 11.0919C78.726 10.5292 77.6778 10.2656 76.532 10.2656V12.2656C77.3634 12.2656 78.0368 12.4537 78.5897 12.7945L79.639 11.0919ZM76.532 10.2656C75.2865 10.2656 74.1524 10.5747 73.1689 11.2235L74.2701 12.893C74.8888 12.4849 75.6297 12.2656 76.532 12.2656V10.2656ZM73.171 11.2221C72.234 11.8367 71.5031 12.6489 70.9896 13.6457L72.7675 14.5616C73.1233 13.871 73.6197 13.3196 74.2679 12.8944L73.171 11.2221ZM70.9878 13.6492C70.4866 14.6316 70.2393 15.696 70.2393 16.8267H72.2393C72.2393 15.9972 72.4183 15.2462 72.7693 14.5582L70.9878 13.6492ZM70.2393 16.8267V19.0639H72.2393V16.8267H70.2393ZM70.2393 19.0639C70.2393 20.4902 70.4892 21.7684 71.0353 22.8606L72.8241 21.9661C72.4498 21.2174 72.2393 20.2627 72.2393 19.0639H70.2393ZM71.0386 22.8672C71.5883 23.9466 72.3698 24.7979 73.3829 25.3871L74.3884 23.6583C73.731 23.276 73.2086 22.721 72.8208 21.9596L71.0386 22.8672ZM73.3895 25.391C74.3986 25.9676 75.5509 26.2386 76.8132 26.2386V24.2386C75.8425 24.2386 75.0432 24.0324 74.3818 23.6545L73.3895 25.391ZM76.8132 26.2386C77.6319 26.2386 78.4039 26.123 79.1191 25.8778L78.4704 23.9859C77.9924 24.1497 77.4434 24.2386 76.8132 24.2386V26.2386ZM79.1311 25.8736C79.8538 25.6154 80.4927 25.2274 81.0344 24.7069L79.6488 23.2647C79.3212 23.5794 78.9288 23.8221 78.4584 23.9901L79.1311 25.8736ZM81.0344 24.7069C81.5861 24.1769 81.9972 23.5312 82.2751 22.79L80.4025 22.0878C80.2202 22.5739 79.9665 22.9595 79.6488 23.2647L81.0344 24.7069ZM81.1614 23.4231L84.7793 24.0751L85.134 22.1068L81.5161 21.4548L81.1614 23.4231ZM83.9917 22.8284C83.7445 23.7374 83.3048 24.5259 82.667 25.2072L84.127 26.5741C84.9892 25.6531 85.5893 24.5751 85.9216 23.3534L83.9917 22.8284ZM82.6667 25.2075C82.0377 25.8799 81.2336 26.4189 80.2308 26.8139L80.9638 28.6747C82.211 28.1834 83.2734 27.4866 84.1273 26.5738L82.6667 25.2075ZM80.2345 26.8124C79.2538 27.1942 78.1062 27.3963 76.7749 27.3963V29.3963C78.3071 29.3963 79.7078 29.1637 80.9601 28.6762L80.2345 26.8124ZM104.155 13.1577L104.33 14.1423L105.391 13.9544L105.124 12.9101L104.155 13.1577ZM100.691 13.7713L99.7402 14.082L100.01 14.9074L100.865 14.756L100.691 13.7713ZM100 12.5057L99.2064 13.1138L99.2146 13.1242L100 12.5057ZM98.7475 11.5213L99.1831 10.6211L98.7475 11.5213ZM94.0558 11.8665L94.6059 12.7016L94.6127 12.697L94.0558 11.8665ZM96.0501 16.2898L95.8202 17.263L95.8264 17.2644L96.0501 16.2898ZM99.1694 17.0057L99.3946 16.0314L99.3931 16.031L99.1694 17.0057ZM103.209 18.9361L102.509 19.65L103.209 18.9361ZM103.516 25.4688L102.712 24.8735L102.711 24.8748L103.516 25.4688ZM100.691 27.6165L100.296 26.6977L100.294 26.6987L100.691 27.6165ZM91.1282 26.9901L90.5653 27.8166L90.5688 27.819L91.1282 26.9901ZM88.5714 22.9631L88.4209 21.9745L87.4038 22.1293L87.5874 23.1415L88.5714 22.9631ZM92.266 22.4006L93.2386 22.1682L93.0248 21.2735L92.1155 21.412L92.266 22.4006ZM93.685 24.5866L93.1168 25.4096L93.1235 25.4141L93.685 24.5866ZM99.489 24.5355L100.059 25.3574L100.065 25.353L99.489 24.5355ZM99.9237 21.0582L99.2448 21.7925L99.2517 21.7988L99.9237 21.0582ZM97.8398 20.1122L98.0615 19.1371L98.054 19.1354L97.8398 20.1122ZM94.516 19.3835L94.2938 20.3586L94.3018 20.3603L94.516 19.3835ZM90.4506 17.3892L89.7268 18.0792L89.7302 18.0827L90.4506 17.3892ZM90.1183 10.8821L89.3164 10.2846L90.1183 10.8821ZM92.8029 8.84943L93.1944 9.76966L93.2001 9.76715L92.8029 8.84943ZM101.739 9.48864L101.136 10.2866L101.14 10.2893L101.739 9.48864ZM103.981 12.173L100.516 12.7866L100.865 14.756L104.33 14.1423L103.981 12.173ZM101.641 13.4606C101.457 12.896 101.167 12.3712 100.786 11.8871L99.2146 13.1242C99.4642 13.4413 99.635 13.7603 99.7402 14.082L101.641 13.4606ZM100.794 11.8976C100.378 11.3542 99.8291 10.9338 99.1831 10.6211L98.312 12.4215C98.7227 12.6202 99.009 12.856 99.2065 13.1138L100.794 11.8976ZM99.1831 10.6211C98.48 10.2809 97.6593 10.1378 96.766 10.1378V12.1378C97.4579 12.1378 97.9583 12.2503 98.312 12.4215L99.1831 10.6211ZM96.766 10.1378C95.5333 10.1378 94.4238 10.4157 93.4988 11.0359L94.6127 12.697C95.1366 12.3457 95.8339 12.1378 96.766 12.1378V10.1378ZM93.5056 11.0314C92.5475 11.6626 91.9691 12.5725 91.9691 13.7202H93.9691C93.9691 13.3508 94.1151 13.0249 94.6059 12.7015L93.5056 11.0314ZM91.9691 13.7202C91.9691 14.6605 92.3345 15.4774 93.0616 16.0769L94.334 14.5339C94.0895 14.3323 93.9691 14.0924 93.9691 13.7202H91.9691ZM93.0616 16.0769C93.7242 16.6233 94.6863 16.9952 95.8202 17.263L96.28 15.3166C95.249 15.073 94.643 14.7887 94.334 14.5339L93.0616 16.0769ZM95.8264 17.2644L98.9457 17.9803L99.3931 16.031L96.2738 15.3151L95.8264 17.2644ZM98.9442 17.98C100.654 18.3752 101.804 18.9581 102.509 19.65L103.909 18.2221C102.842 17.1754 101.298 16.4714 99.3946 16.0314L98.9442 17.98ZM102.509 19.65C103.18 20.3081 103.539 21.1682 103.539 22.3239H105.539C105.539 20.7011 105.011 19.3027 103.909 18.2221L102.509 19.65ZM103.539 22.3239C103.539 23.2918 103.263 24.1302 102.712 24.8735L104.32 26.064C105.133 24.9664 105.539 23.7082 105.539 22.3239H103.539ZM102.711 24.8748C102.16 25.6223 101.37 26.2363 100.296 26.6977L101.085 28.5353C102.432 27.9569 103.526 27.1391 104.32 26.0627L102.711 24.8748ZM100.294 26.6987C99.2408 27.1542 97.9871 27.3963 96.5103 27.3963V29.3963C98.204 29.3963 99.7372 29.1185 101.088 28.5343L100.294 26.6987ZM96.5103 27.3963C94.4494 27.3963 92.8671 26.9571 91.6876 26.1611L90.5688 27.819C92.1677 28.898 94.1735 29.3963 96.5103 29.3963V27.3963ZM91.6911 26.1635C90.5358 25.3768 89.8256 24.2746 89.5553 22.7846L87.5874 23.1415C87.9479 25.1288 88.9422 26.7113 90.5653 27.8166L91.6911 26.1635ZM88.7219 23.9517L92.4165 23.3892L92.1155 21.412L88.4209 21.9745L88.7219 23.9517ZM91.2934 22.633C91.5723 23.8005 92.1697 24.7556 93.1168 25.4095L94.2532 23.7638C93.7685 23.4291 93.4199 22.9267 93.2386 22.1682L91.2934 22.633ZM93.1235 25.4141C94.0517 26.044 95.1989 26.3153 96.4847 26.3153V24.3153C95.4695 24.3153 94.7501 24.1009 94.2465 23.7592L93.1235 25.4141ZM96.4847 26.3153C97.8672 26.3153 99.0894 26.0292 100.059 25.3574L98.9193 23.7137C98.3886 24.0816 97.6079 24.3153 96.4847 24.3153V26.3153ZM100.065 25.353C101.018 24.6818 101.614 23.7592 101.614 22.6051H99.614C99.614 22.9681 99.4603 23.3324 98.913 23.718L100.065 25.353ZM101.614 22.6051C101.614 21.7053 101.262 20.9221 100.596 20.3177L99.2517 21.7988C99.506 22.0296 99.614 22.2776 99.614 22.6051H101.614ZM100.603 20.324C99.9692 19.7385 99.0823 19.3691 98.0615 19.1371L97.6182 21.0873C98.4724 21.2815 98.9747 21.5428 99.2448 21.7925L100.603 20.324ZM98.054 19.1354L94.7301 18.4067L94.3018 20.3603L97.6257 21.089L98.054 19.1354ZM94.7382 18.4085C93.0092 18.0145 91.8632 17.4146 91.1711 16.6957L89.7302 18.0827C90.7938 19.1876 92.358 19.9174 94.2938 20.3585L94.7382 18.4085ZM91.1745 16.6992C90.5025 15.9943 90.1467 15.0961 90.1467 13.9247H88.1467C88.1467 15.5488 88.6602 16.9603 89.7268 18.0792L91.1745 16.6992ZM90.1467 13.9247C90.1467 12.9651 90.4102 12.164 90.9201 11.4796L89.3164 10.2846C88.5309 11.3389 88.1467 12.5662 88.1467 13.9247H90.1467ZM90.9201 11.4796C91.4475 10.7718 92.1913 10.1963 93.1943 9.76964L92.4115 7.92922C91.1304 8.47414 90.0845 9.25374 89.3164 10.2846L90.9201 11.4796ZM93.2001 9.76715C94.1958 9.33619 95.365 9.10795 96.7276 9.10795V7.10795C95.1414 7.10795 93.6941 7.37404 92.4057 7.93171L93.2001 9.76715ZM96.7276 9.10795C98.7152 9.10795 100.147 9.53973 101.136 10.2866L102.342 8.69065C100.893 7.59663 98.9843 7.10795 96.7276 7.10795V9.10795ZM101.14 10.2893C102.168 11.0587 102.848 12.0827 103.186 13.4053L105.124 12.9101C104.678 11.1644 103.747 9.74248 102.338 8.68796L101.14 10.2893ZM123.456 13.1577L123.63 14.1423L124.692 13.9544L124.425 12.9101L123.456 13.1577ZM119.991 13.7713L119.041 14.082L119.311 14.9074L120.166 14.756L119.991 13.7713ZM119.301 12.5057L118.507 13.1138L118.515 13.1242L119.301 12.5057ZM118.048 11.5213L118.484 10.6211L118.048 11.5213ZM113.357 11.8665L113.907 12.7016L113.913 12.697L113.357 11.8665ZM115.351 16.2898L115.121 17.263L115.127 17.2644L115.351 16.2898ZM118.47 17.0057L118.695 16.0314L118.694 16.031L118.47 17.0057ZM122.51 18.9361L121.81 19.65L122.51 18.9361ZM122.817 25.4688L122.013 24.8735L122.012 24.8748L122.817 25.4688ZM119.991 27.6165L119.597 26.6977L119.594 26.6987L119.991 27.6165ZM110.429 26.9901L109.866 27.8166L109.87 27.819L110.429 26.9901ZM107.872 22.9631L107.722 21.9745L106.705 22.1293L106.888 23.1415L107.872 22.9631ZM111.567 22.4006L112.539 22.1682L112.326 21.2735L111.416 21.412L111.567 22.4006ZM112.986 24.5866L112.418 25.4096L112.424 25.4141L112.986 24.5866ZM118.79 24.5355L119.359 25.3574L119.366 25.353L118.79 24.5355ZM119.224 21.0582L118.546 21.7925L118.552 21.7988L119.224 21.0582ZM117.141 20.1122L117.362 19.1371L117.355 19.1354L117.141 20.1122ZM113.817 19.3835L113.595 20.3586L113.603 20.3603L113.817 19.3835ZM109.751 17.3892L109.028 18.0792L109.031 18.0827L109.751 17.3892ZM109.419 10.8821L108.617 10.2846L109.419 10.8821ZM112.104 8.84943L112.495 9.76966L112.501 9.76715L112.104 8.84943ZM121.04 9.48864L120.437 10.2866L120.441 10.2893L121.04 9.48864ZM123.282 12.173L119.817 12.7866L120.166 14.756L123.63 14.1423L123.282 12.173ZM120.942 13.4606C120.757 12.896 120.468 12.3712 120.087 11.8871L118.515 13.1242C118.765 13.4413 118.936 13.7603 119.041 14.082L120.942 13.4606ZM120.095 11.8976C119.679 11.3542 119.13 10.9338 118.484 10.6211L117.613 12.4215C118.023 12.6202 118.31 12.856 118.507 13.1138L120.095 11.8976ZM118.484 10.6211C117.781 10.2809 116.96 10.1378 116.067 10.1378V12.1378C116.759 12.1378 117.259 12.2503 117.613 12.4215L118.484 10.6211ZM116.067 10.1378C114.834 10.1378 113.725 10.4157 112.8 11.0359L113.913 12.697C114.437 12.3457 115.135 12.1378 116.067 12.1378V10.1378ZM112.806 11.0314C111.848 11.6626 111.27 12.5725 111.27 13.7202H113.27C113.27 13.3508 113.416 13.0249 113.907 12.7015L112.806 11.0314ZM111.27 13.7202C111.27 14.6605 111.635 15.4774 112.362 16.0769L113.635 14.5339C113.39 14.3323 113.27 14.0924 113.27 13.7202H111.27ZM112.362 16.0769C113.025 16.6233 113.987 16.9952 115.121 17.263L115.581 15.3166C114.55 15.073 113.944 14.7887 113.635 14.5339L112.362 16.0769ZM115.127 17.2644L118.246 17.9803L118.694 16.031L115.575 15.3151L115.127 17.2644ZM118.245 17.98C119.955 18.3752 121.104 18.9581 121.81 19.65L123.21 18.2221C122.143 17.1754 120.599 16.4714 118.695 16.0314L118.245 17.98ZM121.81 19.65C122.481 20.3081 122.839 21.1682 122.839 22.3239H124.839C124.839 20.7011 124.312 19.3027 123.21 18.2221L121.81 19.65ZM122.839 22.3239C122.839 23.2918 122.564 24.1302 122.013 24.8735L123.62 26.064C124.433 24.9664 124.839 23.7082 124.839 22.3239H122.839ZM122.012 24.8748C121.46 25.6223 120.671 26.2363 119.597 26.6977L120.386 28.5353C121.733 27.9569 122.827 27.1391 123.621 26.0627L122.012 24.8748ZM119.594 26.6987C118.542 27.1542 117.288 27.3963 115.811 27.3963V29.3963C117.505 29.3963 119.038 29.1185 120.389 28.5343L119.594 26.6987ZM115.811 27.3963C113.75 27.3963 112.168 26.9571 110.988 26.1611L109.87 27.819C111.468 28.898 113.474 29.3963 115.811 29.3963V27.3963ZM110.992 26.1635C109.837 25.3768 109.126 24.2746 108.856 22.7846L106.888 23.1415C107.249 25.1288 108.243 26.7113 109.866 27.8166L110.992 26.1635ZM108.023 23.9517L111.717 23.3892L111.416 21.412L107.722 21.9745L108.023 23.9517ZM110.594 22.633C110.873 23.8005 111.471 24.7556 112.418 25.4095L113.554 23.7638C113.069 23.4291 112.721 22.9267 112.539 22.1682L110.594 22.633ZM112.424 25.4141C113.352 26.044 114.5 26.3153 115.786 26.3153V24.3153C114.77 24.3153 114.051 24.1009 113.547 23.7592L112.424 25.4141ZM115.786 26.3153C117.168 26.3153 118.39 26.0292 119.359 25.3574L118.22 23.7137C117.689 24.0816 116.909 24.3153 115.786 24.3153V26.3153ZM119.366 25.353C120.318 24.6818 120.915 23.7592 120.915 22.6051H118.915C118.915 22.9681 118.761 23.3324 118.214 23.718L119.366 25.353ZM120.915 22.6051C120.915 21.7053 120.562 20.9221 119.896 20.3177L118.552 21.7988C118.807 22.0296 118.915 22.2776 118.915 22.6051H120.915ZM119.903 20.324C119.27 19.7385 118.383 19.3691 117.362 19.1371L116.919 21.0873C117.773 21.2815 118.275 21.5428 118.546 21.7925L119.903 20.324ZM117.355 19.1354L114.031 18.4067L113.603 20.3603L116.926 21.089L117.355 19.1354ZM114.039 18.4085C112.31 18.0145 111.164 17.4146 110.472 16.6957L109.031 18.0827C110.095 19.1876 111.659 19.9174 113.595 20.3585L114.039 18.4085ZM110.475 16.6992C109.803 15.9943 109.447 15.0961 109.447 13.9247H107.447C107.447 15.5488 107.961 16.9603 109.028 18.0792L110.475 16.6992ZM109.447 13.9247C109.447 12.9651 109.711 12.164 110.221 11.4796L108.617 10.2846C107.832 11.3389 107.447 12.5662 107.447 13.9247H109.447ZM110.221 11.4796C110.748 10.7718 111.492 10.1963 112.495 9.76964L111.712 7.92922C110.431 8.47414 109.385 9.25374 108.617 10.2846L110.221 11.4796ZM112.501 9.76715C113.497 9.33619 114.666 9.10795 116.028 9.10795V7.10795C114.442 7.10795 112.995 7.37404 111.706 7.93171L112.501 9.76715ZM116.028 9.10795C118.016 9.10795 119.448 9.53973 120.437 10.2866L121.642 8.69065C120.194 7.59663 118.285 7.10795 116.028 7.10795V9.10795ZM120.441 10.2893C121.469 11.0587 122.149 12.0827 122.487 13.4053L124.425 12.9101C123.979 11.1644 123.048 9.74248 121.639 8.68796L120.441 10.2893ZM128.298 23.5895L129.192 23.1423L128.298 23.5895ZM131.494 9.37358L132.018 10.2254L131.494 9.37358ZM141.133 9.37358L140.609 10.2254L141.133 9.37358ZM144.329 23.5895L143.435 23.1423L144.329 23.5895ZM141.133 27.1307L141.657 27.9825L141.133 27.1307ZM139.292 24.2415L138.665 23.4623L139.292 24.2415ZM141.031 21.723L140.092 21.3794L140.089 21.3862L141.031 21.723ZM141.031 14.8068L140.088 15.1412L140.092 15.1504L141.031 14.8068ZM139.292 12.2628L138.66 13.0379L139.292 12.2628ZM133.335 12.2628L132.707 11.4844L132.703 11.4877L133.335 12.2628ZM131.583 14.8068L130.643 14.4657L130.642 14.47L131.583 14.8068ZM131.583 21.723L130.642 22.0598L130.644 22.0666L131.583 21.723ZM133.335 24.2415L132.708 25.0207L132.712 25.024L133.335 24.2415ZM136.314 27.3963C134.631 27.3963 133.211 27.0125 132.018 26.2788L130.97 27.9825C132.521 28.9364 134.315 29.3963 136.314 29.3963V27.3963ZM132.018 26.2788C130.813 25.538 129.872 24.5018 129.192 23.1423L127.404 24.0367C128.241 25.7113 129.431 27.0358 130.97 27.9825L132.018 26.2788ZM129.192 23.1423C128.516 21.7887 128.16 20.1746 128.16 18.2713H126.16C126.16 20.4248 126.563 22.3561 127.404 24.0367L129.192 23.1423ZM128.16 18.2713C128.16 16.3589 128.516 14.7355 129.193 13.3728L127.403 12.4823C126.563 14.1708 126.16 16.1098 126.16 18.2713H128.16ZM129.193 13.3728C129.874 12.0047 130.814 10.9653 132.018 10.2254L130.97 8.52174C129.429 9.46932 128.239 10.7992 127.403 12.4823L129.193 13.3728ZM132.018 10.2254C133.211 9.49177 134.631 9.10795 136.314 9.10795V7.10795C134.315 7.10795 132.521 7.56789 130.97 8.52174L132.018 10.2254ZM136.314 9.10795C137.997 9.10795 139.416 9.49177 140.609 10.2254L141.657 8.52174C140.106 7.56789 138.312 7.10795 136.314 7.10795V9.10795ZM140.609 10.2254C141.813 10.9653 142.754 12.0047 143.434 13.3728L145.225 12.4823C144.388 10.7992 143.198 9.46932 141.657 8.52174L140.609 10.2254ZM143.434 13.3728C144.111 14.7355 144.467 16.3589 144.467 18.2713H146.467C146.467 16.1098 146.064 14.1708 145.225 12.4823L143.434 13.3728ZM144.467 18.2713C144.467 20.1746 144.112 21.7887 143.435 23.1423L145.224 24.0367C146.064 22.3561 146.467 20.4248 146.467 18.2713H144.467ZM143.435 23.1423C142.755 24.5018 141.814 25.538 140.609 26.2788L141.657 27.9825C143.197 27.0358 144.386 25.7113 145.224 24.0367L143.435 23.1423ZM140.609 26.2788C139.416 27.0125 137.997 27.3963 136.314 27.3963V29.3963C138.312 29.3963 140.106 28.9364 141.657 27.9825L140.609 26.2788ZM136.326 26.1875C137.703 26.1875 138.926 25.8196 139.919 25.0207L138.665 23.4623C138.091 23.9247 137.336 24.1875 136.326 24.1875V26.1875ZM139.919 25.0207C140.862 24.2623 141.542 23.2627 141.972 22.0598L140.089 21.3862C139.77 22.2799 139.291 22.9592 138.665 23.4623L139.919 25.0207ZM141.97 22.0666C142.399 20.8949 142.606 19.622 142.606 18.2585H140.606C140.606 19.4178 140.43 20.4545 140.092 21.3794L141.97 22.0666ZM142.606 18.2585C142.606 16.9027 142.398 15.6342 141.97 14.4632L140.092 15.1504C140.43 16.076 140.606 17.1087 140.606 18.2585H142.606ZM141.973 14.4724C141.544 13.2623 140.865 12.2549 139.924 11.4877L138.66 13.0379C139.288 13.5491 139.768 14.2377 140.088 15.1412L141.973 14.4724ZM139.924 11.4877C138.931 10.6779 137.707 10.304 136.326 10.304V12.304C137.332 12.304 138.086 12.5693 138.66 13.0379L139.924 11.4877ZM136.326 10.304C134.939 10.304 133.708 10.677 132.707 11.4844L133.963 13.0412C134.547 12.5702 135.31 12.304 136.326 12.304V10.304ZM132.703 11.4877C131.764 12.2535 131.082 13.2585 130.643 14.4657L132.523 15.148C132.852 14.2415 133.338 13.5505 133.967 13.0379L132.703 11.4877ZM130.642 14.47C130.224 15.639 130.021 16.9051 130.021 18.2585H132.021C132.021 17.1062 132.193 16.0712 132.525 15.1436L130.642 14.47ZM130.021 18.2585C130.021 19.6196 130.223 20.8901 130.642 22.0598L132.525 21.3862C132.193 20.4593 132.021 19.4202 132.021 18.2585H130.021ZM130.644 22.0666C131.083 23.2666 131.767 24.2638 132.708 25.0207L133.962 23.4623C133.335 22.9578 132.851 22.276 132.523 21.3794L130.644 22.0666ZM132.712 25.024C133.713 25.8205 134.942 26.1875 136.326 26.1875V24.1875C135.307 24.1875 134.542 23.9238 133.958 23.459L132.712 25.024ZM149.734 28H148.734V29H149.734V28ZM149.734 8.36364V7.36364H148.734V8.36364H149.734ZM153.428 8.36364H154.428V7.36364H153.428V8.36364ZM153.428 11.483H152.428V12.483H153.428V11.483ZM153.633 11.483V12.483H154.35L154.58 11.8038L153.633 11.483ZM155.525 8.99006L156.081 9.8209L156.083 9.81971L155.525 8.99006ZM159.462 8.09517L159.41 9.09379L159.411 9.09386L159.462 8.09517ZM160.242 8.15909H161.242V7.2862L160.377 7.16826L160.242 8.15909ZM160.242 11.8153L159.975 12.7789L161.242 13.131V11.8153H160.242ZM159.424 11.6747L159.274 12.6633L159.284 12.6649L159.295 12.6663L159.424 11.6747ZM155.832 12.1605L156.305 13.0417L156.308 13.0396L155.832 12.1605ZM154.17 13.733L155.021 14.2571L155.024 14.2522L154.17 13.733ZM153.556 28V29H154.556V28H153.556ZM150.734 28V8.36364H148.734V28H150.734ZM149.734 9.36364H153.428V7.36364H149.734V9.36364ZM152.428 8.36364V11.483H154.428V8.36364H152.428ZM153.428 12.483H153.633V10.483H153.428V12.483ZM154.58 11.8038C154.869 10.9494 155.366 10.3002 156.081 9.8209L154.968 8.15921C153.877 8.89016 153.112 9.90286 152.686 11.1621L154.58 11.8038ZM156.083 9.81971C156.822 9.32248 157.657 9.0696 158.619 9.0696V7.0696C157.279 7.0696 156.051 7.43036 154.967 8.1604L156.083 9.81971ZM158.619 9.0696C158.835 9.0696 159.098 9.07736 159.41 9.09379L159.515 7.09655C159.179 7.07889 158.88 7.0696 158.619 7.0696V9.0696ZM159.411 9.09386C159.733 9.11036 159.961 9.12995 160.107 9.14992L160.377 7.16826C160.149 7.13709 159.856 7.11406 159.514 7.09648L159.411 9.09386ZM159.242 8.15909V11.8153H161.242V8.15909H159.242ZM160.51 10.8518C160.281 10.7881 159.944 10.734 159.553 10.6831L159.295 12.6663C159.688 12.7177 159.897 12.7573 159.975 12.7789L160.51 10.8518ZM159.574 10.6861C159.133 10.6189 158.691 10.5852 158.248 10.5852V12.5852C158.589 12.5852 158.931 12.6112 159.274 12.6633L159.574 10.6861ZM158.248 10.5852C157.199 10.5852 156.226 10.8092 155.355 11.2814L156.308 13.0396C156.852 12.7448 157.49 12.5852 158.248 12.5852V10.5852ZM155.359 11.2794C154.504 11.7381 153.818 12.3868 153.315 13.2137L155.024 14.2522C155.34 13.7325 155.762 13.3329 156.304 13.0417L155.359 11.2794ZM153.318 13.2089C152.803 14.0456 152.556 14.9888 152.556 16.0085H154.556C154.556 15.3237 154.718 14.7499 155.021 14.2571L153.318 13.2089ZM152.556 16.0085V28H154.556V16.0085H152.556ZM153.556 27H149.734V29H153.556V27ZM163.55 28H162.55V29H163.55V28ZM163.55 8.36364V7.36364H162.55V8.36364H163.55ZM167.373 8.36364H168.373V7.36364H167.373V8.36364ZM167.373 28V29H168.373V28H167.373ZM163.767 4.66903L163.074 5.38911L163.08 5.39553L163.087 5.40182L163.767 4.66903ZM163.767 1.44744L164.454 2.17409L164.455 2.17374L163.767 1.44744ZM167.181 1.44744L166.487 2.16752L166.494 2.17394L166.5 2.18023L167.181 1.44744ZM167.181 4.66903L167.868 5.39568L167.868 5.39533L167.181 4.66903ZM164.55 28V8.36364H162.55V28H164.55ZM163.55 9.36364H167.373V7.36364H163.55V9.36364ZM166.373 8.36364V28H168.373V8.36364H166.373ZM167.373 27H163.55V29H167.373V27ZM165.48 4.33381C165.062 4.33381 164.736 4.20377 164.448 3.93624L163.087 5.40182C163.753 6.02066 164.569 6.33381 165.48 6.33381V4.33381ZM164.461 3.94895C164.178 3.67596 164.064 3.39498 164.064 3.05824H162.064C162.064 3.96581 162.419 4.7587 163.074 5.38911L164.461 3.94895ZM164.064 3.05824C164.064 2.70952 164.18 2.43326 164.454 2.17409L163.08 0.720796C162.417 1.34799 162.064 2.14559 162.064 3.05824H164.064ZM164.455 2.17374C164.744 1.90005 165.068 1.76989 165.48 1.76989V-0.230114C164.563 -0.230114 163.745 0.0914207 163.08 0.721148L164.455 2.17374ZM165.48 1.76989C165.893 1.76989 166.209 1.8996 166.487 2.16752L167.875 0.727364C167.215 0.0918765 166.398 -0.230114 165.48 -0.230114V1.76989ZM166.5 2.18023C166.781 2.44121 166.897 2.71575 166.897 3.05824H168.897C168.897 2.13937 168.535 1.34004 167.861 0.714649L166.5 2.18023ZM166.897 3.05824C166.897 3.38878 166.784 3.668 166.493 3.94274L167.868 5.39533C168.532 4.76665 168.897 3.97201 168.897 3.05824H166.897ZM166.494 3.94239C166.217 4.20417 165.898 4.33381 165.48 4.33381V6.33381C166.392 6.33381 167.207 6.02026 167.868 5.39568L166.494 3.94239ZM175.979 27.1562L175.464 28.0133L175.47 28.017L175.979 27.1562ZM172.758 23.6406L171.861 24.0838L171.864 24.0899L172.758 23.6406ZM172.758 12.9915L171.861 12.5482L171.859 12.5523L172.758 12.9915ZM175.928 9.39915L175.394 8.55353L175.392 8.55505L175.928 9.39915ZM183.931 8.65767L184.264 7.71454L183.931 8.65767ZM186.731 10.3835L186.043 11.1091V11.1091L186.731 10.3835ZM188.687 13.4389L187.752 13.7949L187.753 13.797L188.687 13.4389ZM189.403 19.3324V20.3324H190.403V19.3324H189.403ZM173.793 19.3324H172.793V20.3324H173.793V19.3324ZM173.793 16.4688V15.4688H172.793V16.4688H173.793ZM185.657 16.4688V17.4688H186.657V16.4688H185.657ZM185.043 13.7969L184.157 14.2594L184.159 14.2634L185.043 13.7969ZM183.317 11.9432L182.793 12.7945L182.797 12.7972L183.317 11.9432ZM177.923 12.0582L178.471 12.8944L178.473 12.893L177.923 12.0582ZM176.082 14.1037L175.193 13.6457L175.191 13.6492L176.082 14.1037ZM176.133 22.4134L175.238 22.8606L175.242 22.8672L176.133 22.4134ZM178.089 24.5227L177.586 25.3872L177.593 25.391L178.089 24.5227ZM182.998 24.9318L183.322 25.8778L183.334 25.8736L182.998 24.9318ZM184.545 23.9858L183.852 23.2647L184.545 23.9858ZM185.542 22.4389L185.719 21.4548L184.898 21.3069L184.606 22.0878L185.542 22.4389ZM189.16 23.0909L190.125 23.3534L190.411 22.3003L189.337 22.1068L189.16 23.0909ZM187.6 25.8906L186.87 25.2072L186.87 25.2075L187.6 25.8906ZM184.8 27.7443L185.163 28.6762L185.167 28.6747L184.8 27.7443ZM180.978 27.3963C179.188 27.3963 177.705 27.015 176.488 26.2955L175.47 28.017C177.049 28.9509 178.899 29.3963 180.978 29.3963V27.3963ZM176.495 26.2992C175.274 25.5656 174.329 24.5384 173.651 23.1914L171.864 24.0899C172.704 25.7599 173.906 27.0764 175.464 28.0133L176.495 26.2992ZM173.654 23.1974C172.985 21.8435 172.633 20.2238 172.633 18.3097H170.633C170.633 20.4694 171.031 22.4037 171.861 24.0838L173.654 23.1974ZM172.633 18.3097C172.633 16.4236 172.984 14.8057 173.656 13.4307L171.859 12.5523C171.032 14.2454 170.633 16.173 170.633 18.3097H172.633ZM173.654 13.4347C174.337 12.0534 175.274 10.9994 176.464 10.2432L175.392 8.55505C173.872 9.52052 172.695 10.8614 171.861 12.5483L173.654 13.4347ZM176.462 10.2448C177.646 9.49759 179.049 9.10795 180.71 9.10795V7.10795C178.722 7.10795 176.938 7.57911 175.394 8.55353L176.462 10.2448ZM180.71 9.10795C181.705 9.10795 182.666 9.27216 183.599 9.6008L184.264 7.71454C183.116 7.31023 181.93 7.10795 180.71 7.10795V9.10795ZM183.599 9.6008C184.501 9.91898 185.314 10.4184 186.043 11.1091L187.419 9.65796C186.494 8.78048 185.44 8.12931 184.264 7.71454L183.599 9.6008ZM186.043 11.1091C186.743 11.7733 187.319 12.6576 187.752 13.7949L189.621 13.0829C189.1 11.7146 188.372 10.5619 187.419 9.65796L186.043 11.1091ZM187.753 13.797C188.175 14.8957 188.403 16.2797 188.403 17.9773H190.403C190.403 16.1124 190.154 14.4708 189.62 13.0808L187.753 13.797ZM188.403 17.9773V19.3324H190.403V17.9773H188.403ZM189.403 18.3324H173.793V20.3324H189.403V18.3324ZM174.793 19.3324V16.4688H172.793V19.3324H174.793ZM173.793 17.4688H185.657V15.4688H173.793V17.4688ZM186.657 16.4688C186.657 15.3245 186.423 14.2696 185.928 13.3303L184.159 14.2634C184.482 14.8753 184.657 15.6016 184.657 16.4688H186.657ZM185.93 13.3343C185.438 12.392 184.738 11.6374 183.838 11.0892L182.797 12.7972C183.38 13.1523 183.83 13.6336 184.157 14.2594L185.93 13.3343ZM183.842 11.0919C182.929 10.5292 181.881 10.2656 180.735 10.2656V12.2656C181.566 12.2656 182.24 12.4537 182.793 12.7945L183.842 11.0919ZM180.735 10.2656C179.49 10.2656 178.356 10.5747 177.372 11.2235L178.473 12.893C179.092 12.4849 179.833 12.2656 180.735 12.2656V10.2656ZM177.374 11.2221C176.437 11.8367 175.706 12.6489 175.193 13.6457L176.971 14.5616C177.326 13.871 177.823 13.3196 178.471 12.8944L177.374 11.2221ZM175.191 13.6492C174.69 14.6316 174.442 15.696 174.442 16.8267H176.442C176.442 15.9972 176.621 15.2462 176.972 14.5582L175.191 13.6492ZM174.442 16.8267V19.0639H176.442V16.8267H174.442ZM174.442 19.0639C174.442 20.4902 174.692 21.7684 175.238 22.8606L177.027 21.9661C176.653 21.2174 176.442 20.2627 176.442 19.0639H174.442ZM175.242 22.8672C175.791 23.9466 176.573 24.7979 177.586 25.3871L178.592 23.6583C177.934 23.276 177.412 22.721 177.024 21.9596L175.242 22.8672ZM177.593 25.391C178.602 25.9676 179.754 26.2386 181.016 26.2386V24.2386C180.046 24.2386 179.246 24.0324 178.585 23.6545L177.593 25.391ZM181.016 26.2386C181.835 26.2386 182.607 26.123 183.322 25.8778L182.674 23.9859C182.196 24.1497 181.647 24.2386 181.016 24.2386V26.2386ZM183.334 25.8736C184.057 25.6154 184.696 25.2274 185.238 24.7069L183.852 23.2647C183.524 23.5794 183.132 23.8221 182.662 23.9901L183.334 25.8736ZM185.238 24.7069C185.789 24.1769 186.2 23.5312 186.478 22.79L184.606 22.0878C184.423 22.5739 184.17 22.9595 183.852 23.2647L185.238 24.7069ZM185.365 23.4231L188.982 24.0751L189.337 22.1068L185.719 21.4548L185.365 23.4231ZM188.195 22.8284C187.948 23.7374 187.508 24.5259 186.87 25.2072L188.33 26.5741C189.192 25.6531 189.792 24.5751 190.125 23.3534L188.195 22.8284ZM186.87 25.2075C186.241 25.8799 185.437 26.4189 184.434 26.8139L185.167 28.6747C186.414 28.1834 187.476 27.4866 188.33 26.5738L186.87 25.2075ZM184.438 26.8124C183.457 27.1942 182.309 27.3963 180.978 27.3963V29.3963C182.51 29.3963 183.911 29.1637 185.163 28.6762L184.438 26.8124ZM208.358 13.1577L208.533 14.1423L209.594 13.9544L209.327 12.9101L208.358 13.1577ZM204.894 13.7713L203.943 14.082L204.213 14.9074L205.068 14.756L204.894 13.7713ZM204.203 12.5057L203.41 13.1138L203.418 13.1242L204.203 12.5057ZM202.951 11.5213L203.386 10.6211L202.951 11.5213ZM198.259 11.8665L198.809 12.7016L198.816 12.697L198.259 11.8665ZM200.253 16.2898L200.023 17.263L200.03 17.2644L200.253 16.2898ZM203.373 17.0057L203.598 16.0314L203.596 16.031L203.373 17.0057ZM207.412 18.9361L206.712 19.65L207.412 18.9361ZM207.719 25.4688L206.916 24.8735L206.915 24.8748L207.719 25.4688ZM204.894 27.6165L204.499 26.6977L204.497 26.6987L204.894 27.6165ZM195.331 26.9901L194.768 27.8166L194.772 27.819L195.331 26.9901ZM192.775 22.9631L192.624 21.9745L191.607 22.1293L191.791 23.1415L192.775 22.9631ZM196.469 22.4006L197.442 22.1682L197.228 21.2735L196.319 21.412L196.469 22.4006ZM197.888 24.5866L197.32 25.4096L197.327 25.4141L197.888 24.5866ZM203.692 24.5355L204.262 25.3574L204.268 25.353L203.692 24.5355ZM204.127 21.0582L203.448 21.7925L203.455 21.7988L204.127 21.0582ZM202.043 20.1122L202.265 19.1371L202.257 19.1354L202.043 20.1122ZM198.719 19.3835L198.497 20.3586L198.505 20.3603L198.719 19.3835ZM194.654 17.3892L193.93 18.0792L193.933 18.0827L194.654 17.3892ZM194.321 10.8821L193.52 10.2846L194.321 10.8821ZM197.006 8.84943L197.397 9.76966L197.403 9.76715L197.006 8.84943ZM205.942 9.48864L205.339 10.2866L205.343 10.2893L205.942 9.48864ZM208.184 12.173L204.719 12.7866L205.068 14.756L208.533 14.1423L208.184 12.173ZM205.844 13.4606C205.66 12.896 205.37 12.3712 204.989 11.8871L203.418 13.1242C203.667 13.4413 203.838 13.7603 203.943 14.082L205.844 13.4606ZM204.997 11.8976C204.581 11.3542 204.032 10.9338 203.386 10.6211L202.515 12.4215C202.926 12.6202 203.212 12.856 203.41 13.1138L204.997 11.8976ZM203.386 10.6211C202.683 10.2809 201.862 10.1378 200.969 10.1378V12.1378C201.661 12.1378 202.161 12.2503 202.515 12.4215L203.386 10.6211ZM200.969 10.1378C199.736 10.1378 198.627 10.4157 197.702 11.0359L198.816 12.697C199.34 12.3457 200.037 12.1378 200.969 12.1378V10.1378ZM197.709 11.0314C196.751 11.6626 196.172 12.5725 196.172 13.7202H198.172C198.172 13.3508 198.318 13.0249 198.809 12.7015L197.709 11.0314ZM196.172 13.7202C196.172 14.6605 196.538 15.4774 197.265 16.0769L198.537 14.5339C198.293 14.3323 198.172 14.0924 198.172 13.7202H196.172ZM197.265 16.0769C197.927 16.6233 198.889 16.9952 200.023 17.263L200.483 15.3166C199.452 15.073 198.846 14.7887 198.537 14.5339L197.265 16.0769ZM200.03 17.2644L203.149 17.9803L203.596 16.031L200.477 15.3151L200.03 17.2644ZM203.147 17.98C204.857 18.3752 206.007 18.9581 206.712 19.65L208.113 18.2221C207.045 17.1754 205.501 16.4714 203.598 16.0314L203.147 17.98ZM206.712 19.65C207.383 20.3081 207.742 21.1682 207.742 22.3239H209.742C209.742 20.7011 209.214 19.3027 208.113 18.2221L206.712 19.65ZM207.742 22.3239C207.742 23.2918 207.466 24.1302 206.916 24.8735L208.523 26.064C209.336 24.9664 209.742 23.7082 209.742 22.3239H207.742ZM206.915 24.8748C206.363 25.6223 205.573 26.2363 204.499 26.6977L205.289 28.5353C206.635 27.9569 207.729 27.1391 208.524 26.0627L206.915 24.8748ZM204.497 26.6987C203.444 27.1542 202.19 27.3963 200.713 27.3963V29.3963C202.407 29.3963 203.94 29.1185 205.291 28.5343L204.497 26.6987ZM200.713 27.3963C198.653 27.3963 197.07 26.9571 195.891 26.1611L194.772 27.819C196.371 28.898 198.377 29.3963 200.713 29.3963V27.3963ZM195.894 26.1635C194.739 25.3768 194.029 24.2746 193.758 22.7846L191.791 23.1415C192.151 25.1288 193.145 26.7113 194.768 27.8166L195.894 26.1635ZM192.925 23.9517L196.62 23.3892L196.319 21.412L192.624 21.9745L192.925 23.9517ZM195.496 22.633C195.775 23.8005 196.373 24.7556 197.32 25.4095L198.456 23.7638C197.972 23.4291 197.623 22.9267 197.442 22.1682L195.496 22.633ZM197.327 25.4141C198.255 26.044 199.402 26.3153 200.688 26.3153V24.3153C199.673 24.3153 198.953 24.1009 198.45 23.7592L197.327 25.4141ZM200.688 26.3153C202.07 26.3153 203.293 26.0292 204.262 25.3574L203.122 23.7137C202.592 24.0816 201.811 24.3153 200.688 24.3153V26.3153ZM204.268 25.353C205.221 24.6818 205.817 23.7592 205.817 22.6051H203.817C203.817 22.9681 203.663 23.3324 203.116 23.718L204.268 25.353ZM205.817 22.6051C205.817 21.7053 205.465 20.9221 204.799 20.3177L203.455 21.7988C203.709 22.0296 203.817 22.2776 203.817 22.6051H205.817ZM204.806 20.324C204.172 19.7385 203.285 19.3691 202.265 19.1371L201.821 21.0873C202.676 21.2815 203.178 21.5428 203.448 21.7925L204.806 20.324ZM202.257 19.1354L198.933 18.4067L198.505 20.3603L201.829 21.089L202.257 19.1354ZM198.941 18.4085C197.212 18.0145 196.066 17.4146 195.374 16.6957L193.933 18.0827C194.997 19.1876 196.561 19.9174 198.497 20.3585L198.941 18.4085ZM195.378 16.6992C194.706 15.9943 194.35 15.0961 194.35 13.9247H192.35C192.35 15.5488 192.863 16.9603 193.93 18.0792L195.378 16.6992ZM194.35 13.9247C194.35 12.9651 194.613 12.164 195.123 11.4796L193.52 10.2846C192.734 11.3389 192.35 12.5662 192.35 13.9247H194.35ZM195.123 11.4796C195.651 10.7718 196.394 10.1963 197.397 9.76964L196.615 7.92922C195.334 8.47414 194.288 9.25374 193.52 10.2846L195.123 11.4796ZM197.403 9.76715C198.399 9.33619 199.568 9.10795 200.931 9.10795V7.10795C199.345 7.10795 197.897 7.37404 196.609 7.93171L197.403 9.76715ZM200.931 9.10795C202.918 9.10795 204.351 9.53973 205.339 10.2866L206.545 8.69065C205.096 7.59663 203.187 7.10795 200.931 7.10795V9.10795ZM205.343 10.2893C206.371 11.0587 207.051 12.0827 207.389 13.4053L209.327 12.9101C208.881 11.1644 207.951 9.74248 206.541 8.68796L205.343 10.2893Z" fill="#666666" mask="url(#path-1-outside-1_140_37)"/>
</svg>
