<svg width="185" height="43" viewBox="0 0 185 43" fill="none" xmlns="http://www.w3.org/2000/svg">
<rect width="185" height="43" rx="21.5" fill="#1C1C1C"/>
<path d="M30.5568 31V7.72727H38.8523C40.6553 7.72727 42.1515 8.03788 43.3409 8.65909C44.5379 9.2803 45.4318 10.1402 46.0227 11.2386C46.6136 12.3295 46.9091 13.5909 46.9091 15.0227C46.9091 16.447 46.6098 17.7008 46.0114 18.7841C45.4205 19.8598 44.5265 20.697 43.3295 21.2955C42.1402 21.8939 40.6439 22.1932 38.8409 22.1932H32.5568V19.1705H38.5227C39.6591 19.1705 40.5833 19.0076 41.2955 18.6818C42.0152 18.3561 42.5417 17.8826 42.875 17.2614C43.2083 16.6402 43.375 15.8939 43.375 15.0227C43.375 14.1439 43.2045 13.3826 42.8636 12.7386C42.5303 12.0947 42.0038 11.6023 41.2841 11.2614C40.572 10.9129 39.6364 10.7386 38.4773 10.7386H34.0682V31H30.5568ZM42.0455 20.5L47.7955 31H43.7955L38.1591 20.5H42.0455ZM58.2131 31.3523C56.4934 31.3523 55.0123 30.9848 53.7699 30.25C52.535 29.5076 51.5805 28.4659 50.9062 27.125C50.2396 25.7765 49.9062 24.197 49.9062 22.3864C49.9062 20.5985 50.2396 19.0227 50.9062 17.6591C51.5805 16.2955 52.5199 15.2311 53.7244 14.4659C54.9366 13.7008 56.3532 13.3182 57.9744 13.3182C58.9593 13.3182 59.9138 13.4811 60.8381 13.8068C61.7623 14.1326 62.5919 14.6439 63.3267 15.3409C64.0616 16.0379 64.6411 16.9432 65.0653 18.0568C65.4896 19.1629 65.7017 20.5076 65.7017 22.0909V23.2955H51.8267V20.75H62.3722C62.3722 19.8561 62.1903 19.0644 61.8267 18.375C61.4631 17.678 60.9517 17.1288 60.2926 16.7273C59.6411 16.3258 58.8759 16.125 57.9972 16.125C57.0426 16.125 56.2093 16.3598 55.4972 16.8295C54.7926 17.2917 54.2472 17.8977 53.8608 18.6477C53.482 19.3902 53.2926 20.197 53.2926 21.0682V23.0568C53.2926 24.2235 53.4972 25.2159 53.9062 26.0341C54.3229 26.8523 54.9025 27.4773 55.6449 27.9091C56.3873 28.3333 57.2547 28.5455 58.2472 28.5455C58.8911 28.5455 59.4782 28.4545 60.0085 28.2727C60.5388 28.0833 60.9972 27.803 61.3835 27.4318C61.7699 27.0606 62.0653 26.6023 62.2699 26.0568L65.4858 26.6364C65.2282 27.5833 64.7661 28.4129 64.0994 29.125C63.4403 29.8295 62.6108 30.3788 61.6108 30.7727C60.6184 31.1591 59.4858 31.3523 58.2131 31.3523ZM76.7898 37.9091C75.4034 37.9091 74.2102 37.7273 73.2102 37.3636C72.2178 37 71.4072 36.5189 70.7784 35.9205C70.1496 35.322 69.6799 34.6667 69.3693 33.9545L72.2898 32.75C72.4943 33.0833 72.767 33.4356 73.108 33.8068C73.4564 34.1856 73.9261 34.5076 74.517 34.7727C75.1155 35.0379 75.8845 35.1705 76.8239 35.1705C78.1117 35.1705 79.1761 34.8561 80.017 34.2273C80.858 33.6061 81.2784 32.6136 81.2784 31.25V27.8182H81.0625C80.858 28.1894 80.5625 28.6023 80.1761 29.0568C79.7973 29.5114 79.2746 29.9053 78.608 30.2386C77.9413 30.572 77.0739 30.7386 76.0057 30.7386C74.6269 30.7386 73.3845 30.4167 72.2784 29.7727C71.1799 29.1212 70.3087 28.1629 69.6648 26.8977C69.0284 25.625 68.7102 24.0606 68.7102 22.2045C68.7102 20.3485 69.0246 18.7576 69.6534 17.4318C70.2898 16.1061 71.161 15.0909 72.267 14.3864C73.3731 13.6742 74.6269 13.3182 76.0284 13.3182C77.1117 13.3182 77.9867 13.5 78.6534 13.8636C79.3201 14.2197 79.839 14.6364 80.2102 15.1136C80.589 15.5909 80.8807 16.0114 81.0852 16.375H81.3352V13.5455H84.6648V31.3864C84.6648 32.8864 84.3163 34.1174 83.6193 35.0795C82.9223 36.0417 81.9792 36.7538 80.7898 37.2159C79.608 37.678 78.2746 37.9091 76.7898 37.9091ZM76.7557 27.9205C77.733 27.9205 78.5587 27.6932 79.233 27.2386C79.9148 26.7765 80.4299 26.1174 80.7784 25.2614C81.1345 24.3977 81.3125 23.3636 81.3125 22.1591C81.3125 20.9848 81.1383 19.9508 80.7898 19.0568C80.4413 18.1629 79.9299 17.4659 79.2557 16.9659C78.5814 16.4583 77.7481 16.2045 76.7557 16.2045C75.733 16.2045 74.8807 16.4697 74.1989 17C73.517 17.5227 73.0019 18.2348 72.6534 19.1364C72.3125 20.0379 72.142 21.0455 72.142 22.1591C72.142 23.303 72.3163 24.3068 72.6648 25.1705C73.0133 26.0341 73.5284 26.7083 74.2102 27.1932C74.8996 27.678 75.7481 27.9205 76.7557 27.9205ZM89.2216 31V13.5455H92.6193V31H89.2216ZM90.9375 10.8523C90.3466 10.8523 89.839 10.6553 89.4148 10.2614C88.9981 9.85985 88.7898 9.38257 88.7898 8.82954C88.7898 8.26894 88.9981 7.79167 89.4148 7.39773C89.839 6.99621 90.3466 6.79545 90.9375 6.79545C91.5284 6.79545 92.0322 6.99621 92.4489 7.39773C92.8731 7.79167 93.0852 8.26894 93.0852 8.82954C93.0852 9.38257 92.8731 9.85985 92.4489 10.2614C92.0322 10.6553 91.5284 10.8523 90.9375 10.8523ZM110.27 17.8068L107.19 18.3523C107.062 17.9583 106.857 17.5833 106.577 17.2273C106.304 16.8712 105.933 16.5795 105.463 16.3523C104.993 16.125 104.406 16.0114 103.702 16.0114C102.74 16.0114 101.937 16.2273 101.293 16.6591C100.649 17.0833 100.327 17.6326 100.327 18.3068C100.327 18.8902 100.543 19.3598 100.974 19.7159C101.406 20.072 102.103 20.3636 103.065 20.5909L105.838 21.2273C107.444 21.5985 108.641 22.1705 109.429 22.9432C110.217 23.7159 110.611 24.7197 110.611 25.9545C110.611 27 110.308 27.9318 109.702 28.75C109.103 29.5606 108.266 30.197 107.19 30.6591C106.122 31.1212 104.884 31.3523 103.474 31.3523C101.52 31.3523 99.9252 30.9356 98.6903 30.1023C97.4555 29.2614 96.6979 28.0682 96.4176 26.5227L99.7017 26.0227C99.9063 26.8788 100.327 27.5265 100.963 27.9659C101.599 28.3977 102.429 28.6136 103.452 28.6136C104.565 28.6136 105.455 28.3826 106.122 27.9205C106.789 27.4508 107.122 26.8788 107.122 26.2045C107.122 25.6591 106.918 25.2008 106.509 24.8295C106.107 24.4583 105.49 24.178 104.656 23.9886L101.702 23.3409C100.073 22.9697 98.8684 22.3788 98.0881 21.5682C97.3153 20.7576 96.929 19.7311 96.929 18.4886C96.929 17.4583 97.2169 16.5568 97.7926 15.7841C98.3684 15.0114 99.1638 14.4091 100.179 13.9773C101.194 13.5379 102.357 13.3182 103.668 13.3182C105.554 13.3182 107.039 13.7273 108.122 14.5455C109.205 15.3561 109.921 16.4432 110.27 17.8068ZM122.494 13.5455V16.2727H112.96V13.5455H122.494ZM115.517 9.36364H118.915V25.875C118.915 26.5341 119.013 27.0303 119.21 27.3636C119.407 27.6894 119.661 27.9129 119.972 28.0341C120.29 28.1477 120.634 28.2045 121.006 28.2045C121.278 28.2045 121.517 28.1856 121.722 28.1477C121.926 28.1098 122.085 28.0795 122.199 28.0568L122.812 30.8636C122.616 30.9394 122.335 31.0152 121.972 31.0909C121.608 31.1742 121.153 31.2197 120.608 31.2273C119.714 31.2424 118.881 31.0833 118.108 30.75C117.335 30.4167 116.71 29.9015 116.233 29.2045C115.756 28.5076 115.517 27.6326 115.517 26.5795V9.36364ZM133.588 31.3523C131.868 31.3523 130.387 30.9848 129.145 30.25C127.91 29.5076 126.955 28.4659 126.281 27.125C125.615 25.7765 125.281 24.197 125.281 22.3864C125.281 20.5985 125.615 19.0227 126.281 17.6591C126.955 16.2955 127.895 15.2311 129.099 14.4659C130.312 13.7008 131.728 13.3182 133.349 13.3182C134.334 13.3182 135.289 13.4811 136.213 13.8068C137.137 14.1326 137.967 14.6439 138.702 15.3409C139.437 16.0379 140.016 16.9432 140.44 18.0568C140.865 19.1629 141.077 20.5076 141.077 22.0909V23.2955H127.202V20.75H137.747C137.747 19.8561 137.565 19.0644 137.202 18.375C136.838 17.678 136.327 17.1288 135.668 16.7273C135.016 16.3258 134.251 16.125 133.372 16.125C132.418 16.125 131.584 16.3598 130.872 16.8295C130.168 17.2917 129.622 17.8977 129.236 18.6477C128.857 19.3902 128.668 20.197 128.668 21.0682V23.0568C128.668 24.2235 128.872 25.2159 129.281 26.0341C129.698 26.8523 130.277 27.4773 131.02 27.9091C131.762 28.3333 132.63 28.5455 133.622 28.5455C134.266 28.5455 134.853 28.4545 135.384 28.2727C135.914 28.0833 136.372 27.803 136.759 27.4318C137.145 27.0606 137.44 26.6023 137.645 26.0568L140.861 26.6364C140.603 27.5833 140.141 28.4129 139.474 29.125C138.815 29.8295 137.986 30.3788 136.986 30.7727C135.993 31.1591 134.861 31.3523 133.588 31.3523ZM144.847 31V13.5455H148.131V16.3182H148.312C148.631 15.3788 149.191 14.6402 149.994 14.1023C150.805 13.5568 151.722 13.2841 152.744 13.2841C152.956 13.2841 153.206 13.2917 153.494 13.3068C153.79 13.322 154.021 13.3409 154.188 13.3636V16.6136C154.051 16.5758 153.809 16.5341 153.46 16.4886C153.112 16.4356 152.763 16.4091 152.415 16.4091C151.612 16.4091 150.896 16.5795 150.267 16.9205C149.646 17.2538 149.153 17.7197 148.79 18.3182C148.426 18.9091 148.244 19.5833 148.244 20.3409V31H144.847Z" fill="#5BBCFF"/>
</svg>
