<svg width="121" height="24" viewBox="0 0 121 24" fill="none" xmlns="http://www.w3.org/2000/svg">
<path d="M0.321023 1.54545H5.54545L9.97727 12.3523H10.1818L14.6136 1.54545H19.8381V19H15.7301V8.27841H15.5852L11.392 18.8892H8.76705L4.57386 8.21875H4.42898V19H0.321023V1.54545ZM26.1598 19.2216C25.3246 19.2216 24.5831 19.0824 23.9354 18.804C23.2933 18.5199 22.7848 18.0937 22.4098 17.5256C22.0405 16.9517 21.8558 16.233 21.8558 15.3693C21.8558 14.642 21.9837 14.0284 22.2393 13.5284C22.495 13.0284 22.8473 12.6222 23.2962 12.3097C23.745 11.9972 24.2621 11.7614 24.8473 11.6023C25.4325 11.4375 26.0575 11.3267 26.7223 11.2699C27.4666 11.2017 28.0661 11.1307 28.5206 11.0568C28.9751 10.9773 29.3047 10.8665 29.5092 10.7244C29.7195 10.5767 29.8246 10.3693 29.8246 10.1023V10.0597C29.8246 9.62216 29.674 9.28409 29.3729 9.04545C29.0717 8.80682 28.6655 8.6875 28.1541 8.6875C27.603 8.6875 27.1598 8.80682 26.8246 9.04545C26.4893 9.28409 26.2763 9.61364 26.1854 10.0341L22.3416 9.89773C22.4553 9.10227 22.7479 8.39205 23.2195 7.76705C23.6967 7.13636 24.3501 6.64205 25.1797 6.28409C26.0149 5.92045 27.0178 5.73864 28.1882 5.73864C29.0234 5.73864 29.7933 5.83807 30.4979 6.03693C31.2024 6.23011 31.8161 6.5142 32.3388 6.8892C32.8615 7.25852 33.2649 7.71307 33.549 8.25284C33.8388 8.79261 33.9837 9.40909 33.9837 10.1023V19H30.0632V17.1761H29.9609C29.728 17.6193 29.4297 17.9943 29.0661 18.3011C28.7081 18.608 28.2848 18.8381 27.7962 18.9915C27.3132 19.1449 26.7678 19.2216 26.1598 19.2216ZM27.4467 16.4943C27.8956 16.4943 28.299 16.4034 28.657 16.2216C29.0206 16.0398 29.3104 15.7898 29.5263 15.4716C29.7422 15.1477 29.8501 14.7727 29.8501 14.3466V13.1023C29.7308 13.1648 29.5859 13.2216 29.4155 13.2727C29.2507 13.3239 29.0689 13.3722 28.87 13.4176C28.6712 13.4631 28.4666 13.5028 28.2564 13.5369C28.0462 13.571 27.8445 13.6023 27.6513 13.6307C27.2592 13.6932 26.924 13.7898 26.6456 13.9205C26.3729 14.0511 26.1626 14.2216 26.0149 14.4318C25.8729 14.6364 25.8018 14.8807 25.8018 15.1648C25.8018 15.5966 25.9553 15.9261 26.2621 16.1534C26.5746 16.3807 26.9695 16.4943 27.4467 16.4943ZM45.0803 23.9091V16.8778H44.995C44.8189 17.2812 44.5689 17.6591 44.245 18.0114C43.9212 18.3636 43.5149 18.6477 43.0263 18.8636C42.5433 19.0795 41.9723 19.1875 41.3132 19.1875C40.3473 19.1875 39.4695 18.9375 38.6797 18.4375C37.8899 17.9375 37.2592 17.1875 36.7876 16.1875C36.3161 15.1875 36.0803 13.946 36.0803 12.4631C36.0803 10.9233 36.3246 9.65625 36.8132 8.66193C37.3018 7.66761 37.9411 6.93182 38.7308 6.45454C39.5263 5.97727 40.3814 5.73864 41.2962 5.73864C41.9837 5.73864 42.5717 5.85795 43.0604 6.09659C43.549 6.32955 43.9524 6.63068 44.2706 7C44.5888 7.36932 44.8303 7.75284 44.995 8.15057H45.1229V5.90909H49.2479V23.9091H45.0803ZM42.7621 15.9403C43.2678 15.9403 43.6996 15.7983 44.0575 15.5142C44.4155 15.2244 44.6911 14.8182 44.8842 14.2955C45.0774 13.7727 45.174 13.1591 45.174 12.4545C45.174 11.7386 45.0774 11.1222 44.8842 10.6051C44.6967 10.0881 44.4212 9.69034 44.0575 9.41193C43.6996 9.13352 43.2678 8.99432 42.7621 8.99432C42.245 8.99432 41.8075 9.13636 41.4496 9.42045C41.0916 9.70455 40.8189 10.1051 40.6314 10.6222C40.4496 11.1392 40.3587 11.75 40.3587 12.4545C40.3587 13.1591 40.4524 13.7727 40.6399 14.2955C40.8274 14.8182 41.0973 15.2244 41.4496 15.5142C41.8075 15.7983 42.245 15.9403 42.7621 15.9403ZM60.3295 13.3494V5.90909H64.4886V19H60.517V16.5625H60.3807C60.0909 17.3636 59.5966 18 58.8977 18.4716C58.2045 18.9375 57.3665 19.1705 56.3835 19.1705C55.4915 19.1705 54.7074 18.9659 54.0312 18.5568C53.3551 18.1477 52.8295 17.5767 52.4545 16.8438C52.0795 16.1051 51.8892 15.2415 51.8835 14.2528V5.90909H56.0511V13.4347C56.0568 14.1449 56.2443 14.7045 56.6136 15.1136C56.983 15.5227 57.4858 15.7273 58.1222 15.7273C58.5369 15.7273 58.9091 15.6364 59.2386 15.4545C59.5739 15.267 59.8381 14.9972 60.0312 14.6449C60.2301 14.2869 60.3295 13.8551 60.3295 13.3494ZM67.1413 19V5.90909H71.3089V19H67.1413ZM69.2294 4.38352C68.6442 4.38352 68.1413 4.19034 67.7209 3.80398C67.3004 3.41193 67.0902 2.94034 67.0902 2.3892C67.0902 1.84375 67.3004 1.37784 67.7209 0.991477C68.1413 0.599431 68.6442 0.403408 69.2294 0.403408C69.8203 0.403408 70.3232 0.599431 70.7379 0.991477C71.1584 1.37784 71.3686 1.84375 71.3686 2.3892C71.3686 2.94034 71.1584 3.41193 70.7379 3.80398C70.3232 4.19034 69.8203 4.38352 69.2294 4.38352ZM78.1293 1.54545V19H73.9616V1.54545H78.1293ZM84.9496 1.54545V19H80.782V1.54545H84.9496ZM91.2926 19.2216C90.4574 19.2216 89.7159 19.0824 89.0682 18.804C88.4261 18.5199 87.9176 18.0937 87.5426 17.5256C87.1733 16.9517 86.9886 16.233 86.9886 15.3693C86.9886 14.642 87.1165 14.0284 87.3722 13.5284C87.6278 13.0284 87.9801 12.6222 88.429 12.3097C88.8778 11.9972 89.3949 11.7614 89.9801 11.6023C90.5653 11.4375 91.1903 11.3267 91.8551 11.2699C92.5994 11.2017 93.1989 11.1307 93.6534 11.0568C94.108 10.9773 94.4375 10.8665 94.642 10.7244C94.8523 10.5767 94.9574 10.3693 94.9574 10.1023V10.0597C94.9574 9.62216 94.8068 9.28409 94.5057 9.04545C94.2045 8.80682 93.7983 8.6875 93.2869 8.6875C92.7358 8.6875 92.2926 8.80682 91.9574 9.04545C91.6222 9.28409 91.4091 9.61364 91.3182 10.0341L87.4744 9.89773C87.5881 9.10227 87.8807 8.39205 88.3523 7.76705C88.8295 7.13636 89.483 6.64205 90.3125 6.28409C91.1477 5.92045 92.1506 5.73864 93.321 5.73864C94.1563 5.73864 94.9261 5.83807 95.6307 6.03693C96.3352 6.23011 96.9489 6.5142 97.4716 6.8892C97.9943 7.25852 98.3977 7.71307 98.6818 8.25284C98.9716 8.79261 99.1165 9.40909 99.1165 10.1023V19H95.196V17.1761H95.0938C94.8608 17.6193 94.5625 17.9943 94.1989 18.3011C93.8409 18.608 93.4176 18.8381 92.929 18.9915C92.446 19.1449 91.9006 19.2216 91.2926 19.2216ZM92.5795 16.4943C93.0284 16.4943 93.4318 16.4034 93.7898 16.2216C94.1534 16.0398 94.4432 15.7898 94.6591 15.4716C94.875 15.1477 94.983 14.7727 94.983 14.3466V13.1023C94.8636 13.1648 94.7188 13.2216 94.5483 13.2727C94.3835 13.3239 94.2017 13.3722 94.0028 13.4176C93.804 13.4631 93.5994 13.5028 93.3892 13.5369C93.179 13.571 92.9773 13.6023 92.7841 13.6307C92.392 13.6932 92.0568 13.7898 91.7784 13.9205C91.5057 14.0511 91.2955 14.2216 91.1477 14.4318C91.0057 14.6364 90.9347 14.8807 90.9347 15.1648C90.9347 15.5966 91.0881 15.9261 91.3949 16.1534C91.7074 16.3807 92.1023 16.4943 92.5795 16.4943ZM101.665 5.90909H105.832V19.5455C105.832 20.625 105.611 21.483 105.168 22.1193C104.73 22.7557 104.111 23.2131 103.31 23.4915C102.509 23.7699 101.563 23.9091 100.472 23.9091C100.324 23.9091 100.185 23.9063 100.054 23.9006C99.9233 23.8949 99.7812 23.8892 99.6278 23.8835V20.7216C99.7301 20.733 99.821 20.7415 99.9006 20.7472C99.9801 20.7528 100.06 20.7557 100.139 20.7557C100.713 20.7557 101.111 20.6477 101.332 20.4318C101.554 20.2216 101.665 19.8977 101.665 19.4602V5.90909ZM103.744 4.38352C103.159 4.38352 102.656 4.19034 102.236 3.80398C101.815 3.41193 101.605 2.94034 101.605 2.3892C101.605 1.84375 101.815 1.37784 102.236 0.991477C102.656 0.599431 103.159 0.403408 103.744 0.403408C104.335 0.403408 104.838 0.599431 105.253 0.991477C105.673 1.37784 105.884 1.84375 105.884 2.3892C105.884 2.94034 105.673 3.41193 105.253 3.80398C104.838 4.19034 104.335 4.38352 103.744 4.38352ZM114.604 19.2472C113.235 19.2472 112.053 18.9773 111.059 18.4375C110.07 17.892 109.309 17.1165 108.775 16.1108C108.246 15.0994 107.982 13.8977 107.982 12.5057C107.982 11.1534 108.249 9.97159 108.783 8.96023C109.317 7.94318 110.07 7.15341 111.042 6.59091C112.013 6.02273 113.158 5.73864 114.477 5.73864C115.408 5.73864 116.261 5.88352 117.033 6.17329C117.806 6.46307 118.474 6.89205 119.036 7.46023C119.599 8.02841 120.036 8.73011 120.349 9.56534C120.661 10.3949 120.817 11.3466 120.817 12.4205V13.4602H109.44V11.0398H116.94C116.934 10.5966 116.829 10.2017 116.624 9.85511C116.42 9.50852 116.138 9.23864 115.781 9.04545C115.428 8.84659 115.022 8.74716 114.562 8.74716C114.096 8.74716 113.678 8.85227 113.309 9.0625C112.94 9.26705 112.647 9.5483 112.431 9.90625C112.215 10.2585 112.102 10.6591 112.09 11.108V13.571C112.09 14.1051 112.195 14.5739 112.406 14.9773C112.616 15.375 112.914 15.6847 113.3 15.9062C113.687 16.1278 114.147 16.2386 114.681 16.2386C115.05 16.2386 115.386 16.1875 115.687 16.0852C115.988 15.983 116.246 15.8324 116.462 15.6335C116.678 15.4347 116.84 15.1903 116.948 14.9006L120.775 15.0114C120.616 15.8693 120.266 16.6165 119.727 17.2528C119.192 17.8835 118.491 18.375 117.621 18.7273C116.752 19.0739 115.746 19.2472 114.604 19.2472Z" fill="black"/>
</svg>
