<svg width="101" height="19" viewBox="0 0 101 19" fill="none" xmlns="http://www.w3.org/2000/svg">
<path d="M0.75 3.97159V0.545454H15.5028V3.97159H10.2102V18H6.05114V3.97159H0.75ZM19.4723 18.2216C18.6371 18.2216 17.8956 18.0824 17.2479 17.804C16.6058 17.5199 16.0973 17.0937 15.7223 16.5256C15.353 15.9517 15.1683 15.233 15.1683 14.3693C15.1683 13.642 15.2962 13.0284 15.5518 12.5284C15.8075 12.0284 16.1598 11.6222 16.6087 11.3097C17.0575 10.9972 17.5746 10.7614 18.1598 10.6023C18.745 10.4375 19.37 10.3267 20.0348 10.2699C20.7791 10.2017 21.3786 10.1307 21.8331 10.0568C22.2876 9.97727 22.6172 9.86648 22.8217 9.72443C23.032 9.5767 23.1371 9.36932 23.1371 9.10227V9.05966C23.1371 8.62216 22.9865 8.28409 22.6854 8.04545C22.3842 7.80682 21.978 7.6875 21.4666 7.6875C20.9155 7.6875 20.4723 7.80682 20.1371 8.04545C19.8018 8.28409 19.5888 8.61364 19.4979 9.03409L15.6541 8.89773C15.7678 8.10227 16.0604 7.39205 16.532 6.76705C17.0092 6.13636 17.6626 5.64205 18.4922 5.28409C19.3274 4.92045 20.3303 4.73864 21.5007 4.73864C22.3359 4.73864 23.1058 4.83807 23.8104 5.03693C24.5149 5.23011 25.1286 5.5142 25.6513 5.8892C26.174 6.25852 26.5774 6.71307 26.8615 7.25284C27.1513 7.79261 27.2962 8.40909 27.2962 9.10227V18H23.3757V16.1761H23.2734C23.0405 16.6193 22.7422 16.9943 22.3786 17.3011C22.0206 17.608 21.5973 17.8381 21.1087 17.9915C20.6257 18.1449 20.0803 18.2216 19.4723 18.2216ZM20.7592 15.4943C21.2081 15.4943 21.6115 15.4034 21.9695 15.2216C22.3331 15.0398 22.6229 14.7898 22.8388 14.4716C23.0547 14.1477 23.1626 13.7727 23.1626 13.3466V12.1023C23.0433 12.1648 22.8984 12.2216 22.728 12.2727C22.5632 12.3239 22.3814 12.3722 22.1825 12.4176C21.9837 12.4631 21.7791 12.5028 21.5689 12.5369C21.3587 12.571 21.157 12.6023 20.9638 12.6307C20.5717 12.6932 20.2365 12.7898 19.9581 12.9205C19.6854 13.0511 19.4751 13.2216 19.3274 13.4318C19.1854 13.6364 19.1143 13.8807 19.1143 14.1648C19.1143 14.5966 19.2678 14.9261 19.5746 15.1534C19.8871 15.3807 20.282 15.4943 20.7592 15.4943ZM35.9553 18.2472C34.5746 18.2472 33.3899 17.9631 32.4013 17.3949C31.4183 16.8267 30.6626 16.0369 30.1342 15.0256C29.6058 14.0085 29.3416 12.8324 29.3416 11.4972C29.3416 10.1562 29.6058 8.98011 30.1342 7.96875C30.6683 6.9517 31.4268 6.15909 32.4098 5.59091C33.3984 5.02273 34.5774 4.73864 35.9467 4.73864C37.157 4.73864 38.2109 4.95739 39.1087 5.39489C40.0121 5.83239 40.7166 6.4517 41.2223 7.25284C41.7337 8.0483 42.0036 8.98295 42.032 10.0568H38.1371C38.0575 9.38636 37.8303 8.8608 37.4553 8.48011C37.0859 8.09943 36.603 7.90909 36.0064 7.90909C35.5234 7.90909 35.1001 8.04545 34.7365 8.31818C34.3729 8.58523 34.0888 8.98295 33.8842 9.51136C33.6854 10.0341 33.5859 10.6818 33.5859 11.4545C33.5859 12.2273 33.6854 12.8807 33.8842 13.4148C34.0888 13.9432 34.3729 14.3437 34.7365 14.6165C35.1001 14.8835 35.5234 15.017 36.0064 15.017C36.3928 15.017 36.7337 14.9347 37.0291 14.7699C37.3303 14.6051 37.5774 14.3636 37.7706 14.0455C37.9638 13.7216 38.0859 13.3295 38.1371 12.8693H42.032C41.9922 13.9489 41.7223 14.892 41.2223 15.6989C40.728 16.5057 40.032 17.1335 39.1342 17.5824C38.2422 18.0256 37.1825 18.2472 35.9553 18.2472ZM50.2756 18.2472C48.9006 18.2472 47.7188 17.9659 46.7301 17.4034C45.7472 16.8352 44.9886 16.0455 44.4545 15.0341C43.9261 14.017 43.6619 12.8381 43.6619 11.4972C43.6619 10.1506 43.9261 8.97159 44.4545 7.96023C44.9886 6.94318 45.7472 6.15341 46.7301 5.59091C47.7188 5.02273 48.9006 4.73864 50.2756 4.73864C51.6506 4.73864 52.8295 5.02273 53.8125 5.59091C54.8011 6.15341 55.5597 6.94318 56.0881 7.96023C56.6222 8.97159 56.8892 10.1506 56.8892 11.4972C56.8892 12.8381 56.6222 14.017 56.0881 15.0341C55.5597 16.0455 54.8011 16.8352 53.8125 17.4034C52.8295 17.9659 51.6506 18.2472 50.2756 18.2472ZM50.3011 15.1023C50.8011 15.1023 51.2244 14.9489 51.571 14.642C51.9176 14.3352 52.1818 13.9091 52.3636 13.3636C52.5511 12.8182 52.6449 12.1875 52.6449 11.4716C52.6449 10.7443 52.5511 10.108 52.3636 9.5625C52.1818 9.01705 51.9176 8.59091 51.571 8.28409C51.2244 7.97727 50.8011 7.82386 50.3011 7.82386C49.7841 7.82386 49.3466 7.97727 48.9886 8.28409C48.6364 8.59091 48.3665 9.01705 48.179 9.5625C47.9972 10.108 47.9062 10.7443 47.9062 11.4716C47.9062 12.1875 47.9972 12.8182 48.179 13.3636C48.3665 13.9091 48.6364 14.3352 48.9886 14.642C49.3466 14.9489 49.7841 15.1023 50.3011 15.1023ZM63.1918 10.5341V18H59.0241V4.90909H62.9872V7.3125H63.1321C63.4219 6.51136 63.9162 5.88352 64.6151 5.42898C65.3139 4.96875 66.1463 4.73864 67.1122 4.73864C68.0327 4.73864 68.831 4.94602 69.5071 5.36079C70.1889 5.76989 70.7173 6.34375 71.0923 7.08239C71.473 7.81534 71.6605 8.6733 71.6548 9.65625V18H67.4872V10.4744C67.4929 9.74716 67.3082 9.17898 66.9332 8.76989C66.5639 8.3608 66.0497 8.15625 65.3906 8.15625C64.9531 8.15625 64.5668 8.25284 64.2315 8.44602C63.902 8.63352 63.6463 8.90341 63.4645 9.25568C63.2884 9.60795 63.1974 10.0341 63.1918 10.5341ZM80.3544 18.2472C78.9851 18.2472 77.8033 17.9773 76.8089 17.4375C75.8203 16.892 75.0589 16.1165 74.5249 15.1108C73.9964 14.0994 73.7322 12.8977 73.7322 11.5057C73.7322 10.1534 73.9993 8.97159 74.5334 7.96023C75.0675 6.94318 75.8203 6.15341 76.7919 5.59091C77.7635 5.02273 78.9084 4.73864 80.2266 4.73864C81.1584 4.73864 82.0107 4.88352 82.7834 5.17329C83.5561 5.46307 84.2237 5.89205 84.7862 6.46023C85.3487 7.02841 85.7862 7.73011 86.0987 8.56534C86.4112 9.39489 86.5675 10.3466 86.5675 11.4205V12.4602H75.1896V10.0398H82.6896C82.6839 9.59659 82.5788 9.2017 82.3743 8.85511C82.1697 8.50852 81.8885 8.23864 81.5305 8.04545C81.1783 7.84659 80.772 7.74716 80.3118 7.74716C79.8459 7.74716 79.4283 7.85227 79.0589 8.0625C78.6896 8.26705 78.397 8.5483 78.1811 8.90625C77.9652 9.25852 77.8516 9.65909 77.8402 10.108V12.571C77.8402 13.1051 77.9453 13.5739 78.1555 13.9773C78.3658 14.375 78.6641 14.6847 79.0504 14.9062C79.4368 15.1278 79.897 15.2386 80.4311 15.2386C80.8004 15.2386 81.1357 15.1875 81.4368 15.0852C81.7379 14.983 81.9964 14.8324 82.2124 14.6335C82.4283 14.4347 82.5902 14.1903 82.6982 13.9006L86.5249 14.0114C86.3658 14.8693 86.0163 15.6165 85.4766 16.2528C84.9425 16.8835 84.2408 17.375 83.3714 17.7273C82.5021 18.0739 81.4964 18.2472 80.3544 18.2472ZM100.125 8.90625L96.2983 9.00852C96.2585 8.7358 96.1506 8.49432 95.9744 8.28409C95.7983 8.06818 95.5682 7.90057 95.2841 7.78125C95.0057 7.65625 94.6818 7.59375 94.3125 7.59375C93.8295 7.59375 93.4176 7.69034 93.0767 7.88352C92.7415 8.0767 92.5767 8.33807 92.5824 8.66761C92.5767 8.9233 92.679 9.14489 92.8892 9.33239C93.1051 9.51989 93.4886 9.67045 94.0398 9.78409L96.5625 10.2614C97.8693 10.5114 98.8409 10.9261 99.4773 11.5057C100.119 12.0852 100.443 12.8523 100.449 13.8068C100.443 14.7045 100.176 15.4858 99.6477 16.1506C99.125 16.8153 98.4091 17.3324 97.5 17.7017C96.5909 18.0653 95.5511 18.2472 94.3807 18.2472C92.5114 18.2472 91.0369 17.8636 89.9574 17.0966C88.8835 16.3239 88.2699 15.2898 88.1165 13.9943L92.233 13.892C92.3239 14.3693 92.5597 14.733 92.9403 14.983C93.321 15.233 93.8068 15.358 94.3977 15.358C94.9318 15.358 95.3665 15.2585 95.7017 15.0597C96.0369 14.8608 96.2074 14.5966 96.2131 14.267C96.2074 13.9716 96.0767 13.7358 95.821 13.5597C95.5653 13.3778 95.1648 13.2358 94.6193 13.1335L92.3352 12.6989C91.0227 12.4602 90.0455 12.0199 89.4034 11.3778C88.7614 10.7301 88.4432 9.90625 88.4489 8.90625C88.4432 8.03125 88.6761 7.28409 89.1477 6.66477C89.6193 6.03977 90.2898 5.5625 91.1591 5.23295C92.0284 4.90341 93.054 4.73864 94.2358 4.73864C96.0085 4.73864 97.4063 5.1108 98.429 5.85511C99.4517 6.59375 100.017 7.6108 100.125 8.90625Z" fill="black"/>
</svg>
