<svg width="66" height="18" viewBox="0 0 66 18" fill="none" xmlns="http://www.w3.org/2000/svg">
<mask id="path-1-outside-1_86_10856" maskUnits="userSpaceOnUse" x="-1" y="-1" width="69" height="20" fill="black">
<rect fill="white" x="-1" y="-1" width="69" height="20"/>
<path d="M14.2266 9C14.2266 10.651 13.9401 12.0937 13.3672 13.3281C12.7943 14.5573 11.9974 15.513 10.9766 16.1953C9.96094 16.8776 8.78906 17.2187 7.46094 17.2187C6.1276 17.2187 4.95052 16.8776 3.92969 16.1953C2.91406 15.5078 2.11979 14.5495 1.54688 13.3203C0.973958 12.0859 0.6875 10.6458 0.6875 9C0.6875 7.34896 0.973958 5.90885 1.54688 4.67969C2.125 3.45052 2.92188 2.49479 3.9375 1.8125C4.95313 1.125 6.1276 0.781249 7.46094 0.781249C8.78906 0.781249 9.96094 1.1224 10.9766 1.80469C11.9974 2.48698 12.7943 3.44531 13.3672 4.67969C13.9401 5.90885 14.2266 7.34896 14.2266 9ZM13.2734 9C13.2734 7.51562 13.0234 6.22917 12.5234 5.14062C12.0286 4.05208 11.3438 3.21094 10.4688 2.61719C9.59375 2.01823 8.59115 1.71875 7.46094 1.71875C6.33073 1.71875 5.32813 2.01562 4.45313 2.60938C3.57813 3.19792 2.89063 4.03906 2.39063 5.13281C1.89583 6.22135 1.64844 7.51042 1.64844 9C1.64844 10.474 1.89323 11.7578 2.38281 12.8516C2.8776 13.9401 3.5625 14.7839 4.4375 15.3828C5.3125 15.9818 6.32031 16.2812 7.46094 16.2812C8.59115 16.2812 9.59375 15.9844 10.4688 15.3906C11.3438 14.7917 12.0286 13.9479 12.5234 12.8594C13.0234 11.7708 13.2734 10.4844 13.2734 9ZM25.3945 12.7422V5H26.3477V17H25.3945V15.0547H25.3164C25.0352 15.6745 24.5794 16.1797 23.9492 16.5703C23.3242 16.9609 22.5846 17.1563 21.7305 17.1563C20.944 17.1563 20.2487 16.9844 19.6445 16.6406C19.0404 16.2969 18.5664 15.8099 18.2227 15.1797C17.8789 14.5443 17.707 13.7891 17.707 12.9141V5H18.6602V12.875C18.6602 13.875 18.9622 14.6849 19.5664 15.3047C20.1758 15.9193 20.9622 16.2266 21.9258 16.2266C22.5508 16.2266 23.1263 16.0859 23.6523 15.8047C24.1784 15.5234 24.6003 15.1224 24.918 14.6016C25.2357 14.0755 25.3945 13.4557 25.3945 12.7422ZM34.5391 5V5.85156H29.2969V5H34.5391ZM31.0703 2.125H32.0156V14.1641C32.0156 14.6536 32.1094 15.0547 32.2969 15.3672C32.4896 15.6745 32.7396 15.9036 33.0469 16.0547C33.3594 16.2005 33.6927 16.2734 34.0469 16.2734C34.2188 16.2734 34.3672 16.2604 34.4922 16.2344C34.6224 16.2083 34.7448 16.1745 34.8594 16.1328L35.0938 17C34.9479 17.0521 34.7865 17.0964 34.6094 17.1328C34.4323 17.1745 34.224 17.1953 33.9844 17.1953C33.4844 17.1953 33.0104 17.0833 32.5625 16.8594C32.1198 16.6354 31.7604 16.3099 31.4844 15.8828C31.2083 15.4557 31.0703 14.9401 31.0703 14.3359V2.125ZM42.6055 5V5.85156H37.2852V5H42.6055ZM39.0352 17V3.13281C39.0352 2.52864 39.1732 2.01302 39.4492 1.58594C39.7253 1.15885 40.0872 0.833333 40.5352 0.609374C40.9883 0.385416 41.4753 0.273437 41.9961 0.273437C42.2721 0.273437 42.5065 0.296874 42.6992 0.343749C42.8971 0.385416 43.069 0.434896 43.2148 0.492187L42.9336 1.33594C42.8138 1.29427 42.6836 1.25781 42.543 1.22656C42.4076 1.19531 42.2461 1.17969 42.0586 1.17969C41.4544 1.17969 40.957 1.36458 40.5664 1.73437C40.1758 2.10417 39.9805 2.61979 39.9805 3.28125L39.9727 17H39.0352ZM45.6191 17V5H46.5645V17H45.6191ZM46.0957 2.875C45.8874 2.875 45.7051 2.80208 45.5488 2.65625C45.3978 2.51042 45.3223 2.33333 45.3223 2.125C45.3223 1.91667 45.3978 1.73958 45.5488 1.59375C45.6999 1.44792 45.8822 1.375 46.0957 1.375C46.304 1.375 46.4837 1.44792 46.6348 1.59375C46.791 1.73958 46.8691 1.91667 46.8691 2.125C46.8691 2.33333 46.7936 2.51042 46.6426 2.65625C46.4915 2.80208 46.3092 2.875 46.0957 2.875ZM54.7988 5V5.85156H49.5566V5H54.7988ZM51.3301 2.125H52.2754V14.1641C52.2754 14.6536 52.3691 15.0547 52.5566 15.3672C52.7493 15.6745 52.9993 15.9036 53.3066 16.0547C53.6191 16.2005 53.9525 16.2734 54.3066 16.2734C54.4785 16.2734 54.627 16.2604 54.752 16.2344C54.8822 16.2083 55.0046 16.1745 55.1191 16.1328L55.3535 17C55.2077 17.0521 55.0462 17.0964 54.8691 17.1328C54.6921 17.1745 54.4837 17.1953 54.2441 17.1953C53.7441 17.1953 53.2702 17.0833 52.8223 16.8594C52.3796 16.6354 52.0202 16.3099 51.7441 15.8828C51.4681 15.4557 51.3301 14.9401 51.3301 14.3359V2.125ZM65.7441 7.58594L64.8613 7.82031C64.7207 7.38281 64.5202 7.00521 64.2598 6.6875C63.9993 6.36979 63.6712 6.125 63.2754 5.95312C62.8848 5.77604 62.416 5.6875 61.8691 5.6875C60.9889 5.6875 60.2676 5.90625 59.7051 6.34375C59.1478 6.78125 58.8691 7.35156 58.8691 8.05469C58.8691 8.6276 59.0592 9.10156 59.4395 9.47656C59.8197 9.84635 60.4004 10.1276 61.1816 10.3203L63.0254 10.7812C63.9733 11.0156 64.6868 11.3958 65.166 11.9219C65.6452 12.4427 65.8848 13.0911 65.8848 13.8672C65.8848 14.5286 65.7051 15.1146 65.3457 15.625C64.9863 16.1354 64.4889 16.5339 63.8535 16.8203C63.2233 17.1068 62.4889 17.25 61.6504 17.25C60.5306 17.25 59.6113 16.9896 58.8926 16.4687C58.1738 15.9427 57.7129 15.1901 57.5098 14.2109L58.4238 13.9766C58.5957 14.7578 58.9525 15.3542 59.4941 15.7656C60.041 16.1719 60.7572 16.375 61.6426 16.375C62.6217 16.375 63.4108 16.1432 64.0098 15.6797C64.6139 15.2161 64.916 14.6224 64.916 13.8984C64.916 13.3464 64.7389 12.8802 64.3848 12.5C64.0306 12.1198 63.4941 11.8411 62.7754 11.6641L60.8613 11.1953C59.8822 10.9557 59.1478 10.5729 58.6582 10.0469C58.1686 9.51562 57.9238 8.86198 57.9238 8.08594C57.9238 7.4401 58.0931 6.8724 58.4316 6.38281C58.7702 5.89323 59.2363 5.51042 59.8301 5.23438C60.4238 4.95833 61.1035 4.82031 61.8691 4.82031C62.8848 4.82031 63.7129 5.0599 64.3535 5.53906C64.9941 6.01823 65.4577 6.70052 65.7441 7.58594Z"/>
</mask>
<path d="M14.2266 9C14.2266 10.651 13.9401 12.0937 13.3672 13.3281C12.7943 14.5573 11.9974 15.513 10.9766 16.1953C9.96094 16.8776 8.78906 17.2187 7.46094 17.2187C6.1276 17.2187 4.95052 16.8776 3.92969 16.1953C2.91406 15.5078 2.11979 14.5495 1.54688 13.3203C0.973958 12.0859 0.6875 10.6458 0.6875 9C0.6875 7.34896 0.973958 5.90885 1.54688 4.67969C2.125 3.45052 2.92188 2.49479 3.9375 1.8125C4.95313 1.125 6.1276 0.781249 7.46094 0.781249C8.78906 0.781249 9.96094 1.1224 10.9766 1.80469C11.9974 2.48698 12.7943 3.44531 13.3672 4.67969C13.9401 5.90885 14.2266 7.34896 14.2266 9ZM13.2734 9C13.2734 7.51562 13.0234 6.22917 12.5234 5.14062C12.0286 4.05208 11.3438 3.21094 10.4688 2.61719C9.59375 2.01823 8.59115 1.71875 7.46094 1.71875C6.33073 1.71875 5.32813 2.01562 4.45313 2.60938C3.57813 3.19792 2.89063 4.03906 2.39063 5.13281C1.89583 6.22135 1.64844 7.51042 1.64844 9C1.64844 10.474 1.89323 11.7578 2.38281 12.8516C2.8776 13.9401 3.5625 14.7839 4.4375 15.3828C5.3125 15.9818 6.32031 16.2812 7.46094 16.2812C8.59115 16.2812 9.59375 15.9844 10.4688 15.3906C11.3438 14.7917 12.0286 13.9479 12.5234 12.8594C13.0234 11.7708 13.2734 10.4844 13.2734 9ZM25.3945 12.7422V5H26.3477V17H25.3945V15.0547H25.3164C25.0352 15.6745 24.5794 16.1797 23.9492 16.5703C23.3242 16.9609 22.5846 17.1563 21.7305 17.1563C20.944 17.1563 20.2487 16.9844 19.6445 16.6406C19.0404 16.2969 18.5664 15.8099 18.2227 15.1797C17.8789 14.5443 17.707 13.7891 17.707 12.9141V5H18.6602V12.875C18.6602 13.875 18.9622 14.6849 19.5664 15.3047C20.1758 15.9193 20.9622 16.2266 21.9258 16.2266C22.5508 16.2266 23.1263 16.0859 23.6523 15.8047C24.1784 15.5234 24.6003 15.1224 24.918 14.6016C25.2357 14.0755 25.3945 13.4557 25.3945 12.7422ZM34.5391 5V5.85156H29.2969V5H34.5391ZM31.0703 2.125H32.0156V14.1641C32.0156 14.6536 32.1094 15.0547 32.2969 15.3672C32.4896 15.6745 32.7396 15.9036 33.0469 16.0547C33.3594 16.2005 33.6927 16.2734 34.0469 16.2734C34.2188 16.2734 34.3672 16.2604 34.4922 16.2344C34.6224 16.2083 34.7448 16.1745 34.8594 16.1328L35.0938 17C34.9479 17.0521 34.7865 17.0964 34.6094 17.1328C34.4323 17.1745 34.224 17.1953 33.9844 17.1953C33.4844 17.1953 33.0104 17.0833 32.5625 16.8594C32.1198 16.6354 31.7604 16.3099 31.4844 15.8828C31.2083 15.4557 31.0703 14.9401 31.0703 14.3359V2.125ZM42.6055 5V5.85156H37.2852V5H42.6055ZM39.0352 17V3.13281C39.0352 2.52864 39.1732 2.01302 39.4492 1.58594C39.7253 1.15885 40.0872 0.833333 40.5352 0.609374C40.9883 0.385416 41.4753 0.273437 41.9961 0.273437C42.2721 0.273437 42.5065 0.296874 42.6992 0.343749C42.8971 0.385416 43.069 0.434896 43.2148 0.492187L42.9336 1.33594C42.8138 1.29427 42.6836 1.25781 42.543 1.22656C42.4076 1.19531 42.2461 1.17969 42.0586 1.17969C41.4544 1.17969 40.957 1.36458 40.5664 1.73437C40.1758 2.10417 39.9805 2.61979 39.9805 3.28125L39.9727 17H39.0352ZM45.6191 17V5H46.5645V17H45.6191ZM46.0957 2.875C45.8874 2.875 45.7051 2.80208 45.5488 2.65625C45.3978 2.51042 45.3223 2.33333 45.3223 2.125C45.3223 1.91667 45.3978 1.73958 45.5488 1.59375C45.6999 1.44792 45.8822 1.375 46.0957 1.375C46.304 1.375 46.4837 1.44792 46.6348 1.59375C46.791 1.73958 46.8691 1.91667 46.8691 2.125C46.8691 2.33333 46.7936 2.51042 46.6426 2.65625C46.4915 2.80208 46.3092 2.875 46.0957 2.875ZM54.7988 5V5.85156H49.5566V5H54.7988ZM51.3301 2.125H52.2754V14.1641C52.2754 14.6536 52.3691 15.0547 52.5566 15.3672C52.7493 15.6745 52.9993 15.9036 53.3066 16.0547C53.6191 16.2005 53.9525 16.2734 54.3066 16.2734C54.4785 16.2734 54.627 16.2604 54.752 16.2344C54.8822 16.2083 55.0046 16.1745 55.1191 16.1328L55.3535 17C55.2077 17.0521 55.0462 17.0964 54.8691 17.1328C54.6921 17.1745 54.4837 17.1953 54.2441 17.1953C53.7441 17.1953 53.2702 17.0833 52.8223 16.8594C52.3796 16.6354 52.0202 16.3099 51.7441 15.8828C51.4681 15.4557 51.3301 14.9401 51.3301 14.3359V2.125ZM65.7441 7.58594L64.8613 7.82031C64.7207 7.38281 64.5202 7.00521 64.2598 6.6875C63.9993 6.36979 63.6712 6.125 63.2754 5.95312C62.8848 5.77604 62.416 5.6875 61.8691 5.6875C60.9889 5.6875 60.2676 5.90625 59.7051 6.34375C59.1478 6.78125 58.8691 7.35156 58.8691 8.05469C58.8691 8.6276 59.0592 9.10156 59.4395 9.47656C59.8197 9.84635 60.4004 10.1276 61.1816 10.3203L63.0254 10.7812C63.9733 11.0156 64.6868 11.3958 65.166 11.9219C65.6452 12.4427 65.8848 13.0911 65.8848 13.8672C65.8848 14.5286 65.7051 15.1146 65.3457 15.625C64.9863 16.1354 64.4889 16.5339 63.8535 16.8203C63.2233 17.1068 62.4889 17.25 61.6504 17.25C60.5306 17.25 59.6113 16.9896 58.8926 16.4687C58.1738 15.9427 57.7129 15.1901 57.5098 14.2109L58.4238 13.9766C58.5957 14.7578 58.9525 15.3542 59.4941 15.7656C60.041 16.1719 60.7572 16.375 61.6426 16.375C62.6217 16.375 63.4108 16.1432 64.0098 15.6797C64.6139 15.2161 64.916 14.6224 64.916 13.8984C64.916 13.3464 64.7389 12.8802 64.3848 12.5C64.0306 12.1198 63.4941 11.8411 62.7754 11.6641L60.8613 11.1953C59.8822 10.9557 59.1478 10.5729 58.6582 10.0469C58.1686 9.51562 57.9238 8.86198 57.9238 8.08594C57.9238 7.4401 58.0931 6.8724 58.4316 6.38281C58.7702 5.89323 59.2363 5.51042 59.8301 5.23438C60.4238 4.95833 61.1035 4.82031 61.8691 4.82031C62.8848 4.82031 63.7129 5.0599 64.3535 5.53906C64.9941 6.01823 65.4577 6.70052 65.7441 7.58594Z" fill="black"/>
<path d="M13.3672 13.3281L14.2736 13.7506L14.2742 13.7491L13.3672 13.3281ZM10.9766 16.1953L10.4209 15.3639L10.4189 15.3652L10.9766 16.1953ZM3.92969 16.1953L3.36911 17.0234L3.37401 17.0267L3.92969 16.1953ZM1.54688 13.3203L0.639813 13.7413L0.640496 13.7428L1.54688 13.3203ZM1.54688 4.67969L0.641964 4.25407L0.640496 4.25722L1.54688 4.67969ZM3.9375 1.8125L4.49515 2.64258L4.49807 2.64061L3.9375 1.8125ZM10.9766 1.80469L10.4189 2.63477L10.4209 2.63608L10.9766 1.80469ZM13.3672 4.67969L12.4601 5.10069L12.4608 5.10215L13.3672 4.67969ZM12.5234 5.14062L11.6131 5.55443L11.6147 5.55803L12.5234 5.14062ZM10.4688 2.61719L9.90389 3.44238L9.90725 3.44466L10.4688 2.61719ZM4.45313 2.60938L5.01124 3.43915L5.01463 3.43685L4.45313 2.60938ZM2.39063 5.13281L1.48115 4.71705L1.48026 4.71901L2.39063 5.13281ZM2.38281 12.8516L1.47006 13.2601L1.47245 13.2654L2.38281 12.8516ZM4.4375 15.3828L3.87264 16.208L3.87264 16.208L4.4375 15.3828ZM10.4688 15.3906L11.0303 16.2181L11.0336 16.2158L10.4688 15.3906ZM12.5234 12.8594L11.6147 12.442L11.6131 12.4456L12.5234 12.8594ZM13.2266 9C13.2266 10.5361 12.9602 11.8297 12.4601 12.9071L14.2742 13.7491C14.92 12.3578 15.2266 10.766 15.2266 9H13.2266ZM12.4608 12.9057C11.9569 13.9869 11.274 14.7937 10.4209 15.3639L11.5322 17.0267C12.7208 16.2323 13.6317 15.1277 14.2736 13.7506L12.4608 12.9057ZM10.4189 15.3652C9.58233 15.9272 8.6082 16.2187 7.46094 16.2187V18.2187C8.96993 18.2187 10.3395 17.828 11.5342 17.0254L10.4189 15.3652ZM7.46094 16.2187C6.30766 16.2187 5.32755 15.9268 4.48537 15.3639L3.37401 17.0267C4.57349 17.8284 5.94755 18.2187 7.46094 18.2187V16.2187ZM4.49025 15.3672C3.63999 14.7916 2.95804 13.9808 2.45325 12.8978L0.640496 13.7428C1.28154 15.1181 2.18814 16.224 3.36912 17.0234L4.49025 15.3672ZM2.45394 12.8993C1.9537 11.8215 1.6875 10.5303 1.6875 9H-0.3125C-0.3125 10.7613 -0.00578066 12.3503 0.639814 13.7413L2.45394 12.8993ZM1.6875 9C1.6875 7.4638 1.95392 6.17344 2.45325 5.10215L0.640496 4.25722C-0.00600796 5.64427 -0.3125 7.23412 -0.3125 9H1.6875ZM2.45178 5.1053C2.96161 4.02135 3.64589 3.21311 4.49514 2.64258L3.37986 0.982419C2.19786 1.77647 1.28839 2.87969 0.641969 4.25407L2.45178 5.1053ZM4.49807 2.64061C5.33373 2.07493 6.30921 1.78125 7.46094 1.78125V-0.218751C5.946 -0.218751 4.57252 0.175069 3.37693 0.98439L4.49807 2.64061ZM7.46094 1.78125C8.6082 1.78125 9.58233 2.07275 10.4189 2.63477L11.5342 0.974606C10.3395 0.17204 8.96993 -0.218751 7.46094 -0.218751V1.78125ZM10.4209 2.63608C11.273 3.2056 11.9558 4.01419 12.4601 5.10069L14.2742 4.25869C13.6327 2.87643 12.7218 1.76836 11.5322 0.97329L10.4209 2.63608ZM12.4608 5.10215C12.9601 6.17344 13.2266 7.4638 13.2266 9H15.2266C15.2266 7.23412 14.9201 5.64427 14.2736 4.25722L12.4608 5.10215ZM14.2734 9C14.2734 7.40511 14.0049 5.97011 13.4322 4.72322L11.6147 5.55803C12.042 6.48822 12.2734 7.62614 12.2734 9H14.2734ZM13.4338 4.72682C12.8731 3.49336 12.0765 2.49967 11.0303 1.78971L9.90725 3.44466C10.611 3.9222 11.1842 4.61081 11.6131 5.55443L13.4338 4.72682ZM11.0336 1.792C9.98107 1.07151 8.77876 0.718749 7.46094 0.718749V2.71875C8.40353 2.71875 9.20643 2.96495 9.90389 3.44237L11.0336 1.792ZM7.46094 0.718749C6.145 0.718749 4.9439 1.06785 3.89162 1.7819L5.01463 3.43685C5.71235 2.96339 6.51645 2.71875 7.46094 2.71875V0.718749ZM3.89501 1.77961C2.84637 2.48495 2.04683 3.47962 1.48115 4.71705L3.3001 5.54857C3.73442 4.59851 4.30988 3.91089 5.01124 3.43914L3.89501 1.77961ZM1.48026 4.71901C0.91375 5.96533 0.648438 7.40176 0.648438 9H2.64844C2.64844 7.61907 2.87792 6.47738 3.30099 5.54662L1.48026 4.71901ZM0.648438 9C0.648438 10.5832 0.91133 12.0118 1.47008 13.2601L3.29555 12.443C2.87513 11.5038 2.64844 10.3647 2.64844 9H0.648438ZM1.47245 13.2654C2.03286 14.4983 2.82857 15.4933 3.87264 16.208L5.00236 14.5576C4.29643 14.0744 3.72235 13.3819 3.29318 12.4378L1.47245 13.2654ZM3.87264 16.208C4.92676 16.9296 6.13475 17.2812 7.46094 17.2812V15.2812C6.50588 15.2812 5.69824 15.034 5.00236 14.5576L3.87264 16.208ZM7.46094 17.2812C8.77687 17.2812 9.97798 16.9321 11.0303 16.2181L9.90725 14.5631C9.20953 15.0366 8.40542 15.2812 7.46094 15.2812V17.2812ZM11.0336 16.2158C12.0777 15.5011 12.8734 14.5061 13.4338 13.2732L11.6131 12.4456C11.1839 13.3897 10.6098 14.0822 9.90389 14.5654L11.0336 16.2158ZM13.4322 13.2768C14.0049 12.0299 14.2734 10.5949 14.2734 9H12.2734C12.2734 10.3739 12.042 11.5118 11.6147 12.442L13.4322 13.2768ZM25.3945 5V4H24.3945V5H25.3945ZM26.3477 5H27.3477V4H26.3477V5ZM26.3477 17V18H27.3477V17H26.3477ZM25.3945 17H24.3945V18H25.3945V17ZM25.3945 15.0547H26.3945V14.0547H25.3945V15.0547ZM25.3164 15.0547V14.0547H24.672L24.4058 14.6415L25.3164 15.0547ZM23.9492 16.5703L23.4224 15.7203L23.4192 15.7223L23.9492 16.5703ZM19.6445 16.6406L20.1391 15.7715L20.1391 15.7715L19.6445 16.6406ZM18.2227 15.1797L17.3431 15.6555L17.3448 15.6585L18.2227 15.1797ZM17.707 5V4H16.707V5H17.707ZM18.6602 5H19.6602V4H18.6602V5ZM19.5664 15.3047L18.8503 16.0027L18.8563 16.0088L19.5664 15.3047ZM23.6523 15.8047L24.1238 16.6866L24.1238 16.6866L23.6523 15.8047ZM24.918 14.6016L25.7717 15.1223L25.774 15.1185L24.918 14.6016ZM26.3945 12.7422V5H24.3945V12.7422H26.3945ZM25.3945 6H26.3477V4H25.3945V6ZM25.3477 5V17H27.3477V5H25.3477ZM26.3477 16H25.3945V18H26.3477V16ZM26.3945 17V15.0547H24.3945V17H26.3945ZM25.3945 14.0547H25.3164V16.0547H25.3945V14.0547ZM24.4058 14.6415C24.2137 15.0647 23.8999 15.4243 23.4224 15.7203L24.4761 17.4203C25.2589 16.935 25.8566 16.2842 26.227 15.4679L24.4058 14.6415ZM23.4192 15.7223C22.9771 15.9987 22.4276 16.1563 21.7305 16.1563V18.1563C22.7417 18.1563 23.6714 17.9232 24.4792 17.4183L23.4192 15.7223ZM21.7305 16.1563C21.0942 16.1563 20.5736 16.0187 20.1391 15.7715L19.15 17.5098C19.9238 17.9501 20.7938 18.1563 21.7305 18.1563V16.1563ZM20.1391 15.7715C19.7019 15.5228 19.3583 15.1734 19.1006 14.7008L17.3448 15.6585C17.7745 16.4463 18.3788 17.071 19.15 17.5098L20.1391 15.7715ZM19.1022 14.7039C18.8526 14.2424 18.707 13.6577 18.707 12.9141H16.707C16.707 13.9204 16.9052 14.8461 17.3431 15.6555L19.1022 14.7039ZM18.707 12.9141V5H16.707V12.9141H18.707ZM17.707 6H18.6602V4H17.707V6ZM17.6602 5V12.875H19.6602V5H17.6602ZM17.6602 12.875C17.6602 14.0921 18.0357 15.1671 18.8503 16.0027L20.2825 14.6067C19.8887 14.2027 19.6602 13.6579 19.6602 12.875H17.6602ZM18.8563 16.0088C19.6756 16.835 20.7287 17.2266 21.9258 17.2266V15.2266C21.1958 15.2266 20.676 15.0035 20.2765 14.6006L18.8563 16.0088ZM21.9258 17.2266C22.7071 17.2266 23.4457 17.0491 24.1238 16.6866L23.1809 14.9228C22.8069 15.1228 22.3944 15.2266 21.9258 15.2266V17.2266ZM24.1238 16.6866C24.8109 16.3192 25.3633 15.7918 25.7717 15.1223L24.0643 14.0808C23.8372 14.453 23.5458 14.7277 23.1808 14.9228L24.1238 16.6866ZM25.774 15.1185C26.2002 14.4128 26.3945 13.6082 26.3945 12.7422H24.3945C24.3945 13.3033 24.2712 13.7382 24.062 14.0846L25.774 15.1185ZM34.5391 5H35.5391V4H34.5391V5ZM34.5391 5.85156V6.85156H35.5391V5.85156H34.5391ZM29.2969 5.85156H28.2969V6.85156H29.2969V5.85156ZM29.2969 5V4H28.2969V5H29.2969ZM31.0703 2.125V1.125H30.0703V2.125H31.0703ZM32.0156 2.125H33.0156V1.125H32.0156V2.125ZM32.2969 15.3672L31.4394 15.8817L31.4445 15.8901L31.4497 15.8985L32.2969 15.3672ZM33.0469 16.0547L32.6058 16.9521L32.6148 16.9566L32.624 16.9609L33.0469 16.0547ZM34.4922 16.2344L34.2961 15.2538L34.2882 15.2554L34.4922 16.2344ZM34.8594 16.1328L35.8247 15.8719L35.5407 14.821L34.5176 15.193L34.8594 16.1328ZM35.0938 17L35.4301 17.9417L36.3002 17.631L36.0591 16.7391L35.0938 17ZM34.6094 17.1328L34.4077 16.1534L34.394 16.1562L34.3803 16.1594L34.6094 17.1328ZM32.5625 16.8594L32.1111 17.7517L32.1153 17.7538L32.5625 16.8594ZM31.4844 15.8828L32.3242 15.34L32.3242 15.34L31.4844 15.8828ZM33.5391 5V5.85156H35.5391V5H33.5391ZM34.5391 4.85156H29.2969V6.85156H34.5391V4.85156ZM30.2969 5.85156V5H28.2969V5.85156H30.2969ZM29.2969 6H34.5391V4H29.2969V6ZM31.0703 3.125H32.0156V1.125H31.0703V3.125ZM31.0156 2.125V14.1641H33.0156V2.125H31.0156ZM31.0156 14.1641C31.0156 14.7747 31.1319 15.3692 31.4394 15.8817L33.1544 14.8527C33.0869 14.7402 33.0156 14.5326 33.0156 14.1641H31.0156ZM31.4497 15.8985C31.735 16.3534 32.1217 16.7142 32.6058 16.9521L33.488 15.1572C33.3575 15.0931 33.2442 14.9955 33.1441 14.8359L31.4497 15.8985ZM32.624 16.9609C33.0725 17.1702 33.5506 17.2734 34.0469 17.2734V15.2734C33.8348 15.2734 33.6462 15.2308 33.4698 15.1485L32.624 16.9609ZM34.0469 17.2734C34.2654 17.2734 34.4856 17.2572 34.6961 17.2134L34.2882 15.2554C34.2488 15.2636 34.1721 15.2734 34.0469 15.2734V17.2734ZM34.6883 17.215C34.8637 17.1799 35.0351 17.133 35.2011 17.0726L34.5176 15.193C34.4545 15.216 34.3811 15.2368 34.2961 15.2538L34.6883 17.215ZM33.894 16.3937L34.1284 17.2609L36.0591 16.7391L35.8247 15.8719L33.894 16.3937ZM34.7574 16.0583C34.6621 16.0923 34.5465 16.1248 34.4077 16.1534L34.811 18.1123C35.0265 18.0679 35.2337 18.0119 35.4301 17.9417L34.7574 16.0583ZM34.3803 16.1594C34.2976 16.1789 34.1696 16.1953 33.9844 16.1953V18.1953C34.2783 18.1953 34.5669 18.1701 34.8384 18.1062L34.3803 16.1594ZM33.9844 16.1953C33.6399 16.1953 33.319 16.1196 33.0097 15.9649L32.1153 17.7538C32.7018 18.0471 33.3289 18.1953 33.9844 18.1953V16.1953ZM33.0139 15.9671C32.7335 15.8252 32.5066 15.6221 32.3242 15.34L30.6445 16.4256C31.0143 16.9977 31.5061 17.4457 32.1111 17.7517L33.0139 15.9671ZM32.3242 15.34C32.171 15.103 32.0703 14.7843 32.0703 14.3359H30.0703C30.0703 15.0959 30.2456 15.8085 30.6445 16.4256L32.3242 15.34ZM32.0703 14.3359V2.125H30.0703V14.3359H32.0703ZM42.6055 5H43.6055V4H42.6055V5ZM42.6055 5.85156V6.85156H43.6055V5.85156H42.6055ZM37.2852 5.85156H36.2852V6.85156H37.2852V5.85156ZM37.2852 5V4H36.2852V5H37.2852ZM39.0352 17H38.0352V18H39.0352V17ZM39.4492 1.58594L38.6094 1.04311L38.6094 1.04311L39.4492 1.58594ZM40.5352 0.609374L40.0921 -0.287114L40.0879 -0.285053L40.5352 0.609374ZM42.6992 0.343749L42.4629 1.31542L42.478 1.31909L42.4932 1.3223L42.6992 0.343749ZM43.2148 0.492187L44.1635 0.808415L44.4635 -0.0916507L43.5805 -0.438564L43.2148 0.492187ZM42.9336 1.33594L42.6051 2.28043L43.5619 2.61324L43.8823 1.65216L42.9336 1.33594ZM42.543 1.22656L42.3181 2.20099L42.326 2.20275L42.543 1.22656ZM40.5664 1.73437L39.8789 1.00817L39.8789 1.00817L40.5664 1.73437ZM39.9805 3.28125L40.9805 3.28182V3.28125H39.9805ZM39.9727 17V18H40.9721L40.9727 17.0006L39.9727 17ZM41.6055 5V5.85156H43.6055V5H41.6055ZM42.6055 4.85156H37.2852V6.85156H42.6055V4.85156ZM38.2852 5.85156V5H36.2852V5.85156H38.2852ZM37.2852 6H42.6055V4H37.2852V6ZM40.0352 17V3.13281H38.0352V17H40.0352ZM40.0352 3.13281C40.0352 2.68448 40.1359 2.36577 40.2891 2.12876L38.6094 1.04311C38.2105 1.66026 38.0352 2.37281 38.0352 3.13281H40.0352ZM40.2891 2.12876C40.4696 1.84944 40.697 1.64649 40.9824 1.5038L40.0879 -0.285053C39.4775 0.020177 38.9809 0.468266 38.6094 1.04311L40.2891 2.12876ZM40.9782 1.50585C41.2893 1.3521 41.6241 1.27344 41.9961 1.27344V-0.726563C41.3264 -0.726563 40.6872 -0.581269 40.0921 -0.287104L40.9782 1.50585ZM41.9961 1.27344C42.221 1.27344 42.3711 1.29308 42.4629 1.31542L42.9356 -0.627919C42.642 -0.699336 42.3232 -0.726563 41.9961 -0.726563V1.27344ZM42.4932 1.3223C42.6515 1.35561 42.7675 1.39086 42.8492 1.42294L43.5805 -0.438564C43.3705 -0.521066 43.1428 -0.584781 42.9052 -0.6348L42.4932 1.3223ZM42.2662 0.175959L41.9849 1.01971L43.8823 1.65216L44.1635 0.808415L42.2662 0.175959ZM43.2621 0.391439C43.1013 0.33549 42.9333 0.288916 42.7599 0.250375L42.326 2.20275C42.4339 2.22671 42.5263 2.25305 42.6051 2.28043L43.2621 0.391439ZM42.7678 0.252171C42.5382 0.199176 42.2974 0.179687 42.0586 0.179687V2.17969C42.1948 2.17969 42.2769 2.19145 42.3181 2.20095L42.7678 0.252171ZM42.0586 0.179687C41.2328 0.179687 40.4787 0.440429 39.8789 1.00817L41.2539 2.46058C41.4354 2.28874 41.676 2.17969 42.0586 2.17969V0.179687ZM39.8789 1.00817C39.2445 1.60875 38.9805 2.41267 38.9805 3.28125H40.9805C40.9805 2.82691 41.107 2.59958 41.2539 2.46058L39.8789 1.00817ZM38.9805 3.28068L38.9727 16.9994L40.9727 17.0006L40.9805 3.28182L38.9805 3.28068ZM39.9727 16H39.0352V18H39.9727V16ZM45.6191 17H44.6191V18H45.6191V17ZM45.6191 5V4H44.6191V5H45.6191ZM46.5645 5H47.5645V4H46.5645V5ZM46.5645 17V18H47.5645V17H46.5645ZM45.5488 2.65625L44.8542 3.37565L44.8603 3.38153L44.8665 3.3873L45.5488 2.65625ZM46.6348 1.59375L45.9402 2.31315L45.9463 2.31903L45.9524 2.3248L46.6348 1.59375ZM46.6426 2.65625L45.948 1.93685L45.948 1.93685L46.6426 2.65625ZM46.6191 17V5H44.6191V17H46.6191ZM45.6191 6H46.5645V4H45.6191V6ZM45.5645 5V17H47.5645V5H45.5645ZM46.5645 16H45.6191V18H46.5645V16ZM46.0957 1.875C46.1109 1.875 46.1401 1.87821 46.1741 1.89183C46.2078 1.90529 46.2268 1.92113 46.2311 1.92519L44.8665 3.3873C45.2026 3.701 45.6269 3.875 46.0957 3.875V1.875ZM46.2434 1.93685C46.2553 1.94834 46.2795 1.97657 46.2987 2.02178C46.3181 2.06715 46.3223 2.10553 46.3223 2.125H44.3223C44.3223 2.60701 44.5097 3.04303 44.8542 3.37565L46.2434 1.93685ZM46.3223 2.125C46.3223 2.14447 46.3181 2.18285 46.2987 2.22822C46.2795 2.27343 46.2553 2.30166 46.2434 2.31315L44.8542 0.874348C44.5097 1.20697 44.3223 1.64299 44.3223 2.125H46.3223ZM46.2434 2.31315C46.2323 2.32389 46.2075 2.34326 46.1702 2.35816C46.1333 2.37294 46.1049 2.375 46.0957 2.375V0.374999C45.628 0.374999 45.1952 0.545112 44.8542 0.874348L46.2434 2.31315ZM46.0957 2.375C46.0806 2.375 46.0489 2.37182 46.0107 2.3563C45.9726 2.34084 45.949 2.32164 45.9402 2.31315L47.3294 0.874348C46.9935 0.550082 46.5654 0.374999 46.0957 0.374999V2.375ZM45.9524 2.3248C45.9421 2.3151 45.9166 2.28712 45.8956 2.23958C45.8744 2.19146 45.8691 2.14907 45.8691 2.125H47.8691C47.8691 1.63146 47.67 1.1921 47.3171 0.862694L45.9524 2.3248ZM45.8691 2.125C45.8691 2.10553 45.8733 2.06715 45.8927 2.02178C45.9119 1.97657 45.9361 1.94834 45.948 1.93685L47.3372 3.37565C47.6817 3.04303 47.8691 2.60701 47.8691 2.125H45.8691ZM45.948 1.93685C45.9591 1.92611 45.9839 1.90674 46.0212 1.89183C46.0581 1.87705 46.0865 1.875 46.0957 1.875V3.875C46.5634 3.875 46.9962 3.70489 47.3372 3.37565L45.948 1.93685ZM54.7988 5H55.7988V4H54.7988V5ZM54.7988 5.85156V6.85156H55.7988V5.85156H54.7988ZM49.5566 5.85156H48.5566V6.85156H49.5566V5.85156ZM49.5566 5V4H48.5566V5H49.5566ZM51.3301 2.125V1.125H50.3301V2.125H51.3301ZM52.2754 2.125H53.2754V1.125H52.2754V2.125ZM52.5566 15.3672L51.6991 15.8817L51.7042 15.8901L51.7095 15.8985L52.5566 15.3672ZM53.3066 16.0547L52.8655 16.9521L52.8746 16.9566L52.8838 16.9609L53.3066 16.0547ZM54.752 16.2344L54.5558 15.2538L54.548 15.2554L54.752 16.2344ZM55.1191 16.1328L56.0845 15.8719L55.8005 14.821L54.7774 15.193L55.1191 16.1328ZM55.3535 17L55.6899 17.9417L56.5599 17.631L56.3189 16.7391L55.3535 17ZM54.8691 17.1328L54.6675 16.1534L54.6538 16.1562L54.6401 16.1594L54.8691 17.1328ZM52.8223 16.8594L52.3709 17.7517L52.3751 17.7538L52.8223 16.8594ZM51.7441 15.8828L52.584 15.34L52.584 15.34L51.7441 15.8828ZM53.7988 5V5.85156H55.7988V5H53.7988ZM54.7988 4.85156H49.5566V6.85156H54.7988V4.85156ZM50.5566 5.85156V5H48.5566V5.85156H50.5566ZM49.5566 6H54.7988V4H49.5566V6ZM51.3301 3.125H52.2754V1.125H51.3301V3.125ZM51.2754 2.125V14.1641H53.2754V2.125H51.2754ZM51.2754 14.1641C51.2754 14.7747 51.3916 15.3692 51.6991 15.8817L53.4141 14.8527C53.3466 14.7402 53.2754 14.5326 53.2754 14.1641H51.2754ZM51.7095 15.8985C51.9948 16.3534 52.3814 16.7142 52.8655 16.9521L53.7478 15.1572C53.6173 15.0931 53.5039 14.9955 53.4038 14.8359L51.7095 15.8985ZM52.8838 16.9609C53.3323 17.1702 53.8104 17.2734 54.3066 17.2734V15.2734C54.0945 15.2734 53.906 15.2308 53.7295 15.1485L52.8838 16.9609ZM54.3066 17.2734C54.5252 17.2734 54.7453 17.2572 54.9559 17.2134L54.548 15.2554C54.5086 15.2636 54.4319 15.2734 54.3066 15.2734V17.2734ZM54.9481 17.215C55.1234 17.1799 55.2949 17.133 55.4609 17.0726L54.7774 15.193C54.7142 15.216 54.6409 15.2368 54.5558 15.2538L54.9481 17.215ZM54.1538 16.3937L54.3882 17.2609L56.3189 16.7391L56.0845 15.8719L54.1538 16.3937ZM55.0172 16.0583C54.9219 16.0923 54.8062 16.1248 54.6675 16.1534L55.0708 18.1123C55.2862 18.0679 55.4935 18.0119 55.6899 17.9417L55.0172 16.0583ZM54.6401 16.1594C54.5574 16.1789 54.4294 16.1953 54.2441 16.1953V18.1953C54.5381 18.1953 54.8267 18.1701 55.0982 18.1062L54.6401 16.1594ZM54.2441 16.1953C53.8996 16.1953 53.5788 16.1196 53.2695 15.9649L52.3751 17.7538C52.9616 18.0471 53.5886 18.1953 54.2441 18.1953V16.1953ZM53.2737 15.9671C52.9932 15.8252 52.7663 15.6221 52.584 15.34L50.9043 16.4256C51.274 16.9977 51.7659 17.4457 52.3709 17.7517L53.2737 15.9671ZM52.584 15.34C52.4308 15.103 52.3301 14.7843 52.3301 14.3359H50.3301C50.3301 15.0959 50.5054 15.8085 50.9043 16.4256L52.584 15.34ZM52.3301 14.3359V2.125H50.3301V14.3359H52.3301ZM65.7441 7.58594L66.0007 8.55246L67.0203 8.28178L66.6956 7.27812L65.7441 7.58594ZM64.8613 7.82031L63.9093 8.12632L64.1999 9.03054L65.1179 8.78683L64.8613 7.82031ZM64.2598 6.6875L65.0332 6.05357L65.0332 6.05357L64.2598 6.6875ZM63.2754 5.95312L62.8625 6.86391L62.8698 6.8672L62.8771 6.87039L63.2754 5.95312ZM59.7051 6.34375L59.0911 5.55439L59.0876 5.55718L59.7051 6.34375ZM59.4395 9.47656L58.7372 10.1885L58.7422 10.1934L59.4395 9.47656ZM61.1816 10.3203L61.4242 9.35017L61.4211 9.34941L61.1816 10.3203ZM63.0254 10.7812L62.7829 11.7514L62.7854 11.752L63.0254 10.7812ZM65.166 11.9219L64.4267 12.5953L64.4301 12.5989L65.166 11.9219ZM65.3457 15.625L66.1634 16.2007L66.1634 16.2007L65.3457 15.625ZM63.8535 16.8203L63.4425 15.9087L63.4397 15.9099L63.8535 16.8203ZM58.8926 16.4687L58.302 17.2757L58.3058 17.2785L58.8926 16.4687ZM57.5098 14.2109L57.2614 13.2423L56.3367 13.4794L56.5306 14.4141L57.5098 14.2109ZM58.4238 13.9766L59.4005 13.7617L59.1781 12.7508L58.1755 13.0079L58.4238 13.9766ZM59.4941 15.7656L58.8892 16.562L58.8978 16.5684L59.4941 15.7656ZM64.0098 15.6797L63.401 14.8863L63.3977 14.8889L64.0098 15.6797ZM64.3848 12.5L65.1165 11.8184L65.1165 11.8184L64.3848 12.5ZM62.7754 11.6641L63.0146 10.6931L63.0133 10.6928L62.7754 11.6641ZM60.8613 11.1953L61.0992 10.224L61.099 10.224L60.8613 11.1953ZM58.6582 10.0469L57.9228 10.7246L57.9262 10.7282L58.6582 10.0469ZM58.4316 6.38281L57.6091 5.81406L57.6091 5.81406L58.4316 6.38281ZM59.8301 5.23438L60.2517 6.14117L60.2517 6.14117L59.8301 5.23438ZM64.3535 5.53906L64.9525 4.73828L64.9525 4.73828L64.3535 5.53906ZM65.4875 6.61942L64.6047 6.85379L65.1179 8.78683L66.0007 8.55246L65.4875 6.61942ZM65.8134 7.5143C65.6388 6.97139 65.3821 6.47926 65.0332 6.05357L63.4864 7.32143C63.6583 7.53116 63.8026 7.79424 63.9093 8.12632L65.8134 7.5143ZM65.0332 6.05357C64.6669 5.60672 64.2077 5.26774 63.6737 5.03586L62.8771 6.87039C63.1347 6.98226 63.3318 7.13287 63.4864 7.32143L65.0332 6.05357ZM63.6883 5.04234C63.1375 4.79264 62.5206 4.6875 61.8691 4.6875V6.6875C62.3114 6.6875 62.6321 6.75945 62.8625 6.86391L63.6883 5.04234ZM61.8691 4.6875C60.8201 4.6875 59.8672 4.95079 59.0911 5.5544L60.319 7.1331C60.668 6.86171 61.1578 6.6875 61.8691 6.6875V4.6875ZM59.0876 5.55718C58.291 6.18255 57.8691 7.04181 57.8691 8.05469H59.8691C59.8691 7.66131 60.0046 7.37995 60.3226 7.13032L59.0876 5.55718ZM57.8691 8.05469C57.8691 8.8736 58.1517 9.61096 58.7372 10.1885L60.1417 8.7646C59.9668 8.59216 59.8691 8.38161 59.8691 8.05469H57.8691ZM58.7422 10.1934C59.2992 10.7351 60.0708 11.0763 60.9422 11.2912L61.4211 9.34941C60.73 9.17894 60.3401 8.95759 60.1367 8.7597L58.7422 10.1934ZM60.9391 11.2905L62.7829 11.7514L63.2679 9.81111L61.4242 9.35017L60.9391 11.2905ZM62.7854 11.752C63.6105 11.956 64.122 12.2608 64.4267 12.5953L65.9053 11.2485C65.2517 10.5309 64.3361 10.0752 63.2654 9.81048L62.7854 11.752ZM64.4301 12.5989C64.7224 12.9167 64.8848 13.3157 64.8848 13.8672H66.8848C66.8848 12.8666 66.5679 11.9687 65.9019 11.2448L64.4301 12.5989ZM64.8848 13.8672C64.8848 14.3355 64.7615 14.7177 64.528 15.0493L66.1634 16.2007C66.6487 15.5114 66.8848 14.7217 66.8848 13.8672H64.8848ZM64.528 15.0493C64.2834 15.3968 63.9343 15.687 63.4425 15.9087L64.2645 17.732C65.0436 17.3807 65.6893 16.874 66.1634 16.2007L64.528 15.0493ZM63.4397 15.9099C62.9639 16.1262 62.3758 16.25 61.6504 16.25V18.25C62.6021 18.25 63.4827 18.0873 64.2673 17.7307L63.4397 15.9099ZM61.6504 16.25C60.6858 16.25 59.9874 16.0271 59.4794 15.659L58.3058 17.2785C59.2353 17.952 60.3754 18.25 61.6504 18.25V16.25ZM59.4832 15.6618C58.9891 15.3002 58.6484 14.7765 58.4889 14.0078L56.5306 14.4141C56.7774 15.6037 57.3585 16.5852 58.302 17.2757L59.4832 15.6618ZM57.7581 15.1796L58.6722 14.9452L58.1755 13.0079L57.2614 13.2423L57.7581 15.1796ZM57.4472 14.1914C57.6606 15.1616 58.1263 15.9824 58.8893 16.5619L60.099 14.9693C59.7786 14.7259 59.5308 14.3541 59.4005 13.7617L57.4472 14.1914ZM58.8978 16.5684C59.6625 17.1364 60.6068 17.375 61.6426 17.375V15.375C60.9075 15.375 60.4195 15.2073 60.0905 14.9629L58.8978 16.5684ZM61.6426 17.375C62.7779 17.375 63.8021 17.1049 64.6218 16.4705L63.3977 14.8889C63.0195 15.1816 62.4656 15.375 61.6426 15.375V17.375ZM64.6185 16.4731C65.4544 15.8317 65.916 14.9516 65.916 13.8984H63.916C63.916 14.2932 63.7734 14.6006 63.401 14.8863L64.6185 16.4731ZM65.916 13.8984C65.916 13.1107 65.6545 12.396 65.1165 11.8184L63.653 13.1816C63.8233 13.3644 63.916 13.582 63.916 13.8984H65.916ZM65.1165 11.8184C64.5847 11.2475 63.8456 10.8978 63.0146 10.6931L62.5362 12.635C63.1427 12.7845 63.4765 12.9921 63.653 13.1816L65.1165 11.8184ZM63.0133 10.6928L61.0992 10.224L60.6235 12.1666L62.5375 12.6354L63.0133 10.6928ZM61.099 10.224C60.236 10.0128 59.7033 9.70204 59.3902 9.36559L57.9262 10.7282C58.5922 11.4438 59.5283 11.8986 60.6237 12.1667L61.099 10.224ZM59.3936 9.36919C59.0875 9.03704 58.9238 8.63122 58.9238 8.08594H56.9238C56.9238 9.09274 57.2498 9.99421 57.9228 10.7246L59.3936 9.36919ZM58.9238 8.08594C58.9238 7.62519 59.0411 7.25969 59.2541 6.95157L57.6091 5.81406C57.1451 6.48511 56.9238 7.25502 56.9238 8.08594H58.9238ZM59.2541 6.95157C59.4816 6.62268 59.8026 6.34992 60.2517 6.14117L59.4085 4.32758C58.67 4.67091 58.0588 5.16378 57.6091 5.81406L59.2541 6.95157ZM60.2517 6.14117C60.6928 5.93607 61.2247 5.82031 61.8691 5.82031V3.82031C60.9824 3.82031 60.1548 3.9806 59.4085 4.32758L60.2517 6.14117ZM61.8691 5.82031C62.7276 5.82031 63.3286 6.02125 63.7546 6.33984L64.9525 4.73828C64.0972 4.09854 63.0419 3.82031 61.8691 3.82031V5.82031ZM63.7546 6.33984C64.2037 6.67576 64.5592 7.17203 64.7927 7.89376L66.6956 7.27812C66.3562 6.22901 65.7846 5.3607 64.9525 4.73828L63.7546 6.33984Z" fill="black" mask="url(#path-1-outside-1_86_10856)"/>
<path d="M13.3672 13.3281L14.2736 13.7506L14.2742 13.7491L13.3672 13.3281ZM10.9766 16.1953L10.4209 15.3639L10.4189 15.3652L10.9766 16.1953ZM3.92969 16.1953L3.36911 17.0234L3.37401 17.0267L3.92969 16.1953ZM1.54688 13.3203L0.639813 13.7413L0.640496 13.7428L1.54688 13.3203ZM1.54688 4.67969L0.641964 4.25407L0.640496 4.25722L1.54688 4.67969ZM3.9375 1.8125L4.49515 2.64258L4.49807 2.64061L3.9375 1.8125ZM10.9766 1.80469L10.4189 2.63477L10.4209 2.63608L10.9766 1.80469ZM13.3672 4.67969L12.4601 5.10069L12.4608 5.10215L13.3672 4.67969ZM12.5234 5.14062L11.6131 5.55443L11.6147 5.55803L12.5234 5.14062ZM10.4688 2.61719L9.90389 3.44238L9.90725 3.44466L10.4688 2.61719ZM4.45313 2.60938L5.01124 3.43915L5.01463 3.43685L4.45313 2.60938ZM2.39063 5.13281L1.48115 4.71705L1.48026 4.71901L2.39063 5.13281ZM2.38281 12.8516L1.47006 13.2601L1.47245 13.2654L2.38281 12.8516ZM4.4375 15.3828L3.87264 16.208L3.87264 16.208L4.4375 15.3828ZM10.4688 15.3906L11.0303 16.2181L11.0336 16.2158L10.4688 15.3906ZM12.5234 12.8594L11.6147 12.442L11.6131 12.4456L12.5234 12.8594ZM13.2266 9C13.2266 10.5361 12.9602 11.8297 12.4601 12.9071L14.2742 13.7491C14.92 12.3578 15.2266 10.766 15.2266 9H13.2266ZM12.4608 12.9057C11.9569 13.9869 11.274 14.7937 10.4209 15.3639L11.5322 17.0267C12.7208 16.2323 13.6317 15.1277 14.2736 13.7506L12.4608 12.9057ZM10.4189 15.3652C9.58233 15.9272 8.6082 16.2187 7.46094 16.2187V18.2187C8.96993 18.2187 10.3395 17.828 11.5342 17.0254L10.4189 15.3652ZM7.46094 16.2187C6.30766 16.2187 5.32755 15.9268 4.48537 15.3639L3.37401 17.0267C4.57349 17.8284 5.94755 18.2187 7.46094 18.2187V16.2187ZM4.49025 15.3672C3.63999 14.7916 2.95804 13.9808 2.45325 12.8978L0.640496 13.7428C1.28154 15.1181 2.18814 16.224 3.36912 17.0234L4.49025 15.3672ZM2.45394 12.8993C1.9537 11.8215 1.6875 10.5303 1.6875 9H-0.3125C-0.3125 10.7613 -0.00578066 12.3503 0.639814 13.7413L2.45394 12.8993ZM1.6875 9C1.6875 7.4638 1.95392 6.17344 2.45325 5.10215L0.640496 4.25722C-0.00600796 5.64427 -0.3125 7.23412 -0.3125 9H1.6875ZM2.45178 5.1053C2.96161 4.02135 3.64589 3.21311 4.49514 2.64258L3.37986 0.982419C2.19786 1.77647 1.28839 2.87969 0.641969 4.25407L2.45178 5.1053ZM4.49807 2.64061C5.33373 2.07493 6.30921 1.78125 7.46094 1.78125V-0.218751C5.946 -0.218751 4.57252 0.175069 3.37693 0.98439L4.49807 2.64061ZM7.46094 1.78125C8.6082 1.78125 9.58233 2.07275 10.4189 2.63477L11.5342 0.974606C10.3395 0.17204 8.96993 -0.218751 7.46094 -0.218751V1.78125ZM10.4209 2.63608C11.273 3.2056 11.9558 4.01419 12.4601 5.10069L14.2742 4.25869C13.6327 2.87643 12.7218 1.76836 11.5322 0.97329L10.4209 2.63608ZM12.4608 5.10215C12.9601 6.17344 13.2266 7.4638 13.2266 9H15.2266C15.2266 7.23412 14.9201 5.64427 14.2736 4.25722L12.4608 5.10215ZM14.2734 9C14.2734 7.40511 14.0049 5.97011 13.4322 4.72322L11.6147 5.55803C12.042 6.48822 12.2734 7.62614 12.2734 9H14.2734ZM13.4338 4.72682C12.8731 3.49336 12.0765 2.49967 11.0303 1.78971L9.90725 3.44466C10.611 3.9222 11.1842 4.61081 11.6131 5.55443L13.4338 4.72682ZM11.0336 1.792C9.98107 1.07151 8.77876 0.718749 7.46094 0.718749V2.71875C8.40353 2.71875 9.20643 2.96495 9.90389 3.44237L11.0336 1.792ZM7.46094 0.718749C6.145 0.718749 4.9439 1.06785 3.89162 1.7819L5.01463 3.43685C5.71235 2.96339 6.51645 2.71875 7.46094 2.71875V0.718749ZM3.89501 1.77961C2.84637 2.48495 2.04683 3.47962 1.48115 4.71705L3.3001 5.54857C3.73442 4.59851 4.30988 3.91089 5.01124 3.43914L3.89501 1.77961ZM1.48026 4.71901C0.91375 5.96533 0.648438 7.40176 0.648438 9H2.64844C2.64844 7.61907 2.87792 6.47738 3.30099 5.54662L1.48026 4.71901ZM0.648438 9C0.648438 10.5832 0.91133 12.0118 1.47008 13.2601L3.29555 12.443C2.87513 11.5038 2.64844 10.3647 2.64844 9H0.648438ZM1.47245 13.2654C2.03286 14.4983 2.82857 15.4933 3.87264 16.208L5.00236 14.5576C4.29643 14.0744 3.72235 13.3819 3.29318 12.4378L1.47245 13.2654ZM3.87264 16.208C4.92676 16.9296 6.13475 17.2812 7.46094 17.2812V15.2812C6.50588 15.2812 5.69824 15.034 5.00236 14.5576L3.87264 16.208ZM7.46094 17.2812C8.77687 17.2812 9.97798 16.9321 11.0303 16.2181L9.90725 14.5631C9.20953 15.0366 8.40542 15.2812 7.46094 15.2812V17.2812ZM11.0336 16.2158C12.0777 15.5011 12.8734 14.5061 13.4338 13.2732L11.6131 12.4456C11.1839 13.3897 10.6098 14.0822 9.90389 14.5654L11.0336 16.2158ZM13.4322 13.2768C14.0049 12.0299 14.2734 10.5949 14.2734 9H12.2734C12.2734 10.3739 12.042 11.5118 11.6147 12.442L13.4322 13.2768ZM25.3945 5V4H24.3945V5H25.3945ZM26.3477 5H27.3477V4H26.3477V5ZM26.3477 17V18H27.3477V17H26.3477ZM25.3945 17H24.3945V18H25.3945V17ZM25.3945 15.0547H26.3945V14.0547H25.3945V15.0547ZM25.3164 15.0547V14.0547H24.672L24.4058 14.6415L25.3164 15.0547ZM23.9492 16.5703L23.4224 15.7203L23.4192 15.7223L23.9492 16.5703ZM19.6445 16.6406L20.1391 15.7715L20.1391 15.7715L19.6445 16.6406ZM18.2227 15.1797L17.3431 15.6555L17.3448 15.6585L18.2227 15.1797ZM17.707 5V4H16.707V5H17.707ZM18.6602 5H19.6602V4H18.6602V5ZM19.5664 15.3047L18.8503 16.0027L18.8563 16.0088L19.5664 15.3047ZM23.6523 15.8047L24.1238 16.6866L24.1238 16.6866L23.6523 15.8047ZM24.918 14.6016L25.7717 15.1223L25.774 15.1185L24.918 14.6016ZM26.3945 12.7422V5H24.3945V12.7422H26.3945ZM25.3945 6H26.3477V4H25.3945V6ZM25.3477 5V17H27.3477V5H25.3477ZM26.3477 16H25.3945V18H26.3477V16ZM26.3945 17V15.0547H24.3945V17H26.3945ZM25.3945 14.0547H25.3164V16.0547H25.3945V14.0547ZM24.4058 14.6415C24.2137 15.0647 23.8999 15.4243 23.4224 15.7203L24.4761 17.4203C25.2589 16.935 25.8566 16.2842 26.227 15.4679L24.4058 14.6415ZM23.4192 15.7223C22.9771 15.9987 22.4276 16.1563 21.7305 16.1563V18.1563C22.7417 18.1563 23.6714 17.9232 24.4792 17.4183L23.4192 15.7223ZM21.7305 16.1563C21.0942 16.1563 20.5736 16.0187 20.1391 15.7715L19.15 17.5098C19.9238 17.9501 20.7938 18.1563 21.7305 18.1563V16.1563ZM20.1391 15.7715C19.7019 15.5228 19.3583 15.1734 19.1006 14.7008L17.3448 15.6585C17.7745 16.4463 18.3788 17.071 19.15 17.5098L20.1391 15.7715ZM19.1022 14.7039C18.8526 14.2424 18.707 13.6577 18.707 12.9141H16.707C16.707 13.9204 16.9052 14.8461 17.3431 15.6555L19.1022 14.7039ZM18.707 12.9141V5H16.707V12.9141H18.707ZM17.707 6H18.6602V4H17.707V6ZM17.6602 5V12.875H19.6602V5H17.6602ZM17.6602 12.875C17.6602 14.0921 18.0357 15.1671 18.8503 16.0027L20.2825 14.6067C19.8887 14.2027 19.6602 13.6579 19.6602 12.875H17.6602ZM18.8563 16.0088C19.6756 16.835 20.7287 17.2266 21.9258 17.2266V15.2266C21.1958 15.2266 20.676 15.0035 20.2765 14.6006L18.8563 16.0088ZM21.9258 17.2266C22.7071 17.2266 23.4457 17.0491 24.1238 16.6866L23.1809 14.9228C22.8069 15.1228 22.3944 15.2266 21.9258 15.2266V17.2266ZM24.1238 16.6866C24.8109 16.3192 25.3633 15.7918 25.7717 15.1223L24.0643 14.0808C23.8372 14.453 23.5458 14.7277 23.1808 14.9228L24.1238 16.6866ZM25.774 15.1185C26.2002 14.4128 26.3945 13.6082 26.3945 12.7422H24.3945C24.3945 13.3033 24.2712 13.7382 24.062 14.0846L25.774 15.1185ZM34.5391 5H35.5391V4H34.5391V5ZM34.5391 5.85156V6.85156H35.5391V5.85156H34.5391ZM29.2969 5.85156H28.2969V6.85156H29.2969V5.85156ZM29.2969 5V4H28.2969V5H29.2969ZM31.0703 2.125V1.125H30.0703V2.125H31.0703ZM32.0156 2.125H33.0156V1.125H32.0156V2.125ZM32.2969 15.3672L31.4394 15.8817L31.4445 15.8901L31.4497 15.8985L32.2969 15.3672ZM33.0469 16.0547L32.6058 16.9521L32.6148 16.9566L32.624 16.9609L33.0469 16.0547ZM34.4922 16.2344L34.2961 15.2538L34.2882 15.2554L34.4922 16.2344ZM34.8594 16.1328L35.8247 15.8719L35.5407 14.821L34.5176 15.193L34.8594 16.1328ZM35.0938 17L35.4301 17.9417L36.3002 17.631L36.0591 16.7391L35.0938 17ZM34.6094 17.1328L34.4077 16.1534L34.394 16.1562L34.3803 16.1594L34.6094 17.1328ZM32.5625 16.8594L32.1111 17.7517L32.1153 17.7538L32.5625 16.8594ZM31.4844 15.8828L32.3242 15.34L32.3242 15.34L31.4844 15.8828ZM33.5391 5V5.85156H35.5391V5H33.5391ZM34.5391 4.85156H29.2969V6.85156H34.5391V4.85156ZM30.2969 5.85156V5H28.2969V5.85156H30.2969ZM29.2969 6H34.5391V4H29.2969V6ZM31.0703 3.125H32.0156V1.125H31.0703V3.125ZM31.0156 2.125V14.1641H33.0156V2.125H31.0156ZM31.0156 14.1641C31.0156 14.7747 31.1319 15.3692 31.4394 15.8817L33.1544 14.8527C33.0869 14.7402 33.0156 14.5326 33.0156 14.1641H31.0156ZM31.4497 15.8985C31.735 16.3534 32.1217 16.7142 32.6058 16.9521L33.488 15.1572C33.3575 15.0931 33.2442 14.9955 33.1441 14.8359L31.4497 15.8985ZM32.624 16.9609C33.0725 17.1702 33.5506 17.2734 34.0469 17.2734V15.2734C33.8348 15.2734 33.6462 15.2308 33.4698 15.1485L32.624 16.9609ZM34.0469 17.2734C34.2654 17.2734 34.4856 17.2572 34.6961 17.2134L34.2882 15.2554C34.2488 15.2636 34.1721 15.2734 34.0469 15.2734V17.2734ZM34.6883 17.215C34.8637 17.1799 35.0351 17.133 35.2011 17.0726L34.5176 15.193C34.4545 15.216 34.3811 15.2368 34.2961 15.2538L34.6883 17.215ZM33.894 16.3937L34.1284 17.2609L36.0591 16.7391L35.8247 15.8719L33.894 16.3937ZM34.7574 16.0583C34.6621 16.0923 34.5465 16.1248 34.4077 16.1534L34.811 18.1123C35.0265 18.0679 35.2337 18.0119 35.4301 17.9417L34.7574 16.0583ZM34.3803 16.1594C34.2976 16.1789 34.1696 16.1953 33.9844 16.1953V18.1953C34.2783 18.1953 34.5669 18.1701 34.8384 18.1062L34.3803 16.1594ZM33.9844 16.1953C33.6399 16.1953 33.319 16.1196 33.0097 15.9649L32.1153 17.7538C32.7018 18.0471 33.3289 18.1953 33.9844 18.1953V16.1953ZM33.0139 15.9671C32.7335 15.8252 32.5066 15.6221 32.3242 15.34L30.6445 16.4256C31.0143 16.9977 31.5061 17.4457 32.1111 17.7517L33.0139 15.9671ZM32.3242 15.34C32.171 15.103 32.0703 14.7843 32.0703 14.3359H30.0703C30.0703 15.0959 30.2456 15.8085 30.6445 16.4256L32.3242 15.34ZM32.0703 14.3359V2.125H30.0703V14.3359H32.0703ZM42.6055 5H43.6055V4H42.6055V5ZM42.6055 5.85156V6.85156H43.6055V5.85156H42.6055ZM37.2852 5.85156H36.2852V6.85156H37.2852V5.85156ZM37.2852 5V4H36.2852V5H37.2852ZM39.0352 17H38.0352V18H39.0352V17ZM39.4492 1.58594L38.6094 1.04311L38.6094 1.04311L39.4492 1.58594ZM40.5352 0.609374L40.0921 -0.287114L40.0879 -0.285053L40.5352 0.609374ZM42.6992 0.343749L42.4629 1.31542L42.478 1.31909L42.4932 1.3223L42.6992 0.343749ZM43.2148 0.492187L44.1635 0.808415L44.4635 -0.0916507L43.5805 -0.438564L43.2148 0.492187ZM42.9336 1.33594L42.6051 2.28043L43.5619 2.61324L43.8823 1.65216L42.9336 1.33594ZM42.543 1.22656L42.3181 2.20099L42.326 2.20275L42.543 1.22656ZM40.5664 1.73437L39.8789 1.00817L39.8789 1.00817L40.5664 1.73437ZM39.9805 3.28125L40.9805 3.28182V3.28125H39.9805ZM39.9727 17V18H40.9721L40.9727 17.0006L39.9727 17ZM41.6055 5V5.85156H43.6055V5H41.6055ZM42.6055 4.85156H37.2852V6.85156H42.6055V4.85156ZM38.2852 5.85156V5H36.2852V5.85156H38.2852ZM37.2852 6H42.6055V4H37.2852V6ZM40.0352 17V3.13281H38.0352V17H40.0352ZM40.0352 3.13281C40.0352 2.68448 40.1359 2.36577 40.2891 2.12876L38.6094 1.04311C38.2105 1.66026 38.0352 2.37281 38.0352 3.13281H40.0352ZM40.2891 2.12876C40.4696 1.84944 40.697 1.64649 40.9824 1.5038L40.0879 -0.285053C39.4775 0.020177 38.9809 0.468266 38.6094 1.04311L40.2891 2.12876ZM40.9782 1.50585C41.2893 1.3521 41.6241 1.27344 41.9961 1.27344V-0.726563C41.3264 -0.726563 40.6872 -0.581269 40.0921 -0.287104L40.9782 1.50585ZM41.9961 1.27344C42.221 1.27344 42.3711 1.29308 42.4629 1.31542L42.9356 -0.627919C42.642 -0.699336 42.3232 -0.726563 41.9961 -0.726563V1.27344ZM42.4932 1.3223C42.6515 1.35561 42.7675 1.39086 42.8492 1.42294L43.5805 -0.438564C43.3705 -0.521066 43.1428 -0.584781 42.9052 -0.6348L42.4932 1.3223ZM42.2662 0.175959L41.9849 1.01971L43.8823 1.65216L44.1635 0.808415L42.2662 0.175959ZM43.2621 0.391439C43.1013 0.33549 42.9333 0.288916 42.7599 0.250375L42.326 2.20275C42.4339 2.22671 42.5263 2.25305 42.6051 2.28043L43.2621 0.391439ZM42.7678 0.252171C42.5382 0.199176 42.2974 0.179687 42.0586 0.179687V2.17969C42.1948 2.17969 42.2769 2.19145 42.3181 2.20095L42.7678 0.252171ZM42.0586 0.179687C41.2328 0.179687 40.4787 0.440429 39.8789 1.00817L41.2539 2.46058C41.4354 2.28874 41.676 2.17969 42.0586 2.17969V0.179687ZM39.8789 1.00817C39.2445 1.60875 38.9805 2.41267 38.9805 3.28125H40.9805C40.9805 2.82691 41.107 2.59958 41.2539 2.46058L39.8789 1.00817ZM38.9805 3.28068L38.9727 16.9994L40.9727 17.0006L40.9805 3.28182L38.9805 3.28068ZM39.9727 16H39.0352V18H39.9727V16ZM45.6191 17H44.6191V18H45.6191V17ZM45.6191 5V4H44.6191V5H45.6191ZM46.5645 5H47.5645V4H46.5645V5ZM46.5645 17V18H47.5645V17H46.5645ZM45.5488 2.65625L44.8542 3.37565L44.8603 3.38153L44.8665 3.3873L45.5488 2.65625ZM46.6348 1.59375L45.9402 2.31315L45.9463 2.31903L45.9524 2.3248L46.6348 1.59375ZM46.6426 2.65625L45.948 1.93685L45.948 1.93685L46.6426 2.65625ZM46.6191 17V5H44.6191V17H46.6191ZM45.6191 6H46.5645V4H45.6191V6ZM45.5645 5V17H47.5645V5H45.5645ZM46.5645 16H45.6191V18H46.5645V16ZM46.0957 1.875C46.1109 1.875 46.1401 1.87821 46.1741 1.89183C46.2078 1.90529 46.2268 1.92113 46.2311 1.92519L44.8665 3.3873C45.2026 3.701 45.6269 3.875 46.0957 3.875V1.875ZM46.2434 1.93685C46.2553 1.94834 46.2795 1.97657 46.2987 2.02178C46.3181 2.06715 46.3223 2.10553 46.3223 2.125H44.3223C44.3223 2.60701 44.5097 3.04303 44.8542 3.37565L46.2434 1.93685ZM46.3223 2.125C46.3223 2.14447 46.3181 2.18285 46.2987 2.22822C46.2795 2.27343 46.2553 2.30166 46.2434 2.31315L44.8542 0.874348C44.5097 1.20697 44.3223 1.64299 44.3223 2.125H46.3223ZM46.2434 2.31315C46.2323 2.32389 46.2075 2.34326 46.1702 2.35816C46.1333 2.37294 46.1049 2.375 46.0957 2.375V0.374999C45.628 0.374999 45.1952 0.545112 44.8542 0.874348L46.2434 2.31315ZM46.0957 2.375C46.0806 2.375 46.0489 2.37182 46.0107 2.3563C45.9726 2.34084 45.949 2.32164 45.9402 2.31315L47.3294 0.874348C46.9935 0.550082 46.5654 0.374999 46.0957 0.374999V2.375ZM45.9524 2.3248C45.9421 2.3151 45.9166 2.28712 45.8956 2.23958C45.8744 2.19146 45.8691 2.14907 45.8691 2.125H47.8691C47.8691 1.63146 47.67 1.1921 47.3171 0.862694L45.9524 2.3248ZM45.8691 2.125C45.8691 2.10553 45.8733 2.06715 45.8927 2.02178C45.9119 1.97657 45.9361 1.94834 45.948 1.93685L47.3372 3.37565C47.6817 3.04303 47.8691 2.60701 47.8691 2.125H45.8691ZM45.948 1.93685C45.9591 1.92611 45.9839 1.90674 46.0212 1.89183C46.0581 1.87705 46.0865 1.875 46.0957 1.875V3.875C46.5634 3.875 46.9962 3.70489 47.3372 3.37565L45.948 1.93685ZM54.7988 5H55.7988V4H54.7988V5ZM54.7988 5.85156V6.85156H55.7988V5.85156H54.7988ZM49.5566 5.85156H48.5566V6.85156H49.5566V5.85156ZM49.5566 5V4H48.5566V5H49.5566ZM51.3301 2.125V1.125H50.3301V2.125H51.3301ZM52.2754 2.125H53.2754V1.125H52.2754V2.125ZM52.5566 15.3672L51.6991 15.8817L51.7042 15.8901L51.7095 15.8985L52.5566 15.3672ZM53.3066 16.0547L52.8655 16.9521L52.8746 16.9566L52.8838 16.9609L53.3066 16.0547ZM54.752 16.2344L54.5558 15.2538L54.548 15.2554L54.752 16.2344ZM55.1191 16.1328L56.0845 15.8719L55.8005 14.821L54.7774 15.193L55.1191 16.1328ZM55.3535 17L55.6899 17.9417L56.5599 17.631L56.3189 16.7391L55.3535 17ZM54.8691 17.1328L54.6675 16.1534L54.6538 16.1562L54.6401 16.1594L54.8691 17.1328ZM52.8223 16.8594L52.3709 17.7517L52.3751 17.7538L52.8223 16.8594ZM51.7441 15.8828L52.584 15.34L52.584 15.34L51.7441 15.8828ZM53.7988 5V5.85156H55.7988V5H53.7988ZM54.7988 4.85156H49.5566V6.85156H54.7988V4.85156ZM50.5566 5.85156V5H48.5566V5.85156H50.5566ZM49.5566 6H54.7988V4H49.5566V6ZM51.3301 3.125H52.2754V1.125H51.3301V3.125ZM51.2754 2.125V14.1641H53.2754V2.125H51.2754ZM51.2754 14.1641C51.2754 14.7747 51.3916 15.3692 51.6991 15.8817L53.4141 14.8527C53.3466 14.7402 53.2754 14.5326 53.2754 14.1641H51.2754ZM51.7095 15.8985C51.9948 16.3534 52.3814 16.7142 52.8655 16.9521L53.7478 15.1572C53.6173 15.0931 53.5039 14.9955 53.4038 14.8359L51.7095 15.8985ZM52.8838 16.9609C53.3323 17.1702 53.8104 17.2734 54.3066 17.2734V15.2734C54.0945 15.2734 53.906 15.2308 53.7295 15.1485L52.8838 16.9609ZM54.3066 17.2734C54.5252 17.2734 54.7453 17.2572 54.9559 17.2134L54.548 15.2554C54.5086 15.2636 54.4319 15.2734 54.3066 15.2734V17.2734ZM54.9481 17.215C55.1234 17.1799 55.2949 17.133 55.4609 17.0726L54.7774 15.193C54.7142 15.216 54.6409 15.2368 54.5558 15.2538L54.9481 17.215ZM54.1538 16.3937L54.3882 17.2609L56.3189 16.7391L56.0845 15.8719L54.1538 16.3937ZM55.0172 16.0583C54.9219 16.0923 54.8062 16.1248 54.6675 16.1534L55.0708 18.1123C55.2862 18.0679 55.4935 18.0119 55.6899 17.9417L55.0172 16.0583ZM54.6401 16.1594C54.5574 16.1789 54.4294 16.1953 54.2441 16.1953V18.1953C54.5381 18.1953 54.8267 18.1701 55.0982 18.1062L54.6401 16.1594ZM54.2441 16.1953C53.8996 16.1953 53.5788 16.1196 53.2695 15.9649L52.3751 17.7538C52.9616 18.0471 53.5886 18.1953 54.2441 18.1953V16.1953ZM53.2737 15.9671C52.9932 15.8252 52.7663 15.6221 52.584 15.34L50.9043 16.4256C51.274 16.9977 51.7659 17.4457 52.3709 17.7517L53.2737 15.9671ZM52.584 15.34C52.4308 15.103 52.3301 14.7843 52.3301 14.3359H50.3301C50.3301 15.0959 50.5054 15.8085 50.9043 16.4256L52.584 15.34ZM52.3301 14.3359V2.125H50.3301V14.3359H52.3301ZM65.7441 7.58594L66.0007 8.55246L67.0203 8.28178L66.6956 7.27812L65.7441 7.58594ZM64.8613 7.82031L63.9093 8.12632L64.1999 9.03054L65.1179 8.78683L64.8613 7.82031ZM64.2598 6.6875L65.0332 6.05357L65.0332 6.05357L64.2598 6.6875ZM63.2754 5.95312L62.8625 6.86391L62.8698 6.8672L62.8771 6.87039L63.2754 5.95312ZM59.7051 6.34375L59.0911 5.55439L59.0876 5.55718L59.7051 6.34375ZM59.4395 9.47656L58.7372 10.1885L58.7422 10.1934L59.4395 9.47656ZM61.1816 10.3203L61.4242 9.35017L61.4211 9.34941L61.1816 10.3203ZM63.0254 10.7812L62.7829 11.7514L62.7854 11.752L63.0254 10.7812ZM65.166 11.9219L64.4267 12.5953L64.4301 12.5989L65.166 11.9219ZM65.3457 15.625L66.1634 16.2007L66.1634 16.2007L65.3457 15.625ZM63.8535 16.8203L63.4425 15.9087L63.4397 15.9099L63.8535 16.8203ZM58.8926 16.4687L58.302 17.2757L58.3058 17.2785L58.8926 16.4687ZM57.5098 14.2109L57.2614 13.2423L56.3367 13.4794L56.5306 14.4141L57.5098 14.2109ZM58.4238 13.9766L59.4005 13.7617L59.1781 12.7508L58.1755 13.0079L58.4238 13.9766ZM59.4941 15.7656L58.8892 16.562L58.8978 16.5684L59.4941 15.7656ZM64.0098 15.6797L63.401 14.8863L63.3977 14.8889L64.0098 15.6797ZM64.3848 12.5L65.1165 11.8184L65.1165 11.8184L64.3848 12.5ZM62.7754 11.6641L63.0146 10.6931L63.0133 10.6928L62.7754 11.6641ZM60.8613 11.1953L61.0992 10.224L61.099 10.224L60.8613 11.1953ZM58.6582 10.0469L57.9228 10.7246L57.9262 10.7282L58.6582 10.0469ZM58.4316 6.38281L57.6091 5.81406L57.6091 5.81406L58.4316 6.38281ZM59.8301 5.23438L60.2517 6.14117L60.2517 6.14117L59.8301 5.23438ZM64.3535 5.53906L64.9525 4.73828L64.9525 4.73828L64.3535 5.53906ZM65.4875 6.61942L64.6047 6.85379L65.1179 8.78683L66.0007 8.55246L65.4875 6.61942ZM65.8134 7.5143C65.6388 6.97139 65.3821 6.47926 65.0332 6.05357L63.4864 7.32143C63.6583 7.53116 63.8026 7.79424 63.9093 8.12632L65.8134 7.5143ZM65.0332 6.05357C64.6669 5.60672 64.2077 5.26774 63.6737 5.03586L62.8771 6.87039C63.1347 6.98226 63.3318 7.13287 63.4864 7.32143L65.0332 6.05357ZM63.6883 5.04234C63.1375 4.79264 62.5206 4.6875 61.8691 4.6875V6.6875C62.3114 6.6875 62.6321 6.75945 62.8625 6.86391L63.6883 5.04234ZM61.8691 4.6875C60.8201 4.6875 59.8672 4.95079 59.0911 5.5544L60.319 7.1331C60.668 6.86171 61.1578 6.6875 61.8691 6.6875V4.6875ZM59.0876 5.55718C58.291 6.18255 57.8691 7.04181 57.8691 8.05469H59.8691C59.8691 7.66131 60.0046 7.37995 60.3226 7.13032L59.0876 5.55718ZM57.8691 8.05469C57.8691 8.8736 58.1517 9.61096 58.7372 10.1885L60.1417 8.7646C59.9668 8.59216 59.8691 8.38161 59.8691 8.05469H57.8691ZM58.7422 10.1934C59.2992 10.7351 60.0708 11.0763 60.9422 11.2912L61.4211 9.34941C60.73 9.17894 60.3401 8.95759 60.1367 8.7597L58.7422 10.1934ZM60.9391 11.2905L62.7829 11.7514L63.2679 9.81111L61.4242 9.35017L60.9391 11.2905ZM62.7854 11.752C63.6105 11.956 64.122 12.2608 64.4267 12.5953L65.9053 11.2485C65.2517 10.5309 64.3361 10.0752 63.2654 9.81048L62.7854 11.752ZM64.4301 12.5989C64.7224 12.9167 64.8848 13.3157 64.8848 13.8672H66.8848C66.8848 12.8666 66.5679 11.9687 65.9019 11.2448L64.4301 12.5989ZM64.8848 13.8672C64.8848 14.3355 64.7615 14.7177 64.528 15.0493L66.1634 16.2007C66.6487 15.5114 66.8848 14.7217 66.8848 13.8672H64.8848ZM64.528 15.0493C64.2834 15.3968 63.9343 15.687 63.4425 15.9087L64.2645 17.732C65.0436 17.3807 65.6893 16.874 66.1634 16.2007L64.528 15.0493ZM63.4397 15.9099C62.9639 16.1262 62.3758 16.25 61.6504 16.25V18.25C62.6021 18.25 63.4827 18.0873 64.2673 17.7307L63.4397 15.9099ZM61.6504 16.25C60.6858 16.25 59.9874 16.0271 59.4794 15.659L58.3058 17.2785C59.2353 17.952 60.3754 18.25 61.6504 18.25V16.25ZM59.4832 15.6618C58.9891 15.3002 58.6484 14.7765 58.4889 14.0078L56.5306 14.4141C56.7774 15.6037 57.3585 16.5852 58.302 17.2757L59.4832 15.6618ZM57.7581 15.1796L58.6722 14.9452L58.1755 13.0079L57.2614 13.2423L57.7581 15.1796ZM57.4472 14.1914C57.6606 15.1616 58.1263 15.9824 58.8893 16.5619L60.099 14.9693C59.7786 14.7259 59.5308 14.3541 59.4005 13.7617L57.4472 14.1914ZM58.8978 16.5684C59.6625 17.1364 60.6068 17.375 61.6426 17.375V15.375C60.9075 15.375 60.4195 15.2073 60.0905 14.9629L58.8978 16.5684ZM61.6426 17.375C62.7779 17.375 63.8021 17.1049 64.6218 16.4705L63.3977 14.8889C63.0195 15.1816 62.4656 15.375 61.6426 15.375V17.375ZM64.6185 16.4731C65.4544 15.8317 65.916 14.9516 65.916 13.8984H63.916C63.916 14.2932 63.7734 14.6006 63.401 14.8863L64.6185 16.4731ZM65.916 13.8984C65.916 13.1107 65.6545 12.396 65.1165 11.8184L63.653 13.1816C63.8233 13.3644 63.916 13.582 63.916 13.8984H65.916ZM65.1165 11.8184C64.5847 11.2475 63.8456 10.8978 63.0146 10.6931L62.5362 12.635C63.1427 12.7845 63.4765 12.9921 63.653 13.1816L65.1165 11.8184ZM63.0133 10.6928L61.0992 10.224L60.6235 12.1666L62.5375 12.6354L63.0133 10.6928ZM61.099 10.224C60.236 10.0128 59.7033 9.70204 59.3902 9.36559L57.9262 10.7282C58.5922 11.4438 59.5283 11.8986 60.6237 12.1667L61.099 10.224ZM59.3936 9.36919C59.0875 9.03704 58.9238 8.63122 58.9238 8.08594H56.9238C56.9238 9.09274 57.2498 9.99421 57.9228 10.7246L59.3936 9.36919ZM58.9238 8.08594C58.9238 7.62519 59.0411 7.25969 59.2541 6.95157L57.6091 5.81406C57.1451 6.48511 56.9238 7.25502 56.9238 8.08594H58.9238ZM59.2541 6.95157C59.4816 6.62268 59.8026 6.34992 60.2517 6.14117L59.4085 4.32758C58.67 4.67091 58.0588 5.16378 57.6091 5.81406L59.2541 6.95157ZM60.2517 6.14117C60.6928 5.93607 61.2247 5.82031 61.8691 5.82031V3.82031C60.9824 3.82031 60.1548 3.9806 59.4085 4.32758L60.2517 6.14117ZM61.8691 5.82031C62.7276 5.82031 63.3286 6.02125 63.7546 6.33984L64.9525 4.73828C64.0972 4.09854 63.0419 3.82031 61.8691 3.82031V5.82031ZM63.7546 6.33984C64.2037 6.67576 64.5592 7.17203 64.7927 7.89376L66.6956 7.27812C66.3562 6.22901 65.7846 5.3607 64.9525 4.73828L63.7546 6.33984Z" fill="black" fill-opacity="0.2" mask="url(#path-1-outside-1_86_10856)"/>
<path d="M13.3672 13.3281L14.2736 13.7506L14.2742 13.7491L13.3672 13.3281ZM10.9766 16.1953L10.4209 15.3639L10.4189 15.3652L10.9766 16.1953ZM3.92969 16.1953L3.36911 17.0234L3.37401 17.0267L3.92969 16.1953ZM1.54688 13.3203L0.639813 13.7413L0.640496 13.7428L1.54688 13.3203ZM1.54688 4.67969L0.641964 4.25407L0.640496 4.25722L1.54688 4.67969ZM3.9375 1.8125L4.49515 2.64258L4.49807 2.64061L3.9375 1.8125ZM10.9766 1.80469L10.4189 2.63477L10.4209 2.63608L10.9766 1.80469ZM13.3672 4.67969L12.4601 5.10069L12.4608 5.10215L13.3672 4.67969ZM12.5234 5.14062L11.6131 5.55443L11.6147 5.55803L12.5234 5.14062ZM10.4688 2.61719L9.90389 3.44238L9.90725 3.44466L10.4688 2.61719ZM4.45313 2.60938L5.01124 3.43915L5.01463 3.43685L4.45313 2.60938ZM2.39063 5.13281L1.48115 4.71705L1.48026 4.71901L2.39063 5.13281ZM2.38281 12.8516L1.47006 13.2601L1.47245 13.2654L2.38281 12.8516ZM4.4375 15.3828L3.87264 16.208L3.87264 16.208L4.4375 15.3828ZM10.4688 15.3906L11.0303 16.2181L11.0336 16.2158L10.4688 15.3906ZM12.5234 12.8594L11.6147 12.442L11.6131 12.4456L12.5234 12.8594ZM13.2266 9C13.2266 10.5361 12.9602 11.8297 12.4601 12.9071L14.2742 13.7491C14.92 12.3578 15.2266 10.766 15.2266 9H13.2266ZM12.4608 12.9057C11.9569 13.9869 11.274 14.7937 10.4209 15.3639L11.5322 17.0267C12.7208 16.2323 13.6317 15.1277 14.2736 13.7506L12.4608 12.9057ZM10.4189 15.3652C9.58233 15.9272 8.6082 16.2187 7.46094 16.2187V18.2187C8.96993 18.2187 10.3395 17.828 11.5342 17.0254L10.4189 15.3652ZM7.46094 16.2187C6.30766 16.2187 5.32755 15.9268 4.48537 15.3639L3.37401 17.0267C4.57349 17.8284 5.94755 18.2187 7.46094 18.2187V16.2187ZM4.49025 15.3672C3.63999 14.7916 2.95804 13.9808 2.45325 12.8978L0.640496 13.7428C1.28154 15.1181 2.18814 16.224 3.36912 17.0234L4.49025 15.3672ZM2.45394 12.8993C1.9537 11.8215 1.6875 10.5303 1.6875 9H-0.3125C-0.3125 10.7613 -0.00578066 12.3503 0.639814 13.7413L2.45394 12.8993ZM1.6875 9C1.6875 7.4638 1.95392 6.17344 2.45325 5.10215L0.640496 4.25722C-0.00600796 5.64427 -0.3125 7.23412 -0.3125 9H1.6875ZM2.45178 5.1053C2.96161 4.02135 3.64589 3.21311 4.49514 2.64258L3.37986 0.982419C2.19786 1.77647 1.28839 2.87969 0.641969 4.25407L2.45178 5.1053ZM4.49807 2.64061C5.33373 2.07493 6.30921 1.78125 7.46094 1.78125V-0.218751C5.946 -0.218751 4.57252 0.175069 3.37693 0.98439L4.49807 2.64061ZM7.46094 1.78125C8.6082 1.78125 9.58233 2.07275 10.4189 2.63477L11.5342 0.974606C10.3395 0.17204 8.96993 -0.218751 7.46094 -0.218751V1.78125ZM10.4209 2.63608C11.273 3.2056 11.9558 4.01419 12.4601 5.10069L14.2742 4.25869C13.6327 2.87643 12.7218 1.76836 11.5322 0.97329L10.4209 2.63608ZM12.4608 5.10215C12.9601 6.17344 13.2266 7.4638 13.2266 9H15.2266C15.2266 7.23412 14.9201 5.64427 14.2736 4.25722L12.4608 5.10215ZM14.2734 9C14.2734 7.40511 14.0049 5.97011 13.4322 4.72322L11.6147 5.55803C12.042 6.48822 12.2734 7.62614 12.2734 9H14.2734ZM13.4338 4.72682C12.8731 3.49336 12.0765 2.49967 11.0303 1.78971L9.90725 3.44466C10.611 3.9222 11.1842 4.61081 11.6131 5.55443L13.4338 4.72682ZM11.0336 1.792C9.98107 1.07151 8.77876 0.718749 7.46094 0.718749V2.71875C8.40353 2.71875 9.20643 2.96495 9.90389 3.44237L11.0336 1.792ZM7.46094 0.718749C6.145 0.718749 4.9439 1.06785 3.89162 1.7819L5.01463 3.43685C5.71235 2.96339 6.51645 2.71875 7.46094 2.71875V0.718749ZM3.89501 1.77961C2.84637 2.48495 2.04683 3.47962 1.48115 4.71705L3.3001 5.54857C3.73442 4.59851 4.30988 3.91089 5.01124 3.43914L3.89501 1.77961ZM1.48026 4.71901C0.91375 5.96533 0.648438 7.40176 0.648438 9H2.64844C2.64844 7.61907 2.87792 6.47738 3.30099 5.54662L1.48026 4.71901ZM0.648438 9C0.648438 10.5832 0.91133 12.0118 1.47008 13.2601L3.29555 12.443C2.87513 11.5038 2.64844 10.3647 2.64844 9H0.648438ZM1.47245 13.2654C2.03286 14.4983 2.82857 15.4933 3.87264 16.208L5.00236 14.5576C4.29643 14.0744 3.72235 13.3819 3.29318 12.4378L1.47245 13.2654ZM3.87264 16.208C4.92676 16.9296 6.13475 17.2812 7.46094 17.2812V15.2812C6.50588 15.2812 5.69824 15.034 5.00236 14.5576L3.87264 16.208ZM7.46094 17.2812C8.77687 17.2812 9.97798 16.9321 11.0303 16.2181L9.90725 14.5631C9.20953 15.0366 8.40542 15.2812 7.46094 15.2812V17.2812ZM11.0336 16.2158C12.0777 15.5011 12.8734 14.5061 13.4338 13.2732L11.6131 12.4456C11.1839 13.3897 10.6098 14.0822 9.90389 14.5654L11.0336 16.2158ZM13.4322 13.2768C14.0049 12.0299 14.2734 10.5949 14.2734 9H12.2734C12.2734 10.3739 12.042 11.5118 11.6147 12.442L13.4322 13.2768ZM25.3945 5V4H24.3945V5H25.3945ZM26.3477 5H27.3477V4H26.3477V5ZM26.3477 17V18H27.3477V17H26.3477ZM25.3945 17H24.3945V18H25.3945V17ZM25.3945 15.0547H26.3945V14.0547H25.3945V15.0547ZM25.3164 15.0547V14.0547H24.672L24.4058 14.6415L25.3164 15.0547ZM23.9492 16.5703L23.4224 15.7203L23.4192 15.7223L23.9492 16.5703ZM19.6445 16.6406L20.1391 15.7715L20.1391 15.7715L19.6445 16.6406ZM18.2227 15.1797L17.3431 15.6555L17.3448 15.6585L18.2227 15.1797ZM17.707 5V4H16.707V5H17.707ZM18.6602 5H19.6602V4H18.6602V5ZM19.5664 15.3047L18.8503 16.0027L18.8563 16.0088L19.5664 15.3047ZM23.6523 15.8047L24.1238 16.6866L24.1238 16.6866L23.6523 15.8047ZM24.918 14.6016L25.7717 15.1223L25.774 15.1185L24.918 14.6016ZM26.3945 12.7422V5H24.3945V12.7422H26.3945ZM25.3945 6H26.3477V4H25.3945V6ZM25.3477 5V17H27.3477V5H25.3477ZM26.3477 16H25.3945V18H26.3477V16ZM26.3945 17V15.0547H24.3945V17H26.3945ZM25.3945 14.0547H25.3164V16.0547H25.3945V14.0547ZM24.4058 14.6415C24.2137 15.0647 23.8999 15.4243 23.4224 15.7203L24.4761 17.4203C25.2589 16.935 25.8566 16.2842 26.227 15.4679L24.4058 14.6415ZM23.4192 15.7223C22.9771 15.9987 22.4276 16.1563 21.7305 16.1563V18.1563C22.7417 18.1563 23.6714 17.9232 24.4792 17.4183L23.4192 15.7223ZM21.7305 16.1563C21.0942 16.1563 20.5736 16.0187 20.1391 15.7715L19.15 17.5098C19.9238 17.9501 20.7938 18.1563 21.7305 18.1563V16.1563ZM20.1391 15.7715C19.7019 15.5228 19.3583 15.1734 19.1006 14.7008L17.3448 15.6585C17.7745 16.4463 18.3788 17.071 19.15 17.5098L20.1391 15.7715ZM19.1022 14.7039C18.8526 14.2424 18.707 13.6577 18.707 12.9141H16.707C16.707 13.9204 16.9052 14.8461 17.3431 15.6555L19.1022 14.7039ZM18.707 12.9141V5H16.707V12.9141H18.707ZM17.707 6H18.6602V4H17.707V6ZM17.6602 5V12.875H19.6602V5H17.6602ZM17.6602 12.875C17.6602 14.0921 18.0357 15.1671 18.8503 16.0027L20.2825 14.6067C19.8887 14.2027 19.6602 13.6579 19.6602 12.875H17.6602ZM18.8563 16.0088C19.6756 16.835 20.7287 17.2266 21.9258 17.2266V15.2266C21.1958 15.2266 20.676 15.0035 20.2765 14.6006L18.8563 16.0088ZM21.9258 17.2266C22.7071 17.2266 23.4457 17.0491 24.1238 16.6866L23.1809 14.9228C22.8069 15.1228 22.3944 15.2266 21.9258 15.2266V17.2266ZM24.1238 16.6866C24.8109 16.3192 25.3633 15.7918 25.7717 15.1223L24.0643 14.0808C23.8372 14.453 23.5458 14.7277 23.1808 14.9228L24.1238 16.6866ZM25.774 15.1185C26.2002 14.4128 26.3945 13.6082 26.3945 12.7422H24.3945C24.3945 13.3033 24.2712 13.7382 24.062 14.0846L25.774 15.1185ZM34.5391 5H35.5391V4H34.5391V5ZM34.5391 5.85156V6.85156H35.5391V5.85156H34.5391ZM29.2969 5.85156H28.2969V6.85156H29.2969V5.85156ZM29.2969 5V4H28.2969V5H29.2969ZM31.0703 2.125V1.125H30.0703V2.125H31.0703ZM32.0156 2.125H33.0156V1.125H32.0156V2.125ZM32.2969 15.3672L31.4394 15.8817L31.4445 15.8901L31.4497 15.8985L32.2969 15.3672ZM33.0469 16.0547L32.6058 16.9521L32.6148 16.9566L32.624 16.9609L33.0469 16.0547ZM34.4922 16.2344L34.2961 15.2538L34.2882 15.2554L34.4922 16.2344ZM34.8594 16.1328L35.8247 15.8719L35.5407 14.821L34.5176 15.193L34.8594 16.1328ZM35.0938 17L35.4301 17.9417L36.3002 17.631L36.0591 16.7391L35.0938 17ZM34.6094 17.1328L34.4077 16.1534L34.394 16.1562L34.3803 16.1594L34.6094 17.1328ZM32.5625 16.8594L32.1111 17.7517L32.1153 17.7538L32.5625 16.8594ZM31.4844 15.8828L32.3242 15.34L32.3242 15.34L31.4844 15.8828ZM33.5391 5V5.85156H35.5391V5H33.5391ZM34.5391 4.85156H29.2969V6.85156H34.5391V4.85156ZM30.2969 5.85156V5H28.2969V5.85156H30.2969ZM29.2969 6H34.5391V4H29.2969V6ZM31.0703 3.125H32.0156V1.125H31.0703V3.125ZM31.0156 2.125V14.1641H33.0156V2.125H31.0156ZM31.0156 14.1641C31.0156 14.7747 31.1319 15.3692 31.4394 15.8817L33.1544 14.8527C33.0869 14.7402 33.0156 14.5326 33.0156 14.1641H31.0156ZM31.4497 15.8985C31.735 16.3534 32.1217 16.7142 32.6058 16.9521L33.488 15.1572C33.3575 15.0931 33.2442 14.9955 33.1441 14.8359L31.4497 15.8985ZM32.624 16.9609C33.0725 17.1702 33.5506 17.2734 34.0469 17.2734V15.2734C33.8348 15.2734 33.6462 15.2308 33.4698 15.1485L32.624 16.9609ZM34.0469 17.2734C34.2654 17.2734 34.4856 17.2572 34.6961 17.2134L34.2882 15.2554C34.2488 15.2636 34.1721 15.2734 34.0469 15.2734V17.2734ZM34.6883 17.215C34.8637 17.1799 35.0351 17.133 35.2011 17.0726L34.5176 15.193C34.4545 15.216 34.3811 15.2368 34.2961 15.2538L34.6883 17.215ZM33.894 16.3937L34.1284 17.2609L36.0591 16.7391L35.8247 15.8719L33.894 16.3937ZM34.7574 16.0583C34.6621 16.0923 34.5465 16.1248 34.4077 16.1534L34.811 18.1123C35.0265 18.0679 35.2337 18.0119 35.4301 17.9417L34.7574 16.0583ZM34.3803 16.1594C34.2976 16.1789 34.1696 16.1953 33.9844 16.1953V18.1953C34.2783 18.1953 34.5669 18.1701 34.8384 18.1062L34.3803 16.1594ZM33.9844 16.1953C33.6399 16.1953 33.319 16.1196 33.0097 15.9649L32.1153 17.7538C32.7018 18.0471 33.3289 18.1953 33.9844 18.1953V16.1953ZM33.0139 15.9671C32.7335 15.8252 32.5066 15.6221 32.3242 15.34L30.6445 16.4256C31.0143 16.9977 31.5061 17.4457 32.1111 17.7517L33.0139 15.9671ZM32.3242 15.34C32.171 15.103 32.0703 14.7843 32.0703 14.3359H30.0703C30.0703 15.0959 30.2456 15.8085 30.6445 16.4256L32.3242 15.34ZM32.0703 14.3359V2.125H30.0703V14.3359H32.0703ZM42.6055 5H43.6055V4H42.6055V5ZM42.6055 5.85156V6.85156H43.6055V5.85156H42.6055ZM37.2852 5.85156H36.2852V6.85156H37.2852V5.85156ZM37.2852 5V4H36.2852V5H37.2852ZM39.0352 17H38.0352V18H39.0352V17ZM39.4492 1.58594L38.6094 1.04311L38.6094 1.04311L39.4492 1.58594ZM40.5352 0.609374L40.0921 -0.287114L40.0879 -0.285053L40.5352 0.609374ZM42.6992 0.343749L42.4629 1.31542L42.478 1.31909L42.4932 1.3223L42.6992 0.343749ZM43.2148 0.492187L44.1635 0.808415L44.4635 -0.0916507L43.5805 -0.438564L43.2148 0.492187ZM42.9336 1.33594L42.6051 2.28043L43.5619 2.61324L43.8823 1.65216L42.9336 1.33594ZM42.543 1.22656L42.3181 2.20099L42.326 2.20275L42.543 1.22656ZM40.5664 1.73437L39.8789 1.00817L39.8789 1.00817L40.5664 1.73437ZM39.9805 3.28125L40.9805 3.28182V3.28125H39.9805ZM39.9727 17V18H40.9721L40.9727 17.0006L39.9727 17ZM41.6055 5V5.85156H43.6055V5H41.6055ZM42.6055 4.85156H37.2852V6.85156H42.6055V4.85156ZM38.2852 5.85156V5H36.2852V5.85156H38.2852ZM37.2852 6H42.6055V4H37.2852V6ZM40.0352 17V3.13281H38.0352V17H40.0352ZM40.0352 3.13281C40.0352 2.68448 40.1359 2.36577 40.2891 2.12876L38.6094 1.04311C38.2105 1.66026 38.0352 2.37281 38.0352 3.13281H40.0352ZM40.2891 2.12876C40.4696 1.84944 40.697 1.64649 40.9824 1.5038L40.0879 -0.285053C39.4775 0.020177 38.9809 0.468266 38.6094 1.04311L40.2891 2.12876ZM40.9782 1.50585C41.2893 1.3521 41.6241 1.27344 41.9961 1.27344V-0.726563C41.3264 -0.726563 40.6872 -0.581269 40.0921 -0.287104L40.9782 1.50585ZM41.9961 1.27344C42.221 1.27344 42.3711 1.29308 42.4629 1.31542L42.9356 -0.627919C42.642 -0.699336 42.3232 -0.726563 41.9961 -0.726563V1.27344ZM42.4932 1.3223C42.6515 1.35561 42.7675 1.39086 42.8492 1.42294L43.5805 -0.438564C43.3705 -0.521066 43.1428 -0.584781 42.9052 -0.6348L42.4932 1.3223ZM42.2662 0.175959L41.9849 1.01971L43.8823 1.65216L44.1635 0.808415L42.2662 0.175959ZM43.2621 0.391439C43.1013 0.33549 42.9333 0.288916 42.7599 0.250375L42.326 2.20275C42.4339 2.22671 42.5263 2.25305 42.6051 2.28043L43.2621 0.391439ZM42.7678 0.252171C42.5382 0.199176 42.2974 0.179687 42.0586 0.179687V2.17969C42.1948 2.17969 42.2769 2.19145 42.3181 2.20095L42.7678 0.252171ZM42.0586 0.179687C41.2328 0.179687 40.4787 0.440429 39.8789 1.00817L41.2539 2.46058C41.4354 2.28874 41.676 2.17969 42.0586 2.17969V0.179687ZM39.8789 1.00817C39.2445 1.60875 38.9805 2.41267 38.9805 3.28125H40.9805C40.9805 2.82691 41.107 2.59958 41.2539 2.46058L39.8789 1.00817ZM38.9805 3.28068L38.9727 16.9994L40.9727 17.0006L40.9805 3.28182L38.9805 3.28068ZM39.9727 16H39.0352V18H39.9727V16ZM45.6191 17H44.6191V18H45.6191V17ZM45.6191 5V4H44.6191V5H45.6191ZM46.5645 5H47.5645V4H46.5645V5ZM46.5645 17V18H47.5645V17H46.5645ZM45.5488 2.65625L44.8542 3.37565L44.8603 3.38153L44.8665 3.3873L45.5488 2.65625ZM46.6348 1.59375L45.9402 2.31315L45.9463 2.31903L45.9524 2.3248L46.6348 1.59375ZM46.6426 2.65625L45.948 1.93685L45.948 1.93685L46.6426 2.65625ZM46.6191 17V5H44.6191V17H46.6191ZM45.6191 6H46.5645V4H45.6191V6ZM45.5645 5V17H47.5645V5H45.5645ZM46.5645 16H45.6191V18H46.5645V16ZM46.0957 1.875C46.1109 1.875 46.1401 1.87821 46.1741 1.89183C46.2078 1.90529 46.2268 1.92113 46.2311 1.92519L44.8665 3.3873C45.2026 3.701 45.6269 3.875 46.0957 3.875V1.875ZM46.2434 1.93685C46.2553 1.94834 46.2795 1.97657 46.2987 2.02178C46.3181 2.06715 46.3223 2.10553 46.3223 2.125H44.3223C44.3223 2.60701 44.5097 3.04303 44.8542 3.37565L46.2434 1.93685ZM46.3223 2.125C46.3223 2.14447 46.3181 2.18285 46.2987 2.22822C46.2795 2.27343 46.2553 2.30166 46.2434 2.31315L44.8542 0.874348C44.5097 1.20697 44.3223 1.64299 44.3223 2.125H46.3223ZM46.2434 2.31315C46.2323 2.32389 46.2075 2.34326 46.1702 2.35816C46.1333 2.37294 46.1049 2.375 46.0957 2.375V0.374999C45.628 0.374999 45.1952 0.545112 44.8542 0.874348L46.2434 2.31315ZM46.0957 2.375C46.0806 2.375 46.0489 2.37182 46.0107 2.3563C45.9726 2.34084 45.949 2.32164 45.9402 2.31315L47.3294 0.874348C46.9935 0.550082 46.5654 0.374999 46.0957 0.374999V2.375ZM45.9524 2.3248C45.9421 2.3151 45.9166 2.28712 45.8956 2.23958C45.8744 2.19146 45.8691 2.14907 45.8691 2.125H47.8691C47.8691 1.63146 47.67 1.1921 47.3171 0.862694L45.9524 2.3248ZM45.8691 2.125C45.8691 2.10553 45.8733 2.06715 45.8927 2.02178C45.9119 1.97657 45.9361 1.94834 45.948 1.93685L47.3372 3.37565C47.6817 3.04303 47.8691 2.60701 47.8691 2.125H45.8691ZM45.948 1.93685C45.9591 1.92611 45.9839 1.90674 46.0212 1.89183C46.0581 1.87705 46.0865 1.875 46.0957 1.875V3.875C46.5634 3.875 46.9962 3.70489 47.3372 3.37565L45.948 1.93685ZM54.7988 5H55.7988V4H54.7988V5ZM54.7988 5.85156V6.85156H55.7988V5.85156H54.7988ZM49.5566 5.85156H48.5566V6.85156H49.5566V5.85156ZM49.5566 5V4H48.5566V5H49.5566ZM51.3301 2.125V1.125H50.3301V2.125H51.3301ZM52.2754 2.125H53.2754V1.125H52.2754V2.125ZM52.5566 15.3672L51.6991 15.8817L51.7042 15.8901L51.7095 15.8985L52.5566 15.3672ZM53.3066 16.0547L52.8655 16.9521L52.8746 16.9566L52.8838 16.9609L53.3066 16.0547ZM54.752 16.2344L54.5558 15.2538L54.548 15.2554L54.752 16.2344ZM55.1191 16.1328L56.0845 15.8719L55.8005 14.821L54.7774 15.193L55.1191 16.1328ZM55.3535 17L55.6899 17.9417L56.5599 17.631L56.3189 16.7391L55.3535 17ZM54.8691 17.1328L54.6675 16.1534L54.6538 16.1562L54.6401 16.1594L54.8691 17.1328ZM52.8223 16.8594L52.3709 17.7517L52.3751 17.7538L52.8223 16.8594ZM51.7441 15.8828L52.584 15.34L52.584 15.34L51.7441 15.8828ZM53.7988 5V5.85156H55.7988V5H53.7988ZM54.7988 4.85156H49.5566V6.85156H54.7988V4.85156ZM50.5566 5.85156V5H48.5566V5.85156H50.5566ZM49.5566 6H54.7988V4H49.5566V6ZM51.3301 3.125H52.2754V1.125H51.3301V3.125ZM51.2754 2.125V14.1641H53.2754V2.125H51.2754ZM51.2754 14.1641C51.2754 14.7747 51.3916 15.3692 51.6991 15.8817L53.4141 14.8527C53.3466 14.7402 53.2754 14.5326 53.2754 14.1641H51.2754ZM51.7095 15.8985C51.9948 16.3534 52.3814 16.7142 52.8655 16.9521L53.7478 15.1572C53.6173 15.0931 53.5039 14.9955 53.4038 14.8359L51.7095 15.8985ZM52.8838 16.9609C53.3323 17.1702 53.8104 17.2734 54.3066 17.2734V15.2734C54.0945 15.2734 53.906 15.2308 53.7295 15.1485L52.8838 16.9609ZM54.3066 17.2734C54.5252 17.2734 54.7453 17.2572 54.9559 17.2134L54.548 15.2554C54.5086 15.2636 54.4319 15.2734 54.3066 15.2734V17.2734ZM54.9481 17.215C55.1234 17.1799 55.2949 17.133 55.4609 17.0726L54.7774 15.193C54.7142 15.216 54.6409 15.2368 54.5558 15.2538L54.9481 17.215ZM54.1538 16.3937L54.3882 17.2609L56.3189 16.7391L56.0845 15.8719L54.1538 16.3937ZM55.0172 16.0583C54.9219 16.0923 54.8062 16.1248 54.6675 16.1534L55.0708 18.1123C55.2862 18.0679 55.4935 18.0119 55.6899 17.9417L55.0172 16.0583ZM54.6401 16.1594C54.5574 16.1789 54.4294 16.1953 54.2441 16.1953V18.1953C54.5381 18.1953 54.8267 18.1701 55.0982 18.1062L54.6401 16.1594ZM54.2441 16.1953C53.8996 16.1953 53.5788 16.1196 53.2695 15.9649L52.3751 17.7538C52.9616 18.0471 53.5886 18.1953 54.2441 18.1953V16.1953ZM53.2737 15.9671C52.9932 15.8252 52.7663 15.6221 52.584 15.34L50.9043 16.4256C51.274 16.9977 51.7659 17.4457 52.3709 17.7517L53.2737 15.9671ZM52.584 15.34C52.4308 15.103 52.3301 14.7843 52.3301 14.3359H50.3301C50.3301 15.0959 50.5054 15.8085 50.9043 16.4256L52.584 15.34ZM52.3301 14.3359V2.125H50.3301V14.3359H52.3301ZM65.7441 7.58594L66.0007 8.55246L67.0203 8.28178L66.6956 7.27812L65.7441 7.58594ZM64.8613 7.82031L63.9093 8.12632L64.1999 9.03054L65.1179 8.78683L64.8613 7.82031ZM64.2598 6.6875L65.0332 6.05357L65.0332 6.05357L64.2598 6.6875ZM63.2754 5.95312L62.8625 6.86391L62.8698 6.8672L62.8771 6.87039L63.2754 5.95312ZM59.7051 6.34375L59.0911 5.55439L59.0876 5.55718L59.7051 6.34375ZM59.4395 9.47656L58.7372 10.1885L58.7422 10.1934L59.4395 9.47656ZM61.1816 10.3203L61.4242 9.35017L61.4211 9.34941L61.1816 10.3203ZM63.0254 10.7812L62.7829 11.7514L62.7854 11.752L63.0254 10.7812ZM65.166 11.9219L64.4267 12.5953L64.4301 12.5989L65.166 11.9219ZM65.3457 15.625L66.1634 16.2007L66.1634 16.2007L65.3457 15.625ZM63.8535 16.8203L63.4425 15.9087L63.4397 15.9099L63.8535 16.8203ZM58.8926 16.4687L58.302 17.2757L58.3058 17.2785L58.8926 16.4687ZM57.5098 14.2109L57.2614 13.2423L56.3367 13.4794L56.5306 14.4141L57.5098 14.2109ZM58.4238 13.9766L59.4005 13.7617L59.1781 12.7508L58.1755 13.0079L58.4238 13.9766ZM59.4941 15.7656L58.8892 16.562L58.8978 16.5684L59.4941 15.7656ZM64.0098 15.6797L63.401 14.8863L63.3977 14.8889L64.0098 15.6797ZM64.3848 12.5L65.1165 11.8184L65.1165 11.8184L64.3848 12.5ZM62.7754 11.6641L63.0146 10.6931L63.0133 10.6928L62.7754 11.6641ZM60.8613 11.1953L61.0992 10.224L61.099 10.224L60.8613 11.1953ZM58.6582 10.0469L57.9228 10.7246L57.9262 10.7282L58.6582 10.0469ZM58.4316 6.38281L57.6091 5.81406L57.6091 5.81406L58.4316 6.38281ZM59.8301 5.23438L60.2517 6.14117L60.2517 6.14117L59.8301 5.23438ZM64.3535 5.53906L64.9525 4.73828L64.9525 4.73828L64.3535 5.53906ZM65.4875 6.61942L64.6047 6.85379L65.1179 8.78683L66.0007 8.55246L65.4875 6.61942ZM65.8134 7.5143C65.6388 6.97139 65.3821 6.47926 65.0332 6.05357L63.4864 7.32143C63.6583 7.53116 63.8026 7.79424 63.9093 8.12632L65.8134 7.5143ZM65.0332 6.05357C64.6669 5.60672 64.2077 5.26774 63.6737 5.03586L62.8771 6.87039C63.1347 6.98226 63.3318 7.13287 63.4864 7.32143L65.0332 6.05357ZM63.6883 5.04234C63.1375 4.79264 62.5206 4.6875 61.8691 4.6875V6.6875C62.3114 6.6875 62.6321 6.75945 62.8625 6.86391L63.6883 5.04234ZM61.8691 4.6875C60.8201 4.6875 59.8672 4.95079 59.0911 5.5544L60.319 7.1331C60.668 6.86171 61.1578 6.6875 61.8691 6.6875V4.6875ZM59.0876 5.55718C58.291 6.18255 57.8691 7.04181 57.8691 8.05469H59.8691C59.8691 7.66131 60.0046 7.37995 60.3226 7.13032L59.0876 5.55718ZM57.8691 8.05469C57.8691 8.8736 58.1517 9.61096 58.7372 10.1885L60.1417 8.7646C59.9668 8.59216 59.8691 8.38161 59.8691 8.05469H57.8691ZM58.7422 10.1934C59.2992 10.7351 60.0708 11.0763 60.9422 11.2912L61.4211 9.34941C60.73 9.17894 60.3401 8.95759 60.1367 8.7597L58.7422 10.1934ZM60.9391 11.2905L62.7829 11.7514L63.2679 9.81111L61.4242 9.35017L60.9391 11.2905ZM62.7854 11.752C63.6105 11.956 64.122 12.2608 64.4267 12.5953L65.9053 11.2485C65.2517 10.5309 64.3361 10.0752 63.2654 9.81048L62.7854 11.752ZM64.4301 12.5989C64.7224 12.9167 64.8848 13.3157 64.8848 13.8672H66.8848C66.8848 12.8666 66.5679 11.9687 65.9019 11.2448L64.4301 12.5989ZM64.8848 13.8672C64.8848 14.3355 64.7615 14.7177 64.528 15.0493L66.1634 16.2007C66.6487 15.5114 66.8848 14.7217 66.8848 13.8672H64.8848ZM64.528 15.0493C64.2834 15.3968 63.9343 15.687 63.4425 15.9087L64.2645 17.732C65.0436 17.3807 65.6893 16.874 66.1634 16.2007L64.528 15.0493ZM63.4397 15.9099C62.9639 16.1262 62.3758 16.25 61.6504 16.25V18.25C62.6021 18.25 63.4827 18.0873 64.2673 17.7307L63.4397 15.9099ZM61.6504 16.25C60.6858 16.25 59.9874 16.0271 59.4794 15.659L58.3058 17.2785C59.2353 17.952 60.3754 18.25 61.6504 18.25V16.25ZM59.4832 15.6618C58.9891 15.3002 58.6484 14.7765 58.4889 14.0078L56.5306 14.4141C56.7774 15.6037 57.3585 16.5852 58.302 17.2757L59.4832 15.6618ZM57.7581 15.1796L58.6722 14.9452L58.1755 13.0079L57.2614 13.2423L57.7581 15.1796ZM57.4472 14.1914C57.6606 15.1616 58.1263 15.9824 58.8893 16.5619L60.099 14.9693C59.7786 14.7259 59.5308 14.3541 59.4005 13.7617L57.4472 14.1914ZM58.8978 16.5684C59.6625 17.1364 60.6068 17.375 61.6426 17.375V15.375C60.9075 15.375 60.4195 15.2073 60.0905 14.9629L58.8978 16.5684ZM61.6426 17.375C62.7779 17.375 63.8021 17.1049 64.6218 16.4705L63.3977 14.8889C63.0195 15.1816 62.4656 15.375 61.6426 15.375V17.375ZM64.6185 16.4731C65.4544 15.8317 65.916 14.9516 65.916 13.8984H63.916C63.916 14.2932 63.7734 14.6006 63.401 14.8863L64.6185 16.4731ZM65.916 13.8984C65.916 13.1107 65.6545 12.396 65.1165 11.8184L63.653 13.1816C63.8233 13.3644 63.916 13.582 63.916 13.8984H65.916ZM65.1165 11.8184C64.5847 11.2475 63.8456 10.8978 63.0146 10.6931L62.5362 12.635C63.1427 12.7845 63.4765 12.9921 63.653 13.1816L65.1165 11.8184ZM63.0133 10.6928L61.0992 10.224L60.6235 12.1666L62.5375 12.6354L63.0133 10.6928ZM61.099 10.224C60.236 10.0128 59.7033 9.70204 59.3902 9.36559L57.9262 10.7282C58.5922 11.4438 59.5283 11.8986 60.6237 12.1667L61.099 10.224ZM59.3936 9.36919C59.0875 9.03704 58.9238 8.63122 58.9238 8.08594H56.9238C56.9238 9.09274 57.2498 9.99421 57.9228 10.7246L59.3936 9.36919ZM58.9238 8.08594C58.9238 7.62519 59.0411 7.25969 59.2541 6.95157L57.6091 5.81406C57.1451 6.48511 56.9238 7.25502 56.9238 8.08594H58.9238ZM59.2541 6.95157C59.4816 6.62268 59.8026 6.34992 60.2517 6.14117L59.4085 4.32758C58.67 4.67091 58.0588 5.16378 57.6091 5.81406L59.2541 6.95157ZM60.2517 6.14117C60.6928 5.93607 61.2247 5.82031 61.8691 5.82031V3.82031C60.9824 3.82031 60.1548 3.9806 59.4085 4.32758L60.2517 6.14117ZM61.8691 5.82031C62.7276 5.82031 63.3286 6.02125 63.7546 6.33984L64.9525 4.73828C64.0972 4.09854 63.0419 3.82031 61.8691 3.82031V5.82031ZM63.7546 6.33984C64.2037 6.67576 64.5592 7.17203 64.7927 7.89376L66.6956 7.27812C66.3562 6.22901 65.7846 5.3607 64.9525 4.73828L63.7546 6.33984Z" fill="black" fill-opacity="0.2" mask="url(#path-1-outside-1_86_10856)"/>
</svg>
