<svg width="60" height="22" viewBox="0 0 60 22" fill="none" xmlns="http://www.w3.org/2000/svg">
<mask id="path-1-outside-1_86_10858" maskUnits="userSpaceOnUse" x="-1" y="-1" width="63" height="24" fill="black">
<rect fill="white" x="-1" y="-1" width="63" height="24"/>
<path d="M9.9375 5C9.85417 4.00521 9.44792 3.20052 8.71875 2.58594C7.99479 1.97135 7.05729 1.66406 5.90625 1.66406C5.13021 1.66406 4.4401 1.80729 3.83594 2.09375C3.23177 2.38021 2.75781 2.77083 2.41406 3.26562C2.07031 3.76042 1.89844 4.32812 1.89844 4.96875C1.89844 5.38021 1.97656 5.7526 2.13281 6.08594C2.29427 6.41406 2.52083 6.70833 2.8125 6.96875C3.10417 7.22396 3.45052 7.44792 3.85156 7.64062C4.2526 7.83333 4.69531 8.0026 5.17969 8.14844L6.92969 8.66406C7.52865 8.84635 8.08073 9.05729 8.58594 9.29687C9.09635 9.53646 9.53906 9.82292 9.91406 10.1562C10.2943 10.4844 10.5885 10.8698 10.7969 11.3125C11.0104 11.7552 11.1172 12.2656 11.1172 12.8438C11.1172 13.6875 10.8984 14.4427 10.4609 15.1094C10.0286 15.776 9.41146 16.3021 8.60938 16.6875C7.8125 17.0677 6.8724 17.2578 5.78906 17.2578C4.75781 17.2578 3.85938 17.0833 3.09375 16.7344C2.33333 16.3854 1.73177 15.901 1.28906 15.2812C0.846354 14.6562 0.596354 13.9375 0.539063 13.125H1.53906C1.59115 13.7865 1.80208 14.3594 2.17188 14.8437C2.54688 15.3229 3.04427 15.6927 3.66406 15.9531C4.28385 16.2135 4.99219 16.3437 5.78906 16.3437C6.64844 16.3437 7.40625 16.1979 8.0625 15.9062C8.71875 15.6094 9.23177 15.1979 9.60156 14.6719C9.97135 14.1458 10.1563 13.5339 10.1563 12.8359C10.1563 12.2734 10.0234 11.7917 9.75781 11.3906C9.49219 10.9896 9.09896 10.6432 8.57813 10.3516C8.0625 10.0599 7.42188 9.79948 6.65625 9.57031L4.78906 9.00781C3.53906 8.6276 2.58333 8.10937 1.92188 7.45312C1.26563 6.79687 0.9375 5.97917 0.9375 5C0.9375 4.17708 1.15625 3.44792 1.59375 2.8125C2.03125 2.17187 2.625 1.66927 3.375 1.30469C4.13021 0.940104 4.98177 0.757812 5.92969 0.757812C6.88281 0.757812 7.72396 0.942708 8.45312 1.3125C9.18229 1.67708 9.76042 2.17969 10.1875 2.82031C10.6146 3.45573 10.8516 4.18229 10.8984 5H9.9375ZM18.8828 5V5.85156H13.6406V5H18.8828ZM15.4141 2.125H16.3594V14.1641C16.3594 14.6536 16.4531 15.0547 16.6406 15.3672C16.8333 15.6745 17.0833 15.9036 17.3906 16.0547C17.7031 16.2005 18.0365 16.2734 18.3906 16.2734C18.5625 16.2734 18.7109 16.2604 18.8359 16.2344C18.9661 16.2083 19.0885 16.1745 19.2031 16.1328L19.4375 17C19.2917 17.0521 19.1302 17.0964 18.9531 17.1328C18.776 17.1745 18.5677 17.1953 18.3281 17.1953C17.8281 17.1953 17.3542 17.0833 16.9062 16.8594C16.4635 16.6354 16.1042 16.3099 15.8281 15.8828C15.5521 15.4557 15.4141 14.9401 15.4141 14.3359V2.125ZM23.1836 21.5C22.944 21.5 22.707 21.474 22.4727 21.4219C22.2383 21.3698 22.0273 21.3021 21.8398 21.2188L22.1211 20.3828C22.6107 20.5703 23.0534 20.638 23.4492 20.5859C23.8503 20.5339 24.2044 20.3516 24.5117 20.0391C24.819 19.7266 25.0794 19.2682 25.293 18.6641L25.8398 17.1641L21.4414 5H22.4648L26.2773 15.7734H26.3555L30.168 5H31.1914L26.1289 19.0391C25.9362 19.5807 25.694 20.0339 25.4023 20.3984C25.1107 20.763 24.7773 21.0365 24.4023 21.2188C24.0326 21.4063 23.6263 21.5 23.1836 21.5ZM35.123 1V17H34.1699V1H35.123ZM39.1152 17V5H40.0605V17H39.1152ZM39.5918 2.875C39.3835 2.875 39.2012 2.80208 39.0449 2.65625C38.8939 2.51042 38.8184 2.33333 38.8184 2.125C38.8184 1.91667 38.8939 1.73958 39.0449 1.59375C39.196 1.44792 39.3783 1.375 39.5918 1.375C39.8001 1.375 39.9798 1.44792 40.1309 1.59375C40.2871 1.73958 40.3652 1.91667 40.3652 2.125C40.3652 2.33333 40.2897 2.51042 40.1387 2.65625C39.9876 2.80208 39.8053 2.875 39.5918 2.875ZM51.6777 7.58594L50.7949 7.82031C50.6543 7.38281 50.4538 7.00521 50.1934 6.6875C49.9329 6.36979 49.6048 6.125 49.209 5.95312C48.8184 5.77604 48.3496 5.6875 47.8027 5.6875C46.9225 5.6875 46.2012 5.90625 45.6387 6.34375C45.0814 6.78125 44.8027 7.35156 44.8027 8.05469C44.8027 8.6276 44.9928 9.10156 45.373 9.47656C45.7533 9.84635 46.334 10.1276 47.1152 10.3203L48.959 10.7812C49.9069 11.0156 50.6204 11.3958 51.0996 11.9219C51.5788 12.4427 51.8184 13.0911 51.8184 13.8672C51.8184 14.5286 51.6387 15.1146 51.2793 15.625C50.9199 16.1354 50.4225 16.5339 49.7871 16.8203C49.1569 17.1068 48.4225 17.25 47.584 17.25C46.4642 17.25 45.5449 16.9896 44.8262 16.4687C44.1074 15.9427 43.6465 15.1901 43.4434 14.2109L44.3574 13.9766C44.5293 14.7578 44.8861 15.3542 45.4277 15.7656C45.9746 16.1719 46.6908 16.375 47.5762 16.375C48.5553 16.375 49.3444 16.1432 49.9434 15.6797C50.5475 15.2161 50.8496 14.6224 50.8496 13.8984C50.8496 13.3464 50.6725 12.8802 50.3184 12.5C49.9642 12.1198 49.4277 11.8411 48.709 11.6641L46.7949 11.1953C45.8158 10.9557 45.0814 10.5729 44.5918 10.0469C44.1022 9.51562 43.8574 8.86198 43.8574 8.08594C43.8574 7.4401 44.0267 6.8724 44.3652 6.38281C44.7038 5.89323 45.1699 5.51042 45.7637 5.23438C46.3574 4.95833 47.0371 4.82031 47.8027 4.82031C48.8184 4.82031 49.6465 5.0599 50.2871 5.53906C50.9277 6.01823 51.3913 6.70052 51.6777 7.58594ZM59.3594 5V5.85156H54.1172V5H59.3594ZM55.8906 2.125H56.8359V14.1641C56.8359 14.6536 56.9297 15.0547 57.1172 15.3672C57.3099 15.6745 57.5599 15.9036 57.8672 16.0547C58.1797 16.2005 58.513 16.2734 58.8672 16.2734C59.0391 16.2734 59.1875 16.2604 59.3125 16.2344C59.4427 16.2083 59.5651 16.1745 59.6797 16.1328L59.9141 17C59.7682 17.0521 59.6068 17.0964 59.4297 17.1328C59.2526 17.1745 59.0443 17.1953 58.8047 17.1953C58.3047 17.1953 57.8307 17.0833 57.3828 16.8594C56.9401 16.6354 56.5807 16.3099 56.3047 15.8828C56.0286 15.4557 55.8906 14.9401 55.8906 14.3359V2.125Z"/>
</mask>
<path d="M9.9375 5C9.85417 4.00521 9.44792 3.20052 8.71875 2.58594C7.99479 1.97135 7.05729 1.66406 5.90625 1.66406C5.13021 1.66406 4.4401 1.80729 3.83594 2.09375C3.23177 2.38021 2.75781 2.77083 2.41406 3.26562C2.07031 3.76042 1.89844 4.32812 1.89844 4.96875C1.89844 5.38021 1.97656 5.7526 2.13281 6.08594C2.29427 6.41406 2.52083 6.70833 2.8125 6.96875C3.10417 7.22396 3.45052 7.44792 3.85156 7.64062C4.2526 7.83333 4.69531 8.0026 5.17969 8.14844L6.92969 8.66406C7.52865 8.84635 8.08073 9.05729 8.58594 9.29687C9.09635 9.53646 9.53906 9.82292 9.91406 10.1562C10.2943 10.4844 10.5885 10.8698 10.7969 11.3125C11.0104 11.7552 11.1172 12.2656 11.1172 12.8438C11.1172 13.6875 10.8984 14.4427 10.4609 15.1094C10.0286 15.776 9.41146 16.3021 8.60938 16.6875C7.8125 17.0677 6.8724 17.2578 5.78906 17.2578C4.75781 17.2578 3.85938 17.0833 3.09375 16.7344C2.33333 16.3854 1.73177 15.901 1.28906 15.2812C0.846354 14.6562 0.596354 13.9375 0.539063 13.125H1.53906C1.59115 13.7865 1.80208 14.3594 2.17188 14.8437C2.54688 15.3229 3.04427 15.6927 3.66406 15.9531C4.28385 16.2135 4.99219 16.3437 5.78906 16.3437C6.64844 16.3437 7.40625 16.1979 8.0625 15.9062C8.71875 15.6094 9.23177 15.1979 9.60156 14.6719C9.97135 14.1458 10.1563 13.5339 10.1563 12.8359C10.1563 12.2734 10.0234 11.7917 9.75781 11.3906C9.49219 10.9896 9.09896 10.6432 8.57813 10.3516C8.0625 10.0599 7.42188 9.79948 6.65625 9.57031L4.78906 9.00781C3.53906 8.6276 2.58333 8.10937 1.92188 7.45312C1.26563 6.79687 0.9375 5.97917 0.9375 5C0.9375 4.17708 1.15625 3.44792 1.59375 2.8125C2.03125 2.17187 2.625 1.66927 3.375 1.30469C4.13021 0.940104 4.98177 0.757812 5.92969 0.757812C6.88281 0.757812 7.72396 0.942708 8.45312 1.3125C9.18229 1.67708 9.76042 2.17969 10.1875 2.82031C10.6146 3.45573 10.8516 4.18229 10.8984 5H9.9375ZM18.8828 5V5.85156H13.6406V5H18.8828ZM15.4141 2.125H16.3594V14.1641C16.3594 14.6536 16.4531 15.0547 16.6406 15.3672C16.8333 15.6745 17.0833 15.9036 17.3906 16.0547C17.7031 16.2005 18.0365 16.2734 18.3906 16.2734C18.5625 16.2734 18.7109 16.2604 18.8359 16.2344C18.9661 16.2083 19.0885 16.1745 19.2031 16.1328L19.4375 17C19.2917 17.0521 19.1302 17.0964 18.9531 17.1328C18.776 17.1745 18.5677 17.1953 18.3281 17.1953C17.8281 17.1953 17.3542 17.0833 16.9062 16.8594C16.4635 16.6354 16.1042 16.3099 15.8281 15.8828C15.5521 15.4557 15.4141 14.9401 15.4141 14.3359V2.125ZM23.1836 21.5C22.944 21.5 22.707 21.474 22.4727 21.4219C22.2383 21.3698 22.0273 21.3021 21.8398 21.2188L22.1211 20.3828C22.6107 20.5703 23.0534 20.638 23.4492 20.5859C23.8503 20.5339 24.2044 20.3516 24.5117 20.0391C24.819 19.7266 25.0794 19.2682 25.293 18.6641L25.8398 17.1641L21.4414 5H22.4648L26.2773 15.7734H26.3555L30.168 5H31.1914L26.1289 19.0391C25.9362 19.5807 25.694 20.0339 25.4023 20.3984C25.1107 20.763 24.7773 21.0365 24.4023 21.2188C24.0326 21.4063 23.6263 21.5 23.1836 21.5ZM35.123 1V17H34.1699V1H35.123ZM39.1152 17V5H40.0605V17H39.1152ZM39.5918 2.875C39.3835 2.875 39.2012 2.80208 39.0449 2.65625C38.8939 2.51042 38.8184 2.33333 38.8184 2.125C38.8184 1.91667 38.8939 1.73958 39.0449 1.59375C39.196 1.44792 39.3783 1.375 39.5918 1.375C39.8001 1.375 39.9798 1.44792 40.1309 1.59375C40.2871 1.73958 40.3652 1.91667 40.3652 2.125C40.3652 2.33333 40.2897 2.51042 40.1387 2.65625C39.9876 2.80208 39.8053 2.875 39.5918 2.875ZM51.6777 7.58594L50.7949 7.82031C50.6543 7.38281 50.4538 7.00521 50.1934 6.6875C49.9329 6.36979 49.6048 6.125 49.209 5.95312C48.8184 5.77604 48.3496 5.6875 47.8027 5.6875C46.9225 5.6875 46.2012 5.90625 45.6387 6.34375C45.0814 6.78125 44.8027 7.35156 44.8027 8.05469C44.8027 8.6276 44.9928 9.10156 45.373 9.47656C45.7533 9.84635 46.334 10.1276 47.1152 10.3203L48.959 10.7812C49.9069 11.0156 50.6204 11.3958 51.0996 11.9219C51.5788 12.4427 51.8184 13.0911 51.8184 13.8672C51.8184 14.5286 51.6387 15.1146 51.2793 15.625C50.9199 16.1354 50.4225 16.5339 49.7871 16.8203C49.1569 17.1068 48.4225 17.25 47.584 17.25C46.4642 17.25 45.5449 16.9896 44.8262 16.4687C44.1074 15.9427 43.6465 15.1901 43.4434 14.2109L44.3574 13.9766C44.5293 14.7578 44.8861 15.3542 45.4277 15.7656C45.9746 16.1719 46.6908 16.375 47.5762 16.375C48.5553 16.375 49.3444 16.1432 49.9434 15.6797C50.5475 15.2161 50.8496 14.6224 50.8496 13.8984C50.8496 13.3464 50.6725 12.8802 50.3184 12.5C49.9642 12.1198 49.4277 11.8411 48.709 11.6641L46.7949 11.1953C45.8158 10.9557 45.0814 10.5729 44.5918 10.0469C44.1022 9.51562 43.8574 8.86198 43.8574 8.08594C43.8574 7.4401 44.0267 6.8724 44.3652 6.38281C44.7038 5.89323 45.1699 5.51042 45.7637 5.23438C46.3574 4.95833 47.0371 4.82031 47.8027 4.82031C48.8184 4.82031 49.6465 5.0599 50.2871 5.53906C50.9277 6.01823 51.3913 6.70052 51.6777 7.58594ZM59.3594 5V5.85156H54.1172V5H59.3594ZM55.8906 2.125H56.8359V14.1641C56.8359 14.6536 56.9297 15.0547 57.1172 15.3672C57.3099 15.6745 57.5599 15.9036 57.8672 16.0547C58.1797 16.2005 58.513 16.2734 58.8672 16.2734C59.0391 16.2734 59.1875 16.2604 59.3125 16.2344C59.4427 16.2083 59.5651 16.1745 59.6797 16.1328L59.9141 17C59.7682 17.0521 59.6068 17.0964 59.4297 17.1328C59.2526 17.1745 59.0443 17.1953 58.8047 17.1953C58.3047 17.1953 57.8307 17.0833 57.3828 16.8594C56.9401 16.6354 56.5807 16.3099 56.3047 15.8828C56.0286 15.4557 55.8906 14.9401 55.8906 14.3359V2.125Z" fill="black"/>
<path d="M9.9375 5L8.94099 5.08348L9.01777 6H9.9375V5ZM8.71875 2.58594L8.07158 3.34829L8.07428 3.35056L8.71875 2.58594ZM3.83594 2.09375L3.40752 1.19017L3.40752 1.19017L3.83594 2.09375ZM2.41406 3.26562L1.59281 2.69507L1.5928 2.69507L2.41406 3.26562ZM2.13281 6.08594L1.22735 6.51037L1.23137 6.51895L1.23556 6.52744L2.13281 6.08594ZM2.8125 6.96875L2.14645 7.71472L2.154 7.72133L2.8125 6.96875ZM3.85156 7.64062L4.28467 6.73928L4.28467 6.73928L3.85156 7.64062ZM5.17969 8.14844L4.89139 9.106L4.89706 9.10767L5.17969 8.14844ZM6.92969 8.66406L7.22086 7.70735L7.21232 7.70483L6.92969 8.66406ZM8.58594 9.29687L8.15745 10.2004L8.16103 10.2021L8.58594 9.29687ZM9.91406 10.1562L9.2497 10.9037L9.25517 10.9085L9.26071 10.9133L9.91406 10.1562ZM10.7969 11.3125L9.89202 11.7383L9.89618 11.747L10.7969 11.3125ZM10.4609 15.1094L9.62488 14.5607L9.6219 14.5653L10.4609 15.1094ZM8.60938 16.6875L9.04 17.59L9.04249 17.5888L8.60938 16.6875ZM3.09375 16.7344L2.67667 17.6432L2.67901 17.6443L3.09375 16.7344ZM1.28906 15.2812L0.473032 15.8593L0.475329 15.8625L1.28906 15.2812ZM0.539063 13.125V12.125H-0.533933L-0.458461 13.1953L0.539063 13.125ZM1.53906 13.125L2.53598 13.0465L2.46342 12.125H1.53906V13.125ZM2.17188 14.8437L1.37698 15.4506L1.38437 15.4601L2.17188 14.8437ZM3.66406 15.9531L3.2767 16.8751L3.2767 16.8751L3.66406 15.9531ZM8.0625 15.9062L8.46865 16.8201L8.47467 16.8174L8.0625 15.9062ZM9.60156 14.6719L8.78347 14.0968L8.78347 14.0968L9.60156 14.6719ZM9.75781 11.3906L8.9241 11.9428L9.75781 11.3906ZM8.57813 10.3516L8.08577 11.222L8.08952 11.2241L8.57813 10.3516ZM6.65625 9.57031L6.3678 10.5278L6.3695 10.5283L6.65625 9.57031ZM4.78906 9.00781L4.49806 9.96454L4.50061 9.96531L4.78906 9.00781ZM1.92188 7.45312L1.21476 8.16024L1.21757 8.16302L1.92188 7.45312ZM1.59375 2.8125L2.4174 3.37961L2.41955 3.37646L1.59375 2.8125ZM3.375 1.30469L2.94025 0.404132L2.93781 0.405319L3.375 1.30469ZM8.45312 1.3125L8.00082 2.20438L8.00591 2.20693L8.45312 1.3125ZM10.1875 2.82031L9.35544 3.37502L9.35755 3.37815L10.1875 2.82031ZM10.8984 5V6H11.9574L11.8968 4.94277L10.8984 5ZM10.934 4.91652C10.8297 3.67074 10.3059 2.61588 9.36322 1.82131L8.07428 3.35056C8.5899 3.78516 8.87868 4.33967 8.94099 5.08348L10.934 4.91652ZM9.36592 1.82359C8.42496 1.02479 7.242 0.664063 5.90625 0.664063V2.66406C6.87259 2.66406 7.56463 2.91792 8.07158 3.34828L9.36592 1.82359ZM5.90625 0.664063C5.00574 0.664063 4.16547 0.830795 3.40752 1.19017L4.26436 2.99733C4.71473 2.78379 5.25468 2.66406 5.90625 2.66406V0.664063ZM3.40752 1.19017C2.66332 1.54302 2.04682 2.04157 1.59281 2.69507L3.23532 3.83618C3.46881 3.5001 3.80023 3.21739 4.26436 2.99733L3.40752 1.19017ZM1.5928 2.69507C1.12514 3.36823 0.898437 4.1378 0.898437 4.96875H2.89844C2.89844 4.51845 3.01549 4.15261 3.23532 3.83618L1.5928 2.69507ZM0.898437 4.96875C0.898437 5.50953 1.00186 6.02932 1.22735 6.51037L3.03827 5.6615C2.95126 5.47588 2.89844 5.25088 2.89844 4.96875H0.898437ZM1.23556 6.52744C1.45764 6.97878 1.76559 7.3746 2.14648 7.71469L3.47852 6.22281C3.27608 6.04207 3.1309 5.84935 3.03007 5.64443L1.23556 6.52744ZM2.154 7.72133C2.52291 8.04412 2.94768 8.31575 3.41845 8.54197L4.28467 6.73928C3.95336 6.58008 3.68543 6.40379 3.471 6.21617L2.154 7.72133ZM3.41845 8.54196C3.87206 8.75993 4.36396 8.94718 4.8914 9.10598L5.46798 7.1909C5.02667 7.05803 4.63315 6.90673 4.28467 6.73928L3.41845 8.54196ZM4.89706 9.10767L6.64706 9.62329L7.21232 7.70483L5.46232 7.18921L4.89706 9.10767ZM6.63853 9.62074C7.19595 9.79039 7.70154 9.98422 8.15745 10.2004L9.01442 8.39333C8.45991 8.13036 7.86134 7.90232 7.22085 7.70739L6.63853 9.62074ZM8.16103 10.2021C8.59506 10.4058 8.95478 10.6415 9.2497 10.9037L10.5784 9.40884C10.1233 9.00433 9.59765 8.66708 9.01084 8.39164L8.16103 10.2021ZM9.26071 10.9133C9.53769 11.1523 9.74501 11.4258 9.89206 11.7383L11.7017 10.8867C11.4321 10.3138 11.0509 9.81641 10.5674 9.39919L9.26071 10.9133ZM9.89618 11.747C10.0338 12.0323 10.1172 12.3897 10.1172 12.8438H12.1172C12.1172 12.1415 11.987 11.4781 11.6976 10.878L9.89618 11.747ZM10.1172 12.8438C10.1172 13.5045 9.94907 14.0667 9.62489 14.5607L11.297 15.658C11.8478 14.8187 12.1172 13.8705 12.1172 12.8438H10.1172ZM9.6219 14.5653C9.30117 15.0599 8.83319 15.4705 8.17626 15.7862L9.04249 17.5888C9.98973 17.1337 10.7561 16.4922 11.3 15.6534L9.6219 14.5653ZM8.17875 15.785C7.54337 16.0881 6.75652 16.2578 5.78906 16.2578V18.2578C6.98827 18.2578 8.08163 18.0473 9.04 17.59L8.17875 15.785ZM5.78906 16.2578C4.86936 16.2578 4.11796 16.1022 3.50849 15.8244L2.67901 17.6443C3.60079 18.0644 4.64627 18.2578 5.78906 18.2578V16.2578ZM3.51083 15.8255C2.89291 15.5419 2.43434 15.1642 2.1028 14.7L0.475329 15.8625C1.0292 16.6379 1.77375 17.2289 2.67667 17.6432L3.51083 15.8255ZM2.10509 14.7032C1.775 14.2372 1.58185 13.6966 1.53659 13.0547L-0.458461 13.1953C-0.389141 14.1784 -0.0822927 15.0753 0.473038 15.8593L2.10509 14.7032ZM0.539063 14.125H1.53906V12.125H0.539063V14.125ZM0.542148 13.2035C0.607944 14.0391 0.880095 14.7996 1.37703 15.4506L2.96672 14.2369C2.72407 13.9191 2.57435 13.5338 2.53598 13.0465L0.542148 13.2035ZM1.38437 15.4601C1.87523 16.0873 2.51652 16.5556 3.2767 16.8751L4.05143 15.0312C3.57203 14.8298 3.21852 14.5586 2.95938 14.2274L1.38437 15.4601ZM3.2767 16.8751C4.03966 17.1956 4.88339 17.3437 5.78906 17.3437V15.3437C5.10099 15.3437 4.52805 15.2315 4.05143 15.0312L3.2767 16.8751ZM5.78906 17.3437C6.76131 17.3437 7.66193 17.1786 8.46864 16.8201L7.65636 14.9924C7.15057 15.2172 6.53557 15.3437 5.78906 15.3437V17.3437ZM8.47467 16.8174C9.27379 16.4559 9.93507 15.9363 10.4197 15.247L8.78347 14.0968C8.52847 14.4595 8.16371 14.7629 7.65033 14.9951L8.47467 16.8174ZM10.4197 15.247C10.918 14.538 11.1563 13.7212 11.1563 12.8359H9.15625C9.15625 13.3465 9.02468 13.7537 8.78347 14.0968L10.4197 15.247ZM11.1563 12.8359C11.1563 12.111 10.983 11.4294 10.5915 10.8384L8.9241 11.9428C9.06391 12.1539 9.15625 12.4358 9.15625 12.8359H11.1563ZM10.5915 10.8384C10.2193 10.2765 9.69361 9.83011 9.06673 9.47906L8.08952 11.2241C8.50431 11.4563 8.76504 11.7027 8.9241 11.9428L10.5915 10.8384ZM9.07047 9.48116C8.47174 9.14249 7.75715 8.856 6.943 8.61231L6.3695 10.5283C7.08661 10.743 7.65326 10.9773 8.08578 11.222L9.07047 9.48116ZM6.9447 8.61282L5.07751 8.05032L4.50061 9.96531L6.3678 10.5278L6.9447 8.61282ZM5.08007 8.05109C3.92679 7.7003 3.13495 7.248 2.62618 6.74323L1.21757 8.16302C2.03171 8.97075 3.15134 9.55491 4.49806 9.96453L5.08007 8.05109ZM2.62898 6.74602C2.17144 6.28847 1.9375 5.73018 1.9375 5H-0.0624999C-0.0624999 6.22816 0.359811 7.30527 1.21477 8.16023L2.62898 6.74602ZM1.9375 5C1.9375 4.36538 2.10257 3.83685 2.4174 3.3796L0.770102 2.2454C0.209929 3.05898 -0.0624999 3.98879 -0.0624999 5H1.9375ZM2.41955 3.37646C2.75158 2.89028 3.20659 2.49845 3.81219 2.20406L2.93781 0.405319C2.04341 0.840095 1.31092 1.45347 0.767949 2.24854L2.41955 3.37646ZM3.80975 2.20524C4.41266 1.91418 5.1126 1.75781 5.92969 1.75781V-0.242188C4.85094 -0.242188 3.84775 -0.0339685 2.94025 0.404135L3.80975 2.20524ZM5.92969 1.75781C6.75169 1.75781 7.43335 1.91657 8.00082 2.20436L8.90543 0.420635C8.01457 -0.0311569 7.01394 -0.242188 5.92969 -0.242188V1.75781ZM8.00591 2.20693C8.58892 2.49843 9.03062 2.88777 9.35545 3.37501L11.0196 2.26561C10.4902 1.4716 9.77566 0.855734 8.90034 0.418072L8.00591 2.20693ZM9.35755 3.37815C9.67765 3.85439 9.86272 4.40551 9.90008 5.05723L11.8968 4.94277C11.8404 3.95907 11.5515 3.05707 11.0175 2.26248L9.35755 3.37815ZM10.8984 4H9.9375V6H10.8984V4ZM18.8828 5H19.8828V4H18.8828V5ZM18.8828 5.85156V6.85156H19.8828V5.85156H18.8828ZM13.6406 5.85156H12.6406V6.85156H13.6406V5.85156ZM13.6406 5V4H12.6406V5H13.6406ZM15.4141 2.125V1.125H14.4141V2.125H15.4141ZM16.3594 2.125H17.3594V1.125H16.3594V2.125ZM16.6406 15.3672L15.7831 15.8817L15.7882 15.8901L15.7934 15.8985L16.6406 15.3672ZM17.3906 16.0547L16.9495 16.9521L16.9586 16.9566L16.9677 16.9609L17.3906 16.0547ZM18.8359 16.2344L18.6398 15.2538L18.632 15.2554L18.8359 16.2344ZM19.2031 16.1328L20.1685 15.8719L19.8845 14.821L18.8614 15.193L19.2031 16.1328ZM19.4375 17L19.7738 17.9417L20.6439 17.631L20.4029 16.7391L19.4375 17ZM18.9531 17.1328L18.7515 16.1534L18.7377 16.1562L18.7241 16.1594L18.9531 17.1328ZM16.9062 16.8594L16.4548 17.7517L16.459 17.7538L16.9062 16.8594ZM15.8281 15.8828L16.668 15.34L16.668 15.34L15.8281 15.8828ZM17.8828 5V5.85156H19.8828V5H17.8828ZM18.8828 4.85156H13.6406V6.85156H18.8828V4.85156ZM14.6406 5.85156V5H12.6406V5.85156H14.6406ZM13.6406 6H18.8828V4H13.6406V6ZM15.4141 3.125H16.3594V1.125H15.4141V3.125ZM15.3594 2.125V14.1641H17.3594V2.125H15.3594ZM15.3594 14.1641C15.3594 14.7747 15.4756 15.3692 15.7831 15.8817L17.4981 14.8527C17.4306 14.7402 17.3594 14.5326 17.3594 14.1641H15.3594ZM15.7934 15.8985C16.0787 16.3534 16.4654 16.7142 16.9495 16.9521L17.8317 15.1572C17.7012 15.0931 17.5879 14.9955 17.4878 14.8359L15.7934 15.8985ZM16.9677 16.9609C17.4163 17.1702 17.8944 17.2734 18.3906 17.2734V15.2734C18.1785 15.2734 17.99 15.2308 17.8135 15.1485L16.9677 16.9609ZM18.3906 17.2734C18.6091 17.2734 18.8293 17.2572 19.0399 17.2134L18.632 15.2554C18.5925 15.2636 18.5159 15.2734 18.3906 15.2734V17.2734ZM19.0321 17.215C19.2074 17.1799 19.3789 17.133 19.5449 17.0726L18.8614 15.193C18.7982 15.216 18.7249 15.2368 18.6398 15.2538L19.0321 17.215ZM18.2378 16.3937L18.4721 17.2609L20.4029 16.7391L20.1685 15.8719L18.2378 16.3937ZM19.1012 16.0583C19.0058 16.0923 18.8902 16.1248 18.7515 16.1534L19.1548 18.1123C19.3702 18.0679 19.5775 18.0119 19.7738 17.9417L19.1012 16.0583ZM18.7241 16.1594C18.6414 16.1789 18.5134 16.1953 18.3281 16.1953V18.1953C18.6221 18.1953 18.9107 18.1701 19.1822 18.1062L18.7241 16.1594ZM18.3281 16.1953C17.9836 16.1953 17.6628 16.1196 17.3535 15.9649L16.459 17.7538C17.0456 18.0471 17.6726 18.1953 18.3281 18.1953V16.1953ZM17.3577 15.9671C17.0772 15.8252 16.8503 15.6221 16.668 15.34L14.9883 16.4256C15.358 16.9977 15.8499 17.4457 16.4548 17.7517L17.3577 15.9671ZM16.668 15.34C16.5148 15.103 16.4141 14.7843 16.4141 14.3359H14.4141C14.4141 15.0959 14.5894 15.8085 14.9883 16.4256L16.668 15.34ZM16.4141 14.3359V2.125H14.4141V14.3359H16.4141ZM22.4727 21.4219L22.2557 22.3981L22.2557 22.3981L22.4727 21.4219ZM21.8398 21.2188L20.8921 20.8999L20.6017 21.7628L21.4337 22.1326L21.8398 21.2188ZM22.1211 20.3828L22.4787 19.449L21.5056 19.0763L21.1733 20.0639L22.1211 20.3828ZM23.4492 20.5859L23.3204 19.5943L23.3188 19.5945L23.4492 20.5859ZM24.5117 20.0391L23.7987 19.3379L23.7987 19.3379L24.5117 20.0391ZM25.293 18.6641L24.3534 18.3215L24.3501 18.3308L25.293 18.6641ZM25.8398 17.1641L26.7794 17.5066L26.9037 17.1655L26.7803 16.824L25.8398 17.1641ZM21.4414 5V4H20.0164L20.501 5.34004L21.4414 5ZM22.4648 5L23.4076 4.66639L23.1717 4H22.4648V5ZM26.2773 15.7734L25.3346 16.107L25.5705 16.7734H26.2773V15.7734ZM26.3555 15.7734V16.7734H27.0624L27.2982 16.107L26.3555 15.7734ZM30.168 5V4H29.4611L29.2253 4.66639L30.168 5ZM31.1914 5L32.1321 5.33922L32.615 4H31.1914V5ZM26.1289 19.0391L25.1882 18.6998L25.1868 18.7039L26.1289 19.0391ZM25.4023 20.3984L26.1832 21.0231L26.1832 21.0231L25.4023 20.3984ZM24.4023 21.2188L23.9652 20.3194L23.9576 20.3231L23.9501 20.3268L24.4023 21.2188ZM23.1836 20.5C23.0171 20.5 22.8529 20.482 22.6896 20.4457L22.2557 22.3981C22.5612 22.4659 22.8709 22.5 23.1836 22.5V20.5ZM22.6896 20.4457C22.5095 20.4057 22.3634 20.3571 22.246 20.3049L21.4337 22.1326C21.6913 22.247 21.967 22.3339 22.2557 22.3981L22.6896 20.4457ZM22.7876 21.5376L23.0689 20.7017L21.1733 20.0639L20.8921 20.8999L22.7876 21.5376ZM21.7634 21.3167C22.3614 21.5457 22.9753 21.6569 23.5797 21.5774L23.3188 19.5945C23.1315 19.6191 22.86 19.595 22.4787 19.449L21.7634 21.3167ZM23.578 21.5776C24.2198 21.4943 24.7747 21.1979 25.2247 20.7402L23.7987 19.3379C23.6342 19.5052 23.4807 19.5734 23.3204 19.5943L23.578 21.5776ZM25.2247 20.7402C25.6708 20.2866 25.9942 19.6808 26.2358 18.9973L24.3501 18.3308C24.1646 18.8557 23.9672 19.1665 23.7987 19.3379L25.2247 20.7402ZM26.2325 19.0066L26.7794 17.5066L24.9003 16.8215L24.3535 18.3215L26.2325 19.0066ZM26.7803 16.824L22.3818 4.65995L20.501 5.34004L24.8994 17.5041L26.7803 16.824ZM21.4414 6H22.4648V4H21.4414V6ZM21.5221 5.33361L25.3346 16.107L27.2201 15.4398L23.4076 4.66639L21.5221 5.33361ZM26.2773 16.7734H26.3555V14.7734H26.2773V16.7734ZM27.2982 16.107L31.1107 5.33361L29.2253 4.66639L25.4128 15.4398L27.2982 16.107ZM30.168 6H31.1914V4H30.168V6ZM30.2507 4.66078L25.1882 18.6998L27.0696 19.3783L32.1321 5.33922L30.2507 4.66078ZM25.1868 18.7039C25.023 19.1641 24.8297 19.5135 24.6215 19.7737L26.1832 21.0231C26.5583 20.5543 26.8494 19.9974 27.0711 19.3743L25.1868 18.7039ZM24.6215 19.7737C24.4114 20.0364 24.1914 20.2094 23.9652 20.3194L24.8395 22.1181C25.3633 21.8635 25.81 21.4897 26.1832 21.0231L24.6215 19.7737ZM23.9501 20.3268C23.7299 20.4385 23.4801 20.5 23.1836 20.5V22.5C23.7725 22.5 24.3352 22.374 24.8546 22.1107L23.9501 20.3268ZM35.123 1H36.123V-4.76837e-07H35.123V1ZM35.123 17V18H36.123V17H35.123ZM34.1699 17H33.1699V18H34.1699V17ZM34.1699 1V-4.76837e-07H33.1699V1H34.1699ZM34.123 1V17H36.123V1H34.123ZM35.123 16H34.1699V18H35.123V16ZM35.1699 17V1H33.1699V17H35.1699ZM34.1699 2H35.123V-4.76837e-07H34.1699V2ZM39.1152 17H38.1152V18H39.1152V17ZM39.1152 5V4H38.1152V5H39.1152ZM40.0605 5H41.0605V4H40.0605V5ZM40.0605 17V18H41.0605V17H40.0605ZM39.0449 2.65625L38.3503 3.37565L38.3564 3.38153L38.3626 3.3873L39.0449 2.65625ZM40.1309 1.59375L39.4363 2.31315L39.4424 2.31903L39.4485 2.3248L40.1309 1.59375ZM40.1387 2.65625L39.4441 1.93685L39.4441 1.93685L40.1387 2.65625ZM40.1152 17V5H38.1152V17H40.1152ZM39.1152 6H40.0605V4H39.1152V6ZM39.0605 5V17H41.0605V5H39.0605ZM40.0605 16H39.1152V18H40.0605V16ZM39.5918 1.875C39.607 1.875 39.6362 1.87821 39.6702 1.89183C39.7038 1.90529 39.7229 1.92113 39.7272 1.92519L38.3626 3.3873C38.6987 3.701 39.123 3.875 39.5918 3.875V1.875ZM39.7395 1.93685C39.7514 1.94834 39.7756 1.97657 39.7948 2.02178C39.8142 2.06715 39.8184 2.10553 39.8184 2.125H37.8184C37.8184 2.60701 38.0058 3.04303 38.3503 3.37565L39.7395 1.93685ZM39.8184 2.125C39.8184 2.14447 39.8142 2.18285 39.7948 2.22822C39.7756 2.27343 39.7514 2.30166 39.7395 2.31315L38.3503 0.874348C38.0058 1.20697 37.8184 1.64299 37.8184 2.125H39.8184ZM39.7395 2.31315C39.7284 2.32389 39.7036 2.34326 39.6663 2.35816C39.6294 2.37294 39.601 2.375 39.5918 2.375V0.374999C39.1241 0.374999 38.6913 0.545112 38.3503 0.874348L39.7395 2.31315ZM39.5918 2.375C39.5767 2.375 39.545 2.37182 39.5068 2.3563C39.4687 2.34084 39.4451 2.32164 39.4363 2.31315L40.8255 0.874348C40.4896 0.550082 40.0615 0.374999 39.5918 0.374999V2.375ZM39.4485 2.3248C39.4381 2.3151 39.4127 2.28712 39.3917 2.23958C39.3705 2.19146 39.3652 2.14907 39.3652 2.125H41.3652C41.3652 1.63146 41.1661 1.1921 40.8132 0.862694L39.4485 2.3248ZM39.3652 2.125C39.3652 2.10553 39.3694 2.06715 39.3888 2.02178C39.408 1.97657 39.4322 1.94834 39.4441 1.93685L40.8333 3.37565C41.1778 3.04303 41.3652 2.60701 41.3652 2.125H39.3652ZM39.4441 1.93685C39.4552 1.92611 39.48 1.90674 39.5173 1.89183C39.5542 1.87705 39.5826 1.875 39.5918 1.875V3.875C40.0595 3.875 40.4923 3.70489 40.8333 3.37565L39.4441 1.93685ZM51.6777 7.58594L51.9343 8.55246L52.9539 8.28178L52.6292 7.27812L51.6777 7.58594ZM50.7949 7.82031L49.8429 8.12632L50.1335 9.03054L51.0515 8.78683L50.7949 7.82031ZM50.1934 6.6875L50.9668 6.05357L50.9668 6.05357L50.1934 6.6875ZM49.209 5.95312L48.7961 6.86391L48.8034 6.8672L48.8107 6.87039L49.209 5.95312ZM45.6387 6.34375L45.0247 5.55439L45.0212 5.55718L45.6387 6.34375ZM45.373 9.47656L44.6708 10.1885L44.6758 10.1934L45.373 9.47656ZM47.1152 10.3203L47.3578 9.35017L47.3547 9.34941L47.1152 10.3203ZM48.959 10.7812L48.7164 11.7514L48.719 11.752L48.959 10.7812ZM51.0996 11.9219L50.3603 12.5953L50.3637 12.5989L51.0996 11.9219ZM51.2793 15.625L52.097 16.2007L52.097 16.2007L51.2793 15.625ZM49.7871 16.8203L49.3761 15.9087L49.3733 15.9099L49.7871 16.8203ZM44.8262 16.4687L44.2356 17.2757L44.2394 17.2785L44.8262 16.4687ZM43.4434 14.2109L43.195 13.2423L42.2703 13.4794L42.4642 14.4141L43.4434 14.2109ZM44.3574 13.9766L45.3341 13.7617L45.1117 12.7508L44.109 13.0079L44.3574 13.9766ZM45.4277 15.7656L44.8228 16.562L44.8314 16.5684L45.4277 15.7656ZM49.9434 15.6797L49.3346 14.8863L49.3313 14.8889L49.9434 15.6797ZM50.3184 12.5L51.0501 11.8184L51.0501 11.8184L50.3184 12.5ZM48.709 11.6641L48.9482 10.6931L48.9469 10.6928L48.709 11.6641ZM46.7949 11.1953L47.0328 10.224L47.0326 10.224L46.7949 11.1953ZM44.5918 10.0469L43.8564 10.7246L43.8598 10.7282L44.5918 10.0469ZM44.3652 6.38281L43.5427 5.81406L43.5427 5.81406L44.3652 6.38281ZM45.7637 5.23438L46.1853 6.14117L46.1853 6.14117L45.7637 5.23438ZM50.2871 5.53906L50.8861 4.73828L50.8861 4.73828L50.2871 5.53906ZM51.4211 6.61942L50.5383 6.85379L51.0515 8.78683L51.9343 8.55246L51.4211 6.61942ZM51.747 7.5143C51.5724 6.97139 51.3157 6.47926 50.9668 6.05357L49.42 7.32143C49.5919 7.53116 49.7362 7.79424 49.8429 8.12632L51.747 7.5143ZM50.9668 6.05357C50.6005 5.60672 50.1413 5.26774 49.6073 5.03586L48.8107 6.87039C49.0683 6.98226 49.2654 7.13287 49.42 7.32143L50.9668 6.05357ZM49.6219 5.04234C49.0711 4.79264 48.4542 4.6875 47.8027 4.6875V6.6875C48.245 6.6875 48.5657 6.75945 48.7961 6.86391L49.6219 5.04234ZM47.8027 4.6875C46.7537 4.6875 45.8008 4.95079 45.0247 5.5544L46.2526 7.1331C46.6015 6.86171 47.0914 6.6875 47.8027 6.6875V4.6875ZM45.0212 5.55718C44.2246 6.18255 43.8027 7.04181 43.8027 8.05469H45.8027C45.8027 7.66131 45.9382 7.37995 46.2562 7.13032L45.0212 5.55718ZM43.8027 8.05469C43.8027 8.8736 44.0852 9.61096 44.6708 10.1885L46.0753 8.7646C45.9004 8.59216 45.8027 8.38161 45.8027 8.05469H43.8027ZM44.6758 10.1934C45.2328 10.7351 46.0043 11.0763 46.8757 11.2912L47.3547 9.34941C46.6636 9.17894 46.2737 8.95759 46.0703 8.7597L44.6758 10.1934ZM46.8727 11.2905L48.7164 11.7514L49.2015 9.81111L47.3578 9.35017L46.8727 11.2905ZM48.719 11.752C49.5441 11.956 50.0556 12.2608 50.3603 12.5953L51.8389 11.2485C51.1852 10.5309 50.2697 10.0752 49.199 9.81048L48.719 11.752ZM50.3637 12.5989C50.656 12.9167 50.8184 13.3157 50.8184 13.8672H52.8184C52.8184 12.8666 52.5015 11.9687 51.8355 11.2448L50.3637 12.5989ZM50.8184 13.8672C50.8184 14.3355 50.6951 14.7177 50.4616 15.0493L52.097 16.2007C52.5823 15.5114 52.8184 14.7217 52.8184 13.8672H50.8184ZM50.4616 15.0493C50.217 15.3968 49.8679 15.687 49.3761 15.9087L50.1981 17.732C50.9772 17.3807 51.6229 16.874 52.097 16.2007L50.4616 15.0493ZM49.3733 15.9099C48.8975 16.1262 48.3094 16.25 47.584 16.25V18.25C48.5357 18.25 49.4163 18.0873 50.2009 17.7307L49.3733 15.9099ZM47.584 16.25C46.6194 16.25 45.921 16.0271 45.4129 15.659L44.2394 17.2785C45.1689 17.952 46.309 18.25 47.584 18.25V16.25ZM45.4168 15.6618C44.9227 15.3002 44.582 14.7765 44.4225 14.0078L42.4642 14.4141C42.711 15.6037 43.2921 16.5852 44.2356 17.2757L45.4168 15.6618ZM43.6917 15.1796L44.6058 14.9452L44.109 13.0079L43.195 13.2423L43.6917 15.1796ZM43.3808 14.1914C43.5942 15.1616 44.0599 15.9824 44.8228 16.5619L46.0326 14.9693C45.7122 14.7259 45.4644 14.3541 45.3341 13.7617L43.3808 14.1914ZM44.8314 16.5684C45.5961 17.1364 46.5404 17.375 47.5762 17.375V15.375C46.8411 15.375 46.3531 15.2073 46.0241 14.9629L44.8314 16.5684ZM47.5762 17.375C48.7115 17.375 49.7357 17.1049 50.5554 16.4705L49.3313 14.8889C48.9531 15.1816 48.3992 15.375 47.5762 15.375V17.375ZM50.5521 16.4731C51.388 15.8317 51.8496 14.9516 51.8496 13.8984H49.8496C49.8496 14.2932 49.707 14.6006 49.3346 14.8863L50.5521 16.4731ZM51.8496 13.8984C51.8496 13.1107 51.5881 12.396 51.0501 11.8184L49.5866 13.1816C49.7569 13.3644 49.8496 13.582 49.8496 13.8984H51.8496ZM51.0501 11.8184C50.5183 11.2475 49.7792 10.8978 48.9482 10.6931L48.4698 12.635C49.0763 12.7845 49.4101 12.9921 49.5866 13.1816L51.0501 11.8184ZM48.9469 10.6928L47.0328 10.224L46.5571 12.1666L48.4711 12.6354L48.9469 10.6928ZM47.0326 10.224C46.1696 10.0128 45.6369 9.70204 45.3238 9.36559L43.8598 10.7282C44.5258 11.4438 45.4619 11.8986 46.5573 12.1667L47.0326 10.224ZM45.3272 9.36919C45.021 9.03704 44.8574 8.63122 44.8574 8.08594H42.8574C42.8574 9.09274 43.1834 9.99421 43.8564 10.7246L45.3272 9.36919ZM44.8574 8.08594C44.8574 7.62519 44.9747 7.25969 45.1877 6.95157L43.5427 5.81406C43.0787 6.48511 42.8574 7.25502 42.8574 8.08594H44.8574ZM45.1877 6.95157C45.4152 6.62268 45.7362 6.34992 46.1853 6.14117L45.3421 4.32758C44.6036 4.67091 43.9924 5.16378 43.5427 5.81406L45.1877 6.95157ZM46.1853 6.14117C46.6264 5.93607 47.1583 5.82031 47.8027 5.82031V3.82031C46.9159 3.82031 46.0884 3.9806 45.3421 4.32758L46.1853 6.14117ZM47.8027 5.82031C48.6612 5.82031 49.2622 6.02125 49.6882 6.33984L50.8861 4.73828C50.0308 4.09854 48.9755 3.82031 47.8027 3.82031V5.82031ZM49.6882 6.33984C50.1373 6.67576 50.4928 7.17203 50.7263 7.89376L52.6292 7.27812C52.2898 6.22901 51.7182 5.3607 50.8861 4.73828L49.6882 6.33984ZM59.3594 5H60.3594V4H59.3594V5ZM59.3594 5.85156V6.85156H60.3594V5.85156H59.3594ZM54.1172 5.85156H53.1172V6.85156H54.1172V5.85156ZM54.1172 5V4H53.1172V5H54.1172ZM55.8906 2.125V1.125H54.8906V2.125H55.8906ZM56.8359 2.125H57.8359V1.125H56.8359V2.125ZM57.1172 15.3672L56.2597 15.8817L56.2648 15.8901L56.27 15.8985L57.1172 15.3672ZM57.8672 16.0547L57.4261 16.9521L57.4351 16.9566L57.4443 16.9609L57.8672 16.0547ZM59.3125 16.2344L59.1164 15.2538L59.1085 15.2554L59.3125 16.2344ZM59.6797 16.1328L60.6451 15.8719L60.361 14.821L59.3379 15.193L59.6797 16.1328ZM59.9141 17L60.2504 17.9417L61.1205 17.631L60.8794 16.7391L59.9141 17ZM59.4297 17.1328L59.228 16.1534L59.2143 16.1562L59.2006 16.1594L59.4297 17.1328ZM57.3828 16.8594L56.9314 17.7517L56.9356 17.7538L57.3828 16.8594ZM56.3047 15.8828L57.1445 15.34L57.1445 15.34L56.3047 15.8828ZM58.3594 5V5.85156H60.3594V5H58.3594ZM59.3594 4.85156H54.1172V6.85156H59.3594V4.85156ZM55.1172 5.85156V5H53.1172V5.85156H55.1172ZM54.1172 6H59.3594V4H54.1172V6ZM55.8906 3.125H56.8359V1.125H55.8906V3.125ZM55.8359 2.125V14.1641H57.8359V2.125H55.8359ZM55.8359 14.1641C55.8359 14.7747 55.9522 15.3692 56.2597 15.8817L57.9747 14.8527C57.9072 14.7402 57.8359 14.5326 57.8359 14.1641H55.8359ZM56.27 15.8985C56.5553 16.3534 56.942 16.7142 57.4261 16.9521L58.3083 15.1572C58.1778 15.0931 58.0645 14.9955 57.9644 14.8359L56.27 15.8985ZM57.4443 16.9609C57.8929 17.1702 58.371 17.2734 58.8672 17.2734V15.2734C58.6551 15.2734 58.4665 15.2308 58.2901 15.1485L57.4443 16.9609ZM58.8672 17.2734C59.0857 17.2734 59.3059 17.2572 59.5165 17.2134L59.1085 15.2554C59.0691 15.2636 58.9924 15.2734 58.8672 15.2734V17.2734ZM59.5086 17.215C59.684 17.1799 59.8554 17.133 60.0214 17.0726L59.3379 15.193C59.2748 15.216 59.2014 15.2368 59.1164 15.2538L59.5086 17.215ZM58.7143 16.3937L58.9487 17.2609L60.8794 16.7391L60.6451 15.8719L58.7143 16.3937ZM59.5777 16.0583C59.4824 16.0923 59.3668 16.1248 59.228 16.1534L59.6313 18.1123C59.8468 18.0679 60.054 18.0119 60.2504 17.9417L59.5777 16.0583ZM59.2006 16.1594C59.118 16.1789 58.9899 16.1953 58.8047 16.1953V18.1953C59.0986 18.1953 59.3873 18.1701 59.6587 18.1062L59.2006 16.1594ZM58.8047 16.1953C58.4602 16.1953 58.1393 16.1196 57.83 15.9649L56.9356 17.7538C57.5221 18.0471 58.1492 18.1953 58.8047 18.1953V16.1953ZM57.8342 15.9671C57.5538 15.8252 57.3269 15.6221 57.1445 15.34L55.4648 16.4256C55.8346 16.9977 56.3264 17.4457 56.9314 17.7517L57.8342 15.9671ZM57.1445 15.34C56.9913 15.103 56.8906 14.7843 56.8906 14.3359H54.8906C54.8906 15.0959 55.0659 15.8085 55.4648 16.4256L57.1445 15.34ZM56.8906 14.3359V2.125H54.8906V14.3359H56.8906Z" fill="black" mask="url(#path-1-outside-1_86_10858)"/>
</svg>
