<svg width="123" height="17" viewBox="0 0 123 17" fill="none" xmlns="http://www.w3.org/2000/svg">
<mask id="path-1-outside-1_86_11037" maskUnits="userSpaceOnUse" x="-1" y="-1" width="125" height="19" fill="black">
<rect fill="white" x="-1" y="-1" width="125" height="19"/>
<path d="M12.6719 8.72727C12.6719 10.2282 12.4115 11.5398 11.8906 12.6619C11.3698 13.7794 10.6454 14.6482 9.71733 15.2685C8.79403 15.8887 7.72869 16.1989 6.52131 16.1989C5.30919 16.1989 4.23911 15.8887 3.31108 15.2685C2.38778 14.6435 1.66572 13.7723 1.14489 12.6548C0.624053 11.5327 0.363636 10.2235 0.363636 8.72727C0.363636 7.22633 0.624053 5.91714 1.14489 4.79972C1.67045 3.68229 2.39489 2.81345 3.31818 2.19318C4.24148 1.56818 5.30919 1.25568 6.52131 1.25568C7.72869 1.25568 8.79403 1.56581 9.71733 2.18608C10.6454 2.80634 11.3698 3.67756 11.8906 4.79972C12.4115 5.91714 12.6719 7.22633 12.6719 8.72727ZM11.8054 8.72727C11.8054 7.37784 11.5781 6.20833 11.1236 5.21875C10.6738 4.22917 10.0511 3.46449 9.25568 2.92472C8.46023 2.38021 7.54877 2.10795 6.52131 2.10795C5.49384 2.10795 4.58239 2.37784 3.78693 2.91761C2.99148 3.45265 2.36648 4.21733 1.91193 5.21165C1.46212 6.20123 1.23722 7.37311 1.23722 8.72727C1.23722 10.0672 1.45975 11.2344 1.90483 12.2287C2.35464 13.2183 2.97727 13.9853 3.77273 14.5298C4.56818 15.0743 5.48438 15.3466 6.52131 15.3466C7.54877 15.3466 8.46023 15.0767 9.25568 14.5369C10.0511 13.9924 10.6738 13.2254 11.1236 12.2358C11.5781 11.2462 11.8054 10.0767 11.8054 8.72727ZM22.8246 12.1293V5.09091H23.6911V16H22.8246V14.2315H22.7536C22.4979 14.795 22.0836 15.2543 21.5107 15.6094C20.9425 15.9645 20.2701 16.142 19.4936 16.142C18.7786 16.142 18.1465 15.9858 17.5973 15.6733C17.0481 15.3608 16.6172 14.9181 16.3047 14.3452C15.9922 13.7675 15.8359 13.081 15.8359 12.2855V5.09091H16.7024V12.25C16.7024 13.1591 16.977 13.8954 17.5263 14.4588C18.0803 15.0175 18.7952 15.2969 19.6712 15.2969C20.2393 15.2969 20.7625 15.169 21.2408 14.9134C21.719 14.6577 22.1025 14.2931 22.3913 13.8196C22.6802 13.3414 22.8246 12.7779 22.8246 12.1293ZM31.1378 5.09091V5.86506H26.3722V5.09091H31.1378ZM27.9844 2.47727H28.8438V13.4219C28.8438 13.867 28.929 14.2315 29.0994 14.5156C29.2746 14.795 29.5019 15.0033 29.7812 15.1406C30.0653 15.2732 30.3684 15.3395 30.6903 15.3395C30.8466 15.3395 30.9815 15.3277 31.0952 15.304C31.2135 15.2803 31.3248 15.2495 31.429 15.2116L31.642 16C31.5095 16.0473 31.3627 16.0876 31.2017 16.1207C31.0407 16.1586 30.8513 16.1776 30.6335 16.1776C30.179 16.1776 29.7481 16.0758 29.3409 15.8722C28.9384 15.6686 28.6117 15.3726 28.3608 14.9844C28.1098 14.5961 27.9844 14.1274 27.9844 13.5781V2.47727ZM38.4709 5.09091V5.86506H33.6342V5.09091H38.4709ZM35.2251 16V3.39347C35.2251 2.84422 35.3506 2.37547 35.6016 1.98722C35.8525 1.59896 36.1816 1.30303 36.5888 1.09943C37.0007 0.895833 37.4434 0.794034 37.9169 0.794034C38.1679 0.794034 38.3809 0.81534 38.5561 0.857954C38.736 0.895833 38.8923 0.940814 39.0249 0.992898L38.7692 1.75994C38.6603 1.72206 38.5419 1.68892 38.4141 1.66051C38.291 1.6321 38.1442 1.6179 37.9737 1.6179C37.4245 1.6179 36.9723 1.78598 36.6172 2.12216C36.2621 2.45833 36.0845 2.92708 36.0845 3.52841L36.0774 16H35.2251ZM41.2106 16V5.09091H42.07V16H41.2106ZM41.6438 3.15909C41.4544 3.15909 41.2887 3.0928 41.1467 2.96023C41.0094 2.82765 40.9407 2.66667 40.9407 2.47727C40.9407 2.28788 41.0094 2.12689 41.1467 1.99432C41.284 1.86174 41.4497 1.79545 41.6438 1.79545C41.8332 1.79545 41.9966 1.86174 42.1339 1.99432C42.2759 2.12689 42.3469 2.28788 42.3469 2.47727C42.3469 2.66667 42.2783 2.82765 42.141 2.96023C42.0037 3.0928 41.8379 3.15909 41.6438 3.15909ZM49.5558 5.09091V5.86506H44.7901V5.09091H49.5558ZM46.4023 2.47727H47.2617V13.4219C47.2617 13.867 47.3469 14.2315 47.5174 14.5156C47.6926 14.795 47.9199 15.0033 48.1992 15.1406C48.4833 15.2732 48.7863 15.3395 49.1083 15.3395C49.2646 15.3395 49.3995 15.3277 49.5131 15.304C49.6315 15.2803 49.7428 15.2495 49.8469 15.2116L50.06 16C49.9274 16.0473 49.7807 16.0876 49.6197 16.1207C49.4587 16.1586 49.2693 16.1776 49.0515 16.1776C48.5969 16.1776 48.1661 16.0758 47.7589 15.8722C47.3564 15.6686 47.0297 15.3726 46.7788 14.9844C46.5278 14.5961 46.4023 14.1274 46.4023 13.5781V2.47727ZM75.4045 6H74.4954C74.4007 5.50758 74.2231 5.03172 73.9627 4.57244C73.7023 4.10843 73.3661 3.69176 72.9542 3.32244C72.547 2.94839 72.0735 2.65246 71.5337 2.43466C70.994 2.21686 70.3974 2.10795 69.744 2.10795C68.7875 2.10795 67.9068 2.36364 67.1019 2.875C66.3017 3.38163 65.6602 4.12737 65.1772 5.11222C64.699 6.09706 64.4599 7.30208 64.4599 8.72727C64.4599 10.1619 64.699 11.3717 65.1772 12.3565C65.6602 13.3414 66.3017 14.0871 67.1019 14.5938C67.9068 15.0956 68.7875 15.3466 69.744 15.3466C70.3974 15.3466 70.994 15.2401 71.5337 15.027C72.0735 14.8092 72.547 14.5156 72.9542 14.1463C73.3661 13.7723 73.7023 13.3532 73.9627 12.8892C74.2231 12.4252 74.4007 11.947 74.4954 11.4545H75.4045C75.3003 12.0417 75.0991 12.617 74.8008 13.1804C74.5072 13.7438 74.119 14.2552 73.636 14.7145C73.1578 15.169 72.592 15.5312 71.9386 15.8011C71.2899 16.0663 70.5584 16.1989 69.744 16.1989C68.5318 16.1989 67.4641 15.8911 66.5408 15.2756C65.6175 14.6553 64.8931 13.7841 64.3675 12.6619C63.8467 11.5398 63.5863 10.2282 63.5863 8.72727C63.5863 7.22633 63.8467 5.91477 64.3675 4.79261C64.8931 3.67045 65.6175 2.80161 66.5408 2.18608C67.4641 1.56581 68.5318 1.25568 69.744 1.25568C70.5584 1.25568 71.2899 1.39062 71.9386 1.66051C72.592 1.92566 73.1578 2.28551 73.636 2.74006C74.119 3.18987 74.5072 3.6965 74.8008 4.25994C75.0991 4.82339 75.3003 5.40341 75.4045 6ZM81.4023 16.2344C80.7726 16.2344 80.195 16.1089 79.6694 15.858C79.1486 15.607 78.7295 15.2401 78.4123 14.7571C78.0998 14.2741 77.9435 13.687 77.9435 12.9957C77.9435 12.5412 78.024 12.1411 78.185 11.7955C78.346 11.4498 78.5946 11.1515 78.9308 10.9006C79.2669 10.6496 79.6978 10.4437 80.2234 10.2827C80.7489 10.117 81.3763 9.98911 82.1055 9.89915C82.6594 9.83286 83.1542 9.76894 83.5898 9.70739C84.0254 9.6411 84.3664 9.5393 84.6126 9.40199C84.8635 9.26468 84.989 9.05634 84.989 8.77699V8.32244C84.989 7.52699 84.738 6.89489 84.2362 6.42614C83.7343 5.95739 83.043 5.72301 82.1623 5.72301C81.381 5.72301 80.7229 5.89583 80.1879 6.24148C79.6576 6.58239 79.2859 7.02273 79.0728 7.5625L78.256 7.2571C78.4644 6.73627 78.765 6.30303 79.158 5.95739C79.5558 5.61174 80.0103 5.35369 80.5217 5.18324C81.0378 5.01278 81.5775 4.92756 82.141 4.92756C82.6287 4.92756 83.0927 4.99621 83.533 5.13352C83.9781 5.27083 84.3735 5.47917 84.7191 5.75852C85.0695 6.03788 85.3465 6.39536 85.5501 6.83097C85.7537 7.26184 85.8555 7.77794 85.8555 8.37926V16H84.989V14.0327H84.9251C84.7357 14.4399 84.4753 14.8116 84.1438 15.1477C83.8171 15.4792 83.4218 15.7443 82.9577 15.9432C82.4985 16.1373 81.98 16.2344 81.4023 16.2344ZM81.4876 15.4318C82.1694 15.4318 82.7731 15.2661 83.2987 14.9347C83.829 14.5985 84.2433 14.1392 84.5415 13.5568C84.8398 12.9744 84.989 12.3139 84.989 11.5753V9.97017C84.8801 10.0649 84.7215 10.1501 84.5131 10.2259C84.3095 10.2969 84.0775 10.3608 83.8171 10.4176C83.5614 10.4697 83.2915 10.517 83.0075 10.5597C82.7281 10.5975 82.4558 10.633 82.1907 10.6662C81.3952 10.7609 80.7466 10.9077 80.2447 11.1065C79.7475 11.3007 79.3829 11.5563 79.1509 11.8736C78.9237 12.1908 78.81 12.5743 78.81 13.0241C78.81 13.7675 79.0657 14.3546 79.5771 14.7855C80.0884 15.2164 80.7253 15.4318 81.4876 15.4318ZM96.4201 7.44176L95.6175 7.65483C95.4897 7.2571 95.3074 6.91383 95.0707 6.625C94.8339 6.33617 94.5356 6.11364 94.1758 5.95739C93.8207 5.7964 93.3945 5.71591 92.8974 5.71591C92.0972 5.71591 91.4414 5.91477 90.93 6.3125C90.4234 6.71023 90.1701 7.22869 90.1701 7.8679C90.1701 8.38873 90.3429 8.8196 90.6886 9.16051C91.0342 9.49669 91.5621 9.75237 92.2724 9.92756L93.9485 10.3466C94.8103 10.5597 95.4589 10.9053 95.8945 11.3835C96.3301 11.857 96.5479 12.4465 96.5479 13.152C96.5479 13.7533 96.3846 14.286 96.0579 14.75C95.7312 15.214 95.279 15.5762 94.7013 15.8366C94.1284 16.0971 93.4608 16.2273 92.6985 16.2273C91.6805 16.2273 90.8448 15.9905 90.1914 15.517C89.538 15.0388 89.119 14.3546 88.9343 13.4645L89.7653 13.2514C89.9215 13.9616 90.2459 14.5038 90.7383 14.8778C91.2354 15.2472 91.8865 15.4318 92.6914 15.4318C93.5816 15.4318 94.2989 15.2211 94.8434 14.7997C95.3926 14.3783 95.6673 13.8385 95.6673 13.1804C95.6673 12.6785 95.5063 12.2547 95.1843 11.9091C94.8623 11.5634 94.3746 11.3101 93.7212 11.1491L91.9812 10.723C91.091 10.5052 90.4234 10.1572 89.9783 9.67898C89.5333 9.19602 89.3107 8.6018 89.3107 7.89631C89.3107 7.30919 89.4646 6.79309 89.7724 6.34801C90.0801 5.90294 90.5039 5.55492 91.0437 5.30398C91.5835 5.05303 92.2013 4.92756 92.8974 4.92756C93.8207 4.92756 94.5735 5.14536 95.1559 5.58097C95.7383 6.01657 96.1597 6.63684 96.4201 7.44176ZM106.536 12.1293V5.09091H107.402V16H106.536V14.2315H106.464C106.209 14.795 105.795 15.2543 105.222 15.6094C104.653 15.9645 103.981 16.142 103.205 16.142C102.49 16.142 101.857 15.9858 101.308 15.6733C100.759 15.3608 100.328 14.9181 100.016 14.3452C99.7031 13.7675 99.5469 13.081 99.5469 12.2855V5.09091H100.413V12.25C100.413 13.1591 100.688 13.8954 101.237 14.4588C101.791 15.0175 102.506 15.2969 103.382 15.2969C103.95 15.2969 104.473 15.169 104.952 14.9134C105.43 14.6577 105.813 14.2931 106.102 13.8196C106.391 13.3414 106.536 12.7779 106.536 12.1293ZM113.883 16.2344C113.253 16.2344 112.675 16.1089 112.15 15.858C111.629 15.607 111.21 15.2401 110.893 14.7571C110.58 14.2741 110.424 13.687 110.424 12.9957C110.424 12.5412 110.504 12.1411 110.665 11.7955C110.826 11.4498 111.075 11.1515 111.411 10.9006C111.747 10.6496 112.178 10.4437 112.704 10.2827C113.229 10.117 113.857 9.98911 114.586 9.89915C115.14 9.83286 115.635 9.76894 116.07 9.70739C116.506 9.6411 116.847 9.5393 117.093 9.40199C117.344 9.26468 117.469 9.05634 117.469 8.77699V8.32244C117.469 7.52699 117.219 6.89489 116.717 6.42614C116.215 5.95739 115.523 5.72301 114.643 5.72301C113.862 5.72301 113.203 5.89583 112.668 6.24148C112.138 6.58239 111.766 7.02273 111.553 7.5625L110.737 7.2571C110.945 6.73627 111.246 6.30303 111.638 5.95739C112.036 5.61174 112.491 5.35369 113.002 5.18324C113.518 5.01278 114.058 4.92756 114.621 4.92756C115.109 4.92756 115.573 4.99621 116.013 5.13352C116.459 5.27083 116.854 5.47917 117.2 5.75852C117.55 6.03788 117.827 6.39536 118.031 6.83097C118.234 7.26184 118.336 7.77794 118.336 8.37926V16H117.469V14.0327H117.406C117.216 14.4399 116.956 14.8116 116.624 15.1477C116.298 15.4792 115.902 15.7443 115.438 15.9432C114.979 16.1373 114.46 16.2344 113.883 16.2344ZM113.968 15.4318C114.65 15.4318 115.254 15.2661 115.779 14.9347C116.309 14.5985 116.724 14.1392 117.022 13.5568C117.32 12.9744 117.469 12.3139 117.469 11.5753V9.97017C117.361 10.0649 117.202 10.1501 116.994 10.2259C116.79 10.2969 116.558 10.3608 116.298 10.4176C116.042 10.4697 115.772 10.517 115.488 10.5597C115.209 10.5975 114.936 10.633 114.671 10.6662C113.876 10.7609 113.227 10.9077 112.725 11.1065C112.228 11.3007 111.863 11.5563 111.631 11.8736C111.404 12.1908 111.29 12.5743 111.29 13.0241C111.29 13.7675 111.546 14.3546 112.058 14.7855C112.569 15.2164 113.206 15.4318 113.968 15.4318ZM122.835 1.45455V16H121.969V1.45455H122.835Z"/>
</mask>
<path d="M12.6719 8.72727C12.6719 10.2282 12.4115 11.5398 11.8906 12.6619C11.3698 13.7794 10.6454 14.6482 9.71733 15.2685C8.79403 15.8887 7.72869 16.1989 6.52131 16.1989C5.30919 16.1989 4.23911 15.8887 3.31108 15.2685C2.38778 14.6435 1.66572 13.7723 1.14489 12.6548C0.624053 11.5327 0.363636 10.2235 0.363636 8.72727C0.363636 7.22633 0.624053 5.91714 1.14489 4.79972C1.67045 3.68229 2.39489 2.81345 3.31818 2.19318C4.24148 1.56818 5.30919 1.25568 6.52131 1.25568C7.72869 1.25568 8.79403 1.56581 9.71733 2.18608C10.6454 2.80634 11.3698 3.67756 11.8906 4.79972C12.4115 5.91714 12.6719 7.22633 12.6719 8.72727ZM11.8054 8.72727C11.8054 7.37784 11.5781 6.20833 11.1236 5.21875C10.6738 4.22917 10.0511 3.46449 9.25568 2.92472C8.46023 2.38021 7.54877 2.10795 6.52131 2.10795C5.49384 2.10795 4.58239 2.37784 3.78693 2.91761C2.99148 3.45265 2.36648 4.21733 1.91193 5.21165C1.46212 6.20123 1.23722 7.37311 1.23722 8.72727C1.23722 10.0672 1.45975 11.2344 1.90483 12.2287C2.35464 13.2183 2.97727 13.9853 3.77273 14.5298C4.56818 15.0743 5.48438 15.3466 6.52131 15.3466C7.54877 15.3466 8.46023 15.0767 9.25568 14.5369C10.0511 13.9924 10.6738 13.2254 11.1236 12.2358C11.5781 11.2462 11.8054 10.0767 11.8054 8.72727ZM22.8246 12.1293V5.09091H23.6911V16H22.8246V14.2315H22.7536C22.4979 14.795 22.0836 15.2543 21.5107 15.6094C20.9425 15.9645 20.2701 16.142 19.4936 16.142C18.7786 16.142 18.1465 15.9858 17.5973 15.6733C17.0481 15.3608 16.6172 14.9181 16.3047 14.3452C15.9922 13.7675 15.8359 13.081 15.8359 12.2855V5.09091H16.7024V12.25C16.7024 13.1591 16.977 13.8954 17.5263 14.4588C18.0803 15.0175 18.7952 15.2969 19.6712 15.2969C20.2393 15.2969 20.7625 15.169 21.2408 14.9134C21.719 14.6577 22.1025 14.2931 22.3913 13.8196C22.6802 13.3414 22.8246 12.7779 22.8246 12.1293ZM31.1378 5.09091V5.86506H26.3722V5.09091H31.1378ZM27.9844 2.47727H28.8438V13.4219C28.8438 13.867 28.929 14.2315 29.0994 14.5156C29.2746 14.795 29.5019 15.0033 29.7812 15.1406C30.0653 15.2732 30.3684 15.3395 30.6903 15.3395C30.8466 15.3395 30.9815 15.3277 31.0952 15.304C31.2135 15.2803 31.3248 15.2495 31.429 15.2116L31.642 16C31.5095 16.0473 31.3627 16.0876 31.2017 16.1207C31.0407 16.1586 30.8513 16.1776 30.6335 16.1776C30.179 16.1776 29.7481 16.0758 29.3409 15.8722C28.9384 15.6686 28.6117 15.3726 28.3608 14.9844C28.1098 14.5961 27.9844 14.1274 27.9844 13.5781V2.47727ZM38.4709 5.09091V5.86506H33.6342V5.09091H38.4709ZM35.2251 16V3.39347C35.2251 2.84422 35.3506 2.37547 35.6016 1.98722C35.8525 1.59896 36.1816 1.30303 36.5888 1.09943C37.0007 0.895833 37.4434 0.794034 37.9169 0.794034C38.1679 0.794034 38.3809 0.81534 38.5561 0.857954C38.736 0.895833 38.8923 0.940814 39.0249 0.992898L38.7692 1.75994C38.6603 1.72206 38.5419 1.68892 38.4141 1.66051C38.291 1.6321 38.1442 1.6179 37.9737 1.6179C37.4245 1.6179 36.9723 1.78598 36.6172 2.12216C36.2621 2.45833 36.0845 2.92708 36.0845 3.52841L36.0774 16H35.2251ZM41.2106 16V5.09091H42.07V16H41.2106ZM41.6438 3.15909C41.4544 3.15909 41.2887 3.0928 41.1467 2.96023C41.0094 2.82765 40.9407 2.66667 40.9407 2.47727C40.9407 2.28788 41.0094 2.12689 41.1467 1.99432C41.284 1.86174 41.4497 1.79545 41.6438 1.79545C41.8332 1.79545 41.9966 1.86174 42.1339 1.99432C42.2759 2.12689 42.3469 2.28788 42.3469 2.47727C42.3469 2.66667 42.2783 2.82765 42.141 2.96023C42.0037 3.0928 41.8379 3.15909 41.6438 3.15909ZM49.5558 5.09091V5.86506H44.7901V5.09091H49.5558ZM46.4023 2.47727H47.2617V13.4219C47.2617 13.867 47.3469 14.2315 47.5174 14.5156C47.6926 14.795 47.9199 15.0033 48.1992 15.1406C48.4833 15.2732 48.7863 15.3395 49.1083 15.3395C49.2646 15.3395 49.3995 15.3277 49.5131 15.304C49.6315 15.2803 49.7428 15.2495 49.8469 15.2116L50.06 16C49.9274 16.0473 49.7807 16.0876 49.6197 16.1207C49.4587 16.1586 49.2693 16.1776 49.0515 16.1776C48.5969 16.1776 48.1661 16.0758 47.7589 15.8722C47.3564 15.6686 47.0297 15.3726 46.7788 14.9844C46.5278 14.5961 46.4023 14.1274 46.4023 13.5781V2.47727ZM75.4045 6H74.4954C74.4007 5.50758 74.2231 5.03172 73.9627 4.57244C73.7023 4.10843 73.3661 3.69176 72.9542 3.32244C72.547 2.94839 72.0735 2.65246 71.5337 2.43466C70.994 2.21686 70.3974 2.10795 69.744 2.10795C68.7875 2.10795 67.9068 2.36364 67.1019 2.875C66.3017 3.38163 65.6602 4.12737 65.1772 5.11222C64.699 6.09706 64.4599 7.30208 64.4599 8.72727C64.4599 10.1619 64.699 11.3717 65.1772 12.3565C65.6602 13.3414 66.3017 14.0871 67.1019 14.5938C67.9068 15.0956 68.7875 15.3466 69.744 15.3466C70.3974 15.3466 70.994 15.2401 71.5337 15.027C72.0735 14.8092 72.547 14.5156 72.9542 14.1463C73.3661 13.7723 73.7023 13.3532 73.9627 12.8892C74.2231 12.4252 74.4007 11.947 74.4954 11.4545H75.4045C75.3003 12.0417 75.0991 12.617 74.8008 13.1804C74.5072 13.7438 74.119 14.2552 73.636 14.7145C73.1578 15.169 72.592 15.5312 71.9386 15.8011C71.2899 16.0663 70.5584 16.1989 69.744 16.1989C68.5318 16.1989 67.4641 15.8911 66.5408 15.2756C65.6175 14.6553 64.8931 13.7841 64.3675 12.6619C63.8467 11.5398 63.5863 10.2282 63.5863 8.72727C63.5863 7.22633 63.8467 5.91477 64.3675 4.79261C64.8931 3.67045 65.6175 2.80161 66.5408 2.18608C67.4641 1.56581 68.5318 1.25568 69.744 1.25568C70.5584 1.25568 71.2899 1.39062 71.9386 1.66051C72.592 1.92566 73.1578 2.28551 73.636 2.74006C74.119 3.18987 74.5072 3.6965 74.8008 4.25994C75.0991 4.82339 75.3003 5.40341 75.4045 6ZM81.4023 16.2344C80.7726 16.2344 80.195 16.1089 79.6694 15.858C79.1486 15.607 78.7295 15.2401 78.4123 14.7571C78.0998 14.2741 77.9435 13.687 77.9435 12.9957C77.9435 12.5412 78.024 12.1411 78.185 11.7955C78.346 11.4498 78.5946 11.1515 78.9308 10.9006C79.2669 10.6496 79.6978 10.4437 80.2234 10.2827C80.7489 10.117 81.3763 9.98911 82.1055 9.89915C82.6594 9.83286 83.1542 9.76894 83.5898 9.70739C84.0254 9.6411 84.3664 9.5393 84.6126 9.40199C84.8635 9.26468 84.989 9.05634 84.989 8.77699V8.32244C84.989 7.52699 84.738 6.89489 84.2362 6.42614C83.7343 5.95739 83.043 5.72301 82.1623 5.72301C81.381 5.72301 80.7229 5.89583 80.1879 6.24148C79.6576 6.58239 79.2859 7.02273 79.0728 7.5625L78.256 7.2571C78.4644 6.73627 78.765 6.30303 79.158 5.95739C79.5558 5.61174 80.0103 5.35369 80.5217 5.18324C81.0378 5.01278 81.5775 4.92756 82.141 4.92756C82.6287 4.92756 83.0927 4.99621 83.533 5.13352C83.9781 5.27083 84.3735 5.47917 84.7191 5.75852C85.0695 6.03788 85.3465 6.39536 85.5501 6.83097C85.7537 7.26184 85.8555 7.77794 85.8555 8.37926V16H84.989V14.0327H84.9251C84.7357 14.4399 84.4753 14.8116 84.1438 15.1477C83.8171 15.4792 83.4218 15.7443 82.9577 15.9432C82.4985 16.1373 81.98 16.2344 81.4023 16.2344ZM81.4876 15.4318C82.1694 15.4318 82.7731 15.2661 83.2987 14.9347C83.829 14.5985 84.2433 14.1392 84.5415 13.5568C84.8398 12.9744 84.989 12.3139 84.989 11.5753V9.97017C84.8801 10.0649 84.7215 10.1501 84.5131 10.2259C84.3095 10.2969 84.0775 10.3608 83.8171 10.4176C83.5614 10.4697 83.2915 10.517 83.0075 10.5597C82.7281 10.5975 82.4558 10.633 82.1907 10.6662C81.3952 10.7609 80.7466 10.9077 80.2447 11.1065C79.7475 11.3007 79.3829 11.5563 79.1509 11.8736C78.9237 12.1908 78.81 12.5743 78.81 13.0241C78.81 13.7675 79.0657 14.3546 79.5771 14.7855C80.0884 15.2164 80.7253 15.4318 81.4876 15.4318ZM96.4201 7.44176L95.6175 7.65483C95.4897 7.2571 95.3074 6.91383 95.0707 6.625C94.8339 6.33617 94.5356 6.11364 94.1758 5.95739C93.8207 5.7964 93.3945 5.71591 92.8974 5.71591C92.0972 5.71591 91.4414 5.91477 90.93 6.3125C90.4234 6.71023 90.1701 7.22869 90.1701 7.8679C90.1701 8.38873 90.3429 8.8196 90.6886 9.16051C91.0342 9.49669 91.5621 9.75237 92.2724 9.92756L93.9485 10.3466C94.8103 10.5597 95.4589 10.9053 95.8945 11.3835C96.3301 11.857 96.5479 12.4465 96.5479 13.152C96.5479 13.7533 96.3846 14.286 96.0579 14.75C95.7312 15.214 95.279 15.5762 94.7013 15.8366C94.1284 16.0971 93.4608 16.2273 92.6985 16.2273C91.6805 16.2273 90.8448 15.9905 90.1914 15.517C89.538 15.0388 89.119 14.3546 88.9343 13.4645L89.7653 13.2514C89.9215 13.9616 90.2459 14.5038 90.7383 14.8778C91.2354 15.2472 91.8865 15.4318 92.6914 15.4318C93.5816 15.4318 94.2989 15.2211 94.8434 14.7997C95.3926 14.3783 95.6673 13.8385 95.6673 13.1804C95.6673 12.6785 95.5063 12.2547 95.1843 11.9091C94.8623 11.5634 94.3746 11.3101 93.7212 11.1491L91.9812 10.723C91.091 10.5052 90.4234 10.1572 89.9783 9.67898C89.5333 9.19602 89.3107 8.6018 89.3107 7.89631C89.3107 7.30919 89.4646 6.79309 89.7724 6.34801C90.0801 5.90294 90.5039 5.55492 91.0437 5.30398C91.5835 5.05303 92.2013 4.92756 92.8974 4.92756C93.8207 4.92756 94.5735 5.14536 95.1559 5.58097C95.7383 6.01657 96.1597 6.63684 96.4201 7.44176ZM106.536 12.1293V5.09091H107.402V16H106.536V14.2315H106.464C106.209 14.795 105.795 15.2543 105.222 15.6094C104.653 15.9645 103.981 16.142 103.205 16.142C102.49 16.142 101.857 15.9858 101.308 15.6733C100.759 15.3608 100.328 14.9181 100.016 14.3452C99.7031 13.7675 99.5469 13.081 99.5469 12.2855V5.09091H100.413V12.25C100.413 13.1591 100.688 13.8954 101.237 14.4588C101.791 15.0175 102.506 15.2969 103.382 15.2969C103.95 15.2969 104.473 15.169 104.952 14.9134C105.43 14.6577 105.813 14.2931 106.102 13.8196C106.391 13.3414 106.536 12.7779 106.536 12.1293ZM113.883 16.2344C113.253 16.2344 112.675 16.1089 112.15 15.858C111.629 15.607 111.21 15.2401 110.893 14.7571C110.58 14.2741 110.424 13.687 110.424 12.9957C110.424 12.5412 110.504 12.1411 110.665 11.7955C110.826 11.4498 111.075 11.1515 111.411 10.9006C111.747 10.6496 112.178 10.4437 112.704 10.2827C113.229 10.117 113.857 9.98911 114.586 9.89915C115.14 9.83286 115.635 9.76894 116.07 9.70739C116.506 9.6411 116.847 9.5393 117.093 9.40199C117.344 9.26468 117.469 9.05634 117.469 8.77699V8.32244C117.469 7.52699 117.219 6.89489 116.717 6.42614C116.215 5.95739 115.523 5.72301 114.643 5.72301C113.862 5.72301 113.203 5.89583 112.668 6.24148C112.138 6.58239 111.766 7.02273 111.553 7.5625L110.737 7.2571C110.945 6.73627 111.246 6.30303 111.638 5.95739C112.036 5.61174 112.491 5.35369 113.002 5.18324C113.518 5.01278 114.058 4.92756 114.621 4.92756C115.109 4.92756 115.573 4.99621 116.013 5.13352C116.459 5.27083 116.854 5.47917 117.2 5.75852C117.55 6.03788 117.827 6.39536 118.031 6.83097C118.234 7.26184 118.336 7.77794 118.336 8.37926V16H117.469V14.0327H117.406C117.216 14.4399 116.956 14.8116 116.624 15.1477C116.298 15.4792 115.902 15.7443 115.438 15.9432C114.979 16.1373 114.46 16.2344 113.883 16.2344ZM113.968 15.4318C114.65 15.4318 115.254 15.2661 115.779 14.9347C116.309 14.5985 116.724 14.1392 117.022 13.5568C117.32 12.9744 117.469 12.3139 117.469 11.5753V9.97017C117.361 10.0649 117.202 10.1501 116.994 10.2259C116.79 10.2969 116.558 10.3608 116.298 10.4176C116.042 10.4697 115.772 10.517 115.488 10.5597C115.209 10.5975 114.936 10.633 114.671 10.6662C113.876 10.7609 113.227 10.9077 112.725 11.1065C112.228 11.3007 111.863 11.5563 111.631 11.8736C111.404 12.1908 111.29 12.5743 111.29 13.0241C111.29 13.7675 111.546 14.3546 112.058 14.7855C112.569 15.2164 113.206 15.4318 113.968 15.4318ZM122.835 1.45455V16H121.969V1.45455H122.835Z" fill="black"/>
<path d="M11.8906 12.6619L12.797 13.0844L12.7977 13.0829L11.8906 12.6619ZM9.71733 15.2685L9.16165 14.4371L9.15969 14.4384L9.71733 15.2685ZM3.31108 15.2685L2.7505 16.0966L2.7554 16.0999L3.31108 15.2685ZM1.14489 12.6548L0.237824 13.0758L0.238507 13.0773L1.14489 12.6548ZM1.14489 4.79972L0.239975 4.3741L0.238507 4.37725L1.14489 4.79972ZM3.31818 2.19318L3.87583 3.02327L3.87875 3.02129L3.31818 2.19318ZM9.71733 2.18608L9.15968 3.01616L9.16165 3.01748L9.71733 2.18608ZM11.8906 4.79972L10.9836 5.22071L10.9842 5.22218L11.8906 4.79972ZM11.1236 5.21875L10.2132 5.63256L10.2149 5.63615L11.1236 5.21875ZM9.25568 2.92472L8.69082 3.74991L8.69418 3.75219L9.25568 2.92472ZM3.78693 2.91761L4.34505 3.74738L4.34843 3.74509L3.78693 2.91761ZM1.91193 5.21165L1.00246 4.79589L1.00157 4.79784L1.91193 5.21165ZM1.90483 12.2287L0.992082 12.6373L0.994463 12.6425L1.90483 12.2287ZM3.77273 14.5298L3.20787 15.355L3.20787 15.355L3.77273 14.5298ZM9.25568 14.5369L9.81719 15.3644L9.82054 15.3621L9.25568 14.5369ZM11.1236 12.2358L10.2149 11.8184L10.2132 11.822L11.1236 12.2358ZM11.6719 8.72727C11.6719 10.1132 11.4315 11.2757 10.9836 12.2409L12.7977 13.0829C13.3914 11.8038 13.6719 10.3432 13.6719 8.72727H11.6719ZM10.9842 12.2395C10.5324 13.2089 9.92199 13.9289 9.16165 14.4371L10.273 16.0999C11.3687 15.3675 12.2072 14.3498 12.797 13.0844L10.9842 12.2395ZM9.15969 14.4384C8.41543 14.9384 7.54783 15.1989 6.52131 15.1989V17.1989C7.90956 17.1989 9.17264 16.8391 10.275 16.0985L9.15969 14.4384ZM6.52131 15.1989C5.48924 15.1989 4.61614 14.9379 3.86676 14.4371L2.7554 16.0999C3.86208 16.8395 5.12913 17.1989 6.52131 17.1989V15.1989ZM3.87165 14.4404C3.11371 13.9273 2.50397 13.2036 2.05127 12.2324L0.238507 13.0773C0.827469 14.3409 1.66186 15.3596 2.75051 16.0966L3.87165 14.4404ZM2.05195 12.2338C1.60379 11.2683 1.36364 10.108 1.36364 8.72727H-0.636364C-0.636364 10.339 -0.355686 11.7971 0.237825 13.0758L2.05195 12.2338ZM1.36364 8.72727C1.36364 7.34116 1.60402 6.18173 2.05127 5.22218L0.238507 4.37725C-0.355913 5.65255 -0.636364 7.11149 -0.636364 8.72727H1.36364ZM2.04979 5.22533C2.50706 4.25312 3.1189 3.53176 3.87583 3.02326L2.76054 1.3631C1.67088 2.09513 0.833849 3.11146 0.239981 4.3741L2.04979 5.22533ZM3.87875 3.02129C4.62208 2.51811 5.49079 2.25568 6.52131 2.25568V0.255681C5.12758 0.255681 3.86087 0.618251 2.75762 1.36507L3.87875 3.02129ZM6.52131 2.25568C7.54783 2.25568 8.41543 2.51617 9.15969 3.01616L10.275 1.356C9.17264 0.615459 7.90956 0.255681 6.52131 0.255681V2.25568ZM9.16165 3.01748C9.92095 3.52497 10.5314 4.24643 10.9836 5.22071L12.7977 4.37872C12.2082 3.10868 11.3698 2.08772 10.273 1.35468L9.16165 3.01748ZM10.9842 5.22218C11.4315 6.18173 11.6719 7.34116 11.6719 8.72727H13.6719C13.6719 7.11149 13.3914 5.65255 12.797 4.37725L10.9842 5.22218ZM12.8054 8.72727C12.8054 7.26733 12.5596 5.94928 12.0323 4.80135L10.2149 5.63615C10.5967 6.46739 10.8054 7.48835 10.8054 8.72727H12.8054ZM12.0339 4.80495C11.5183 3.67044 10.7839 2.75322 9.81718 2.09724L8.69418 3.75219C9.31838 4.17575 9.82928 4.78789 10.2132 5.63255L12.0339 4.80495ZM9.82054 2.09953C8.84754 1.43349 7.73638 1.10795 6.52131 1.10795V3.10795C7.36116 3.10795 8.07291 3.32693 8.69082 3.7499L9.82054 2.09953ZM6.52131 1.10795C5.30812 1.10795 4.19816 1.43007 3.22543 2.09014L4.34843 3.74509C4.96661 3.32561 5.67957 3.10795 6.52131 3.10795V1.10795ZM3.22882 2.08785C2.25972 2.73968 1.52269 3.65789 1.00246 4.79589L2.82141 5.62741C3.21027 4.77677 3.72323 4.16562 4.34505 3.74738L3.22882 2.08785ZM1.00157 4.79784C0.480038 5.94521 0.237216 7.26445 0.237216 8.72727H2.23722C2.23722 7.48176 2.4442 6.45726 2.8223 5.62545L1.00157 4.79784ZM0.237216 8.72727C0.237216 10.1765 0.477855 11.4884 0.992097 12.6372L2.81756 11.8201C2.44165 10.9803 2.23722 9.958 2.23722 8.72727H0.237216ZM0.994463 12.6425C1.50989 13.7764 2.24334 14.6948 3.20787 15.355L4.33759 13.7046C3.7112 13.2759 3.19939 12.6601 2.8152 11.8149L0.994463 12.6425ZM3.20787 15.355C4.18244 16.0221 5.29881 16.3466 6.52131 16.3466V14.3466C5.66994 14.3466 4.95392 14.1265 4.33759 13.7046L3.20787 15.355ZM6.52131 16.3466C7.73449 16.3466 8.84445 16.0245 9.81718 15.3644L8.69418 13.7095C8.076 14.1289 7.36304 14.3466 6.52131 14.3466V16.3466ZM9.82054 15.3621C10.7851 14.7019 11.5185 13.7835 12.0339 12.6496L10.2132 11.822C9.82902 12.6672 9.31721 13.283 8.69082 13.7117L9.82054 15.3621ZM12.0323 12.6532C12.5596 11.5053 12.8054 10.1872 12.8054 8.72727H10.8054C10.8054 9.96619 10.5967 10.9872 10.2149 11.8184L12.0323 12.6532ZM22.8246 5.09091V4.09091H21.8246V5.09091H22.8246ZM23.6911 5.09091H24.6911V4.09091H23.6911V5.09091ZM23.6911 16V17H24.6911V16H23.6911ZM22.8246 16H21.8246V17H22.8246V16ZM22.8246 14.2315H23.8246V13.2315H22.8246V14.2315ZM22.7536 14.2315V13.2315H22.1092L21.8429 13.8183L22.7536 14.2315ZM21.5107 15.6094L20.9838 14.7594L20.9807 14.7614L21.5107 15.6094ZM17.5973 15.6733L18.0918 14.8041L18.0918 14.8041L17.5973 15.6733ZM16.3047 14.3452L15.4251 14.821L15.4268 14.824L16.3047 14.3452ZM15.8359 5.09091V4.09091H14.8359V5.09091H15.8359ZM16.7024 5.09091H17.7024V4.09091H16.7024V5.09091ZM17.5263 14.4588L16.8102 15.1569L16.8162 15.1629L17.5263 14.4588ZM21.2408 14.9134L21.7123 15.7952L21.7123 15.7952L21.2408 14.9134ZM22.3913 13.8196L23.245 14.3404L23.2473 14.3366L22.3913 13.8196ZM23.8246 12.1293V5.09091H21.8246V12.1293H23.8246ZM22.8246 6.09091H23.6911V4.09091H22.8246V6.09091ZM22.6911 5.09091V16H24.6911V5.09091H22.6911ZM23.6911 15H22.8246V17H23.6911V15ZM23.8246 16V14.2315H21.8246V16H23.8246ZM22.8246 13.2315H22.7536V15.2315H22.8246V13.2315ZM21.8429 13.8183C21.6764 14.1852 21.4041 14.4989 20.9838 14.7594L22.0375 16.4593C22.763 16.0096 23.3193 15.4047 23.6642 14.6448L21.8429 13.8183ZM20.9807 14.7614C20.5953 15.0022 20.1131 15.142 19.4936 15.142V17.142C20.4272 17.142 21.2896 16.9268 22.0407 16.4574L20.9807 14.7614ZM19.4936 15.142C18.9289 15.142 18.4714 15.0201 18.0918 14.8041L17.1028 16.5425C17.8217 16.9515 18.6284 17.142 19.4936 17.142V15.142ZM18.0918 14.8041C17.7096 14.5867 17.4091 14.2816 17.1826 13.8663L15.4268 14.824C15.8253 15.5545 16.3865 16.1349 17.1028 16.5425L18.0918 14.8041ZM17.1842 13.8694C16.9659 13.4657 16.8359 12.9496 16.8359 12.2855H14.8359C14.8359 13.2123 15.0185 14.0694 15.4251 14.821L17.1842 13.8694ZM16.8359 12.2855V5.09091H14.8359V12.2855H16.8359ZM15.8359 6.09091H16.7024V4.09091H15.8359V6.09091ZM15.7024 5.09091V12.25H17.7024V5.09091H15.7024ZM15.7024 12.25C15.7024 13.3762 16.0505 14.3775 16.8102 15.1568L18.2424 13.7608C17.9035 13.4132 17.7024 12.942 17.7024 12.25H15.7024ZM16.8162 15.1629C17.58 15.9333 18.5617 16.2969 19.6712 16.2969V14.2969C19.0288 14.2969 18.5805 14.1018 18.2364 13.7547L16.8162 15.1629ZM19.6712 16.2969C20.3957 16.2969 21.082 16.1322 21.7123 15.7952L20.7693 14.0315C20.4431 14.2059 20.083 14.2969 19.6712 14.2969V16.2969ZM21.7123 15.7952C22.3515 15.4534 22.8655 14.9625 23.245 14.3404L21.5376 13.2988C21.3395 13.6237 21.0864 13.8619 20.7693 14.0315L21.7123 15.7952ZM23.2473 14.3366C23.6447 13.6787 23.8246 12.9304 23.8246 12.1293H21.8246C21.8246 12.6255 21.7157 13.0041 21.5353 13.3026L23.2473 14.3366ZM31.1378 5.09091H32.1378V4.09091H31.1378V5.09091ZM31.1378 5.86506V6.86506H32.1378V5.86506H31.1378ZM26.3722 5.86506H25.3722V6.86506H26.3722V5.86506ZM26.3722 5.09091V4.09091H25.3722V5.09091H26.3722ZM27.9844 2.47727V1.47727H26.9844V2.47727H27.9844ZM28.8438 2.47727H29.8438V1.47727H28.8438V2.47727ZM29.0994 14.5156L28.2419 15.0301L28.247 15.0386L28.2522 15.0469L29.0994 14.5156ZM29.7812 15.1406L29.3401 16.0381L29.3492 16.0425L29.3584 16.0468L29.7812 15.1406ZM31.0952 15.304L30.899 14.3234L30.8912 14.325L31.0952 15.304ZM31.429 15.2116L32.3943 14.9507L32.1103 13.8998L31.0872 14.2719L31.429 15.2116ZM31.642 16L31.9784 16.9417L32.8485 16.631L32.6074 15.7391L31.642 16ZM31.2017 16.1207L31.0001 15.1413L30.9863 15.1441L30.9727 15.1473L31.2017 16.1207ZM29.3409 15.8722L28.8895 16.7645L28.8937 16.7666L29.3409 15.8722ZM28.3608 14.9844L29.2006 14.4415L29.2006 14.4415L28.3608 14.9844ZM30.1378 5.09091V5.86506H32.1378V5.09091H30.1378ZM31.1378 4.86506H26.3722V6.86506H31.1378V4.86506ZM27.3722 5.86506V5.09091H25.3722V5.86506H27.3722ZM26.3722 6.09091H31.1378V4.09091H26.3722V6.09091ZM27.9844 3.47727H28.8438V1.47727H27.9844V3.47727ZM27.8438 2.47727V13.4219H29.8438V2.47727H27.8438ZM27.8438 13.4219C27.8438 13.988 27.9515 14.546 28.2419 15.0301L29.9569 14.0011C29.9065 13.917 29.8438 13.7459 29.8438 13.4219H27.8438ZM28.2522 15.0469C28.52 15.4739 28.884 15.8139 29.3401 16.0381L30.2224 14.2432C30.1198 14.1928 30.0292 14.116 29.9466 13.9843L28.2522 15.0469ZM29.3584 16.0468C29.7785 16.2429 30.2263 16.3395 30.6903 16.3395V14.3395C30.5104 14.3395 30.3522 14.3035 30.2041 14.2344L29.3584 16.0468ZM30.6903 16.3395C30.8932 16.3395 31.0999 16.3245 31.2991 16.283L30.8912 14.325C30.8631 14.3308 30.7999 14.3395 30.6903 14.3395V16.3395ZM31.2913 16.2846C31.4548 16.2518 31.6151 16.208 31.7707 16.1514L31.0872 14.2719C31.0345 14.291 30.9723 14.3088 30.8991 14.3234L31.2913 16.2846ZM30.4636 15.4726L30.6767 16.2609L32.6074 15.7391L32.3943 14.9507L30.4636 15.4726ZM31.3057 15.0583C31.2236 15.0876 31.1227 15.116 31.0001 15.1413L31.4034 17.1002C31.6027 17.0592 31.7953 17.0071 31.9784 16.9417L31.3057 15.0583ZM30.9727 15.1473C30.9061 15.163 30.797 15.1776 30.6335 15.1776V17.1776C30.9057 17.1776 31.1754 17.1542 31.4307 17.0942L30.9727 15.1473ZM30.6335 15.1776C30.3345 15.1776 30.0567 15.112 29.7881 14.9777L28.8937 16.7666C29.4395 17.0395 30.0235 17.1776 30.6335 17.1776V15.1776ZM29.7923 14.9798C29.5521 14.8583 29.3579 14.6848 29.2006 14.4415L27.521 15.5272C27.8656 16.0604 28.3248 16.4788 28.8895 16.7645L29.7923 14.9798ZM29.2006 14.4415C29.0725 14.2434 28.9844 13.9715 28.9844 13.5781H26.9844C26.9844 14.2832 27.1472 14.9489 27.521 15.5272L29.2006 14.4415ZM28.9844 13.5781V2.47727H26.9844V13.5781H28.9844ZM38.4709 5.09091H39.4709V4.09091H38.4709V5.09091ZM38.4709 5.86506V6.86506H39.4709V5.86506H38.4709ZM33.6342 5.86506H32.6342V6.86506H33.6342V5.86506ZM33.6342 5.09091V4.09091H32.6342V5.09091H33.6342ZM35.2251 16H34.2251V17H35.2251V16ZM35.6016 1.98722L34.7617 1.44439L34.7617 1.44439L35.6016 1.98722ZM36.5888 1.09943L36.1457 0.202943L36.1416 0.205004L36.5888 1.09943ZM38.5561 0.857954L38.3198 1.82962L38.3349 1.8333L38.3501 1.8365L38.5561 0.857954ZM39.0249 0.992898L39.9735 1.30913L40.2736 0.40906L39.3905 0.0621459L39.0249 0.992898ZM38.7692 1.75994L38.4407 2.70444L39.3975 3.03725L39.7179 2.07617L38.7692 1.75994ZM38.4141 1.66051L38.1892 2.63493L38.1971 2.6367L38.4141 1.66051ZM36.6172 2.12216L35.9297 1.39595L35.9297 1.39595L36.6172 2.12216ZM36.0845 3.52841L37.0845 3.52898V3.52841H36.0845ZM36.0774 16V17H37.0768L37.0774 16.0006L36.0774 16ZM37.4709 5.09091V5.86506H39.4709V5.09091H37.4709ZM38.4709 4.86506H33.6342V6.86506H38.4709V4.86506ZM34.6342 5.86506V5.09091H32.6342V5.86506H34.6342ZM33.6342 6.09091H38.4709V4.09091H33.6342V6.09091ZM36.2251 16V3.39347H34.2251V16H36.2251ZM36.2251 3.39347C36.2251 3.00005 36.3133 2.72823 36.4414 2.53004L34.7617 1.44439C34.3879 2.02272 34.2251 2.68839 34.2251 3.39347H36.2251ZM36.4414 2.53004C36.5969 2.28954 36.7913 2.11619 37.036 1.99386L36.1416 0.205004C35.5718 0.489874 35.1082 0.908371 34.7617 1.44439L36.4414 2.53004ZM37.0319 1.99591C37.3018 1.86252 37.5923 1.79403 37.9169 1.79403V-0.205966C37.2946 -0.205966 36.6997 -0.0708518 36.1457 0.202953L37.0319 1.99591ZM37.9169 1.79403C38.1167 1.79403 38.2455 1.81155 38.3198 1.82962L38.7925 -0.113714C38.5164 -0.18087 38.219 -0.205966 37.9169 -0.205966V1.79403ZM38.3501 1.8365C38.4903 1.86603 38.5908 1.89678 38.6592 1.92365L39.3905 0.0621459C39.1938 -0.0151473 38.9817 -0.0743647 38.7621 -0.120596L38.3501 1.8365ZM38.0762 0.67667L37.8205 1.44371L39.7179 2.07617L39.9735 1.30913L38.0762 0.67667ZM39.0977 0.815444C38.9477 0.763284 38.7916 0.720024 38.631 0.684324L38.1971 2.6367C38.2922 2.65782 38.3728 2.68084 38.4407 2.70444L39.0977 0.815444ZM38.6389 0.68612C38.4216 0.635966 38.1955 0.617898 37.9737 0.617898V2.6179C38.0929 2.6179 38.1603 2.62824 38.1892 2.6349L38.6389 0.68612ZM37.9737 0.617898C37.2029 0.617898 36.4939 0.86183 35.9297 1.39595L37.3047 2.84837C37.4507 2.71014 37.6461 2.6179 37.9737 2.6179V0.617898ZM35.9297 1.39595C35.3308 1.96291 35.0845 2.71997 35.0845 3.52841H37.0845C37.0845 3.1342 37.1933 2.95375 37.3047 2.84837L35.9297 1.39595ZM35.0845 3.52784L35.0774 15.9994L37.0774 16.0006L37.0845 3.52898L35.0845 3.52784ZM36.0774 15H35.2251V17H36.0774V15ZM41.2106 16H40.2106V17H41.2106V16ZM41.2106 5.09091V4.09091H40.2106V5.09091H41.2106ZM42.07 5.09091H43.07V4.09091H42.07V5.09091ZM42.07 16V17H43.07V16H42.07ZM41.1467 2.96023L40.4521 3.67963L40.4582 3.68551L40.4643 3.69128L41.1467 2.96023ZM42.1339 1.99432L41.4393 2.71372L41.4454 2.7196L41.4516 2.72537L42.1339 1.99432ZM42.141 2.96023L41.4464 2.24082L41.4464 2.24082L42.141 2.96023ZM42.2106 16V5.09091H40.2106V16H42.2106ZM41.2106 6.09091H42.07V4.09091H41.2106V6.09091ZM41.07 5.09091V16H43.07V5.09091H41.07ZM42.07 15H41.2106V17H42.07V15ZM41.6438 2.15909C41.6685 2.15909 41.7065 2.16396 41.7489 2.1809C41.7908 2.19766 41.8175 2.21848 41.829 2.22917L40.4643 3.69128C40.7862 3.99172 41.194 4.15909 41.6438 4.15909V2.15909ZM41.8413 2.24082C41.86 2.25894 41.8893 2.29451 41.912 2.34777C41.9348 2.40119 41.9407 2.44833 41.9407 2.47727H39.9407C39.9407 2.94035 40.1213 3.36027 40.4521 3.67963L41.8413 2.24082ZM41.9407 2.47727C41.9407 2.50621 41.9348 2.55335 41.912 2.60677C41.8893 2.66003 41.86 2.6956 41.8413 2.71372L40.4521 1.27492C40.1213 1.59428 39.9407 2.0142 39.9407 2.47727H41.9407ZM41.8413 2.71372C41.8233 2.73109 41.7909 2.75542 41.7453 2.77365C41.7001 2.79174 41.6628 2.79545 41.6438 2.79545V0.795454C41.1955 0.795454 40.7793 0.958938 40.4521 1.27492L41.8413 2.71372ZM41.6438 2.79545C41.6193 2.79545 41.5788 2.79061 41.5324 2.77178C41.4861 2.75301 41.4549 2.72884 41.4393 2.71372L42.8285 1.27492C42.5064 0.963908 42.0946 0.795454 41.6438 0.795454V2.79545ZM41.4516 2.72537C41.4341 2.70904 41.4033 2.67372 41.3788 2.61813C41.354 2.56196 41.3469 2.51081 41.3469 2.47727H43.3469C43.3469 2.00267 43.1549 1.57942 42.8162 1.26326L41.4516 2.72537ZM41.3469 2.47727C41.3469 2.44833 41.3528 2.40119 41.3756 2.34777C41.3983 2.29451 41.4276 2.25894 41.4464 2.24082L42.8356 3.67963C43.1663 3.36027 43.3469 2.94035 43.3469 2.47727H41.3469ZM41.4464 2.24082C41.4644 2.22346 41.4968 2.19912 41.5423 2.1809C41.5876 2.1628 41.6249 2.15909 41.6438 2.15909V4.15909C42.0922 4.15909 42.5083 3.99561 42.8356 3.67963L41.4464 2.24082ZM49.5558 5.09091H50.5558V4.09091H49.5558V5.09091ZM49.5558 5.86506V6.86506H50.5558V5.86506H49.5558ZM44.7901 5.86506H43.7901V6.86506H44.7901V5.86506ZM44.7901 5.09091V4.09091H43.7901V5.09091H44.7901ZM46.4023 2.47727V1.47727H45.4023V2.47727H46.4023ZM47.2617 2.47727H48.2617V1.47727H47.2617V2.47727ZM47.5174 14.5156L46.6599 15.0301L46.665 15.0386L46.6702 15.0469L47.5174 14.5156ZM48.1992 15.1406L47.7581 16.0381L47.7672 16.0425L47.7763 16.0468L48.1992 15.1406ZM49.5131 15.304L49.317 14.3234L49.3092 14.325L49.5131 15.304ZM49.8469 15.2116L50.8123 14.9507L50.5283 13.8998L49.5052 14.2719L49.8469 15.2116ZM50.06 16L50.3964 16.9417L51.2664 16.631L51.0254 15.7391L50.06 16ZM49.6197 16.1207L49.418 15.1413L49.4043 15.1441L49.3906 15.1473L49.6197 16.1207ZM47.7589 15.8722L47.3075 16.7645L47.3117 16.7666L47.7589 15.8722ZM46.7788 14.9844L47.6186 14.4415L47.6186 14.4415L46.7788 14.9844ZM48.5558 5.09091V5.86506H50.5558V5.09091H48.5558ZM49.5558 4.86506H44.7901V6.86506H49.5558V4.86506ZM45.7901 5.86506V5.09091H43.7901V5.86506H45.7901ZM44.7901 6.09091H49.5558V4.09091H44.7901V6.09091ZM46.4023 3.47727H47.2617V1.47727H46.4023V3.47727ZM46.2617 2.47727V13.4219H48.2617V2.47727H46.2617ZM46.2617 13.4219C46.2617 13.988 46.3694 14.546 46.6599 15.0301L48.3749 14.0011C48.3244 13.917 48.2617 13.7459 48.2617 13.4219H46.2617ZM46.6702 15.0469C46.938 15.4739 47.302 15.8139 47.7581 16.0381L48.6403 14.2432C48.5378 14.1928 48.4472 14.116 48.3646 13.9843L46.6702 15.0469ZM47.7763 16.0468C48.1965 16.2429 48.6443 16.3395 49.1083 16.3395V14.3395C48.9284 14.3395 48.7701 14.3035 48.6221 14.2344L47.7763 16.0468ZM49.1083 16.3395C49.3112 16.3395 49.5179 16.3245 49.7171 16.283L49.3092 14.325C49.2811 14.3308 49.2179 14.3395 49.1083 14.3395V16.3395ZM49.7093 16.2846C49.8728 16.2518 50.0331 16.208 50.1887 16.1514L49.5052 14.2719C49.4525 14.291 49.3902 14.3088 49.317 14.3234L49.7093 16.2846ZM48.8816 15.4726L49.0947 16.2609L51.0254 15.7391L50.8123 14.9507L48.8816 15.4726ZM49.7237 15.0583C49.6416 15.0876 49.5407 15.116 49.418 15.1413L49.8213 17.1002C50.0207 17.0592 50.2133 17.0071 50.3964 16.9417L49.7237 15.0583ZM49.3906 15.1473C49.324 15.163 49.2149 15.1776 49.0515 15.1776V17.1776C49.3236 17.1776 49.5933 17.1542 49.8487 17.0942L49.3906 15.1473ZM49.0515 15.1776C48.7524 15.1776 48.4747 15.112 48.2061 14.9777L47.3117 16.7666C47.8575 17.0395 48.4414 17.1776 49.0515 17.1776V15.1776ZM48.2103 14.9798C47.9701 14.8583 47.7759 14.6848 47.6186 14.4415L45.9389 15.5272C46.2836 16.0604 46.7428 16.4788 47.3075 16.7645L48.2103 14.9798ZM47.6186 14.4415C47.4905 14.2434 47.4023 13.9715 47.4023 13.5781H45.4023C45.4023 14.2832 45.5651 14.9489 45.9389 15.5272L47.6186 14.4415ZM47.4023 13.5781V2.47727H45.4023V13.5781H47.4023ZM75.4045 6V7H76.5942L76.3896 5.828L75.4045 6ZM74.4954 6L73.5134 6.18885L73.6694 7H74.4954V6ZM73.9627 4.57244L73.0907 5.06186L73.0928 5.06568L73.9627 4.57244ZM72.9542 3.32244L72.2776 4.05894L72.2866 4.06701L72.9542 3.32244ZM71.5337 2.43466L71.9079 1.50731L71.9079 1.50731L71.5337 2.43466ZM67.1019 2.875L67.6369 3.7199L67.6382 3.71907L67.1019 2.875ZM65.1772 5.11222L64.2793 4.67192L64.2776 4.67541L65.1772 5.11222ZM65.1772 12.3565L64.2776 12.7933L64.2793 12.7968L65.1772 12.3565ZM67.1019 14.5938L66.567 15.4387L66.5728 15.4423L67.1019 14.5938ZM71.5337 15.027L71.9009 15.9572L71.9079 15.9543L71.5337 15.027ZM72.9542 14.1463L73.626 14.887L73.6264 14.8866L72.9542 14.1463ZM74.4954 11.4545V10.4545H73.6694L73.5134 11.2657L74.4954 11.4545ZM75.4045 11.4545L76.3891 11.6292L76.5975 10.4545H75.4045V11.4545ZM74.8008 13.1804L73.917 12.7125L73.9139 12.7183L74.8008 13.1804ZM73.636 14.7145L74.3249 15.4393L74.3251 15.4391L73.636 14.7145ZM71.9386 15.8011L72.3169 16.7268L72.3203 16.7254L71.9386 15.8011ZM66.5408 15.2756L65.9832 16.1057L65.9861 16.1076L66.5408 15.2756ZM64.3675 12.6619L63.4605 13.0829L63.4619 13.0861L64.3675 12.6619ZM64.3675 4.79261L63.4619 4.36847L63.4605 4.37161L64.3675 4.79261ZM66.5408 2.18608L67.0955 3.01813L67.0985 3.01616L66.5408 2.18608ZM71.9386 1.66051L71.5544 2.58382L71.5625 2.58712L71.9386 1.66051ZM73.636 2.74006L72.947 3.46491L72.9545 3.47183L73.636 2.74006ZM74.8008 4.25994L73.9139 4.72201L73.917 4.72783L74.8008 4.25994ZM75.4045 5H74.4954V7H75.4045V5ZM75.4774 5.81115C75.3611 5.20629 75.1439 4.62813 74.8326 4.0792L73.0928 5.06568C73.3024 5.43532 73.4403 5.80886 73.5134 6.18885L75.4774 5.81115ZM74.8348 4.08303C74.5185 3.51955 74.1121 3.0175 73.6217 2.57787L72.2866 4.06701C72.6202 4.36602 72.8861 4.69731 73.0907 5.06186L74.8348 4.08303ZM73.6307 2.586C73.1304 2.12645 72.5532 1.76767 71.9079 1.50731L71.1595 3.36201C71.5938 3.53725 71.9636 3.77033 72.2777 4.05889L73.6307 2.586ZM71.9079 1.50731C71.2355 1.23599 70.5099 1.10795 69.744 1.10795V3.10795C70.2848 3.10795 70.7524 3.19772 71.1595 3.36201L71.9079 1.50731ZM69.744 1.10795C68.5982 1.10795 67.5314 1.4174 66.5657 2.03093L67.6382 3.71907C68.2823 3.30987 68.9769 3.10795 69.744 3.10795V1.10795ZM66.567 2.03011C65.5875 2.65028 64.8305 3.54797 64.2793 4.67192L66.0751 5.55251C66.4898 4.70676 67.016 4.11298 67.6369 3.71989L66.567 2.03011ZM64.2776 4.67541C63.7165 5.83104 63.4599 7.19468 63.4599 8.72727H65.4599C65.4599 7.40948 65.6815 6.36309 66.0768 5.54902L64.2776 4.67541ZM63.4599 8.72727C63.4599 10.2682 63.7161 11.6369 64.2776 12.7933L66.0768 11.9197C65.6819 11.1065 65.4599 10.0557 65.4599 8.72727H63.4599ZM64.2793 12.7968C64.8305 13.9208 65.5875 14.8185 66.567 15.4386L67.6369 13.7489C67.016 13.3558 66.4898 12.762 66.0751 11.9162L64.2793 12.7968ZM66.5728 15.4423C67.5379 16.044 68.6021 16.3466 69.744 16.3466V14.3466C68.9729 14.3466 68.2758 14.1472 67.631 13.7452L66.5728 15.4423ZM69.744 16.3466C70.5073 16.3466 71.2304 16.2218 71.9009 15.9571L71.1666 14.0968C70.7575 14.2583 70.2874 14.3466 69.744 14.3466V16.3466ZM71.9079 15.9543C72.5507 15.695 73.1264 15.3402 73.626 14.887L72.2824 13.4056C71.9676 13.691 71.5964 13.9234 71.1595 14.0996L71.9079 15.9543ZM73.6264 14.8866C74.1144 14.4436 74.5193 13.9407 74.8348 13.3786L73.0907 12.3998C72.8853 12.7657 72.6179 13.1009 72.2819 13.406L73.6264 14.8866ZM74.8348 13.3786C75.1445 12.8267 75.3612 12.2475 75.4774 11.6434L73.5134 11.2657C73.4402 11.6464 73.3018 12.0237 73.0907 12.3998L74.8348 13.3786ZM74.4954 12.4545H75.4045V10.4545H74.4954V12.4545ZM74.4199 11.2799C74.3351 11.7577 74.17 12.2346 73.917 12.7125L75.6846 13.6483C76.0281 12.9993 76.2656 12.3256 76.3891 11.6292L74.4199 11.2799ZM73.9139 12.7183C73.6738 13.1792 73.3538 13.6028 72.9469 13.9898L74.3251 15.4391C74.8841 14.9076 75.3406 14.3085 75.6876 13.6425L73.9139 12.7183ZM72.9471 13.9897C72.5643 14.3535 72.1046 14.6506 71.5568 14.8769L72.3203 16.7254C73.0793 16.4119 73.7513 15.9846 74.3249 15.4393L72.9471 13.9897ZM71.5602 14.8755C71.0495 15.0842 70.4494 15.1989 69.744 15.1989V17.1989C70.6673 17.1989 71.5303 17.0483 72.3169 16.7268L71.5602 14.8755ZM69.744 15.1989C68.7102 15.1989 67.8394 14.9394 67.0955 14.4435L65.9861 16.1076C67.0888 16.8428 68.3534 17.1989 69.744 17.1989V15.1989ZM67.0985 14.4455C66.3426 13.9377 65.7307 13.2148 65.2731 12.2378L63.4619 13.0861C64.0555 14.3534 64.8925 15.3729 65.9832 16.1056L67.0985 14.4455ZM65.2746 12.2409C64.8266 11.2757 64.5863 10.1132 64.5863 8.72727H62.5863C62.5863 10.3432 62.8668 11.8038 63.4605 13.0829L65.2746 12.2409ZM64.5863 8.72727C64.5863 7.34131 64.8266 6.1788 65.2746 5.21361L63.4605 4.37161C62.8668 5.65075 62.5863 7.11134 62.5863 8.72727H64.5863ZM65.2731 5.21675C65.7305 4.24024 66.3415 3.52081 67.0955 3.01813L65.9861 1.35403C64.8936 2.08241 64.0557 3.10067 63.4619 4.36847L65.2731 5.21675ZM67.0985 3.01616C67.8421 2.51661 68.7118 2.25568 69.744 2.25568V0.255681C68.3518 0.255681 67.0862 0.615015 65.9832 1.356L67.0985 3.01616ZM69.744 2.25568C70.4473 2.25568 71.0453 2.37195 71.5544 2.58379L72.3227 0.737235C71.5345 0.409294 70.6695 0.255681 69.744 0.255681V2.25568ZM71.5625 2.58712C72.108 2.80846 72.5657 3.10239 72.9471 3.46488L74.3249 2.01524C73.7499 1.46864 73.076 1.04286 72.3146 0.733899L71.5625 2.58712ZM72.9545 3.47183C73.3574 3.84712 73.675 4.26337 73.9139 4.722L75.6876 3.79789C75.3395 3.12962 74.8805 2.53262 74.3176 2.00829L72.9545 3.47183ZM73.917 4.72783C74.1688 5.20349 74.3342 5.68408 74.4194 6.172L76.3896 5.828C76.2664 5.12274 76.0293 4.44329 75.6846 3.79205L73.917 4.72783ZM79.6694 15.858L79.2353 16.7588L79.2385 16.7604L79.6694 15.858ZM78.4123 14.7571L77.5727 15.3004L77.5765 15.3061L78.4123 14.7571ZM78.185 11.7955L77.2785 11.3732L77.2785 11.3732L78.185 11.7955ZM78.9308 10.9006L79.5289 11.7019L79.5289 11.7019L78.9308 10.9006ZM80.2234 10.2827L80.5163 11.2389L80.5241 11.2364L80.2234 10.2827ZM82.1055 9.89915L81.9867 8.90622L81.983 8.90667L82.1055 9.89915ZM83.5898 9.70739L83.7298 10.6976L83.7403 10.696L83.5898 9.70739ZM84.6126 9.40199L84.1325 8.5247L84.1255 8.52862L84.6126 9.40199ZM84.2362 6.42614L83.5536 7.15696L83.5536 7.15696L84.2362 6.42614ZM80.1879 6.24148L80.7286 7.08266L80.7305 7.08145L80.1879 6.24148ZM79.0728 7.5625L78.7226 8.49916L79.6424 8.8431L80.003 7.92967L79.0728 7.5625ZM78.256 7.2571L77.3276 6.88571L76.9476 7.8355L77.9058 8.19377L78.256 7.2571ZM79.158 5.95739L78.5021 5.20257L78.4976 5.20649L79.158 5.95739ZM80.5217 5.18324L80.208 4.23368L80.2054 4.23456L80.5217 5.18324ZM83.533 5.13352L83.2353 6.08819L83.2382 6.08908L83.533 5.13352ZM84.7191 5.75852L84.0905 6.53628L84.0957 6.54042L84.7191 5.75852ZM85.5501 6.83097L84.6441 7.25439L84.6459 7.2582L85.5501 6.83097ZM85.8555 16V17H86.8555V16H85.8555ZM84.989 16H83.989V17H84.989V16ZM84.989 14.0327H85.989V13.0327H84.989V14.0327ZM84.9251 14.0327V13.0327H84.2873L84.0183 13.6109L84.9251 14.0327ZM84.1438 15.1477L83.4317 14.4457L83.4316 14.4457L84.1438 15.1477ZM82.9577 15.9432L83.3471 16.8643L83.3517 16.8623L82.9577 15.9432ZM83.2987 14.9347L83.8321 15.7805L83.8341 15.7793L83.2987 14.9347ZM84.5415 13.5568L85.4316 14.0127L85.4316 14.0127L84.5415 13.5568ZM84.989 9.97017H85.989V7.77541L84.3328 9.21556L84.989 9.97017ZM84.5131 10.2259L84.8425 11.1701L84.8549 11.1656L84.5131 10.2259ZM83.8171 10.4176L84.0167 11.3976L84.0303 11.3946L83.8171 10.4176ZM83.0075 10.5597L83.1418 11.5507L83.1558 11.5486L83.0075 10.5597ZM82.1907 10.6662L82.3089 11.6592L82.3147 11.6585L82.1907 10.6662ZM80.2447 11.1065L80.6084 12.038L80.613 12.0362L80.2447 11.1065ZM79.1509 11.8736L78.3437 11.2832L78.338 11.2912L79.1509 11.8736ZM79.5771 14.7855L78.9327 15.5502L78.9327 15.5502L79.5771 14.7855ZM81.4023 15.2344C80.9094 15.2344 80.4806 15.1371 80.1003 14.9555L79.2385 16.7604C79.9093 17.0807 80.6358 17.2344 81.4023 17.2344V15.2344ZM80.1035 14.9571C79.7459 14.7848 79.4657 14.5394 79.2481 14.2081L77.5765 15.3061C77.9933 15.9407 78.5512 16.4292 79.2353 16.7588L80.1035 14.9571ZM79.2519 14.2139C79.0636 13.9229 78.9435 13.5336 78.9435 12.9957H76.9435C76.9435 13.8405 77.136 14.6254 77.5727 15.3004L79.2519 14.2139ZM78.9435 12.9957C78.9435 12.6594 79.0028 12.4081 79.0915 12.2177L77.2785 11.3732C77.0452 11.8741 76.9435 12.423 76.9435 12.9957H78.9435ZM79.0915 12.2177C79.1759 12.0366 79.3118 11.8641 79.5289 11.7019L78.3326 10.0992C77.8774 10.439 77.5161 10.863 77.2785 11.3732L79.0915 12.2177ZM79.5289 11.7019C79.7494 11.5374 80.0684 11.376 80.5162 11.2388L79.9305 9.32652C79.3272 9.51131 78.7844 9.76189 78.3326 10.0992L79.5289 11.7019ZM80.5241 11.2364C80.976 11.0939 81.5406 10.9764 82.2279 10.8916L81.983 8.90667C81.212 9.0018 80.5218 9.14002 79.9226 9.32896L80.5241 11.2364ZM82.2243 10.8921C82.7835 10.8251 83.2856 10.7603 83.7298 10.6975L83.4499 8.71722C83.0229 8.77756 82.5354 8.84057 81.9867 8.90623L82.2243 10.8921ZM83.7403 10.696C84.2351 10.6207 84.7072 10.4942 85.0996 10.2754L84.1255 8.52862C84.0255 8.58439 83.8158 8.66149 83.4394 8.71877L83.7403 10.696ZM85.0926 10.2793C85.3458 10.1407 85.5825 9.93935 85.7515 9.65868C85.9213 9.37677 85.989 9.07095 85.989 8.77699H83.989C83.989 8.76238 83.9939 8.70041 84.0383 8.62683C84.0586 8.59308 84.0812 8.56719 84.1009 8.54911C84.12 8.5316 84.1327 8.52464 84.1326 8.52473L85.0926 10.2793ZM85.989 8.77699V8.32244H83.989V8.77699H85.989ZM85.989 8.32244C85.989 7.2979 85.6557 6.38361 84.9187 5.69531L83.5536 7.15696C83.8204 7.40616 83.989 7.75607 83.989 8.32244H85.989ZM84.9187 5.69531C84.1837 5.00886 83.2222 4.72301 82.1623 4.72301V6.72301C82.8637 6.72301 83.2848 6.90591 83.5536 7.15696L84.9187 5.69531ZM82.1623 4.72301C81.2323 4.72301 80.3752 4.92993 79.6452 5.40151L80.7305 7.08145C81.0706 6.86174 81.5297 6.72301 82.1623 6.72301V4.72301ZM79.6471 5.4003C78.9566 5.8442 78.4394 6.44364 78.1426 7.19533L80.003 7.92967C80.1324 7.60181 80.3585 7.32057 80.7286 7.08266L79.6471 5.4003ZM79.423 6.62584L78.6063 6.32044L77.9058 8.19377L78.7226 8.49916L79.423 6.62584ZM79.1845 7.62849C79.3388 7.24273 79.5517 6.94286 79.8184 6.70828L78.4976 5.20649C77.9783 5.6632 77.5899 6.22981 77.3276 6.88571L79.1845 7.62849ZM79.814 6.71219C80.11 6.45491 80.4485 6.26172 80.8379 6.13192L80.2054 4.23456C79.5721 4.44567 79.0015 4.76857 78.5021 5.20259L79.814 6.71219ZM80.8353 6.13279C81.2465 5.99697 81.6801 5.92756 82.141 5.92756V3.92756C81.4749 3.92756 80.829 4.0286 80.208 4.23369L80.8353 6.13279ZM82.141 5.92756C82.5335 5.92756 82.8968 5.98261 83.2353 6.08818L83.8307 4.17886C83.2886 4.00982 82.7238 3.92756 82.141 3.92756V5.92756ZM83.2382 6.08908C83.5677 6.19072 83.8485 6.34068 84.0905 6.53626L85.3477 4.98078C84.8984 4.61765 84.3885 4.35095 83.8278 4.17796L83.2382 6.08908ZM84.0957 6.54042C84.3168 6.71674 84.501 6.94803 84.6441 7.25439L86.456 6.40754C86.192 5.84269 85.8221 5.35902 85.3425 4.97662L84.0957 6.54042ZM84.6459 7.2582C84.7721 7.52527 84.8555 7.88815 84.8555 8.37926H86.8555C86.8555 7.66772 86.7352 6.99841 86.4542 6.40373L84.6459 7.2582ZM84.8555 8.37926V16H86.8555V8.37926H84.8555ZM85.8555 15H84.989V17H85.8555V15ZM85.989 16V14.0327H83.989V16H85.989ZM84.989 13.0327H84.9251V15.0327H84.989V13.0327ZM84.0183 13.6109C83.8797 13.909 83.6869 14.1869 83.4317 14.4457L84.8559 15.8498C85.2637 15.4362 85.5916 14.9707 85.8318 14.4544L84.0183 13.6109ZM83.4316 14.4457C83.2034 14.6773 82.9188 14.8719 82.5638 15.024L83.3517 16.8623C83.9247 16.6168 84.4308 16.2811 84.856 15.8497L83.4316 14.4457ZM82.5684 15.0221C82.2503 15.1565 81.8672 15.2344 81.4023 15.2344V17.2344C82.0928 17.2344 82.7466 17.1181 83.3471 16.8643L82.5684 15.0221ZM81.4876 16.4318C82.3391 16.4318 83.1314 16.2224 83.8321 15.7805L82.7652 14.0888C82.4147 14.3098 81.9996 14.4318 81.4876 14.4318V16.4318ZM83.8341 15.7793C84.5217 15.3434 85.0555 14.747 85.4316 14.0127L83.6515 13.1009C83.431 13.5314 83.1363 13.8536 82.7632 14.0901L83.8341 15.7793ZM85.4316 14.0127C85.811 13.2719 85.989 12.4518 85.989 11.5753H83.989C83.989 12.176 83.8687 12.6769 83.6515 13.1009L85.4316 14.0127ZM85.989 11.5753V9.97017H83.989V11.5753H85.989ZM84.3328 9.21556C84.3462 9.2039 84.3443 9.20852 84.315 9.22422C84.2865 9.23957 84.2402 9.26103 84.1714 9.28606L84.8549 11.1656C85.1233 11.0681 85.4078 10.9312 85.6452 10.7248L84.3328 9.21556ZM84.1838 9.28165C84.0258 9.33674 83.8338 9.39045 83.6039 9.4406L84.0303 11.3946C84.3213 11.3311 84.5932 11.257 84.8425 11.1701L84.1838 9.28165ZM83.6175 9.43774C83.3804 9.48603 83.1277 9.53043 82.8591 9.57072L83.1558 11.5486C83.4554 11.5037 83.7424 11.4534 84.0167 11.3975L83.6175 9.43774ZM82.8731 9.56873C82.597 9.60616 82.3282 9.64122 82.0667 9.67392L82.3147 11.6585C82.5835 11.6249 82.8592 11.5889 83.1418 11.5506L82.8731 9.56873ZM82.0725 9.6732C81.2284 9.77369 80.4871 9.93485 79.8763 10.1769L80.613 12.0362C81.006 11.8805 81.5621 11.7481 82.3089 11.6592L82.0725 9.6732ZM79.8809 10.175C79.268 10.4144 78.7216 10.7666 78.3438 11.2833L79.9581 12.4639C80.0443 12.3461 80.227 12.187 80.6084 12.038L79.8809 10.175ZM78.338 11.2912C77.9712 11.8033 77.81 12.3985 77.81 13.0241H79.81C79.81 12.7502 79.8761 12.5784 79.9638 12.456L78.338 11.2912ZM77.81 13.0241C77.81 14.0253 78.1689 14.9067 78.9327 15.5502L80.2214 14.0208C79.9625 13.8026 79.81 13.5098 79.81 13.0241H77.81ZM78.9327 15.5502C79.6495 16.1542 80.5245 16.4318 81.4876 16.4318V14.4318C80.9261 14.4318 80.5274 14.2786 80.2214 14.0208L78.9327 15.5502ZM96.4201 7.44176L96.6767 8.40828L97.6963 8.1376L97.3715 7.13394L96.4201 7.44176ZM95.6175 7.65483L94.6655 7.96084L94.9562 8.86506L95.8741 8.62135L95.6175 7.65483ZM95.0707 6.625L95.8441 5.99107L95.8441 5.99107L95.0707 6.625ZM94.1758 5.95739L93.7629 6.86817L93.7702 6.87147L93.7775 6.87465L94.1758 5.95739ZM90.93 6.3125L90.3161 5.52314L90.3125 5.52593L90.93 6.3125ZM90.6886 9.16051L89.9863 9.87249L89.9913 9.87737L90.6886 9.16051ZM92.2724 9.92756L92.5149 8.95741L92.5119 8.95666L92.2724 9.92756ZM93.9485 10.3466L93.706 11.3167L93.7085 11.3174L93.9485 10.3466ZM95.8945 11.3835L95.1552 12.0569L95.1586 12.0606L95.8945 11.3835ZM96.0579 14.75L96.8755 15.3257L96.8755 15.3257L96.0579 14.75ZM94.7013 15.8366L94.2904 14.925L94.2875 14.9263L94.7013 15.8366ZM90.1914 15.517L89.6008 16.324L89.6046 16.3268L90.1914 15.517ZM88.9343 13.4645L88.6859 12.4958L87.7613 12.7329L87.9552 13.6676L88.9343 13.4645ZM89.7653 13.2514L90.7419 13.0366L90.5195 12.0257L89.5169 12.2828L89.7653 13.2514ZM90.7383 14.8778L90.1334 15.6742L90.142 15.6806L90.7383 14.8778ZM94.8434 14.7997L94.2347 14.0063L94.2314 14.0089L94.8434 14.7997ZM95.1843 11.9091L95.916 11.2275L95.916 11.2275L95.1843 11.9091ZM93.7212 11.1491L93.9605 10.1782L93.9591 10.1779L93.7212 11.1491ZM91.9812 10.723L92.219 9.75171L92.2188 9.75167L91.9812 10.723ZM89.9783 9.67898L89.243 10.3567L89.2463 10.3603L89.9783 9.67898ZM89.7724 6.34801L88.9499 5.77926L88.9499 5.77926L89.7724 6.34801ZM91.0437 5.30398L91.4653 6.21077L91.4653 6.21077L91.0437 5.30398ZM95.1559 5.58097L95.7549 4.78018L95.7549 4.78018L95.1559 5.58097ZM96.1635 6.47524L95.3609 6.68831L95.8741 8.62135L96.6767 8.40828L96.1635 6.47524ZM96.5696 7.34882C96.4078 6.84568 96.1693 6.38788 95.8441 5.99107L94.2973 7.25893C94.4455 7.43977 94.5716 7.66853 94.6655 7.96084L96.5696 7.34882ZM95.8441 5.99107C95.5015 5.5731 95.0721 5.25638 94.5741 5.04012L93.7775 6.87465C93.9992 6.97089 94.1664 7.09925 94.2973 7.25893L95.8441 5.99107ZM94.5887 5.0466C94.0734 4.813 93.4992 4.71591 92.8974 4.71591V6.71591C93.2899 6.71591 93.568 6.7798 93.7629 6.86817L94.5887 5.0466ZM92.8974 4.71591C91.9283 4.71591 91.041 4.95931 90.3161 5.52315L91.544 7.10185C91.8418 6.87023 92.266 6.71591 92.8974 6.71591V4.71591ZM90.3125 5.52593C89.5666 6.11153 89.1701 6.91894 89.1701 7.8679H91.1701C91.1701 7.53844 91.2802 7.30893 91.5475 7.09907L90.3125 5.52593ZM89.1701 7.8679C89.1701 8.63473 89.4353 9.329 89.9864 9.87248L91.3908 8.44854C91.2505 8.3102 91.1701 8.14273 91.1701 7.8679H89.1701ZM89.9913 9.87737C90.5137 10.3855 91.2325 10.701 92.0329 10.8985L92.5119 8.95666C91.8918 8.8037 91.5547 8.60792 91.3858 8.44365L89.9913 9.87737ZM92.0298 10.8977L93.706 11.3167L94.191 9.37645L92.5149 8.95741L92.0298 10.8977ZM93.7085 11.3174C94.4475 11.5001 94.8941 11.7702 95.1553 12.0569L96.6338 10.7101C96.0237 10.0404 95.173 9.61924 94.1885 9.37582L93.7085 11.3174ZM95.1586 12.0606C95.4074 12.331 95.5479 12.671 95.5479 13.152H97.5479C97.5479 12.222 97.2529 11.383 96.6305 10.7065L95.1586 12.0606ZM95.5479 13.152C95.5479 13.5602 95.441 13.8891 95.2402 14.1743L96.8755 15.3257C97.3282 14.6828 97.5479 13.9464 97.5479 13.152H95.5479ZM95.2402 14.1743C95.0282 14.4754 94.7243 14.7294 94.2904 14.925L95.1123 16.7483C95.8337 16.4231 96.4341 15.9526 96.8755 15.3257L95.2402 14.1743ZM94.2875 14.9263C93.8691 15.1165 93.3477 15.2273 92.6985 15.2273V17.2273C93.574 17.2273 94.3878 17.0776 95.1152 16.747L94.2875 14.9263ZM92.6985 15.2273C91.8357 15.2273 91.2209 15.0281 90.7782 14.7073L89.6046 16.3268C90.4688 16.953 91.5253 17.2273 92.6985 17.2273V15.2273ZM90.782 14.7101C90.3533 14.3963 90.0545 13.9411 89.9135 13.2614L87.9552 13.6676C88.1835 14.7682 88.7227 15.6813 89.6008 16.324L90.782 14.7101ZM89.1827 14.4332L90.0136 14.2201L89.5169 12.2828L88.6859 12.4958L89.1827 14.4332ZM88.7886 13.4663C88.9864 14.3654 89.4197 15.132 90.1334 15.6742L91.3432 14.0815C91.072 13.8755 90.8566 13.5579 90.7419 13.0366L88.7886 13.4663ZM90.142 15.6806C90.8569 16.2117 91.7361 16.4318 92.6914 16.4318V14.4318C92.0369 14.4318 91.6139 14.2826 91.3346 14.0751L90.142 15.6806ZM92.6914 16.4318C93.7377 16.4318 94.6902 16.1828 95.4554 15.5905L94.2314 14.0089C93.9076 14.2595 93.4254 14.4318 92.6914 14.4318V16.4318ZM95.4521 15.5931C96.2331 14.9939 96.6673 14.1677 96.6673 13.1804H94.6673C94.6673 13.5093 94.5521 13.7628 94.2347 14.0063L95.4521 15.5931ZM96.6673 13.1804C96.6673 12.4429 96.4219 11.7705 95.916 11.2275L94.4526 12.5907C94.5907 12.7389 94.6673 12.9141 94.6673 13.1804H96.6673ZM95.916 11.2275C95.4164 10.6911 94.7261 10.3668 93.9605 10.1782L93.482 12.1201C94.0232 12.2534 94.3083 12.4358 94.4526 12.5907L95.916 11.2275ZM93.9591 10.1779L92.219 9.75171L91.7433 11.6943L93.4834 12.1204L93.9591 10.1779ZM92.2188 9.75167C91.4449 9.56229 90.979 9.28632 90.7104 8.99769L89.2463 10.3603C89.8679 11.0281 90.7372 11.4481 91.7435 11.6944L92.2188 9.75167ZM90.7137 9.0013C90.4521 8.71743 90.3107 8.37104 90.3107 7.89631H88.3107C88.3107 8.83256 88.6144 9.67461 89.243 10.3567L90.7137 9.0013ZM90.3107 7.89631C90.3107 7.49427 90.4126 7.18038 90.5949 6.91677L88.9499 5.77926C88.5166 6.4058 88.3107 7.1241 88.3107 7.89631H90.3107ZM90.5949 6.91677C90.7915 6.63239 91.0702 6.39443 91.4653 6.21077L90.6221 4.39719C89.9376 4.71542 89.3688 5.17348 88.9499 5.77926L90.5949 6.91677ZM91.4653 6.21077C91.8524 6.03076 92.3225 5.92756 92.8974 5.92756V3.92756C92.0802 3.92756 91.3145 4.0753 90.6221 4.39719L91.4653 6.21077ZM92.8974 5.92756C93.6635 5.92756 94.1892 6.10672 94.5569 6.38175L95.7549 4.78018C94.9578 4.184 93.9778 3.92756 92.8974 3.92756V5.92756ZM94.5569 6.38175C94.9478 6.6741 95.2612 7.10834 95.4687 7.74958L97.3715 7.13394C97.0582 6.16533 96.5288 5.35904 95.7549 4.78018L94.5569 6.38175ZM106.536 5.09091V4.09091H105.536V5.09091H106.536ZM107.402 5.09091H108.402V4.09091H107.402V5.09091ZM107.402 16V17H108.402V16H107.402ZM106.536 16H105.536V17H106.536V16ZM106.536 14.2315H107.536V13.2315H106.536V14.2315ZM106.464 14.2315V13.2315H105.82L105.554 13.8183L106.464 14.2315ZM105.222 15.6094L104.695 14.7594L104.692 14.7614L105.222 15.6094ZM101.308 15.6733L101.803 14.8041L101.803 14.8041L101.308 15.6733ZM100.016 14.3452L99.1361 14.821L99.1377 14.824L100.016 14.3452ZM99.5469 5.09091V4.09091H98.5469V5.09091H99.5469ZM100.413 5.09091H101.413V4.09091H100.413V5.09091ZM101.237 14.4588L100.521 15.1569L100.527 15.1629L101.237 14.4588ZM104.952 14.9134L105.423 15.7952L105.423 15.7952L104.952 14.9134ZM106.102 13.8196L106.956 14.3404L106.958 14.3366L106.102 13.8196ZM107.536 12.1293V5.09091H105.536V12.1293H107.536ZM106.536 6.09091H107.402V4.09091H106.536V6.09091ZM106.402 5.09091V16H108.402V5.09091H106.402ZM107.402 15H106.536V17H107.402V15ZM107.536 16V14.2315H105.536V16H107.536ZM106.536 13.2315H106.464V15.2315H106.536V13.2315ZM105.554 13.8183C105.387 14.1852 105.115 14.4989 104.695 14.7594L105.748 16.4593C106.474 16.0096 107.03 15.4047 107.375 14.6448L105.554 13.8183ZM104.692 14.7614C104.306 15.0022 103.824 15.142 103.205 15.142V17.142C104.138 17.142 105.001 16.9268 105.752 16.4574L104.692 14.7614ZM103.205 15.142C102.64 15.142 102.182 15.0201 101.803 14.8041L100.814 16.5425C101.533 16.9515 102.339 17.142 103.205 17.142V15.142ZM101.803 14.8041C101.421 14.5867 101.12 14.2816 100.894 13.8663L99.1377 14.824C99.5362 15.5545 100.097 16.1349 100.814 16.5425L101.803 14.8041ZM100.895 13.8694C100.677 13.4657 100.547 12.9496 100.547 12.2855H98.5469C98.5469 13.2123 98.7295 14.0694 99.1361 14.821L100.895 13.8694ZM100.547 12.2855V5.09091H98.5469V12.2855H100.547ZM99.5469 6.09091H100.413V4.09091H99.5469V6.09091ZM99.4134 5.09091V12.25H101.413V5.09091H99.4134ZM99.4134 12.25C99.4134 13.3762 99.7615 14.3775 100.521 15.1568L101.953 13.7608C101.614 13.4132 101.413 12.942 101.413 12.25H99.4134ZM100.527 15.1629C101.291 15.9333 102.273 16.2969 103.382 16.2969V14.2969C102.74 14.2969 102.291 14.1018 101.947 13.7547L100.527 15.1629ZM103.382 16.2969C104.107 16.2969 104.793 16.1322 105.423 15.7952L104.48 14.0315C104.154 14.2059 103.794 14.2969 103.382 14.2969V16.2969ZM105.423 15.7952C106.062 15.4534 106.576 14.9625 106.956 14.3404L105.249 13.2988C105.05 13.6237 104.797 13.8619 104.48 14.0315L105.423 15.7952ZM106.958 14.3366C107.356 13.6787 107.536 12.9304 107.536 12.1293H105.536C105.536 12.6255 105.427 13.0041 105.246 13.3026L106.958 14.3366ZM112.15 15.858L111.716 16.7588L111.719 16.7604L112.15 15.858ZM110.893 14.7571L110.053 15.3004L110.057 15.3061L110.893 14.7571ZM110.665 11.7955L109.759 11.3732L109.759 11.3732L110.665 11.7955ZM111.411 10.9006L112.009 11.7019L112.009 11.7019L111.411 10.9006ZM112.704 10.2827L112.997 11.2389L113.005 11.2364L112.704 10.2827ZM114.586 9.89915L114.467 8.90622L114.463 8.90667L114.586 9.89915ZM116.07 9.70739L116.21 10.6976L116.221 10.696L116.07 9.70739ZM117.093 9.40199L116.613 8.5247L116.606 8.52862L117.093 9.40199ZM116.717 6.42614L116.034 7.15696L116.034 7.15696L116.717 6.42614ZM112.668 6.24148L113.209 7.08266L113.211 7.08145L112.668 6.24148ZM111.553 7.5625L111.203 8.49916L112.123 8.8431L112.483 7.92967L111.553 7.5625ZM110.737 7.2571L109.808 6.88571L109.428 7.8355L110.386 8.19377L110.737 7.2571ZM111.638 5.95739L110.983 5.20257L110.978 5.20649L111.638 5.95739ZM113.002 5.18324L112.689 4.23368L112.686 4.23456L113.002 5.18324ZM116.013 5.13352L115.716 6.08819L115.719 6.08908L116.013 5.13352ZM117.2 5.75852L116.571 6.53628L116.576 6.54042L117.2 5.75852ZM118.031 6.83097L117.125 7.25439L117.126 7.2582L118.031 6.83097ZM118.336 16V17H119.336V16H118.336ZM117.469 16H116.469V17H117.469V16ZM117.469 14.0327H118.469V13.0327H117.469V14.0327ZM117.406 14.0327V13.0327H116.768L116.499 13.6109L117.406 14.0327ZM116.624 15.1477L115.912 14.4457L115.912 14.4457L116.624 15.1477ZM115.438 15.9432L115.828 16.8643L115.832 16.8623L115.438 15.9432ZM115.779 14.9347L116.313 15.7805L116.315 15.7793L115.779 14.9347ZM117.022 13.5568L117.912 14.0127L117.912 14.0127L117.022 13.5568ZM117.469 9.97017H118.469V7.77541L116.813 9.21556L117.469 9.97017ZM116.994 10.2259L117.323 11.1701L117.335 11.1656L116.994 10.2259ZM116.298 10.4176L116.497 11.3976L116.511 11.3946L116.298 10.4176ZM115.488 10.5597L115.622 11.5507L115.636 11.5486L115.488 10.5597ZM114.671 10.6662L114.789 11.6592L114.795 11.6585L114.671 10.6662ZM112.725 11.1065L113.089 12.038L113.094 12.0362L112.725 11.1065ZM111.631 11.8736L110.824 11.2832L110.818 11.2912L111.631 11.8736ZM112.058 14.7855L111.413 15.5502L111.413 15.5502L112.058 14.7855ZM113.883 15.2344C113.39 15.2344 112.961 15.1371 112.581 14.9555L111.719 16.7604C112.39 17.0807 113.116 17.2344 113.883 17.2344V15.2344ZM112.584 14.9571C112.226 14.7848 111.946 14.5394 111.729 14.2081L110.057 15.3061C110.474 15.9407 111.032 16.4292 111.716 16.7588L112.584 14.9571ZM111.732 14.2139C111.544 13.9229 111.424 13.5336 111.424 12.9957H109.424C109.424 13.8405 109.616 14.6254 110.053 15.3004L111.732 14.2139ZM111.424 12.9957C111.424 12.6594 111.483 12.4081 111.572 12.2177L109.759 11.3732C109.526 11.8741 109.424 12.423 109.424 12.9957H111.424ZM111.572 12.2177C111.656 12.0366 111.792 11.8641 112.009 11.7019L110.813 10.0992C110.358 10.439 109.997 10.863 109.759 11.3732L111.572 12.2177ZM112.009 11.7019C112.23 11.5374 112.549 11.376 112.997 11.2388L112.411 9.32652C111.808 9.51131 111.265 9.76189 110.813 10.0992L112.009 11.7019ZM113.005 11.2364C113.456 11.0939 114.021 10.9764 114.708 10.8916L114.463 8.90667C113.692 9.0018 113.002 9.14002 112.403 9.32896L113.005 11.2364ZM114.705 10.8921C115.264 10.8251 115.766 10.7603 116.21 10.6975L115.93 8.71722C115.503 8.77756 115.016 8.84057 114.467 8.90623L114.705 10.8921ZM116.221 10.696C116.716 10.6207 117.188 10.4942 117.58 10.2754L116.606 8.52862C116.506 8.58439 116.296 8.66149 115.92 8.71877L116.221 10.696ZM117.573 10.2793C117.826 10.1407 118.063 9.93935 118.232 9.65868C118.402 9.37677 118.469 9.07095 118.469 8.77699H116.469C116.469 8.76238 116.474 8.70041 116.519 8.62683C116.539 8.59308 116.562 8.56719 116.581 8.54911C116.6 8.5316 116.613 8.52464 116.613 8.52473L117.573 10.2793ZM118.469 8.77699V8.32244H116.469V8.77699H118.469ZM118.469 8.32244C118.469 7.2979 118.136 6.38361 117.399 5.69531L116.034 7.15696C116.301 7.40616 116.469 7.75607 116.469 8.32244H118.469ZM117.399 5.69531C116.664 5.00886 115.703 4.72301 114.643 4.72301V6.72301C115.344 6.72301 115.765 6.90591 116.034 7.15696L117.399 5.69531ZM114.643 4.72301C113.713 4.72301 112.856 4.92993 112.126 5.40151L113.211 7.08145C113.551 6.86174 114.01 6.72301 114.643 6.72301V4.72301ZM112.128 5.4003C111.437 5.8442 110.92 6.44364 110.623 7.19533L112.483 7.92967C112.613 7.60181 112.839 7.32057 113.209 7.08266L112.128 5.4003ZM111.903 6.62584L111.087 6.32044L110.386 8.19377L111.203 8.49916L111.903 6.62584ZM111.665 7.62849C111.819 7.24273 112.032 6.94286 112.299 6.70828L110.978 5.20649C110.459 5.6632 110.07 6.22981 109.808 6.88571L111.665 7.62849ZM112.294 6.71219C112.59 6.45491 112.929 6.26172 113.318 6.13192L112.686 4.23456C112.053 4.44567 111.482 4.76857 110.983 5.20259L112.294 6.71219ZM113.316 6.13279C113.727 5.99697 114.161 5.92756 114.621 5.92756V3.92756C113.955 3.92756 113.309 4.0286 112.689 4.23369L113.316 6.13279ZM114.621 5.92756C115.014 5.92756 115.377 5.98261 115.716 6.08818L116.311 4.17886C115.769 4.00982 115.204 3.92756 114.621 3.92756V5.92756ZM115.719 6.08908C116.048 6.19072 116.329 6.34068 116.571 6.53626L117.828 4.98078C117.379 4.61765 116.869 4.35095 116.308 4.17796L115.719 6.08908ZM116.576 6.54042C116.797 6.71674 116.981 6.94803 117.125 7.25439L118.936 6.40754C118.672 5.84269 118.303 5.35902 117.823 4.97662L116.576 6.54042ZM117.126 7.2582C117.253 7.52527 117.336 7.88815 117.336 8.37926H119.336C119.336 7.66772 119.216 6.99841 118.935 6.40373L117.126 7.2582ZM117.336 8.37926V16H119.336V8.37926H117.336ZM118.336 15H117.469V17H118.336V15ZM118.469 16V14.0327H116.469V16H118.469ZM117.469 13.0327H117.406V15.0327H117.469V13.0327ZM116.499 13.6109C116.36 13.909 116.167 14.1869 115.912 14.4457L117.336 15.8498C117.744 15.4362 118.072 14.9707 118.312 14.4544L116.499 13.6109ZM115.912 14.4457C115.684 14.6773 115.399 14.8719 115.044 15.024L115.832 16.8623C116.405 16.6168 116.911 16.2811 117.336 15.8497L115.912 14.4457ZM115.049 15.0221C114.731 15.1565 114.348 15.2344 113.883 15.2344V17.2344C114.573 17.2344 115.227 17.1181 115.828 16.8643L115.049 15.0221ZM113.968 16.4318C114.82 16.4318 115.612 16.2224 116.313 15.7805L115.246 14.0888C114.895 14.3098 114.48 14.4318 113.968 14.4318V16.4318ZM116.315 15.7793C117.002 15.3434 117.536 14.747 117.912 14.0127L116.132 13.1009C115.911 13.5314 115.617 13.8536 115.244 14.0901L116.315 15.7793ZM117.912 14.0127C118.291 13.2719 118.469 12.4518 118.469 11.5753H116.469C116.469 12.176 116.349 12.6769 116.132 13.1009L117.912 14.0127ZM118.469 11.5753V9.97017H116.469V11.5753H118.469ZM116.813 9.21556C116.827 9.2039 116.825 9.20852 116.796 9.22422C116.767 9.23957 116.721 9.26103 116.652 9.28606L117.335 11.1656C117.604 11.0681 117.888 10.9312 118.126 10.7248L116.813 9.21556ZM116.664 9.28165C116.506 9.33674 116.314 9.39045 116.084 9.4406L116.511 11.3946C116.802 11.3311 117.074 11.257 117.323 11.1701L116.664 9.28165ZM116.098 9.43774C115.861 9.48603 115.608 9.53043 115.34 9.57072L115.636 11.5486C115.936 11.5037 116.223 11.4534 116.497 11.3975L116.098 9.43774ZM115.354 9.56873C115.077 9.60616 114.809 9.64122 114.547 9.67392L114.795 11.6585C115.064 11.6249 115.34 11.5889 115.622 11.5506L115.354 9.56873ZM114.553 9.6732C113.709 9.77369 112.968 9.93485 112.357 10.1769L113.094 12.0362C113.487 11.8805 114.043 11.7481 114.789 11.6592L114.553 9.6732ZM112.361 10.175C111.748 10.4144 111.202 10.7666 110.824 11.2833L112.439 12.4639C112.525 12.3461 112.707 12.187 113.089 12.038L112.361 10.175ZM110.818 11.2912C110.452 11.8033 110.29 12.3985 110.29 13.0241H112.29C112.29 12.7502 112.357 12.5784 112.444 12.456L110.818 11.2912ZM110.29 13.0241C110.29 14.0253 110.649 14.9067 111.413 15.5502L112.702 14.0208C112.443 13.8026 112.29 13.5098 112.29 13.0241H110.29ZM111.413 15.5502C112.13 16.1542 113.005 16.4318 113.968 16.4318V14.4318C113.407 14.4318 113.008 14.2786 112.702 14.0208L111.413 15.5502ZM122.835 1.45455H123.835V0.454545H122.835V1.45455ZM122.835 16V17H123.835V16H122.835ZM121.969 16H120.969V17H121.969V16ZM121.969 1.45455V0.454545H120.969V1.45455H121.969ZM121.835 1.45455V16H123.835V1.45455H121.835ZM122.835 15H121.969V17H122.835V15ZM122.969 16V1.45455H120.969V16H122.969ZM121.969 2.45455H122.835V0.454545H121.969V2.45455Z" fill="black" mask="url(#path-1-outside-1_86_11037)"/>
</svg>
